<svg width="1409" height="149" viewBox="0 0 1409 149" fill="none" xmlns="http://www.w3.org/2000/svg">
<path d="M30 74.505H1389" stroke="#3D5AF1" stroke-width="0.989466"/>
<path d="M1003.21 37.4882V39.5222H997.975V42.744H1001.99V44.742H997.975V50.052H995.455V37.4882H1003.21ZM1009.43 50.214C1008.47 50.214 1007.6 50.004 1006.84 49.584C1006.07 49.152 1005.46 48.546 1005.02 47.766C1004.59 46.986 1004.37 46.086 1004.37 45.066C1004.37 44.046 1004.59 43.146 1005.04 42.366C1005.49 41.586 1006.11 40.9862 1006.89 40.5662C1007.67 40.1342 1008.54 39.9182 1009.5 39.9182C1010.46 39.9182 1011.33 40.1342 1012.11 40.5662C1012.89 40.9862 1013.5 41.586 1013.95 42.366C1014.4 43.146 1014.63 44.046 1014.63 45.066C1014.63 46.086 1014.4 46.986 1013.93 47.766C1013.47 48.546 1012.85 49.152 1012.06 49.584C1011.28 50.004 1010.4 50.214 1009.43 50.214ZM1009.43 48.018C1009.88 48.018 1010.31 47.91 1010.71 47.694C1011.11 47.466 1011.44 47.13 1011.68 46.686C1011.92 46.242 1012.04 45.702 1012.04 45.066C1012.04 44.118 1011.79 43.392 1011.28 42.888C1010.79 42.372 1010.18 42.114 1009.46 42.114C1008.74 42.114 1008.14 42.372 1007.65 42.888C1007.17 43.392 1006.93 44.118 1006.93 45.066C1006.93 46.014 1007.16 46.746 1007.63 47.262C1008.11 47.766 1008.71 48.018 1009.43 48.018ZM1019 41.628C1019.32 41.1 1019.74 40.6862 1020.26 40.3862C1020.79 40.0862 1021.39 39.9362 1022.06 39.9362V42.582H1021.39C1020.6 42.582 1020 42.768 1019.59 43.14C1019.2 43.512 1019 44.16 1019 45.084V50.052H1016.48V40.0802H1019V41.628ZM1027.66 39.9182C1028.41 39.9182 1029.06 40.0682 1029.62 40.3682C1030.19 40.6562 1030.63 41.034 1030.96 41.502V40.0802H1033.49V50.124C1033.49 51.048 1033.31 51.87 1032.94 52.59C1032.56 53.322 1032.01 53.898 1031.26 54.318C1030.52 54.75 1029.62 54.966 1028.56 54.966C1027.15 54.966 1025.98 54.636 1025.07 53.976C1024.17 53.316 1023.66 52.416 1023.54 51.276H1026.04C1026.17 51.732 1026.46 52.092 1026.89 52.356C1027.33 52.632 1027.87 52.77 1028.49 52.77C1029.22 52.77 1029.82 52.548 1030.27 52.104C1030.73 51.672 1030.96 51.012 1030.96 50.124V48.576C1030.63 49.044 1030.18 49.434 1029.61 49.746C1029.04 50.058 1028.39 50.214 1027.66 50.214C1026.82 50.214 1026.05 49.998 1025.36 49.566C1024.66 49.134 1024.11 48.528 1023.7 47.748C1023.31 46.956 1023.11 46.05 1023.11 45.03C1023.11 44.022 1023.31 43.128 1023.7 42.348C1024.11 41.568 1024.66 40.9682 1025.34 40.5482C1026.04 40.1282 1026.81 39.9182 1027.66 39.9182ZM1030.96 45.066C1030.96 44.454 1030.84 43.932 1030.6 43.5C1030.36 43.056 1030.03 42.72 1029.62 42.492C1029.22 42.252 1028.78 42.132 1028.31 42.132C1027.84 42.132 1027.41 42.246 1027.01 42.474C1026.62 42.702 1026.29 43.038 1026.04 43.482C1025.8 43.914 1025.68 44.43 1025.68 45.03C1025.68 45.63 1025.8 46.158 1026.04 46.614C1026.29 47.058 1026.62 47.4 1027.01 47.64C1027.42 47.88 1027.85 48 1028.31 48C1028.78 48 1029.22 47.886 1029.62 47.658C1030.03 47.418 1030.36 47.082 1030.6 46.65C1030.84 46.206 1030.96 45.678 1030.96 45.066ZM1045.22 44.85C1045.22 45.21 1045.2 45.534 1045.15 45.822H1037.86C1037.92 46.542 1038.17 47.106 1038.62 47.514C1039.06 47.922 1039.61 48.126 1040.26 48.126C1041.19 48.126 1041.86 47.724 1042.25 46.92H1044.97C1044.68 47.88 1044.13 48.672 1043.32 49.296C1042.5 49.908 1041.5 50.214 1040.31 50.214C1039.35 50.214 1038.49 50.004 1037.72 49.584C1036.96 49.152 1036.37 48.546 1035.94 47.766C1035.52 46.986 1035.31 46.086 1035.31 45.066C1035.31 44.034 1035.52 43.128 1035.94 42.348C1036.36 41.568 1036.94 40.9682 1037.7 40.5482C1038.46 40.1282 1039.33 39.9182 1040.31 39.9182C1041.26 39.9182 1042.1 40.1222 1042.85 40.5302C1043.6 40.9382 1044.19 41.52 1044.59 42.276C1045.01 43.02 1045.22 43.878 1045.22 44.85ZM1042.61 44.13C1042.6 43.482 1042.37 42.966 1041.91 42.582C1041.46 42.186 1040.9 41.988 1040.24 41.988C1039.61 41.988 1039.09 42.18 1038.65 42.564C1038.23 42.936 1037.98 43.458 1037.88 44.13H1042.61ZM1050 42.15V46.974C1050 47.31 1050.08 47.556 1050.23 47.712C1050.4 47.856 1050.68 47.928 1051.06 47.928H1052.23V50.052H1050.65C1048.52 50.052 1047.46 49.02 1047.46 46.956V42.15H1046.27V40.0802H1047.46V37.6142H1050V40.0802H1052.23V42.15H1050ZM1067.49 41.376C1067.49 42.048 1067.33 42.678 1067.01 43.266C1066.7 43.854 1066.2 44.328 1065.51 44.688C1064.84 45.048 1063.99 45.228 1062.96 45.228H1060.85V50.052H1058.33V37.4882H1062.96C1063.93 37.4882 1064.76 37.6562 1065.44 37.9922C1066.13 38.3282 1066.64 38.7902 1066.97 39.3782C1067.32 39.9662 1067.49 40.6322 1067.49 41.376ZM1062.85 43.194C1063.55 43.194 1064.06 43.038 1064.4 42.726C1064.73 42.402 1064.9 41.952 1064.9 41.376C1064.9 40.1522 1064.22 39.5402 1062.85 39.5402H1060.85V43.194H1062.85ZM1068.63 45.03C1068.63 44.022 1068.83 43.128 1069.23 42.348C1069.64 41.568 1070.18 40.9682 1070.87 40.5482C1071.56 40.1282 1072.34 39.9182 1073.19 39.9182C1073.93 39.9182 1074.58 40.0682 1075.13 40.3682C1075.7 40.6682 1076.15 41.046 1076.48 41.502V40.0802H1079.02V50.052H1076.48V48.594C1076.16 49.062 1075.71 49.452 1075.13 49.764C1074.57 50.064 1073.91 50.214 1073.17 50.214C1072.33 50.214 1071.56 49.998 1070.87 49.566C1070.18 49.134 1069.64 48.528 1069.23 47.748C1068.83 46.956 1068.63 46.05 1068.63 45.03ZM1076.48 45.066C1076.48 44.454 1076.36 43.932 1076.12 43.5C1075.88 43.056 1075.56 42.72 1075.15 42.492C1074.74 42.252 1074.3 42.132 1073.84 42.132C1073.37 42.132 1072.94 42.246 1072.54 42.474C1072.14 42.702 1071.82 43.038 1071.57 43.482C1071.33 43.914 1071.21 44.43 1071.21 45.03C1071.21 45.63 1071.33 46.158 1071.57 46.614C1071.82 47.058 1072.14 47.4 1072.54 47.64C1072.95 47.88 1073.38 48 1073.84 48C1074.3 48 1074.74 47.886 1075.15 47.658C1075.56 47.418 1075.88 47.082 1076.12 46.65C1076.36 46.206 1076.48 45.678 1076.48 45.066ZM1085.3 50.214C1084.48 50.214 1083.75 50.07 1083.1 49.782C1082.45 49.482 1081.94 49.08 1081.55 48.576C1081.18 48.072 1080.98 47.514 1080.94 46.902H1083.48C1083.53 47.286 1083.71 47.604 1084.04 47.856C1084.37 48.108 1084.79 48.234 1085.28 48.234C1085.76 48.234 1086.13 48.138 1086.4 47.946C1086.67 47.754 1086.81 47.508 1086.81 47.208C1086.81 46.884 1086.64 46.644 1086.31 46.488C1085.98 46.32 1085.46 46.14 1084.74 45.948C1084 45.768 1083.38 45.582 1082.9 45.39C1082.44 45.198 1082.03 44.904 1081.68 44.508C1081.34 44.112 1081.18 43.578 1081.18 42.906C1081.18 42.354 1081.33 41.85 1081.64 41.394C1081.97 40.9382 1082.42 40.5782 1083.01 40.3142C1083.61 40.0502 1084.31 39.9182 1085.12 39.9182C1086.31 39.9182 1087.25 40.2182 1087.96 40.8182C1088.67 41.406 1089.06 42.204 1089.13 43.212H1086.72C1086.68 42.816 1086.52 42.504 1086.22 42.276C1085.93 42.036 1085.54 41.916 1085.05 41.916C1084.59 41.916 1084.24 42 1083.98 42.168C1083.74 42.336 1083.62 42.57 1083.62 42.87C1083.62 43.206 1083.79 43.464 1084.13 43.644C1084.46 43.812 1084.99 43.986 1085.69 44.166C1086.41 44.346 1087.01 44.532 1087.48 44.724C1087.94 44.916 1088.35 45.216 1088.68 45.624C1089.03 46.02 1089.21 46.548 1089.22 47.208C1089.22 47.784 1089.06 48.3 1088.74 48.756C1088.42 49.212 1087.97 49.572 1087.37 49.836C1086.78 50.088 1086.09 50.214 1085.3 50.214ZM1095.11 50.214C1094.29 50.214 1093.56 50.07 1092.91 49.782C1092.26 49.482 1091.75 49.08 1091.36 48.576C1090.99 48.072 1090.79 47.514 1090.75 46.902H1093.29C1093.34 47.286 1093.52 47.604 1093.85 47.856C1094.18 48.108 1094.6 48.234 1095.09 48.234C1095.57 48.234 1095.94 48.138 1096.2 47.946C1096.48 47.754 1096.62 47.508 1096.62 47.208C1096.62 46.884 1096.45 46.644 1096.11 46.488C1095.79 46.32 1095.27 46.14 1094.55 45.948C1093.8 45.768 1093.19 45.582 1092.71 45.39C1092.24 45.198 1091.84 44.904 1091.49 44.508C1091.15 44.112 1090.98 43.578 1090.98 42.906C1090.98 42.354 1091.14 41.85 1091.45 41.394C1091.78 40.9382 1092.23 40.5782 1092.82 40.3142C1093.42 40.0502 1094.12 39.9182 1094.93 39.9182C1096.11 39.9182 1097.06 40.2182 1097.77 40.8182C1098.48 41.406 1098.87 42.204 1098.94 43.212H1096.53C1096.49 42.816 1096.32 42.504 1096.02 42.276C1095.74 42.036 1095.35 41.916 1094.85 41.916C1094.4 41.916 1094.04 42 1093.79 42.168C1093.55 42.336 1093.43 42.57 1093.43 42.87C1093.43 43.206 1093.6 43.464 1093.94 43.644C1094.27 43.812 1094.79 43.986 1095.5 44.166C1096.22 44.346 1096.82 44.532 1097.28 44.724C1097.75 44.916 1098.15 45.216 1098.49 45.624C1098.84 46.02 1099.02 46.548 1099.03 47.208C1099.03 47.784 1098.87 48.3 1098.54 48.756C1098.23 49.212 1097.78 49.572 1097.18 49.836C1096.59 50.088 1095.9 50.214 1095.11 50.214ZM1114.92 40.0802L1112.01 50.052H1109.29L1107.47 43.086L1105.65 50.052H1102.92L1099.98 40.0802H1102.54L1104.3 47.676L1106.21 40.0802H1108.88L1110.75 47.658L1112.51 40.0802H1114.92ZM1120.71 50.214C1119.75 50.214 1118.89 50.004 1118.12 49.584C1117.35 49.152 1116.75 48.546 1116.3 47.766C1115.87 46.986 1115.66 46.086 1115.66 45.066C1115.66 44.046 1115.88 43.146 1116.32 42.366C1116.78 41.586 1117.4 40.9862 1118.18 40.5662C1118.96 40.1342 1119.83 39.9182 1120.79 39.9182C1121.75 39.9182 1122.62 40.1342 1123.4 40.5662C1124.18 40.9862 1124.79 41.586 1125.23 42.366C1125.69 43.146 1125.92 44.046 1125.92 45.066C1125.92 46.086 1125.68 46.986 1125.21 47.766C1124.76 48.546 1124.13 49.152 1123.34 49.584C1122.56 50.004 1121.69 50.214 1120.71 50.214ZM1120.71 48.018C1121.17 48.018 1121.6 47.91 1121.99 47.694C1122.4 47.466 1122.72 47.13 1122.96 46.686C1123.2 46.242 1123.32 45.702 1123.32 45.066C1123.32 44.118 1123.07 43.392 1122.57 42.888C1122.08 42.372 1121.47 42.114 1120.75 42.114C1120.03 42.114 1119.42 42.372 1118.93 42.888C1118.45 43.392 1118.21 44.118 1118.21 45.066C1118.21 46.014 1118.45 46.746 1118.91 47.262C1119.39 47.766 1119.99 48.018 1120.71 48.018ZM1130.29 41.628C1130.61 41.1 1131.03 40.6862 1131.55 40.3862C1132.07 40.0862 1132.67 39.9362 1133.35 39.9362V42.582H1132.68C1131.89 42.582 1131.29 42.768 1130.88 43.14C1130.48 43.512 1130.29 44.16 1130.29 45.084V50.052H1127.77V40.0802H1130.29V41.628ZM1134.39 45.03C1134.39 44.022 1134.59 43.128 1134.99 42.348C1135.4 41.568 1135.95 40.9682 1136.64 40.5482C1137.34 40.1282 1138.11 39.9182 1138.97 39.9182C1139.61 39.9182 1140.23 40.0622 1140.82 40.3502C1141.41 40.6262 1141.88 40.9982 1142.22 41.466V36.7322H1144.78V50.052H1142.22V48.576C1141.91 49.068 1141.47 49.464 1140.91 49.764C1140.35 50.064 1139.69 50.214 1138.95 50.214C1138.11 50.214 1137.34 49.998 1136.64 49.566C1135.95 49.134 1135.4 48.528 1134.99 47.748C1134.59 46.956 1134.39 46.05 1134.39 45.03ZM1142.24 45.066C1142.24 44.454 1142.12 43.932 1141.88 43.5C1141.64 43.056 1141.32 42.72 1140.91 42.492C1140.5 42.252 1140.06 42.132 1139.6 42.132C1139.13 42.132 1138.7 42.246 1138.3 42.474C1137.9 42.702 1137.58 43.038 1137.33 43.482C1137.09 43.914 1136.97 44.43 1136.97 45.03C1136.97 45.63 1137.09 46.158 1137.33 46.614C1137.58 47.058 1137.9 47.4 1138.3 47.64C1138.71 47.88 1139.14 48 1139.6 48C1140.06 48 1140.5 47.886 1140.91 47.658C1141.32 47.418 1141.64 47.082 1141.88 46.65C1142.12 46.206 1142.24 45.678 1142.24 45.066Z" fill="#048BC4"/>
<path d="M1070.11 142.476C1068.65 142.476 1067.47 143.657 1067.47 145.115C1067.47 146.572 1068.65 147.753 1070.11 147.753C1071.56 147.753 1072.75 146.572 1072.75 145.115C1072.75 143.657 1071.56 142.476 1070.11 142.476ZM1069.61 96.631V145.115H1070.6V96.631H1069.61Z" fill="#DCDCDC"/>
<path d="M1081.49 73.59C1081.49 80.148 1076.17 85.464 1069.61 85.464C1063.05 85.464 1057.74 80.148 1057.74 73.59C1057.74 67.033 1063.05 61.717 1069.61 61.717C1076.17 61.717 1081.49 67.033 1081.49 73.59ZM1060.11 73.59C1060.11 78.836 1064.37 83.089 1069.61 83.089C1074.86 83.089 1079.11 78.836 1079.11 73.59C1079.11 68.344 1074.86 64.092 1069.61 64.092C1064.37 64.092 1060.11 68.344 1060.11 73.59Z" fill="#1AB6F7"/>
<path d="M1069.61 80.5163C1073.44 80.5163 1076.54 77.4153 1076.54 73.59C1076.54 69.7647 1073.44 66.6637 1069.61 66.6637C1065.78 66.6637 1062.68 69.7647 1062.68 73.59C1062.68 77.4153 1065.78 80.5163 1069.61 80.5163Z" fill="#1AB6F7"/>
<path d="M491.424 51.042L488.652 46.146H487.464V51.042H484.944V38.4775H489.66C490.632 38.4775 491.46 38.6515 492.144 38.9995C492.828 39.3355 493.338 39.7975 493.674 40.3855C494.022 40.9615 494.196 41.61 494.196 42.33C494.196 43.158 493.956 43.908 493.476 44.58C492.996 45.24 492.282 45.696 491.334 45.948L494.34 51.042H491.424ZM487.464 44.256H489.57C490.254 44.256 490.764 44.094 491.1 43.77C491.436 43.434 491.604 42.972 491.604 42.384C491.604 41.808 491.436 41.364 491.1 41.052C490.764 40.7275 490.254 40.5655 489.57 40.5655H487.464V44.256ZM505.745 45.84C505.745 46.2 505.721 46.524 505.673 46.812H498.383C498.443 47.532 498.695 48.096 499.139 48.504C499.583 48.912 500.129 49.116 500.777 49.116C501.713 49.116 502.379 48.714 502.775 47.91H505.493C505.205 48.87 504.653 49.662 503.837 50.286C503.021 50.898 502.019 51.204 500.831 51.204C499.871 51.204 499.007 50.994 498.239 50.574C497.483 50.142 496.889 49.536 496.457 48.756C496.037 47.976 495.827 47.076 495.827 46.056C495.827 45.024 496.037 44.118 496.457 43.338C496.877 42.558 497.465 41.958 498.221 41.538C498.977 41.118 499.847 40.9075 500.831 40.9075C501.779 40.9075 502.625 41.112 503.369 41.52C504.125 41.928 504.707 42.51 505.115 43.266C505.535 44.01 505.745 44.868 505.745 45.84ZM503.135 45.12C503.123 44.472 502.889 43.956 502.433 43.572C501.977 43.176 501.419 42.978 500.759 42.978C500.135 42.978 499.607 43.17 499.175 43.554C498.755 43.926 498.497 44.448 498.401 45.12H503.135ZM511.4 51.204C510.584 51.204 509.852 51.06 509.204 50.772C508.556 50.472 508.04 50.07 507.656 49.566C507.284 49.062 507.08 48.504 507.044 47.892H509.582C509.63 48.276 509.816 48.594 510.14 48.846C510.476 49.098 510.89 49.224 511.382 49.224C511.862 49.224 512.234 49.128 512.498 48.936C512.774 48.744 512.912 48.498 512.912 48.198C512.912 47.874 512.744 47.634 512.408 47.478C512.084 47.31 511.562 47.13 510.842 46.938C510.098 46.758 509.486 46.572 509.006 46.38C508.538 46.188 508.13 45.894 507.782 45.498C507.446 45.102 507.278 44.568 507.278 43.896C507.278 43.344 507.434 42.84 507.746 42.384C508.07 41.928 508.526 41.568 509.114 41.304C509.714 41.04 510.416 40.9075 511.22 40.9075C512.408 40.9075 513.356 41.208 514.064 41.808C514.772 42.396 515.162 43.194 515.234 44.202H512.822C512.786 43.806 512.618 43.494 512.318 43.266C512.03 43.026 511.64 42.906 511.148 42.906C510.692 42.906 510.338 42.99 510.086 43.158C509.846 43.326 509.726 43.56 509.726 43.86C509.726 44.196 509.894 44.454 510.23 44.634C510.566 44.802 511.088 44.976 511.796 45.156C512.516 45.336 513.11 45.522 513.578 45.714C514.046 45.906 514.448 46.206 514.784 46.614C515.132 47.01 515.312 47.538 515.324 48.198C515.324 48.774 515.162 49.29 514.838 49.746C514.526 50.202 514.07 50.562 513.47 50.826C512.882 51.078 512.192 51.204 511.4 51.204ZM526.807 41.07V51.042H524.269V49.782C523.945 50.214 523.519 50.556 522.991 50.808C522.475 51.048 521.911 51.168 521.299 51.168C520.519 51.168 519.829 51.006 519.229 50.682C518.629 50.346 518.155 49.86 517.807 49.224C517.471 48.576 517.303 47.808 517.303 46.92V41.07H519.823V46.56C519.823 47.352 520.021 47.964 520.417 48.396C520.813 48.816 521.353 49.026 522.037 49.026C522.733 49.026 523.279 48.816 523.675 48.396C524.071 47.964 524.269 47.352 524.269 46.56V41.07H526.807ZM541.677 40.9255C542.901 40.9255 543.885 41.304 544.629 42.06C545.385 42.804 545.763 43.848 545.763 45.192V51.042H543.243V45.534C543.243 44.754 543.045 44.16 542.649 43.752C542.253 43.332 541.713 43.122 541.029 43.122C540.345 43.122 539.799 43.332 539.391 43.752C538.995 44.16 538.797 44.754 538.797 45.534V51.042H536.277V45.534C536.277 44.754 536.079 44.16 535.683 43.752C535.287 43.332 534.747 43.122 534.063 43.122C533.367 43.122 532.815 43.332 532.407 43.752C532.011 44.16 531.813 44.754 531.813 45.534V51.042H529.293V41.07H531.813V42.276C532.137 41.856 532.551 41.526 533.055 41.286C533.571 41.046 534.135 40.9255 534.747 40.9255C535.527 40.9255 536.223 41.094 536.835 41.43C537.447 41.754 537.921 42.222 538.257 42.834C538.581 42.258 539.049 41.796 539.661 41.448C540.285 41.1 540.957 40.9255 541.677 40.9255ZM557.425 45.84C557.425 46.2 557.401 46.524 557.353 46.812H550.063C550.123 47.532 550.375 48.096 550.819 48.504C551.263 48.912 551.809 49.116 552.457 49.116C553.393 49.116 554.059 48.714 554.455 47.91H557.173C556.885 48.87 556.333 49.662 555.517 50.286C554.701 50.898 553.699 51.204 552.511 51.204C551.551 51.204 550.687 50.994 549.919 50.574C549.163 50.142 548.569 49.536 548.137 48.756C547.717 47.976 547.507 47.076 547.507 46.056C547.507 45.024 547.717 44.118 548.137 43.338C548.557 42.558 549.145 41.958 549.901 41.538C550.657 41.118 551.527 40.9075 552.511 40.9075C553.459 40.9075 554.305 41.112 555.049 41.52C555.805 41.928 556.387 42.51 556.795 43.266C557.215 44.01 557.425 44.868 557.425 45.84ZM554.815 45.12C554.803 44.472 554.569 43.956 554.113 43.572C553.657 43.176 553.099 42.978 552.439 42.978C551.815 42.978 551.287 43.17 550.855 43.554C550.435 43.926 550.177 44.448 550.081 45.12H554.815ZM572.103 38.4775V40.5115H568.755V51.042H566.235V40.5115H562.887V38.4775H572.103ZM575.22 39.8815C574.776 39.8815 574.404 39.7435 574.104 39.4675C573.816 39.1795 573.672 38.8255 573.672 38.4055C573.672 37.9855 573.816 37.6375 574.104 37.3615C574.404 37.0735 574.776 36.9295 575.22 36.9295C575.664 36.9295 576.03 37.0735 576.318 37.3615C576.618 37.6375 576.768 37.9855 576.768 38.4055C576.768 38.8255 576.618 39.1795 576.318 39.4675C576.03 39.7435 575.664 39.8815 575.22 39.8815ZM576.462 41.07V51.042H573.942V41.07H576.462ZM591.336 40.9255C592.56 40.9255 593.544 41.304 594.288 42.06C595.044 42.804 595.422 43.848 595.422 45.192V51.042H592.902V45.534C592.902 44.754 592.704 44.16 592.308 43.752C591.912 43.332 591.372 43.122 590.688 43.122C590.004 43.122 589.458 43.332 589.05 43.752C588.654 44.16 588.456 44.754 588.456 45.534V51.042H585.936V45.534C585.936 44.754 585.738 44.16 585.342 43.752C584.946 43.332 584.406 43.122 583.722 43.122C583.026 43.122 582.474 43.332 582.066 43.752C581.67 44.16 581.472 44.754 581.472 45.534V51.042H578.952V41.07H581.472V42.276C581.796 41.856 582.21 41.526 582.714 41.286C583.23 41.046 583.794 40.9255 584.406 40.9255C585.186 40.9255 585.882 41.094 586.494 41.43C587.106 41.754 587.58 42.222 587.916 42.834C588.24 42.258 588.708 41.796 589.32 41.448C589.944 41.1 590.616 40.9255 591.336 40.9255ZM607.083 45.84C607.083 46.2 607.059 46.524 607.011 46.812H599.721C599.781 47.532 600.033 48.096 600.477 48.504C600.921 48.912 601.467 49.116 602.115 49.116C603.051 49.116 603.717 48.714 604.113 47.91H606.831C606.543 48.87 605.991 49.662 605.175 50.286C604.359 50.898 603.357 51.204 602.169 51.204C601.209 51.204 600.345 50.994 599.577 50.574C598.821 50.142 598.227 49.536 597.795 48.756C597.375 47.976 597.165 47.076 597.165 46.056C597.165 45.024 597.375 44.118 597.795 43.338C598.215 42.558 598.803 41.958 599.559 41.538C600.315 41.118 601.185 40.9075 602.169 40.9075C603.117 40.9075 603.963 41.112 604.707 41.52C605.463 41.928 606.045 42.51 606.453 43.266C606.873 44.01 607.083 44.868 607.083 45.84ZM604.473 45.12C604.461 44.472 604.227 43.956 603.771 43.572C603.315 43.176 602.757 42.978 602.097 42.978C601.473 42.978 600.945 43.17 600.513 43.554C600.093 43.926 599.835 44.448 599.739 45.12H604.473Z" fill="#048BC4"/>
<path d="M545.691 143.465C544.234 143.465 543.053 144.647 543.053 146.104C543.053 147.561 544.234 148.743 545.691 148.743C547.149 148.743 548.33 147.561 548.33 146.104C548.33 144.647 547.149 143.465 545.691 143.465ZM545.197 97.62V146.104H546.186V97.62H545.197Z" fill="#DCDCDC"/>
<path d="M557.069 74.577C557.069 81.134 551.753 86.45 545.196 86.45C538.638 86.45 533.322 81.134 533.322 74.577C533.322 68.019 538.638 62.703 545.196 62.703C551.753 62.703 557.069 68.019 557.069 74.577ZM535.697 74.577C535.697 79.823 539.95 84.076 545.196 84.076C550.442 84.076 554.695 79.823 554.695 74.577C554.695 69.331 550.442 65.078 545.196 65.078C539.95 65.078 535.697 69.331 535.697 74.577Z" fill="#1AB6F7"/>
<path d="M545.196 81.5033C549.021 81.5033 552.122 78.4023 552.122 74.577C552.122 70.7517 549.021 67.6507 545.196 67.6507C541.371 67.6507 538.27 70.7517 538.27 74.577C538.27 78.4023 541.371 81.5033 545.196 81.5033Z" fill="#1AB6F7"/>
<path d="M804.932 0.413696C803.474 0.413696 802.293 1.595 802.293 3.0522C802.293 4.5095 803.474 5.6908 804.932 5.6908C806.389 5.6908 807.57 4.5095 807.57 3.0522C807.57 1.595 806.389 0.413696 804.932 0.413696ZM804.437 3.0522V51.536H805.426V3.0522H804.437Z" fill="#DCDCDC"/>
<path d="M767.024 100.585V103.735H771.254V105.733H767.024V109.063H771.794V111.115H764.504V98.533H771.794V100.585H767.024ZM779.61 100.999C780.798 100.999 781.758 101.377 782.49 102.133C783.222 102.877 783.588 103.921 783.588 105.265V111.115H781.068V105.607C781.068 104.815 780.87 104.209 780.474 103.789C780.078 103.357 779.538 103.141 778.854 103.141C778.158 103.141 777.606 103.357 777.198 103.789C776.802 104.209 776.604 104.815 776.604 105.607V111.115H774.084V101.143H776.604V102.385C776.94 101.953 777.366 101.617 777.882 101.377C778.41 101.125 778.986 100.999 779.61 100.999ZM785.337 106.093C785.337 105.085 785.535 104.191 785.931 103.411C786.339 102.631 786.891 102.031 787.587 101.611C788.283 101.191 789.057 100.981 789.909 100.981C790.557 100.981 791.175 101.125 791.763 101.413C792.351 101.689 792.819 102.061 793.167 102.529V97.795H795.723V111.115H793.167V109.639C792.855 110.131 792.417 110.527 791.853 110.827C791.289 111.127 790.635 111.277 789.891 111.277C789.051 111.277 788.283 111.061 787.587 110.629C786.891 110.197 786.339 109.591 785.931 108.811C785.535 108.019 785.337 107.113 785.337 106.093ZM793.185 106.129C793.185 105.517 793.065 104.995 792.825 104.563C792.585 104.119 792.261 103.783 791.853 103.555C791.445 103.315 791.007 103.195 790.539 103.195C790.071 103.195 789.639 103.309 789.243 103.537C788.847 103.765 788.523 104.101 788.271 104.545C788.031 104.977 787.911 105.493 787.911 106.093C787.911 106.693 788.031 107.221 788.271 107.677C788.523 108.121 788.847 108.463 789.243 108.703C789.651 108.943 790.083 109.063 790.539 109.063C791.007 109.063 791.445 108.949 791.853 108.721C792.261 108.481 792.585 108.145 792.825 107.713C793.065 107.269 793.185 106.741 793.185 106.129ZM811.023 98.551V100.585H807.675V111.115H805.155V100.585H801.807V98.551H811.023ZM814.14 99.955C813.696 99.955 813.324 99.817 813.024 99.541C812.736 99.253 812.592 98.899 812.592 98.479C812.592 98.059 812.736 97.711 813.024 97.435C813.324 97.147 813.696 97.003 814.14 97.003C814.584 97.003 814.95 97.147 815.238 97.435C815.538 97.711 815.688 98.059 815.688 98.479C815.688 98.899 815.538 99.253 815.238 99.541C814.95 99.817 814.584 99.955 814.14 99.955ZM815.382 101.143V111.115H812.862V101.143H815.382ZM830.256 100.999C831.48 100.999 832.464 101.377 833.208 102.133C833.964 102.877 834.342 103.921 834.342 105.265V111.115H831.822V105.607C831.822 104.827 831.624 104.233 831.228 103.825C830.832 103.405 830.292 103.195 829.608 103.195C828.924 103.195 828.378 103.405 827.97 103.825C827.574 104.233 827.376 104.827 827.376 105.607V111.115H824.856V105.607C824.856 104.827 824.658 104.233 824.262 103.825C823.866 103.405 823.326 103.195 822.642 103.195C821.946 103.195 821.394 103.405 820.986 103.825C820.59 104.233 820.392 104.827 820.392 105.607V111.115H817.872V101.143H820.392V102.349C820.716 101.929 821.13 101.599 821.634 101.359C822.15 101.119 822.714 100.999 823.326 100.999C824.106 100.999 824.802 101.167 825.414 101.503C826.026 101.827 826.5 102.295 826.836 102.907C827.16 102.331 827.628 101.869 828.24 101.521C828.864 101.173 829.536 100.999 830.256 100.999ZM846.003 105.913C846.003 106.273 845.979 106.597 845.931 106.885H838.641C838.701 107.605 838.953 108.169 839.397 108.577C839.841 108.985 840.387 109.189 841.035 109.189C841.971 109.189 842.637 108.787 843.033 107.983H845.751C845.463 108.943 844.911 109.735 844.095 110.359C843.279 110.971 842.277 111.277 841.089 111.277C840.129 111.277 839.265 111.067 838.497 110.647C837.741 110.215 837.147 109.609 836.715 108.829C836.295 108.049 836.085 107.149 836.085 106.129C836.085 105.097 836.295 104.191 836.715 103.411C837.135 102.631 837.723 102.031 838.479 101.611C839.235 101.191 840.105 100.981 841.089 100.981C842.037 100.981 842.883 101.185 843.627 101.593C844.383 102.001 844.965 102.583 845.373 103.339C845.793 104.083 846.003 104.941 846.003 105.913ZM843.393 105.193C843.381 104.545 843.147 104.029 842.691 103.645C842.235 103.249 841.677 103.051 841.017 103.051C840.393 103.051 839.865 103.243 839.433 103.627C839.013 103.999 838.755 104.521 838.659 105.193H843.393Z" fill="#048BC4"/>
<path d="M816.31 74.262C816.31 80.82 810.994 86.136 804.436 86.136C797.878 86.136 792.562 80.82 792.562 74.262C792.562 67.705 797.878 62.389 804.436 62.389C810.994 62.389 816.31 67.705 816.31 74.262ZM794.937 74.262C794.937 79.508 799.19 83.761 804.436 83.761C809.682 83.761 813.935 79.508 813.935 74.262C813.935 69.016 809.682 64.763 804.436 64.763C799.19 64.763 794.937 69.016 794.937 74.262Z" fill="#1AB6F7"/>
<path d="M804.436 81.1883C808.261 81.1883 811.362 78.0873 811.362 74.262C811.362 70.4367 808.261 67.3357 804.436 67.3357C800.611 67.3357 797.51 70.4367 797.51 74.262C797.51 78.0873 800.611 81.1883 804.436 81.1883Z" fill="#1AB6F7"/>
<path d="M1303.62 0.413696C1302.17 0.413696 1300.98 1.595 1300.98 3.0522C1300.98 4.5095 1302.17 5.6908 1303.62 5.6908C1305.08 5.6908 1306.26 4.5095 1306.26 3.0522C1306.26 1.595 1305.08 0.413696 1303.62 0.413696ZM1303.13 3.0522V51.536H1304.12V3.0522H1303.13Z" fill="#DCDCDC"/>
<path d="M1253.68 98.551V106.327C1253.68 107.179 1253.9 107.833 1254.35 108.289C1254.79 108.733 1255.42 108.955 1256.22 108.955C1257.04 108.955 1257.67 108.733 1258.11 108.289C1258.55 107.833 1258.78 107.179 1258.78 106.327V98.551H1261.31V106.309C1261.31 107.377 1261.08 108.283 1260.61 109.027C1260.16 109.759 1259.54 110.311 1258.76 110.683C1257.99 111.055 1257.13 111.241 1256.18 111.241C1255.25 111.241 1254.4 111.055 1253.63 110.683C1252.87 110.311 1252.27 109.759 1251.83 109.027C1251.38 108.283 1251.16 107.377 1251.16 106.309V98.551H1253.68ZM1267.57 111.277C1266.75 111.277 1266.02 111.133 1265.37 110.845C1264.72 110.545 1264.21 110.143 1263.82 109.639C1263.45 109.135 1263.25 108.577 1263.21 107.965H1265.75C1265.8 108.349 1265.98 108.667 1266.31 108.919C1266.64 109.171 1267.06 109.297 1267.55 109.297C1268.03 109.297 1268.4 109.201 1268.66 109.009C1268.94 108.817 1269.08 108.571 1269.08 108.271C1269.08 107.947 1268.91 107.707 1268.57 107.551C1268.25 107.383 1267.73 107.203 1267.01 107.011C1266.26 106.831 1265.65 106.645 1265.17 106.453C1264.7 106.261 1264.3 105.967 1263.95 105.571C1263.61 105.175 1263.44 104.641 1263.44 103.969C1263.44 103.417 1263.6 102.913 1263.91 102.457C1264.24 102.001 1264.69 101.641 1265.28 101.377C1265.88 101.113 1266.58 100.981 1267.39 100.981C1268.57 100.981 1269.52 101.281 1270.23 101.881C1270.94 102.469 1271.33 103.267 1271.4 104.275H1268.99C1268.95 103.879 1268.78 103.567 1268.48 103.339C1268.2 103.099 1267.81 102.979 1267.31 102.979C1266.86 102.979 1266.5 103.063 1266.25 103.231C1266.01 103.399 1265.89 103.633 1265.89 103.933C1265.89 104.269 1266.06 104.527 1266.4 104.707C1266.73 104.875 1267.25 105.049 1267.96 105.229C1268.68 105.409 1269.28 105.595 1269.74 105.787C1270.21 105.979 1270.61 106.279 1270.95 106.687C1271.3 107.083 1271.48 107.611 1271.49 108.271C1271.49 108.847 1271.33 109.363 1271 109.819C1270.69 110.275 1270.24 110.635 1269.64 110.899C1269.05 111.151 1268.36 111.277 1267.57 111.277ZM1282.83 105.913C1282.83 106.273 1282.8 106.597 1282.76 106.885H1275.47C1275.53 107.605 1275.78 108.169 1276.22 108.577C1276.67 108.985 1277.21 109.189 1277.86 109.189C1278.8 109.189 1279.46 108.787 1279.86 107.983H1282.58C1282.29 108.943 1281.74 109.735 1280.92 110.359C1280.1 110.971 1279.1 111.277 1277.91 111.277C1276.95 111.277 1276.09 111.067 1275.32 110.647C1274.57 110.215 1273.97 109.609 1273.54 108.829C1273.12 108.049 1272.91 107.149 1272.91 106.129C1272.91 105.097 1273.12 104.191 1273.54 103.411C1273.96 102.631 1274.55 102.031 1275.3 101.611C1276.06 101.191 1276.93 100.981 1277.91 100.981C1278.86 100.981 1279.71 101.185 1280.45 101.593C1281.21 102.001 1281.79 102.583 1282.2 103.339C1282.62 104.083 1282.83 104.941 1282.83 105.913ZM1280.22 105.193C1280.21 104.545 1279.97 104.029 1279.52 103.645C1279.06 103.249 1278.5 103.051 1277.84 103.051C1277.22 103.051 1276.69 103.243 1276.26 103.627C1275.84 103.999 1275.58 104.521 1275.48 105.193H1280.22ZM1287.19 102.691C1287.51 102.163 1287.93 101.749 1288.45 101.449C1288.98 101.149 1289.58 100.999 1290.25 100.999V103.645H1289.58C1288.79 103.645 1288.19 103.831 1287.78 104.203C1287.39 104.575 1287.19 105.223 1287.19 106.147V111.115H1284.67V101.143H1287.19V102.691ZM1298.75 109.117H1302.89V111.115H1296.23V98.551H1298.75V109.117ZM1308.92 111.277C1307.96 111.277 1307.1 111.067 1306.33 110.647C1305.56 110.215 1304.96 109.609 1304.51 108.829C1304.08 108.049 1303.87 107.149 1303.87 106.129C1303.87 105.109 1304.09 104.209 1304.53 103.429C1304.99 102.649 1305.61 102.049 1306.39 101.629C1307.17 101.197 1308.04 100.981 1309 100.981C1309.96 100.981 1310.83 101.197 1311.61 101.629C1312.39 102.049 1313 102.649 1313.44 103.429C1313.9 104.209 1314.13 105.109 1314.13 106.129C1314.13 107.149 1313.89 108.049 1313.42 108.829C1312.97 109.609 1312.34 110.215 1311.55 110.647C1310.77 111.067 1309.9 111.277 1308.92 111.277ZM1308.92 109.081C1309.38 109.081 1309.81 108.973 1310.2 108.757C1310.61 108.529 1310.93 108.193 1311.17 107.749C1311.41 107.305 1311.53 106.765 1311.53 106.129C1311.53 105.181 1311.28 104.455 1310.78 103.951C1310.29 103.435 1309.68 103.177 1308.96 103.177C1308.24 103.177 1307.63 103.435 1307.14 103.951C1306.66 104.455 1306.42 105.181 1306.42 106.129C1306.42 107.077 1306.66 107.809 1307.12 108.325C1307.6 108.829 1308.2 109.081 1308.92 109.081ZM1319.88 100.981C1320.62 100.981 1321.28 101.131 1321.84 101.431C1322.41 101.719 1322.85 102.097 1323.17 102.565V101.143H1325.71V111.187C1325.71 112.111 1325.53 112.933 1325.15 113.653C1324.78 114.385 1324.22 114.961 1323.48 115.381C1322.74 115.813 1321.84 116.029 1320.78 116.029C1319.36 116.029 1318.2 115.699 1317.29 115.039C1316.39 114.379 1315.88 113.479 1315.76 112.339H1318.26C1318.39 112.795 1318.67 113.155 1319.11 113.419C1319.55 113.695 1320.08 113.833 1320.71 113.833C1321.44 113.833 1322.03 113.611 1322.49 113.167C1322.95 112.735 1323.17 112.075 1323.17 111.187V109.639C1322.85 110.107 1322.4 110.497 1321.82 110.809C1321.26 111.121 1320.61 111.277 1319.88 111.277C1319.04 111.277 1318.27 111.061 1317.58 110.629C1316.88 110.197 1316.33 109.591 1315.92 108.811C1315.52 108.019 1315.33 107.113 1315.33 106.093C1315.33 105.085 1315.52 104.191 1315.92 103.411C1316.33 102.631 1316.87 102.031 1317.56 101.611C1318.25 101.191 1319.03 100.981 1319.88 100.981ZM1323.17 106.129C1323.17 105.517 1323.05 104.995 1322.81 104.563C1322.57 104.119 1322.25 103.783 1321.84 103.555C1321.43 103.315 1321 103.195 1320.53 103.195C1320.06 103.195 1319.63 103.309 1319.23 103.537C1318.84 103.765 1318.51 104.101 1318.26 104.545C1318.02 104.977 1317.9 105.493 1317.9 106.093C1317.9 106.693 1318.02 107.221 1318.26 107.677C1318.51 108.121 1318.84 108.463 1319.23 108.703C1319.64 108.943 1320.07 109.063 1320.53 109.063C1321 109.063 1321.43 108.949 1321.84 108.721C1322.25 108.481 1322.57 108.145 1322.81 107.713C1323.05 107.269 1323.17 106.741 1323.17 106.129ZM1332.6 111.277C1331.64 111.277 1330.78 111.067 1330.01 110.647C1329.24 110.215 1328.64 109.609 1328.19 108.829C1327.76 108.049 1327.54 107.149 1327.54 106.129C1327.54 105.109 1327.77 104.209 1328.21 103.429C1328.67 102.649 1329.28 102.049 1330.06 101.629C1330.84 101.197 1331.71 100.981 1332.67 100.981C1333.63 100.981 1334.5 101.197 1335.28 101.629C1336.06 102.049 1336.68 102.649 1337.12 103.429C1337.58 104.209 1337.8 105.109 1337.8 106.129C1337.8 107.149 1337.57 108.049 1337.1 108.829C1336.65 109.609 1336.02 110.215 1335.23 110.647C1334.45 111.067 1333.57 111.277 1332.6 111.277ZM1332.6 109.081C1333.06 109.081 1333.48 108.973 1333.88 108.757C1334.29 108.529 1334.61 108.193 1334.85 107.749C1335.09 107.305 1335.21 106.765 1335.21 106.129C1335.21 105.181 1334.96 104.455 1334.46 103.951C1333.96 103.435 1333.36 103.177 1332.64 103.177C1331.92 103.177 1331.31 103.435 1330.82 103.951C1330.34 104.455 1330.1 105.181 1330.1 106.129C1330.1 107.077 1330.33 107.809 1330.8 108.325C1331.28 108.829 1331.88 109.081 1332.6 109.081ZM1349.07 101.143V111.115H1346.53V109.855C1346.2 110.287 1345.78 110.629 1345.25 110.881C1344.73 111.121 1344.17 111.241 1343.56 111.241C1342.78 111.241 1342.09 111.079 1341.49 110.755C1340.89 110.419 1340.41 109.933 1340.07 109.297C1339.73 108.649 1339.56 107.881 1339.56 106.993V101.143H1342.08V106.633C1342.08 107.425 1342.28 108.037 1342.68 108.469C1343.07 108.889 1343.61 109.099 1344.3 109.099C1344.99 109.099 1345.54 108.889 1345.93 108.469C1346.33 108.037 1346.53 107.425 1346.53 106.633V101.143H1349.07ZM1354.49 103.213V108.037C1354.49 108.373 1354.56 108.619 1354.72 108.775C1354.89 108.919 1355.16 108.991 1355.55 108.991H1356.72V111.115H1355.13C1353.01 111.115 1351.95 110.083 1351.95 108.019V103.213H1350.76V101.143H1351.95V98.677H1354.49V101.143H1356.72V103.213H1354.49Z" fill="#048BC4"/>
<path d="M1315 74.262C1315 80.82 1309.69 86.136 1303.13 86.136C1296.57 86.136 1291.25 80.82 1291.25 74.262C1291.25 67.705 1296.57 62.389 1303.13 62.389C1309.69 62.389 1315 67.705 1315 74.262ZM1293.63 74.262C1293.63 79.508 1297.88 83.761 1303.13 83.761C1308.37 83.761 1312.63 79.508 1312.63 74.262C1312.63 69.016 1308.37 64.763 1303.13 64.763C1297.88 64.763 1293.63 69.016 1293.63 74.262Z" fill="#1AB6F7"/>
<path d="M1303.13 81.1883C1306.96 81.1883 1310.06 78.0873 1310.06 74.262C1310.06 70.4367 1306.96 67.3357 1303.13 67.3357C1299.3 67.3357 1296.2 70.4367 1296.2 74.262C1296.2 78.0873 1299.3 81.1883 1303.13 81.1883Z" fill="#1AB6F7"/>
<path d="M296.346 0.413696C294.888 0.413696 293.707 1.595 293.707 3.0522C293.707 4.5095 294.888 5.6908 296.346 5.6908C297.803 5.6908 298.984 4.5095 298.984 3.0522C298.984 1.595 297.803 0.413696 296.346 0.413696ZM295.851 3.0522V51.536H296.84V3.0522H295.851Z" fill="#DCDCDC"/>
<path d="M254.895 111.241C254.019 111.241 253.227 111.091 252.519 110.791C251.823 110.491 251.271 110.059 250.863 109.495C250.455 108.931 250.245 108.265 250.233 107.497H252.933C252.969 108.013 253.149 108.421 253.473 108.721C253.809 109.021 254.265 109.171 254.841 109.171C255.429 109.171 255.891 109.033 256.227 108.757C256.563 108.469 256.731 108.097 256.731 107.641C256.731 107.269 256.617 106.963 256.389 106.723C256.161 106.483 255.873 106.297 255.525 106.165C255.189 106.021 254.721 105.865 254.121 105.697C253.305 105.457 252.639 105.223 252.123 104.995C251.619 104.755 251.181 104.401 250.809 103.933C250.449 103.453 250.269 102.817 250.269 102.025C250.269 101.281 250.455 100.633 250.827 100.081C251.199 99.529 251.721 99.109 252.393 98.821C253.065 98.521 253.833 98.371 254.697 98.371C255.993 98.371 257.043 98.689 257.847 99.325C258.663 99.949 259.113 100.825 259.197 101.953H256.425C256.401 101.521 256.215 101.167 255.867 100.891C255.531 100.603 255.081 100.459 254.517 100.459C254.025 100.459 253.629 100.585 253.329 100.837C253.041 101.089 252.897 101.455 252.897 101.935C252.897 102.271 253.005 102.553 253.221 102.781C253.449 102.997 253.725 103.177 254.049 103.321C254.385 103.453 254.853 103.609 255.453 103.789C256.269 104.029 256.935 104.269 257.451 104.509C257.967 104.749 258.411 105.109 258.783 105.589C259.155 106.069 259.341 106.699 259.341 107.479C259.341 108.151 259.167 108.775 258.819 109.351C258.471 109.927 257.961 110.389 257.289 110.737C256.617 111.073 255.819 111.241 254.895 111.241ZM264.46 103.213V108.037C264.46 108.373 264.538 108.619 264.694 108.775C264.862 108.919 265.138 108.991 265.522 108.991H266.692V111.115H265.108C262.984 111.115 261.922 110.083 261.922 108.019V103.213H260.734V101.143H261.922V98.677H264.46V101.143H266.692V103.213H264.46ZM267.856 106.093C267.856 105.085 268.054 104.191 268.45 103.411C268.858 102.631 269.404 102.031 270.088 101.611C270.784 101.191 271.558 100.981 272.41 100.981C273.154 100.981 273.802 101.131 274.354 101.431C274.918 101.731 275.368 102.109 275.704 102.565V101.143H278.242V111.115H275.704V109.657C275.38 110.125 274.93 110.515 274.354 110.827C273.79 111.127 273.136 111.277 272.392 111.277C271.552 111.277 270.784 111.061 270.088 110.629C269.404 110.197 268.858 109.591 268.45 108.811C268.054 108.019 267.856 107.113 267.856 106.093ZM275.704 106.129C275.704 105.517 275.584 104.995 275.344 104.563C275.104 104.119 274.78 103.783 274.372 103.555C273.964 103.315 273.526 103.195 273.058 103.195C272.59 103.195 272.158 103.309 271.762 103.537C271.366 103.765 271.042 104.101 270.79 104.545C270.55 104.977 270.43 105.493 270.43 106.093C270.43 106.693 270.55 107.221 270.79 107.677C271.042 108.121 271.366 108.463 271.762 108.703C272.17 108.943 272.602 109.063 273.058 109.063C273.526 109.063 273.964 108.949 274.372 108.721C274.78 108.481 275.104 108.145 275.344 107.713C275.584 107.269 275.704 106.741 275.704 106.129ZM283.224 102.691C283.548 102.163 283.968 101.749 284.484 101.449C285.012 101.149 285.612 100.999 286.284 100.999V103.645H285.618C284.826 103.645 284.226 103.831 283.818 104.203C283.422 104.575 283.224 105.223 283.224 106.147V111.115H280.704V101.143H283.224V102.691ZM290.915 103.213V108.037C290.915 108.373 290.993 108.619 291.149 108.775C291.317 108.919 291.593 108.991 291.977 108.991H293.147V111.115H291.563C289.439 111.115 288.377 110.083 288.377 108.019V103.213H287.189V101.143H288.377V98.677H290.915V101.143H293.147V103.213H290.915ZM307.798 98.551V100.585H304.45V111.115H301.93V100.585H298.582V98.551H307.798ZM310.915 99.955C310.471 99.955 310.099 99.817 309.799 99.541C309.511 99.253 309.367 98.899 309.367 98.479C309.367 98.059 309.511 97.711 309.799 97.435C310.099 97.147 310.471 97.003 310.915 97.003C311.359 97.003 311.725 97.147 312.013 97.435C312.313 97.711 312.463 98.059 312.463 98.479C312.463 98.899 312.313 99.253 312.013 99.541C311.725 99.817 311.359 99.955 310.915 99.955ZM312.157 101.143V111.115H309.637V101.143H312.157ZM327.031 100.999C328.255 100.999 329.239 101.377 329.983 102.133C330.739 102.877 331.117 103.921 331.117 105.265V111.115H328.597V105.607C328.597 104.827 328.399 104.233 328.003 103.825C327.607 103.405 327.067 103.195 326.383 103.195C325.699 103.195 325.153 103.405 324.745 103.825C324.349 104.233 324.151 104.827 324.151 105.607V111.115H321.631V105.607C321.631 104.827 321.433 104.233 321.037 103.825C320.641 103.405 320.101 103.195 319.417 103.195C318.721 103.195 318.169 103.405 317.761 103.825C317.365 104.233 317.167 104.827 317.167 105.607V111.115H314.647V101.143H317.167V102.349C317.491 101.929 317.905 101.599 318.409 101.359C318.925 101.119 319.489 100.999 320.101 100.999C320.881 100.999 321.577 101.167 322.189 101.503C322.801 101.827 323.275 102.295 323.611 102.907C323.935 102.331 324.403 101.869 325.015 101.521C325.639 101.173 326.311 100.999 327.031 100.999ZM342.778 105.913C342.778 106.273 342.754 106.597 342.706 106.885H335.416C335.476 107.605 335.728 108.169 336.172 108.577C336.616 108.985 337.162 109.189 337.81 109.189C338.746 109.189 339.412 108.787 339.808 107.983H342.526C342.238 108.943 341.686 109.735 340.87 110.359C340.054 110.971 339.052 111.277 337.864 111.277C336.904 111.277 336.04 111.067 335.272 110.647C334.516 110.215 333.922 109.609 333.49 108.829C333.07 108.049 332.86 107.149 332.86 106.129C332.86 105.097 333.07 104.191 333.49 103.411C333.91 102.631 334.498 102.031 335.254 101.611C336.01 101.191 336.88 100.981 337.864 100.981C338.812 100.981 339.658 101.185 340.402 101.593C341.158 102.001 341.74 102.583 342.148 103.339C342.568 104.083 342.778 104.941 342.778 105.913ZM340.168 105.193C340.156 104.545 339.922 104.029 339.466 103.645C339.01 103.249 338.452 103.051 337.792 103.051C337.168 103.051 336.64 103.243 336.208 103.627C335.788 103.999 335.53 104.521 335.434 105.193H340.168Z" fill="#048BC4"/>
<path d="M307.724 74.262C307.724 80.82 302.408 86.136 295.85 86.136C289.293 86.136 283.977 80.82 283.977 74.262C283.977 67.705 289.293 62.389 295.85 62.389C302.408 62.389 307.724 67.705 307.724 74.262ZM286.351 74.262C286.351 79.508 290.604 83.761 295.85 83.761C301.096 83.761 305.349 79.508 305.349 74.262C305.349 69.016 301.096 64.763 295.85 64.763C290.604 64.763 286.351 69.016 286.351 74.262Z" fill="#1AB6F7"/>
<path d="M295.85 81.1883C299.675 81.1883 302.776 78.0873 302.776 74.262C302.776 70.4367 299.675 67.3357 295.85 67.3357C292.025 67.3357 288.924 70.4367 288.924 74.262C288.924 78.0873 292.025 81.1883 295.85 81.1883Z" fill="#1AB6F7"/>
<path d="M61.1719 38.4775V46.254C61.1719 47.106 61.3939 47.76 61.8379 48.216C62.2819 48.66 62.9059 48.882 63.7099 48.882C64.5259 48.882 65.1559 48.66 65.5999 48.216C66.0439 47.76 66.2659 47.106 66.2659 46.254V38.4775H68.8039V46.236C68.8039 47.304 68.5699 48.21 68.1019 48.954C67.6459 49.686 67.0279 50.238 66.2479 50.61C65.4799 50.982 64.6219 51.168 63.6739 51.168C62.7379 51.168 61.8859 50.982 61.1179 50.61C60.3619 50.238 59.7619 49.686 59.3179 48.954C58.8739 48.21 58.6519 47.304 58.6519 46.236V38.4775H61.1719ZM75.0547 51.204C74.2387 51.204 73.5067 51.06 72.8587 50.772C72.2107 50.472 71.6947 50.07 71.3107 49.566C70.9387 49.062 70.7347 48.504 70.6987 47.892H73.2367C73.2847 48.276 73.4707 48.594 73.7947 48.846C74.1307 49.098 74.5447 49.224 75.0367 49.224C75.5167 49.224 75.8887 49.128 76.1527 48.936C76.4287 48.744 76.5667 48.498 76.5667 48.198C76.5667 47.874 76.3987 47.634 76.0627 47.478C75.7387 47.31 75.2167 47.13 74.4967 46.938C73.7527 46.758 73.1407 46.572 72.6607 46.38C72.1927 46.188 71.7847 45.894 71.4367 45.498C71.1007 45.102 70.9327 44.568 70.9327 43.896C70.9327 43.344 71.0887 42.84 71.4007 42.384C71.7247 41.928 72.1807 41.568 72.7687 41.304C73.3687 41.04 74.0707 40.9075 74.8747 40.9075C76.0627 40.9075 77.0107 41.208 77.7187 41.808C78.4267 42.396 78.8167 43.194 78.8887 44.202H76.4767C76.4407 43.806 76.2727 43.494 75.9727 43.266C75.6847 43.026 75.2947 42.906 74.8027 42.906C74.3467 42.906 73.9927 42.99 73.7407 43.158C73.5007 43.326 73.3807 43.56 73.3807 43.86C73.3807 44.196 73.5487 44.454 73.8847 44.634C74.2207 44.802 74.7427 44.976 75.4507 45.156C76.1707 45.336 76.7647 45.522 77.2327 45.714C77.7007 45.906 78.1027 46.206 78.4387 46.614C78.7867 47.01 78.9667 47.538 78.9787 48.198C78.9787 48.774 78.8167 49.29 78.4927 49.746C78.1807 50.202 77.7247 50.562 77.1247 50.826C76.5367 51.078 75.8467 51.204 75.0547 51.204ZM90.3173 45.84C90.3173 46.2 90.2933 46.524 90.2453 46.812H82.9553C83.0153 47.532 83.2673 48.096 83.7113 48.504C84.1553 48.912 84.7013 49.116 85.3493 49.116C86.2853 49.116 86.9513 48.714 87.3473 47.91H90.0653C89.7773 48.87 89.2253 49.662 88.4093 50.286C87.5933 50.898 86.5913 51.204 85.4033 51.204C84.4433 51.204 83.5793 50.994 82.8113 50.574C82.0553 50.142 81.4613 49.536 81.0293 48.756C80.6093 47.976 80.3993 47.076 80.3993 46.056C80.3993 45.024 80.6093 44.118 81.0293 43.338C81.4493 42.558 82.0373 41.958 82.7933 41.538C83.5493 41.118 84.4193 40.9075 85.4033 40.9075C86.3513 40.9075 87.1973 41.112 87.9413 41.52C88.6973 41.928 89.2793 42.51 89.6873 43.266C90.1073 44.01 90.3173 44.868 90.3173 45.84ZM87.7073 45.12C87.6953 44.472 87.4613 43.956 87.0053 43.572C86.5493 43.176 85.9913 42.978 85.3313 42.978C84.7073 42.978 84.1793 43.17 83.7473 43.554C83.3273 43.926 83.0693 44.448 82.9733 45.12H87.7073ZM94.6767 42.618C95.0007 42.09 95.4207 41.676 95.9367 41.376C96.4647 41.076 97.0647 40.9255 97.7367 40.9255V43.572H97.0707C96.2787 43.572 95.6787 43.758 95.2707 44.13C94.8747 44.502 94.6767 45.15 94.6767 46.074V51.042H92.1567V41.07H94.6767V42.618ZM106.243 49.044H110.383V51.042H103.723V38.4775H106.243V49.044ZM116.413 51.204C115.453 51.204 114.589 50.994 113.821 50.574C113.053 50.142 112.447 49.536 112.003 48.756C111.571 47.976 111.355 47.076 111.355 46.056C111.355 45.036 111.577 44.136 112.021 43.356C112.477 42.576 113.095 41.976 113.875 41.556C114.655 41.124 115.525 40.9075 116.485 40.9075C117.445 40.9075 118.315 41.124 119.095 41.556C119.875 41.976 120.487 42.576 120.931 43.356C121.387 44.136 121.615 45.036 121.615 46.056C121.615 47.076 121.381 47.976 120.913 48.756C120.457 49.536 119.833 50.142 119.041 50.574C118.261 50.994 117.385 51.204 116.413 51.204ZM116.413 49.008C116.869 49.008 117.295 48.9 117.691 48.684C118.099 48.456 118.423 48.12 118.663 47.676C118.903 47.232 119.023 46.692 119.023 46.056C119.023 45.108 118.771 44.382 118.267 43.878C117.775 43.362 117.169 43.104 116.449 43.104C115.729 43.104 115.123 43.362 114.631 43.878C114.151 44.382 113.911 45.108 113.911 46.056C113.911 47.004 114.145 47.736 114.613 48.252C115.093 48.756 115.693 49.008 116.413 49.008ZM127.369 40.9075C128.113 40.9075 128.767 41.058 129.331 41.358C129.895 41.646 130.339 42.024 130.663 42.492V41.07H133.201V51.114C133.201 52.038 133.015 52.86 132.643 53.58C132.271 54.312 131.713 54.888 130.969 55.308C130.225 55.74 129.325 55.956 128.269 55.956C126.853 55.956 125.689 55.626 124.777 54.966C123.877 54.306 123.367 53.406 123.247 52.266H125.749C125.881 52.722 126.163 53.082 126.595 53.346C127.039 53.622 127.573 53.76 128.197 53.76C128.929 53.76 129.523 53.538 129.979 53.094C130.435 52.662 130.663 52.002 130.663 51.114V49.566C130.339 50.034 129.889 50.424 129.313 50.736C128.749 51.048 128.101 51.204 127.369 51.204C126.529 51.204 125.761 50.988 125.065 50.556C124.369 50.124 123.817 49.518 123.409 48.738C123.013 47.946 122.815 47.04 122.815 46.02C122.815 45.012 123.013 44.118 123.409 43.338C123.817 42.558 124.363 41.958 125.047 41.538C125.743 41.118 126.517 40.9075 127.369 40.9075ZM130.663 46.056C130.663 45.444 130.543 44.922 130.303 44.49C130.063 44.046 129.739 43.71 129.331 43.482C128.923 43.242 128.485 43.122 128.017 43.122C127.549 43.122 127.117 43.236 126.721 43.464C126.325 43.692 126.001 44.028 125.749 44.472C125.509 44.904 125.389 45.42 125.389 46.02C125.389 46.62 125.509 47.148 125.749 47.604C126.001 48.048 126.325 48.39 126.721 48.63C127.129 48.87 127.561 48.99 128.017 48.99C128.485 48.99 128.923 48.876 129.331 48.648C129.739 48.408 130.063 48.072 130.303 47.64C130.543 47.196 130.663 46.668 130.663 46.056ZM136.941 39.8815C136.497 39.8815 136.125 39.7435 135.825 39.4675C135.537 39.1795 135.393 38.8255 135.393 38.4055C135.393 37.9855 135.537 37.6375 135.825 37.3615C136.125 37.0735 136.497 36.9295 136.941 36.9295C137.385 36.9295 137.751 37.0735 138.039 37.3615C138.339 37.6375 138.489 37.9855 138.489 38.4055C138.489 38.8255 138.339 39.1795 138.039 39.4675C137.751 39.7435 137.385 39.8815 136.941 39.8815ZM138.183 41.07V51.042H135.663V41.07H138.183ZM146.198 40.9255C147.386 40.9255 148.346 41.304 149.078 42.06C149.81 42.804 150.176 43.848 150.176 45.192V51.042H147.656V45.534C147.656 44.742 147.458 44.136 147.062 43.716C146.666 43.284 146.126 43.068 145.442 43.068C144.746 43.068 144.194 43.284 143.786 43.716C143.39 44.136 143.192 44.742 143.192 45.534V51.042H140.672V41.07H143.192V42.312C143.528 41.88 143.954 41.544 144.47 41.304C144.998 41.052 145.574 40.9255 146.198 40.9255Z" fill="#048BC4"/>
<path d="M104.389 143.465C102.931 143.465 101.75 144.647 101.75 146.104C101.75 147.561 102.931 148.743 104.389 148.743C105.846 148.743 107.027 147.561 107.027 146.104C107.027 144.647 105.846 143.465 104.389 143.465ZM103.894 97.62V146.104H104.883V97.62H103.894Z" fill="#DCDCDC"/>
<path d="M115.767 74.577C115.767 81.134 110.451 86.45 103.893 86.45C97.3355 86.45 92.0195 81.134 92.0195 74.577C92.0195 68.019 97.3355 62.703 103.893 62.703C110.451 62.703 115.767 68.019 115.767 74.577ZM94.3942 74.577C94.3942 79.823 98.647 84.076 103.893 84.076C109.139 84.076 113.392 79.823 113.392 74.577C113.392 69.331 109.139 65.078 103.893 65.078C98.647 65.078 94.3942 69.331 94.3942 74.577Z" fill="#1AB6F7"/>
<path d="M103.893 81.5033C107.718 81.5033 110.819 78.4023 110.819 74.577C110.819 70.7517 107.718 67.6507 103.893 67.6507C100.068 67.6507 96.9667 70.7517 96.9667 74.577C96.9667 78.4023 100.068 81.5033 103.893 81.5033Z" fill="#1AB6F7"/>
</svg>
