<svg width="116" height="72" viewBox="0 0 116 72" fill="none" xmlns="http://www.w3.org/2000/svg">
<path d="M30.4204 17.8886C23.8923 14.2072 15.9292 14.2353 9.4292 17.9729H12.3556V36.8858C11.5114 39.4993 10.6673 42.0848 9.85127 44.6702C9.76686 44.9231 9.795 45.2041 9.96383 45.4008C12.5244 47.9301 14.466 50.9932 15.6759 54.3936C16.6608 56.9509 17.4205 59.5926 18.2646 62.2342C18.3209 62.5152 18.2646 62.8243 18.124 63.0773C17.5893 63.8922 17.8144 65.0163 18.6586 65.5222C18.7524 65.5971 18.8555 65.6533 18.9681 65.6908C18.9962 65.4379 19.0244 65.213 19.0244 64.9882C19.1557 58.3935 19.2776 51.7988 19.3902 45.2041C19.4465 44.7826 19.2495 44.3892 18.8837 44.1924C18.1521 43.7428 17.8707 42.8435 18.1802 42.0286C18.5742 41.0731 19.6716 40.5953 20.6283 40.9888C21.585 41.3822 22.0633 42.4782 21.6694 43.4337C21.5287 43.799 21.2754 44.1081 20.9378 44.333C20.6845 44.4735 20.5157 44.7264 20.4594 45.0074C20.3094 51.7707 20.1874 58.534 20.0936 65.2974C20.0936 65.4098 20.0936 65.5222 20.0936 65.6627C20.9941 65.4098 21.5287 64.5105 21.2754 63.6112C21.2379 63.4801 21.1817 63.3489 21.1066 63.2178C20.9659 62.993 20.9096 62.7119 20.9096 62.4309C22.1196 57.6816 24.1174 53.1852 26.8468 49.1385C27.7285 47.9956 28.6946 46.9184 29.7451 45.9067C29.9983 45.71 30.1109 45.3446 29.9983 45.0355C29.2386 42.422 28.4789 39.8085 27.7473 37.1949V17.8886H30.4204Z" fill="url(#paint0_linear_16478_1189)"/>
<path d="M37.2552 18.4508H39.9846V5.80469H0V18.5632H2.64501C10.7207 8.98026 25.0431 7.77186 34.6102 15.8654C35.5669 16.6522 36.4486 17.514 37.2552 18.4508Z" fill="url(#paint1_linear_16478_1189)"/>
<path fill-rule="evenodd" clip-rule="evenodd" d="M40.9984 45.7937C43.8966 45.6532 46.7105 46.7773 48.7083 48.8569C50.5654 50.899 51.494 53.7374 51.494 57.3719V57.8216H37.6499C37.7625 58.749 38.2127 59.6482 38.888 60.2946C39.5633 60.9128 40.4638 61.222 41.3923 61.1939C41.9551 61.222 42.5179 61.0815 43.0244 60.8004C43.4746 60.5756 43.8404 60.1822 44.0373 59.7325H51.1845C50.7343 61.6997 49.4962 63.414 47.7797 64.4818C45.8101 65.6903 43.5027 66.3085 41.1672 66.2523C38.3534 66.3928 35.5677 65.3811 33.4855 63.4421C31.5439 61.4187 30.5028 58.6928 30.6435 55.9106C30.5591 53.1847 31.6002 50.5431 33.5417 48.6321C35.5396 46.7211 38.2408 45.7094 40.9984 45.7937ZM44.4875 53.7467C44.375 52.9318 43.9811 52.173 43.362 51.6109C42.7148 51.077 41.8988 50.8241 41.0828 50.8522C40.3231 50.8241 39.5633 51.1051 39.0006 51.6109C38.4097 52.173 37.9876 52.9318 37.8188 53.7467H44.4875ZM109.262 64.6786C109.431 64.8753 109.628 65.0439 109.881 65.1563V65.6903H102.312L102.087 63.5545C101.411 64.4256 100.511 65.1563 99.498 65.6059C98.3162 66.0837 97.0219 66.2804 95.7556 66.2523C93.9266 66.3366 92.1258 65.7746 90.6907 64.6786C89.4526 63.6107 88.7492 62.0369 88.8336 60.407C88.721 58.8614 89.3401 57.3438 90.5219 56.3322C92.2383 55.1518 94.2362 54.4212 96.3184 54.1964C96.6936 54.1402 97.2094 54.0559 97.866 53.9434C100.417 53.55 101.693 52.9599 101.693 52.173C101.721 51.7234 101.496 51.2737 101.102 51.0208C100.567 50.7117 99.9482 50.5712 99.3573 50.6274C99.226 50.6086 99.0947 50.5993 98.9634 50.5993C97.5846 50.5993 96.4872 51.7234 96.5154 53.1004H89.6496C89.5933 50.9927 90.5219 48.9693 92.1821 47.6204C93.7578 46.4026 96.0933 45.7937 99.1885 45.7937C100.389 45.7937 101.58 45.8874 102.762 46.0748C103.691 46.2434 104.591 46.5244 105.435 46.9459C106.617 47.4518 107.602 48.323 108.249 49.419C108.868 50.796 109.149 52.3135 109.065 53.8029V63.9479C109.065 64.2008 109.121 64.4537 109.262 64.6786ZM101.074 60.6037C101.749 59.7887 102.087 58.749 102.002 57.7092C102.002 57.4843 102.002 57.3157 102.002 57.2033C102.002 57.0909 101.993 56.9879 101.974 56.8942C101.243 57.4281 100.37 57.7654 99.4699 57.934C99.3761 57.9527 99.3011 57.9715 99.2448 57.9902C98.2881 58.1307 97.3595 58.4398 96.5154 58.8895C96.1214 59.1143 95.8963 59.5358 95.8963 59.9855C95.8963 60.4632 96.1777 60.9128 96.5998 61.1377C97.1344 61.4468 97.7534 61.6154 98.4006 61.5873C99.3855 61.6716 100.37 61.3063 101.074 60.6037ZM71.5566 56.3603C72.1194 57.3719 72.3727 58.5241 72.3164 59.6482C72.4008 61.5873 71.5004 63.414 69.8965 64.51C67.8142 65.7746 65.3943 66.3928 62.9744 66.2242C59.7292 66.2242 57.2905 65.634 55.6585 64.4537C53.9983 63.1891 53.0697 61.1939 53.2104 59.1143H59.9918C59.9918 59.2642 60.0012 59.4234 60.0199 59.592C60.2169 60.9409 61.455 61.8683 62.8056 61.6997C63.3965 61.7278 63.9874 61.5592 64.4939 61.2501C64.916 61.0253 65.1411 60.6037 65.1411 60.1541C65.1411 59.4796 64.0812 58.9363 61.9615 58.5241C61.5488 58.4305 61.2205 58.3649 60.9766 58.3274C58.9225 57.9902 56.9528 57.2033 55.2645 56.023C54.1109 55.0675 53.4918 53.6624 53.5481 52.173C53.4637 50.3182 54.336 48.5197 55.8836 47.4518C57.8814 46.2434 60.1887 45.6532 62.5242 45.7937C65.5069 45.7937 67.7861 46.3277 69.3619 47.3956C70.9095 48.4635 71.8099 50.2339 71.7536 52.1168H65.2537C65.2255 51.5547 64.9441 51.0489 64.4939 50.6836C63.9593 50.3463 63.3402 50.1777 62.6931 50.2339C62.1866 50.2058 61.6519 50.3182 61.1736 50.5431C60.8641 50.6836 60.639 50.9927 60.6108 51.358C60.639 51.6671 60.8359 51.9482 61.1173 52.0887C61.6238 52.3416 62.1584 52.5102 62.6931 52.5945C63.1996 52.6882 63.8936 52.8193 64.7753 52.988C66.2104 53.1847 67.6173 53.55 68.9679 54.084C70.009 54.6179 70.9095 55.4048 71.5566 56.3603ZM86.4981 37.7003C86.6669 37.8127 86.8076 38.0094 86.8358 38.2342C86.8358 38.4028 86.7514 38.5433 86.6107 38.6557H86.5825L83.5717 39.7517V40.5105H83.5999V46.3558H86.5825V51.077H83.5999V59.1705C83.5717 59.5639 83.7124 59.9574 83.9657 60.2384C84.3596 60.5194 84.8098 60.6318 85.26 60.5756C85.4476 60.5756 85.6446 60.5662 85.8509 60.5475C86.0573 60.5288 86.3011 60.51 86.5825 60.4913V65.6903C85.4757 65.8963 84.5472 66.0462 83.7968 66.1399C83.1778 66.2148 82.5494 66.2617 81.9116 66.2804C80.3358 66.4209 78.7882 65.887 77.6345 64.8191C76.6215 63.4983 76.1432 61.8402 76.2839 60.1822V51.077H73.8921V46.3558H76.2839V40.9601L76.1995 40.6791V39.7517L74.8488 39.274C74.8488 39.9203 74.8207 40.5948 74.8488 41.2412C74.9239 41.6346 75.0177 42.028 75.1302 42.4215C75.149 42.5526 75.1584 42.6931 75.1584 42.843C74.952 42.7868 74.7457 42.7212 74.5393 42.6463C74.483 42.5901 74.4549 42.5058 74.4549 42.4215C74.5393 42.0842 74.6519 41.747 74.7363 41.4098C74.755 41.3348 74.7644 41.2599 74.7644 41.185C74.7644 40.5667 74.7644 39.9391 74.7644 39.3021C74.7644 39.2834 74.755 39.2646 74.7363 39.2459L73.2168 38.7119V37.7565L79.9419 36.0703L86.47 37.6721L86.4981 37.7003ZM86.4418 38.4028C86.5544 38.3185 86.5544 38.2623 86.5544 38.2342C86.5544 38.1218 86.4137 37.9813 86.3293 37.9251L86.1604 37.897L80.0263 39.8641L73.6107 37.9532L73.4982 37.9813V38.5152L79.2666 40.5105H80.5891L86.4418 38.4028Z" fill="url(#paint2_linear_16478_1189)"/>
<defs>
<linearGradient id="paint0_linear_16478_1189" x1="7.83358" y1="42.8993" x2="34.6045" y2="42.8993" gradientUnits="userSpaceOnUse">
<stop stop-color="#13B8FF"/>
<stop offset="1" stop-color="#048BC4"/>
</linearGradient>
<linearGradient id="paint1_linear_16478_1189" x1="-3.03937" y1="12.8099" x2="47.9545" y2="12.8099" gradientUnits="userSpaceOnUse">
<stop stop-color="#13B8FF"/>
<stop offset="1" stop-color="#048BC4"/>
</linearGradient>
<linearGradient id="paint2_linear_16478_1189" x1="24.6068" y1="52.6697" x2="125.678" y2="52.6697" gradientUnits="userSpaceOnUse">
<stop stop-color="#13B8FF"/>
<stop offset="1" stop-color="#048BC4"/>
</linearGradient>
</defs>
</svg>
