<svg width="18" height="17" viewBox="0 0 18 17" fill="none" xmlns="http://www.w3.org/2000/svg">
<path d="M9.26551 12.4458C9.50789 12.4458 9.7112 12.3696 9.87545 12.2172C10.0391 12.0654 10.121 11.877 10.121 11.6521V9.27117H12.7087C12.9511 9.27117 13.1507 9.19498 13.3075 9.0426C13.4644 8.89075 13.5428 8.70239 13.5428 8.47752C13.5428 8.25266 13.4607 8.06403 13.2964 7.91165C13.1327 7.7598 12.9297 7.68387 12.6873 7.68387H10.121V5.28308C10.121 5.05821 10.0391 4.87303 9.87545 4.72752C9.7112 4.58202 9.50789 4.50927 9.26551 4.50927C9.02313 4.50927 8.8201 4.5852 8.65642 4.73705C8.49218 4.88943 8.41005 5.07805 8.41005 5.30292V7.68387H5.82229C5.57991 7.68387 5.38031 7.7598 5.22347 7.91165C5.06664 8.06403 4.98822 8.25266 4.98822 8.47752C4.98822 8.70239 5.07006 8.89075 5.23374 9.0426C5.39799 9.19498 5.6013 9.27117 5.84368 9.27117H8.41005V11.672C8.41005 11.8968 8.49218 12.082 8.65642 12.2275C8.8201 12.373 9.02313 12.4458 9.26551 12.4458ZM9.26551 16.414C8.08213 16.414 6.97003 16.2056 5.92923 15.7886C4.88842 15.3722 3.98306 14.8069 3.21315 14.0926C2.44324 13.3783 1.83387 12.5384 1.38504 11.5728C0.935638 10.6072 0.710938 9.57541 0.710938 8.47752C0.710938 7.37964 0.935638 6.34789 1.38504 5.38229C1.83387 4.41668 2.44324 3.57673 3.21315 2.86244C3.98306 2.14816 4.88842 1.58255 5.92923 1.16562C6.97003 0.749217 8.08213 0.541016 9.26551 0.541016C10.4489 0.541016 11.561 0.749217 12.6018 1.16562C13.6426 1.58255 14.548 2.14816 15.3179 2.86244C16.0878 3.57673 16.6972 4.41668 17.146 5.38229C17.5954 6.34789 17.8201 7.37964 17.8201 8.47752C17.8201 9.57541 17.5954 10.6072 17.146 11.5728C16.6972 12.5384 16.0878 13.3783 15.3179 14.0926C14.548 14.8069 13.6426 15.3722 12.6018 15.7886C11.561 16.2056 10.4489 16.414 9.26551 16.414ZM9.26551 14.8267C11.1618 14.8267 12.7766 14.2085 14.11 12.972C15.4428 11.7349 16.1092 10.2368 16.1092 8.47752C16.1092 6.71826 15.4428 5.22012 14.11 3.98308C12.7766 2.74657 11.1618 2.12832 9.26551 2.12832C7.36925 2.12832 5.75471 2.74657 4.42191 3.98308C3.08854 5.22012 2.42185 6.71826 2.42185 8.47752C2.42185 10.2368 3.08854 11.7349 4.42191 12.972C5.75471 14.2085 7.36925 14.8267 9.26551 14.8267Z" fill="black" fill-opacity="0.7"/>
</svg>
