<svg width="20" height="20" viewBox="0 0 20 20" fill="none" xmlns="http://www.w3.org/2000/svg">
<path d="M4.16602 14.1667H3.33268C2.89065 14.1667 2.46673 13.9911 2.15417 13.6785C1.84161 13.366 1.66602 12.942 1.66602 12.5V4.16667C1.66602 3.72464 1.84161 3.30072 2.15417 2.98816C2.46673 2.67559 2.89065 2.5 3.33268 2.5H16.666C17.108 2.5 17.532 2.67559 17.8445 2.98816C18.1571 3.30072 18.3327 3.72464 18.3327 4.16667V12.5C18.3327 12.942 18.1571 13.366 17.8445 13.6785C17.532 13.9911 17.108 14.1667 16.666 14.1667H15.8327" stroke="#2EA8DB" stroke-width="1.5" stroke-linecap="round" stroke-linejoin="round"/>
<path d="M10.0007 12.5L14.1673 17.5H5.83398L10.0007 12.5Z" stroke="#2EA8DB" stroke-width="1.5" stroke-linecap="round" stroke-linejoin="round"/>
</svg>
