<svg width="26" height="26" viewBox="0 0 26 26" fill="none" xmlns="http://www.w3.org/2000/svg">
<path d="M23.7613 3.68115H17.3868C16.2597 3.68115 15.1788 4.12888 14.3818 4.92585C13.5849 5.72282 13.1371 6.80374 13.1371 7.93082V22.8047C13.1371 21.9593 13.4729 21.1487 14.0707 20.5509C14.6684 19.9532 15.4791 19.6174 16.3244 19.6174H23.7613V3.68115Z" stroke="#4F547B" stroke-width="1.91235" stroke-linecap="round" stroke-linejoin="round"/>
<path d="M2.51294 3.68115H8.88744C10.0145 3.68115 11.0954 4.12888 11.8924 4.92585C12.6894 5.72282 13.1371 6.80374 13.1371 7.93082V22.8047C13.1371 21.9593 12.8013 21.1487 12.2036 20.5509C11.6059 19.9532 10.7952 19.6174 9.94986 19.6174H2.51294V3.68115Z" stroke="#4F547B" stroke-width="1.91235" stroke-linecap="round" stroke-linejoin="round"/>
</svg>
