<svg width="55" height="55" viewBox="0 0 55 55" fill="none" xmlns="http://www.w3.org/2000/svg">
<rect x="0.5" y="0.5" width="54" height="54" rx="8" fill="#E5007C" fill-opacity="0.1"/>
<path d="M16.5 31H16V31.5V38.5V39H16.5H23.5H24V38.5V31.5V31H23.5H16.5ZM23.5 40H16.5C16.1022 40 15.7206 39.842 15.4393 39.5607C15.158 39.2794 15 38.8978 15 38.5V31.5C15 31.1022 15.158 30.7206 15.4393 30.4393C15.7206 30.158 16.1022 30 16.5 30H23.5C23.8978 30 24.2794 30.158 24.5607 30.4393C24.842 30.7206 25 31.1022 25 31.5V38.5C25 38.8978 24.842 39.2794 24.5607 39.5607C24.2794 39.842 23.8978 40 23.5 40Z" stroke="#E5007C"/>
<path d="M16.5 22H16V22.5V26H15V16.5C15 16.1022 15.158 15.7206 15.4393 15.4393C15.7206 15.158 16.1022 15 16.5 15H38.5C38.8978 15 39.2794 15.158 39.5607 15.4393C39.842 15.7206 40 16.1022 40 16.5V38.5C40 38.8978 39.842 39.2794 39.5607 39.5607C39.2794 39.842 38.8978 40 38.5 40H29V39H38.5H39V38.5V31.5V31H38.5H29V30H38.5H39V29.5V22.5V22H38.5H28.5H28V22.5V26H27V22.5V22H26.5H16.5ZM38.5 21H39V20.5V16.5V16H38.5H16.5H16V16.5V20.5V21H16.5H38.5Z" stroke="#E5007C"/>
</svg>
