<svg width="20" height="20" viewBox="0 0 20 20" fill="none" xmlns="http://www.w3.org/2000/svg">
<path d="M19.1673 15.8333C19.1673 16.2754 18.9917 16.6993 18.6792 17.0118C18.3666 17.3244 17.9427 17.5 17.5007 17.5H2.50065C2.05862 17.5 1.6347 17.3244 1.32214 17.0118C1.00958 16.6993 0.833984 16.2754 0.833984 15.8333V6.66667C0.833984 6.22464 1.00958 5.80072 1.32214 5.48816C1.6347 5.17559 2.05862 5 2.50065 5H5.83398L7.50065 2.5H12.5007L14.1673 5H17.5007C17.9427 5 18.3666 5.17559 18.6792 5.48816C18.9917 5.80072 19.1673 6.22464 19.1673 6.66667V15.8333Z" stroke="#2EA8DB" stroke-width="1.5" stroke-linecap="round" stroke-linejoin="round"/>
<path d="M9.99935 14.1667C11.8403 14.1667 13.3327 12.6743 13.3327 10.8333C13.3327 8.99238 11.8403 7.5 9.99935 7.5C8.1584 7.5 6.66602 8.99238 6.66602 10.8333C6.66602 12.6743 8.1584 14.1667 9.99935 14.1667Z" stroke="#2EA8DB" stroke-width="1.5" stroke-linecap="round" stroke-linejoin="round"/>
</svg>
