<svg width="25" height="26" viewBox="0 0 25 26" fill="none" xmlns="http://www.w3.org/2000/svg">
<path d="M8.3335 13.207H15.6252M8.3335 17.3737H12.896M10.4168 6.7487H14.5835C16.6668 6.7487 16.6668 5.70703 16.6668 4.66536C16.6668 2.58203 15.6252 2.58203 14.5835 2.58203H10.4168C9.37516 2.58203 8.3335 2.58203 8.3335 4.66536C8.3335 6.7487 9.37516 6.7487 10.4168 6.7487Z" stroke="#4F547B" stroke-width="1.5" stroke-miterlimit="10" stroke-linecap="round" stroke-linejoin="round"/>
<path d="M16.6667 4.6875C20.1354 4.875 21.875 6.15625 21.875 10.9167V17.1667C21.875 21.3333 20.8333 23.4167 15.625 23.4167H9.375C4.16667 23.4167 3.125 21.3333 3.125 17.1667V10.9167C3.125 6.16667 4.86458 4.875 8.33333 4.6875" stroke="#4F547B" stroke-width="1.5" stroke-miterlimit="10" stroke-linecap="round" stroke-linejoin="round"/>
</svg>
