<svg width="26" height="27" viewBox="0 0 26 27" fill="none" xmlns="http://www.w3.org/2000/svg">
<path d="M17.3868 5.2417H19.5117C20.0752 5.2417 20.6157 5.46556 21.0141 5.86405C21.4126 6.26253 21.6365 6.80299 21.6365 7.36653V22.2404C21.6365 22.8039 21.4126 23.3444 21.0141 23.7429C20.6157 24.1413 20.0752 24.3652 19.5117 24.3652H6.76265C6.19911 24.3652 5.65865 24.1413 5.26017 23.7429C4.86168 23.3444 4.63782 22.8039 4.63782 22.2404V7.36653C4.63782 6.80299 4.86168 6.26253 5.26017 5.86405C5.65865 5.46556 6.19911 5.2417 6.76265 5.2417H8.88749" stroke="#4F547B" stroke-width="1.91235" stroke-linecap="round" stroke-linejoin="round"/>
<path d="M16.3244 3.11719H9.94987C9.36311 3.11719 8.88745 3.59285 8.88745 4.1796V6.30444C8.88745 6.89119 9.36311 7.36686 9.94987 7.36686H16.3244C16.9111 7.36686 17.3868 6.89119 17.3868 6.30444V4.1796C17.3868 3.59285 16.9111 3.11719 16.3244 3.11719Z" stroke="#4F547B" stroke-width="1.91235" stroke-linecap="round" stroke-linejoin="round"/>
</svg>
