<svg width="34" height="34" viewBox="0 0 34 34" fill="none" xmlns="http://www.w3.org/2000/svg">
<g clip-path="url(#clip0_2906_3874)">
<g opacity="0.7">
<path d="M15.5858 11.3427L17.7071 9.22137C18.1714 8.75708 18.7226 8.38878 19.3292 8.13751C19.9358 7.88623 20.586 7.75691 21.2426 7.75691C21.8992 7.75691 22.5494 7.88624 23.156 8.13751C23.7627 8.38878 24.3139 8.75708 24.7782 9.22137C25.2425 9.68567 25.6108 10.2369 25.862 10.8435C26.1133 11.4501 26.2426 12.1003 26.2426 12.7569C26.2426 13.4135 26.1133 14.0637 25.862 14.6703C25.6108 15.277 25.2425 15.8281 24.7782 16.2924L22.6568 18.4138M18.4142 22.6564L16.2929 24.7777C15.8286 25.242 15.2774 25.6103 14.6708 25.8616C14.0641 26.1129 13.414 26.2422 12.7573 26.2422C11.4313 26.2422 10.1595 25.7154 9.22181 24.7777C8.28413 23.84 7.75735 22.5683 7.75735 21.2422C7.75735 19.9161 8.28413 18.6443 9.22181 17.7067L11.3431 15.5853" stroke="#4F547B" stroke-width="2" stroke-linecap="round" stroke-linejoin="round"/>
<path d="M14.1716 19.8281L19.8285 14.1713" stroke="#4F547B" stroke-width="2" stroke-linecap="round" stroke-linejoin="round"/>
</g>
</g>
<defs>
<clipPath id="clip0_2906_3874">
<rect width="24" height="24" fill="white" transform="translate(0.029541 17) rotate(-45)"/>
</clipPath>
</defs>
</svg>
