<svg width="21" height="23" viewBox="0 0 21 23" fill="none" xmlns="http://www.w3.org/2000/svg">
<path d="M14.4846 5.86604V5.0694C14.4846 3.95399 14.4846 3.39628 14.2675 2.97025C14.0765 2.59551 13.7719 2.29083 13.3971 2.09989C12.9711 1.88281 12.4134 1.88281 11.298 1.88281H9.70468C8.58927 1.88281 8.03157 1.88281 7.60554 2.09989C7.23079 2.29083 6.92611 2.59551 6.73517 2.97025C6.5181 3.39628 6.5181 3.95399 6.5181 5.0694V5.86604M8.50971 11.343V16.322M12.4929 11.343V16.322M1.53906 5.86604H19.4636M17.472 5.86604V17.0191C17.472 18.6922 17.472 19.5288 17.1464 20.1678C16.86 20.7299 16.4029 21.1869 15.8408 21.4733C15.2018 21.799 14.3652 21.799 12.6921 21.799H8.31055C6.63744 21.799 5.80088 21.799 5.16184 21.4733C4.59972 21.1869 4.1427 20.7299 3.85629 20.1678C3.53068 19.5288 3.53068 18.6922 3.53068 17.0191V5.86604" stroke="#667085" stroke-width="1.99161" stroke-linecap="round" stroke-linejoin="round"/>
</svg>
