<svg width="19" height="19" viewBox="0 0 19 19" fill="none" xmlns="http://www.w3.org/2000/svg">
<path d="M7.40158 15.2599C7.57898 15.2599 7.74907 15.1895 7.87455 15.0641C7.99986 14.9389 8.0703 14.7688 8.0703 14.5915V6.14984C8.0703 5.91112 7.94281 5.69044 7.73602 5.57108C7.52908 5.45157 7.27424 5.45157 7.06731 5.57108C6.86037 5.69044 6.73303 5.91112 6.73303 6.14984V14.5915C6.73303 14.7688 6.80346 14.9389 6.92878 15.0641C7.05425 15.1895 7.22434 15.2599 7.40159 15.2599H7.40158Z" fill="#242731"/>
<path d="M11.1772 15.2599C11.3545 15.2599 11.5246 15.1895 11.65 15.0641C11.7754 14.9389 11.8458 14.7688 11.8458 14.5915V6.14984C11.8458 5.91112 11.7185 5.69044 11.5115 5.57108C11.3046 5.45157 11.0497 5.45157 10.8428 5.57108C10.636 5.69044 10.5085 5.91112 10.5085 6.14984V14.5915C10.5085 14.7688 10.579 14.9389 10.7043 15.0641C10.8298 15.1895 10.9998 15.2599 11.1773 15.2599H11.1772Z" fill="#242731"/>
<path d="M1.99411 3.61861H2.73184V14.636C2.73184 15.6406 3.1311 16.604 3.8418 17.3142C4.55235 18.0246 5.51612 18.4235 6.52113 18.4235H12.0576C13.0626 18.4235 14.0264 18.0246 14.7369 17.3142C15.4476 16.6039 15.8469 15.6406 15.8469 14.636V3.61861H16.5846C16.8234 3.61861 17.0442 3.49133 17.1636 3.28448C17.2832 3.07763 17.2832 2.82289 17.1636 2.61604C17.0442 2.40935 16.8234 2.28191 16.5846 2.28191H12.5503V1.82517C12.5503 1.41148 12.3858 1.01486 12.0932 0.722361C11.8006 0.429875 11.4038 0.265625 10.9899 0.265625H7.5887C7.17484 0.265625 6.77805 0.429895 6.48542 0.722361C6.19281 1.01485 6.02834 1.41144 6.02834 1.82517V2.28191H1.99399C1.75518 2.28191 1.5344 2.40935 1.41499 2.61604C1.29543 2.8229 1.29543 3.07763 1.41499 3.28448C1.5344 3.49133 1.75517 3.61861 1.99399 3.61861H1.99411ZM7.36581 1.82517C7.36581 1.70208 7.46562 1.6023 7.58876 1.6023H10.99C11.0492 1.6023 11.1058 1.62577 11.1476 1.66758C11.1895 1.70938 11.2129 1.76611 11.2129 1.82516V2.2819H7.36581L7.36581 1.82517ZM4.06923 3.61861H14.5093V14.636C14.5093 15.2859 14.2509 15.9093 13.7912 16.369C13.3314 16.8286 12.7078 17.0868 12.0574 17.0868H6.52097C5.8706 17.0868 5.24698 16.8286 4.78723 16.369C4.32747 15.9093 4.06907 15.2859 4.06907 14.636L4.06923 3.61861Z" fill="#242731"/>
</svg>
