<svg width="24" height="25" viewBox="0 0 24 25" fill="none" xmlns="http://www.w3.org/2000/svg">
<g id="edit-04">
<path id="Icon" d="M21 18.9983L19.9999 20.0923C19.4695 20.6724 18.7501 20.9983 18.0001 20.9983C17.2501 20.9983 16.5308 20.6724 16.0004 20.0923C15.4692 19.5134 14.75 19.1883 14.0002 19.1883C13.2504 19.1883 12.5311 19.5134 12 20.0923M3 20.9983H4.67454C5.16372 20.9983 5.40832 20.9983 5.63849 20.943C5.84256 20.894 6.03765 20.8132 6.2166 20.7036C6.41843 20.5799 6.59138 20.4069 6.93729 20.061L19.5 7.49827C20.3285 6.66985 20.3285 5.3267 19.5 4.49827C18.6716 3.66985 17.3285 3.66985 16.5 4.49827L3.93726 17.061C3.59136 17.4069 3.4184 17.5799 3.29472 17.7817C3.18506 17.9606 3.10425 18.1557 3.05526 18.3598C3 18.59 3 18.8346 3 19.3238V20.9983Z" stroke="#4F547B" stroke-width="1.5" stroke-linecap="round" stroke-linejoin="round"/>
</g>
</svg>
