<svg width="24" height="24" viewBox="0 0 24 24" fill="none" xmlns="http://www.w3.org/2000/svg">
<path d="M4.04846 20.364C3.29769 20.364 2.59616 20.1276 2.09154 19.6886C1.45154 19.1371 1.14385 18.3043 1.25462 17.4039L1.71 13.7574C1.79616 13.0709 2.25154 12.1592 2.78077 11.664L12.8854 1.88379C15.4085 -0.55848 18.0423 -0.626008 20.7131 1.6812C23.3839 3.98841 23.4577 6.39691 20.9346 8.83918L10.83 18.6194C10.3131 19.1259 9.35308 19.5986 8.60231 19.7112L4.63923 20.3301C4.43 20.3414 4.24539 20.364 4.04846 20.364ZM16.8362 1.66995C15.8885 1.66995 15.0639 2.21017 14.2269 3.02051L4.12231 12.8121C3.87615 13.0485 3.59308 13.6112 3.54385 13.9376L3.08846 17.584C3.03923 17.9554 3.13769 18.2593 3.35923 18.4506C3.58077 18.6419 3.91308 18.7095 4.31923 18.6532L8.28231 18.0343C8.63923 17.978 9.23 17.6853 9.47616 17.4489L19.5808 7.66869C21.1069 6.18307 21.6608 4.81 19.4331 2.89671C18.4485 2.0301 17.5992 1.66995 16.8362 1.66995Z" fill="#292D32"/>
<path d="M18.5731 10.7165C18.5485 10.7165 18.5116 10.7165 18.487 10.7165C14.647 10.3676 11.5578 7.70033 10.967 4.21138C10.8931 3.74994 11.2378 3.32226 11.7424 3.24348C12.247 3.17595 12.7147 3.49108 12.8008 3.95253C13.2685 6.67616 15.6808 8.76953 18.6839 9.03964C19.1885 9.08466 19.5578 9.50108 19.5085 9.96247C19.447 10.3901 19.0408 10.7165 18.5731 10.7165Z" fill="#292D32"/>
<path d="M23.0769 24.0007H0.923077C0.418462 24.0007 0 23.618 0 23.1566C0 22.6952 0.418462 22.3125 0.923077 22.3125H23.0769C23.5815 22.3125 24 22.6952 24 23.1566C24 23.618 23.5815 24.0007 23.0769 24.0007Z" fill="#292D32"/>
</svg>
