<svg width="20" height="20" viewBox="0 0 20 20" fill="none" xmlns="http://www.w3.org/2000/svg">
<path d="M11.8349 2.66568C11.6931 2.68445 11.5583 2.75189 11.4581 2.85402L0.645121 13.6666C0.549148 13.7624 0.484566 13.8892 0.463388 14.0231L0.00592451 16.9164C-0.0537019 17.3161 0.347008 17.7132 0.746064 17.6498L3.63934 17.1989C3.77331 17.1779 3.90007 17.1131 3.99589 17.0172L14.8019 6.20459C15.0419 5.96534 15.0419 5.52874 14.8019 5.28947L12.3661 2.85366C12.179 2.66277 12.0253 2.65406 11.8346 2.66533L11.8349 2.66568ZM11.9157 4.22678L13.4364 5.74747L3.22901 15.9545L1.42584 16.2371L1.7085 14.434L11.9157 4.22678ZM6.67437 16.3651C6.31767 16.3651 6.02839 16.6542 6.02839 17.011C6.02839 17.3677 6.31766 17.657 6.67437 17.657H18.7319C19.0886 17.657 19.3779 17.3678 19.3779 17.011C19.3779 16.6543 19.0886 16.3651 18.7319 16.3651H6.67437Z" fill="#000"/>
</svg>
