<svg width="25" height="26" viewBox="0 0 25 26" fill="none" xmlns="http://www.w3.org/2000/svg">
<g id="Iconsax/Linear/briefcase">
<path id="Vector" d="M20.3223 7.03125H4.32227C3.2177 7.03125 2.32227 7.92668 2.32227 9.03125V19.0312C2.32227 20.1358 3.2177 21.0312 4.32227 21.0312H20.3223C21.4268 21.0312 22.3223 20.1358 22.3223 19.0312V9.03125C22.3223 7.92668 21.4268 7.03125 20.3223 7.03125Z" stroke="#4F547B" stroke-width="2" stroke-linecap="round" stroke-linejoin="round"/>
<path id="Vector_2" d="M16.3223 21.0312V5.03125C16.3223 4.50082 16.1116 3.99211 15.7365 3.61704C15.3614 3.24196 14.8527 3.03125 14.3223 3.03125H10.3223C9.79183 3.03125 9.28313 3.24196 8.90805 3.61704C8.53298 3.99211 8.32227 4.50082 8.32227 5.03125V21.0312" stroke="#4F547B" stroke-width="2" stroke-linecap="round" stroke-linejoin="round"/>
</g>
</svg>
