<svg width="44" height="44" viewBox="0 0 44 44" fill="none" xmlns="http://www.w3.org/2000/svg">
<rect x="2.60938" y="3.26367" width="38.239" height="38.239" rx="19.1195" fill="#F4EBFF"/>
<g clip-path="url(#clip0_7753_32244)">
<path d="M30.1405 16.9793L25.0496 11.8884C24.9912 11.8354 24.9153 11.8059 24.8364 11.8057H16.796C16.2623 11.8057 15.7505 12.0174 15.3729 12.3945C14.9953 12.7715 14.7827 13.283 14.7819 13.8166V20.247H14.5305C14.1702 20.247 13.8246 20.3902 13.5698 20.645C13.315 20.8998 13.1719 21.2453 13.1719 21.6057V27.7688C13.1727 28.1269 13.3156 28.4701 13.5691 28.723C13.8226 28.9759 14.1661 29.1179 14.5241 29.1179H14.7851V30.1584C14.7859 30.6915 14.998 31.2025 15.375 31.5794C15.7519 31.9563 16.2629 32.1685 16.796 32.1693H28.2251C28.7581 32.1685 29.2691 31.9563 29.6461 31.5794C30.023 31.2025 30.2351 30.6915 30.236 30.1584V17.2148C30.2371 17.1711 30.2292 17.1276 30.2128 17.0871C30.1963 17.0466 30.1717 17.0099 30.1405 16.9793ZM14.7787 22.3311H14.5305C14.3468 22.3189 14.1746 22.2374 14.0489 22.103C13.9231 21.9686 13.8531 21.7913 13.8531 21.6073C13.8531 21.4232 13.9231 21.246 14.0489 21.1115C14.1746 20.9771 14.3468 20.8956 14.5305 20.8834H14.7787V22.3311ZM29.5996 30.1584C29.5988 30.5227 29.4537 30.8718 29.1961 31.1294C28.9385 31.387 28.5894 31.5321 28.2251 31.5329H16.796C16.4311 31.5329 16.0812 31.3882 15.8229 31.1305C15.5646 30.8728 15.4191 30.5232 15.4182 30.1584V29.1179H25.4664C25.5508 29.1179 25.6317 29.0844 25.6914 29.0247C25.7511 28.9651 25.7846 28.8841 25.7846 28.7998V22.6461C25.7846 22.5617 25.7511 22.4808 25.6914 22.4211C25.6317 22.3615 25.5508 22.3279 25.4664 22.3279H15.4182V13.8166C15.4191 13.4517 15.5646 13.1021 15.8229 12.8444C16.0812 12.5867 16.4311 12.442 16.796 12.442H24.5182V15.5093C24.517 15.7743 24.568 16.037 24.6685 16.2823C24.769 16.5275 24.9168 16.7505 25.1036 16.9385C25.2905 17.1265 25.5125 17.2758 25.7572 17.3778C26.0018 17.4798 26.2641 17.5325 26.5291 17.5329H29.5996V30.1584ZM16.2169 24.2498H16.9073L17.496 25.2043L18.0719 24.2498H18.756L17.846 25.672L18.8387 27.1802H18.1323L17.496 26.1652L16.8596 27.1802H16.1214L17.1237 25.6498L16.2169 24.2498ZM21.2282 26.687V27.1802H19.1569V24.2752H19.7487V26.687H21.2282ZM23.2264 26.1525C23.1696 26.0914 23.0969 26.0473 23.0164 26.0252C22.9464 25.9998 22.7873 25.9584 22.5423 25.8979C22.3001 25.8528 22.0715 25.7526 21.8741 25.6052C21.7312 25.4843 21.6376 25.3151 21.6112 25.1297C21.5848 24.9444 21.6274 24.7558 21.731 24.5998C21.8208 24.4662 21.9481 24.3622 22.0969 24.3007C22.2813 24.2342 22.477 24.205 22.6728 24.2148C22.9696 24.1934 23.2643 24.2792 23.5032 24.4566C23.5937 24.5364 23.6664 24.6342 23.7169 24.7438C23.7673 24.8534 23.7942 24.9723 23.796 25.0929L23.2041 25.1184C23.1903 24.9962 23.1326 24.8832 23.0419 24.8002C22.9298 24.7206 22.7941 24.6814 22.6569 24.6888C22.514 24.6803 22.3722 24.7182 22.2528 24.797C22.2237 24.8174 22.2001 24.8446 22.184 24.8762C22.1679 24.9078 22.1598 24.9429 22.1605 24.9784C22.1608 25.0129 22.1689 25.0469 22.1844 25.0778C22.1998 25.1087 22.2221 25.1357 22.2496 25.1566C22.4164 25.2541 22.5998 25.3199 22.7905 25.3507C23.01 25.396 23.2235 25.4664 23.4269 25.5607C23.5574 25.6306 23.6672 25.7338 23.7451 25.8598C23.8257 26.001 23.8653 26.1618 23.8596 26.3243C23.861 26.4927 23.8122 26.6577 23.7196 26.7984C23.6253 26.9437 23.4871 27.0552 23.3251 27.1166C23.1224 27.1952 22.9059 27.232 22.6887 27.2248C22.3827 27.2444 22.0799 27.1529 21.836 26.967C21.6249 26.7733 21.4972 26.5053 21.4796 26.2193L22.0555 26.1652C22.0746 26.3263 22.1488 26.4758 22.2655 26.5884C22.3872 26.6849 22.54 26.7335 22.6951 26.7252C22.8479 26.7361 22.9999 26.6934 23.1246 26.6043C23.169 26.5714 23.2052 26.5287 23.2306 26.4796C23.2559 26.4306 23.2697 26.3763 23.271 26.3211C23.2762 26.2614 23.2604 26.2018 23.2264 26.1525Z" fill="#058922"/>
</g>
<rect x="2.60938" y="3.26367" width="38.239" height="38.239" rx="19.1195" stroke="#F9F5FF" stroke-width="4.77987"/>
<defs>
<clipPath id="clip0_7753_32244">
<rect width="21" height="21" fill="white" transform="translate(11.2031 11.4873)"/>
</clipPath>
</defs>
</svg>
