<svg width="18" height="18" viewBox="0 0 18 18" fill="none" xmlns="http://www.w3.org/2000/svg">
<g clip-path="url(#clip0_9366_8334)">
<path d="M11.6922 8.99751C11.6922 10.4825 10.4923 11.6825 9.00727 11.6825C7.52227 11.6825 6.32227 10.4825 6.32227 8.99751C6.32227 7.51251 7.52227 6.3125 9.00727 6.3125C10.4923 6.3125 11.6922 7.51251 11.6922 8.99751Z" stroke="#262626" stroke-opacity="0.7" stroke-width="1.5" stroke-linecap="round" stroke-linejoin="round"/>
<path d="M9.00476 15.2015C11.6523 15.2015 14.1197 13.6416 15.8373 10.9416C16.5123 9.88405 16.5123 8.10656 15.8373 7.04906C14.1197 4.34906 11.6523 2.78906 9.00476 2.78906C6.35727 2.78906 3.88976 4.34906 2.17227 7.04906C1.49727 8.10656 1.49727 9.88405 2.17227 10.9416C3.88976 13.6416 6.35727 15.2015 9.00476 15.2015Z" stroke="#262626" stroke-opacity="0.7" stroke-width="1.5" stroke-linecap="round" stroke-linejoin="round"/>
</g>
<defs>
<clipPath id="clip0_9366_8334">
<rect width="18" height="18" fill="white" transform="translate(0.00585938)"/>
</clipPath>
</defs>
</svg>
