<svg width="22" height="22" viewBox="0 0 22 22" fill="none" xmlns="http://www.w3.org/2000/svg">
<path d="M13.0904 5.72222H19.0442C19.5163 5.72222 19.7524 5.72222 19.8904 5.82149C20.0109 5.9081 20.0893 6.04141 20.1065 6.18877C20.1263 6.35767 20.0116 6.56403 19.7823 6.97677L18.3615 9.53435C18.2783 9.68403 18.2367 9.75887 18.2204 9.83812C18.206 9.90827 18.206 9.98062 18.2204 10.0508C18.2367 10.13 18.2783 10.2049 18.3615 10.3545L19.7823 12.9121C20.0116 13.3248 20.1263 13.5312 20.1065 13.7001C20.0893 13.8475 20.0109 13.9808 19.8904 14.0674C19.7524 14.1667 19.5163 14.1667 19.0442 14.1667H11.6126C11.0215 14.1667 10.7259 14.1667 10.5001 14.0516C10.3015 13.9504 10.14 13.7889 10.0388 13.5903C9.92374 13.3645 9.92374 13.0689 9.92374 12.4778V9.94444M6.2293 20.5L2.00708 3.61111M3.59045 9.94444H11.4015C11.9927 9.94444 12.2883 9.94444 12.5141 9.8294C12.7127 9.7282 12.8742 9.56672 12.9754 9.3681C13.0904 9.14231 13.0904 8.84672 13.0904 8.25556V3.18889C13.0904 2.59772 13.0904 2.30214 12.9754 2.07634C12.8742 1.87773 12.7127 1.71625 12.5141 1.61505C12.2883 1.5 11.9927 1.5 11.4015 1.5H3.64237C2.90504 1.5 2.53638 1.5 2.28422 1.65278C2.06322 1.78668 1.89901 1.99699 1.82271 2.24387C1.73566 2.52555 1.82508 2.88321 2.00391 3.59852L3.59045 9.94444Z" stroke="#344054" stroke-width="2" stroke-linecap="round" stroke-linejoin="round"/>
</svg>
