<svg width="25" height="26" viewBox="0 0 25 26" fill="none" xmlns="http://www.w3.org/2000/svg">
<path d="M18.75 22.373C20.4759 22.373 21.875 20.9739 21.875 19.248C21.875 17.5222 20.4759 16.123 18.75 16.123C17.0241 16.123 15.625 17.5222 15.625 19.248C15.625 20.9739 17.0241 22.373 18.75 22.373Z" stroke="#4F547B" stroke-width="2" stroke-linecap="round" stroke-linejoin="round"/>
<path d="M6.25 9.87305C7.97589 9.87305 9.375 8.47394 9.375 6.74805C9.375 5.02216 7.97589 3.62305 6.25 3.62305C4.52411 3.62305 3.125 5.02216 3.125 6.74805C3.125 8.47394 4.52411 9.87305 6.25 9.87305Z" stroke="#4F547B" stroke-width="2" stroke-linecap="round" stroke-linejoin="round"/>
<path d="M6.25 22.373V9.87305C6.25 12.3595 7.23772 14.744 8.99587 16.5022C10.754 18.2603 13.1386 19.248 15.625 19.248" stroke="#4F547B" stroke-width="2" stroke-linecap="round" stroke-linejoin="round"/>
</svg>
