<svg width="26" height="26" viewBox="0 0 26 26" fill="none" xmlns="http://www.w3.org/2000/svg">
<ellipse cx="13" cy="13" rx="12" ry="12" stroke="white" stroke-opacity="0.1"/>
<path d="M21.842 13.1964C21.842 12.4694 21.7818 11.9388 21.6515 11.3887H13.1803V14.67H18.1527C18.0525 15.4855 17.5111 16.7136 16.3081 17.5388L16.2913 17.6487L18.9697 19.6821L19.1552 19.7003C20.8595 18.1578 21.842 15.8883 21.842 13.1964Z" fill="#4285F4"/>
<path d="M13.1797 21.8422C15.6157 21.8422 17.6608 21.0562 19.1546 19.7004L16.3075 17.5389C15.5456 18.0596 14.523 18.4232 13.1797 18.4232C10.7938 18.4232 8.76872 16.8807 8.04685 14.7488L7.94104 14.7576L5.15599 16.8699L5.11957 16.9691C6.60325 19.8575 9.65086 21.8422 13.1797 21.8422Z" fill="#34A853"/>
<path d="M8.04745 14.749C7.85698 14.1988 7.74674 13.6093 7.74674 13.0002C7.74674 12.391 7.85698 11.8016 8.03743 11.2514L8.03238 11.1343L5.21242 8.98804L5.12016 9.03105C4.50866 10.2297 4.15778 11.5756 4.15778 13.0002C4.15778 14.4248 4.50866 15.7707 5.12016 16.9693L8.04745 14.749Z" fill="#FBBC05"/>
<path d="M13.1797 7.57688C14.8739 7.57688 16.0168 8.29407 16.6684 8.89341L19.2148 6.45691C17.6509 5.03235 15.6158 4.15796 13.1797 4.15796C9.65089 4.15796 6.60326 6.14251 5.11957 9.0309L8.03685 11.2513C8.76874 9.11936 10.7938 7.57688 13.1797 7.57688Z" fill="#EB4335"/>
</svg>
