<svg width="20" height="21" viewBox="0 0 20 21" fill="none" xmlns="http://www.w3.org/2000/svg">
<path d="M9.99996 18.4176C14.6023 18.4176 18.3333 14.6867 18.3333 10.0843C18.3333 5.48194 14.6023 1.75098 9.99996 1.75098C5.39759 1.75098 1.66663 5.48194 1.66663 10.0843C1.66663 14.6867 5.39759 18.4176 9.99996 18.4176Z" stroke="#4F547B" stroke-width="1.5" stroke-linecap="round" stroke-linejoin="round"/>
<path d="M7.57495 7.58446C7.77087 7.02752 8.15758 6.55788 8.66658 6.25874C9.17558 5.95959 9.77403 5.85024 10.3559 5.95005C10.9378 6.04986 11.4656 6.3524 11.8458 6.80407C12.2261 7.25574 12.4342 7.82739 12.4333 8.41779C12.4333 10.0845 9.93328 10.9178 9.93328 10.9178" stroke="#4F547B" stroke-width="1.5" stroke-linecap="round" stroke-linejoin="round"/>
<path d="M10 14.251H10.0083" stroke="#4F547B" stroke-width="1.5" stroke-linecap="round" stroke-linejoin="round"/>
</svg>
