<svg width="18" height="18" viewBox="0 0 18 18" fill="none" xmlns="http://www.w3.org/2000/svg">
<g clip-path="url(#clip0_8321_36977)">
<path d="M9.00028 11.5718C10.598 11.5718 11.8931 10.2767 11.8931 8.67899C11.8931 7.08131 10.598 5.78613 9.00028 5.78613C7.4026 5.78613 6.10742 7.08131 6.10742 8.67899C6.10742 10.2767 7.4026 11.5718 9.00028 11.5718Z" stroke="#2EA8DB" stroke-width="1.5" stroke-linecap="round" stroke-linejoin="round"/>
<path d="M14.1431 17.3573C13.6564 16.4129 12.919 15.6208 12.0118 15.0677C11.1047 14.5147 10.0627 14.2222 9.00028 14.2222C7.93783 14.2222 6.89589 14.5147 5.98871 15.0677C5.08154 15.6208 4.34416 16.4129 3.85742 17.3573" stroke="#2EA8DB" stroke-width="1.5" stroke-linecap="round" stroke-linejoin="round"/>
<path d="M15.4285 13.5773C16.3409 12.3873 16.9021 10.9656 17.0486 9.47327C17.1951 7.98088 16.9211 6.47727 16.2576 5.13249C15.5941 3.78771 14.5676 2.65542 13.2941 1.86368C12.0205 1.07194 10.5509 0.652344 9.05134 0.652344C7.55178 0.652344 6.08214 1.07194 4.80863 1.86368C3.53512 2.65542 2.50856 3.78771 1.84505 5.13249C1.18154 6.47727 0.907555 7.98088 1.05408 9.47327C1.20061 10.9656 1.76181 12.3873 2.6742 13.5773" stroke="#2EA8DB" stroke-width="1.5" stroke-linecap="round" stroke-linejoin="round"/>
</g>
<defs>
<clipPath id="clip0_8321_36977">
<rect width="18" height="18" fill="white"/>
</clipPath>
</defs>
</svg>
