<svg width="20" height="20" viewBox="0 0 20 20" fill="none" xmlns="http://www.w3.org/2000/svg">
<g clip-path="url(#clip0_8321_36605)">
<path d="M13.5717 2.14307H15.7146C16.0934 2.14307 16.4568 2.29358 16.7247 2.56149C16.9926 2.82939 17.1431 3.19276 17.1431 3.57164V17.8574C17.1431 18.2362 16.9926 18.5996 16.7247 18.8675C16.4568 19.1354 16.0934 19.2859 15.7146 19.2859H4.28599C3.90711 19.2859 3.54375 19.1354 3.27584 18.8675C3.00793 18.5996 2.85742 18.2362 2.85742 17.8574V3.57164C2.85742 3.19276 3.00793 2.82939 3.27584 2.56149C3.54375 2.29358 3.90711 2.14307 4.28599 2.14307H6.42885" stroke="#2EA8DB" stroke-width="1.5" stroke-linecap="round" stroke-linejoin="round"/>
<path d="M12.144 0.714355H7.85826C7.06928 0.714355 6.42969 1.35395 6.42969 2.14293V2.85721C6.42969 3.64619 7.06928 4.28578 7.85826 4.28578H12.144C12.933 4.28578 13.5725 3.64619 13.5725 2.85721V2.14293C13.5725 1.35395 12.933 0.714355 12.144 0.714355Z" stroke="#2EA8DB" stroke-width="1.5" stroke-linecap="round" stroke-linejoin="round"/>
<path d="M6.42969 7.85742H13.5725" stroke="#2EA8DB" stroke-width="1.5" stroke-linecap="round" stroke-linejoin="round"/>
<path d="M6.42969 11.4287H13.5725" stroke="#2EA8DB" stroke-width="1.5" stroke-linecap="round" stroke-linejoin="round"/>
<path d="M6.42969 15H13.5725" stroke="#2EA8DB" stroke-width="1.5" stroke-linecap="round" stroke-linejoin="round"/>
</g>
<defs>
<clipPath id="clip0_8321_36605">
<rect width="20" height="20" fill="white"/>
</clipPath>
</defs>
</svg>
