<svg width="24" height="24" viewBox="0 0 24 24" fill="none" xmlns="http://www.w3.org/2000/svg">
<path d="M4.02001 5.96805C2.70624 7.70352 1.99677 9.82139 2.00001 11.998C2.00001 17.518 6.48001 21.998 12 21.998C17.52 21.998 22 17.518 22 11.998C22 6.47805 17.52 1.99805 12 1.99805" stroke="#4F547B" stroke-width="1.5" stroke-linecap="round" stroke-linejoin="round"/>
<path d="M5 11.998C5 15.868 8.13 18.998 12 18.998C15.87 18.998 19 15.868 19 11.998C19 8.12805 15.87 4.99805 12 4.99805" stroke="#4F547B" stroke-width="1.5" stroke-linecap="round" stroke-linejoin="round"/>
<path d="M12 15.998C14.21 15.998 16 14.208 16 11.998C16 9.78805 14.21 7.99805 12 7.99805" stroke="#4F547B" stroke-width="1.5" stroke-linecap="round" stroke-linejoin="round"/>
</svg>
