<svg width="22" height="22" viewBox="0 0 22 22" fill="none" xmlns="http://www.w3.org/2000/svg">
<g id="&#240;&#159;&#166;&#134; icon &#34;message edit&#34;">
<g id="Group">
<path id="Vector" d="M21 7C21 3 19 1 15 1H7C3 1 1 3 1 7V20C1 20.55 1.45 21 2 21H15C19 21 21 19 21 15V11" stroke="#4F547B" stroke-width="1.5" stroke-linecap="round" stroke-linejoin="round"/>
<g id="Group_2">
<path id="Vector_2" d="M14.5108 10.7399L15.1608 10.0899C15.2008 10.0499 15.2408 10.0099 15.2808 9.95986C16.0908 9.09986 16.4108 8.08987 15.1608 6.83987C13.8408 5.51987 12.8008 5.94987 11.9108 6.83987L6.72077 12.0299C6.52077 12.2299 6.33077 12.6199 6.29077 12.8999L6.01078 14.8799C5.91078 15.5999 6.41077 16.0999 7.13077 15.9999L9.1108 15.7199C9.3908 15.6799 9.7808 15.4899 9.9808 15.2899L11.9208 13.3499" stroke="#4F547B" stroke-width="1.5" stroke-miterlimit="10" stroke-linecap="round" stroke-linejoin="round"/>
<path id="Vector_3" d="M11.1699 7.57959C11.6099 9.14961 12.8399 10.3896 14.4199 10.8296" stroke="#4F547B" stroke-width="1.5" stroke-miterlimit="10" stroke-linecap="round" stroke-linejoin="round"/>
</g>
</g>
</g>
</svg>
