<svg width="24" height="24" viewBox="0 0 24 24" fill="none" xmlns="http://www.w3.org/2000/svg">
<g opacity="0.5">
<path opacity="0.5" d="M13.9761 5.83333H15.6428V7.5H13.9761V5.83333ZM13.1428 8.33333H14.8095V10H13.1428V8.33333ZM11.4761 5.83333H13.1428V7.5H11.4761V5.83333ZM17.3095 10H15.6428V8.33333H17.3095V10ZM18.1428 7.5H16.4761V5.83333H18.1428V7.5ZM19.8095 10H18.1428V8.33333H19.8095V10ZM20.6428 7.5H18.9761V5.83333H20.6428V7.5ZM14.4928 14.4833L12.3928 16.5833C10.3095 15.3917 8.58447 13.6667 7.3928 11.5833L9.4928 9.48333C9.6928 9.28333 9.77613 9 9.72613 8.73333L9.10947 5.66667C9.03447 5.28333 8.6928 5 8.2928 5H4.83447C4.3678 5 3.97613 5.39167 4.00113 5.85833C4.1428 8.26667 4.85113 10.525 6.00113 12.5C7.3178 14.775 9.20947 16.6583 11.4761 17.975C13.4511 19.1167 15.7095 19.8333 18.1178 19.975C18.5845 20 18.9761 19.6083 18.9761 19.1417V15.6833C18.9761 15.2833 18.6928 14.9417 18.3095 14.8667L15.2511 14.2583C15.116 14.2294 14.9758 14.2348 14.8433 14.2741C14.7108 14.3134 14.5903 14.3854 14.4928 14.4833ZM13.9761 10.8333H15.6428V12.5H13.9761V10.8333ZM11.4761 10.8333H13.1428V12.5H11.4761V10.8333ZM18.1428 12.5H16.4761V10.8333H18.1428V12.5ZM20.6428 12.5H18.9761V10.8333H20.6428V12.5Z" fill="#231F20"/>
</g>
</svg>
