<svg width="4" height="19" viewBox="0 0 4 19" fill="none" xmlns="http://www.w3.org/2000/svg">
<path d="M1.99805 7.72266C0.894047 7.72266 -0.00195312 8.61866 -0.00195312 9.72266C-0.00195312 10.8267 0.894047 11.7227 1.99805 11.7227C3.10205 11.7227 3.99805 10.8267 3.99805 9.72266C3.99805 8.61866 3.10205 7.72266 1.99805 7.72266Z" fill="#231F20"/>
<path d="M1.99805 4.97266C3.10205 4.97266 3.99805 4.07666 3.99805 2.97266C3.99805 1.86866 3.10205 0.972656 1.99805 0.972656C0.894047 0.972656 -0.00195312 1.86866 -0.00195312 2.97266C-0.00195312 4.07666 0.894047 4.97266 1.99805 4.97266Z" fill="#231F20"/>
<path d="M1.99805 14.4727C0.894047 14.4727 -0.00195312 15.3687 -0.00195312 16.4727C-0.00195312 17.5767 0.894047 18.4727 1.99805 18.4727C3.10205 18.4727 3.99805 17.5767 3.99805 16.4727C3.99805 15.3687 3.10205 14.4727 1.99805 14.4727Z" fill="#231F20"/>
</svg>
