<svg width="26" height="26" viewBox="0 0 26 26" fill="none" xmlns="http://www.w3.org/2000/svg">
<path d="M12.8881 12.9982C14.2695 12.9982 15.5942 12.4495 16.571 11.4727C17.5477 10.496 18.0965 9.17121 18.0965 7.78988C18.0965 6.40854 17.5477 5.08378 16.571 4.10703C15.5942 3.13028 14.2695 2.58154 12.8881 2.58154C11.5068 2.58154 10.182 3.13028 9.2053 4.10703C8.22854 5.08378 7.67981 6.40854 7.67981 7.78988C7.67981 9.17121 8.22854 10.496 9.2053 11.4727C10.182 12.4495 11.5068 12.9982 12.8881 12.9982Z" stroke="#4F547B" stroke-width="2" stroke-linecap="round" stroke-linejoin="round"/>
<path d="M20.3985 16.8938L16.711 20.5813C16.5652 20.7271 16.4298 20.9979 16.3985 21.1959L16.2006 22.6021C16.1277 23.1125 16.4819 23.4667 16.9923 23.3938L18.3985 23.1959C18.5964 23.1646 18.8777 23.0292 19.0131 22.8834L22.7006 19.1959C23.336 18.5604 23.6381 17.8209 22.7006 16.8834C21.7735 15.9563 21.0339 16.2584 20.3985 16.8938Z" stroke="#4F547B" stroke-width="2" stroke-miterlimit="10" stroke-linecap="round" stroke-linejoin="round"/>
<path d="M19.8673 17.4253C20.1798 18.5503 21.0548 19.4253 22.1798 19.7378" stroke="#4F547B" stroke-width="2" stroke-miterlimit="10" stroke-linecap="round" stroke-linejoin="round"/>
<path d="M3.94019 23.4147C3.94019 19.3835 7.9506 16.123 12.8881 16.123C13.9714 16.123 15.0131 16.2793 15.9819 16.571" stroke="#4F547B" stroke-width="2" stroke-linecap="round" stroke-linejoin="round"/>
</svg>
