<svg width="24" height="24" viewBox="0 0 24 24" fill="none" xmlns="http://www.w3.org/2000/svg">
<g clip-path="url(#clip0_3412_356)">
<path d="M16.753 5.89443L16.7529 17.1072C16.7529 18.4809 16.2073 19.7983 15.2359 20.7696C14.2646 21.7409 12.9472 22.2866 11.5736 22.2866C10.1999 22.2866 8.88253 21.7409 7.91121 20.7696C6.93989 19.7983 6.39421 18.4809 6.39421 17.1072L6.39421 5.89443C6.39421 4.97866 6.758 4.1004 7.40555 3.45285C8.05309 2.8053 8.93136 2.44152 9.84713 2.44152C10.7629 2.44152 11.6412 2.8053 12.2887 3.45285C12.9362 4.1004 13.3 4.97866 13.3 5.89443L13.2939 17.1133C13.2939 17.5712 13.112 18.0104 12.7883 18.3341C12.4645 18.6579 12.0254 18.8398 11.5675 18.8398C11.1096 18.8398 10.6705 18.6579 10.3467 18.3341C10.0229 18.0104 9.84102 17.5712 9.84102 17.1133L9.84712 6.76071" stroke="#2EA8DB" stroke-linecap="round" stroke-linejoin="round"/>
</g>
<defs>
<clipPath id="clip0_3412_356">
<rect width="24" height="24" fill="white"/>
</clipPath>
</defs>
</svg>
