<svg width="54" height="55" viewBox="0 0 54 55" fill="none" xmlns="http://www.w3.org/2000/svg">
<rect y="0.5" width="54" height="54" rx="8" fill="#FF881A" fill-opacity="0.1"/>
<path d="M22.5 17.5C21.5729 17.5037 20.6848 17.8736 20.0292 18.5292C19.3736 19.1848 19.0037 20.0729 19 21C19 22.922 20.578 24.5 22.5 24.5C24.422 24.5 26 22.922 26 21C26 19.078 24.422 17.5 22.5 17.5ZM31.5 17.5C30.5729 17.5037 29.6848 17.8736 29.0292 18.5292C28.3736 19.1848 28.0037 20.0729 28 21C28 22.922 29.578 24.5 31.5 24.5C33.422 24.5 35 22.922 35 21C35 19.078 33.422 17.5 31.5 17.5ZM22.5 19.5C23.34 19.5 24 20.16 24 21C24 21.84 23.34 22.5 22.5 22.5C21.66 22.5 21 21.84 21 21C21 20.16 21.66 19.5 22.5 19.5ZM31.5 19.5C32.34 19.5 33 20.16 33 21C33 21.84 32.34 22.5 31.5 22.5C30.66 22.5 30 21.84 30 21C30 20.16 30.66 19.5 31.5 19.5ZM18 23.5C15.8 23.5 14 25.3 14 27.5C14 28.613 14.477 29.617 15.219 30.344C14.5386 30.8036 13.9807 31.4224 13.594 32.1468C13.2073 32.8711 13.0034 33.6789 13 34.5H15C15 32.832 16.332 31.5 18 31.5C19.668 31.5 21 32.832 21 34.5H23C22.9966 33.6789 22.7927 32.8711 22.406 32.1468C22.0193 31.4224 21.4614 30.8036 20.781 30.344C21.523 29.617 22 28.614 22 27.5C22 25.3 20.2 23.5 18 23.5ZM23 34.5C22.375 35.336 22 36.387 22 37.5H24C24 35.832 25.332 34.5 27 34.5C28.668 34.5 30 35.832 30 37.5H32C31.9986 36.4184 31.6478 35.3662 31 34.5C30.66 34.047 30.25 33.66 29.781 33.344C30.523 32.617 31 31.614 31 30.5C31 28.3 29.2 26.5 27 26.5C24.8 26.5 23 28.3 23 30.5C23 31.613 23.477 32.617 24.219 33.344C23.7504 33.6578 23.3382 34.0487 23 34.5ZM31 34.5H33C33 32.832 34.332 31.5 36 31.5C37.668 31.5 39 32.832 39 34.5H41C40.9966 33.6789 40.7927 32.8711 40.406 32.1468C40.0193 31.4224 39.4614 30.8036 38.781 30.344C39.523 29.617 40 28.614 40 27.5C40 25.3 38.2 23.5 36 23.5C33.8 23.5 32 25.3 32 27.5C32 28.613 32.477 29.617 33.219 30.344C32.5386 30.8036 31.9807 31.4224 31.594 32.1468C31.2073 32.8711 31.0034 33.6789 31 34.5ZM18 25.5C19.117 25.5 20 26.383 20 27.5C20 28.617 19.117 29.5 18 29.5C16.883 29.5 16 28.617 16 27.5C16 26.383 16.883 25.5 18 25.5ZM36 25.5C37.117 25.5 38 26.383 38 27.5C38 28.617 37.117 29.5 36 29.5C34.883 29.5 34 28.617 34 27.5C34 26.383 34.883 25.5 36 25.5ZM27 28.5C28.117 28.5 29 29.383 29 30.5C29 31.617 28.117 32.5 27 32.5C25.883 32.5 25 31.617 25 30.5C25 29.383 25.883 28.5 27 28.5Z" fill="#FF881A"/>
</svg>
