<svg width="16" height="23" viewBox="0 0 16 23" fill="none" xmlns="http://www.w3.org/2000/svg">
<path d="M10.4299 19.342L12.0132 20.9253L15.1799 17.7586M7.87781 22.217C5.98197 22.217 4.09656 21.7378 2.65906 20.7795C0.138224 19.092 0.138224 16.342 2.65906 14.6649C5.52364 12.7482 10.2216 12.7482 13.0861 14.6649M8.05489 10.8211C7.95072 10.8107 7.82572 10.8107 7.71114 10.8211C6.51552 10.7805 5.38264 10.2762 4.55242 9.41483C3.7222 8.5535 3.25983 7.40285 3.26322 6.20654C3.26158 5.59959 3.37974 4.99829 3.61093 4.4371C3.84213 3.8759 4.18181 3.36585 4.6105 2.93619C5.0392 2.50653 5.54848 2.1657 6.10915 1.93324C6.66982 1.70078 7.27086 1.58127 7.87781 1.58154C10.4299 1.58154 12.5028 3.65446 12.5028 6.20654C12.5028 8.70654 10.5236 10.7378 8.05489 10.8211Z" stroke="#4F547B" stroke-width="1.5" stroke-linecap="round" stroke-linejoin="round"/>
</svg>
