<svg width="15" height="15" viewBox="0 0 15 15" fill="none" xmlns="http://www.w3.org/2000/svg">
<g opacity="0.4">
<path d="M6.60575 0C2.96344 0 0 2.96345 0 6.60579C0 10.2483 2.96344 13.2116 6.60575 13.2116C10.2483 13.2116 13.2115 10.2483 13.2115 6.60579C13.2115 2.96345 10.2483 0 6.60575 0ZM6.60575 11.9921C3.63581 11.9921 1.21952 9.57577 1.21952 6.60582C1.21952 3.63586 3.63581 1.21953 6.60575 1.21953C9.57569 1.21953 11.992 3.63583 11.992 6.60579C11.992 9.57574 9.57569 11.9921 6.60575 11.9921Z" fill="#231F20"/>
<path d="M14.8213 13.9579L11.3253 10.4619C11.0871 10.2236 10.7013 10.2236 10.4631 10.4619C10.2249 10.6999 10.2249 11.0861 10.4631 11.3241L13.9591 14.8201C14.0782 14.9392 14.2341 14.9987 14.3902 14.9987C14.5461 14.9987 14.7022 14.9392 14.8213 14.8201C15.0595 14.5821 15.0595 14.1959 14.8213 13.9579Z" fill="#231F20"/>
</g>
</svg>
