<svg width="21" height="21" viewBox="0 0 21 21" fill="none" xmlns="http://www.w3.org/2000/svg">
<g opacity="0.7">
<path d="M9.24805 0C4.14881 0 0 4.14884 0 9.2481C0 14.3477 4.14881 18.4962 9.24805 18.4962C14.3476 18.4962 18.4961 14.3477 18.4961 9.2481C18.4961 4.14884 14.3476 0 9.24805 0ZM9.24805 16.7889C5.09013 16.7889 1.70733 13.4061 1.70733 9.24814C1.70733 5.0902 5.09013 1.70734 9.24805 1.70734C13.406 1.70734 16.7888 5.09016 16.7888 9.2481C16.7888 13.406 13.406 16.7889 9.24805 16.7889Z" fill="#231F20"/>
<path d="M20.7498 19.541L15.8554 14.6466C15.5219 14.3131 14.9818 14.3131 14.6483 14.6466C14.3148 14.9798 14.3148 15.5205 14.6483 15.8537L19.5427 20.7481C19.7094 20.9148 19.9277 20.9982 20.1462 20.9982C20.3645 20.9982 20.583 20.9148 20.7498 20.7481C21.0833 20.4149 21.0833 19.8742 20.7498 19.541Z" fill="#231F20"/>
</g>
</svg>
