<svg width="26" height="26" viewBox="0 0 26 26" fill="none" xmlns="http://www.w3.org/2000/svg">
<g clip-path="url(#clip0_19_1053)">
<path d="M12.8881 16.123C14.614 16.123 16.0131 14.7239 16.0131 12.998C16.0131 11.2722 14.614 9.87305 12.8881 9.87305C11.1622 9.87305 9.76312 11.2722 9.76312 12.998C9.76312 14.7239 11.1622 16.123 12.8881 16.123Z" stroke="#4F547B" stroke-width="1.91235" stroke-linecap="round" stroke-linejoin="round"/>
<path d="M20.5965 16.1229C20.4578 16.4371 20.4165 16.7856 20.4777 17.1235C20.539 17.4614 20.7001 17.7732 20.9402 18.0187L21.0027 18.0812C21.1964 18.2747 21.3501 18.5045 21.4549 18.7574C21.5598 19.0103 21.6137 19.2814 21.6137 19.5552C21.6137 19.829 21.5598 20.1001 21.4549 20.353C21.3501 20.6059 21.1964 20.8356 21.0027 21.0291C20.8092 21.2228 20.5795 21.3765 20.3266 21.4813C20.0736 21.5862 19.8026 21.6401 19.5288 21.6401C19.255 21.6401 18.9839 21.5862 18.731 21.4813C18.4781 21.3765 18.2483 21.2228 18.0548 21.0291L17.9923 20.9666C17.7468 20.7265 17.435 20.5654 17.0971 20.5041C16.7592 20.4429 16.4107 20.4842 16.0965 20.6229C15.7884 20.7549 15.5256 20.9742 15.3405 21.2537C15.1555 21.5331 15.0561 21.8606 15.0548 22.1958V22.3729C15.0548 22.9254 14.8353 23.4553 14.4446 23.846C14.0539 24.2367 13.524 24.4562 12.9715 24.4562C12.4189 24.4562 11.889 24.2367 11.4983 23.846C11.1076 23.4553 10.8881 22.9254 10.8881 22.3729V22.2791C10.8801 21.9343 10.7685 21.6 10.5678 21.3194C10.3672 21.0389 10.0868 20.8253 9.76314 20.7062C9.44896 20.5676 9.10044 20.5262 8.76253 20.5875C8.42462 20.6487 8.11281 20.8098 7.86731 21.05L7.80481 21.1125C7.61132 21.3062 7.38156 21.4598 7.12864 21.5647C6.87573 21.6695 6.60463 21.7235 6.33085 21.7235C6.05707 21.7235 5.78597 21.6695 5.53306 21.5647C5.28015 21.4598 5.05038 21.3062 4.85689 21.1125C4.66319 20.919 4.50953 20.6892 4.40469 20.4363C4.29984 20.1834 4.24588 19.9123 4.24588 19.6385C4.24588 19.3647 4.29984 19.0936 4.40469 18.8407C4.50953 18.5878 4.66319 18.358 4.85689 18.1646L4.91939 18.1021C5.15954 17.8566 5.32063 17.5447 5.3819 17.2068C5.44317 16.8689 5.4018 16.5204 5.26314 16.2062C5.1311 15.8981 4.91185 15.6354 4.63238 15.4503C4.35291 15.2652 4.02542 15.1659 3.69023 15.1646H3.51314C2.96061 15.1646 2.4307 14.9451 2.04 14.5544C1.6493 14.1637 1.42981 13.6338 1.42981 13.0812C1.42981 12.5287 1.6493 11.9988 2.04 11.6081C2.4307 11.2174 2.96061 10.9979 3.51314 10.9979H3.60689C3.95168 10.9898 4.28606 10.8782 4.56658 10.6776C4.84709 10.477 5.06076 10.1966 5.17981 9.87288C5.31847 9.5587 5.35983 9.21018 5.29856 8.87227C5.23729 8.53436 5.0762 8.22255 4.83606 7.97705L4.77356 7.91455C4.57986 7.72107 4.42619 7.4913 4.32135 7.23839C4.21651 6.98547 4.16255 6.71438 4.16255 6.44059C4.16255 6.16681 4.21651 5.89571 4.32135 5.6428C4.42619 5.38989 4.57986 5.16012 4.77356 4.96663C4.96705 4.77293 5.19681 4.61927 5.44973 4.51443C5.70264 4.40958 5.97374 4.35562 6.24752 4.35562C6.5213 4.35562 6.7924 4.40958 7.04531 4.51443C7.29822 4.61927 7.52799 4.77293 7.72148 4.96663L7.78398 5.02913C8.02948 5.26928 8.34129 5.43037 8.6792 5.49164C9.01711 5.55291 9.36563 5.51155 9.67981 5.37288H9.76314C10.0712 5.24084 10.334 5.02159 10.5191 4.74212C10.7042 4.46265 10.8035 4.13516 10.8048 3.79997V3.62288C10.8048 3.07035 11.0243 2.54045 11.415 2.14975C11.8057 1.75904 12.3356 1.53955 12.8881 1.53955C13.4407 1.53955 13.9706 1.75904 14.3613 2.14975C14.752 2.54045 14.9715 3.07035 14.9715 3.62288V3.71663C14.9728 4.05183 15.0721 4.37932 15.2572 4.65879C15.4423 4.93825 15.7051 5.15751 16.0131 5.28955C16.3273 5.42821 16.6758 5.46958 17.0138 5.40831C17.3517 5.34704 17.6635 5.18594 17.909 4.9458L17.9715 4.8833C18.165 4.6896 18.3947 4.53594 18.6476 4.43109C18.9006 4.32625 19.1717 4.27229 19.4454 4.27229C19.7192 4.27229 19.9903 4.32625 20.2432 4.43109C20.4961 4.53594 20.7259 4.6896 20.9194 4.8833C21.1131 5.07679 21.2668 5.30655 21.3716 5.55947C21.4764 5.81238 21.5304 6.08348 21.5304 6.35726C21.5304 6.63104 21.4764 6.90214 21.3716 7.15505C21.2668 7.40796 21.1131 7.63773 20.9194 7.83122L20.8569 7.89372C20.6168 8.13922 20.4557 8.45103 20.3944 8.78894C20.3331 9.12685 20.3745 9.47537 20.5131 9.78955V9.87288C20.6452 10.181 20.8644 10.4437 21.1439 10.6288C21.4234 10.8139 21.7509 10.9132 22.0861 10.9146H22.2631C22.8157 10.9146 23.3456 11.134 23.7363 11.5247C24.127 11.9154 24.3465 12.4454 24.3465 12.9979C24.3465 13.5504 24.127 14.0803 23.7363 14.471C23.3456 14.8617 22.8157 15.0812 22.2631 15.0812H22.1694C21.8342 15.0826 21.5067 15.1819 21.2272 15.367C20.9478 15.552 20.7285 15.8148 20.5965 16.1229V16.1229Z" stroke="#4F547B" stroke-width="1.91235" stroke-linecap="round" stroke-linejoin="round"/>
</g>
<defs>
<clipPath id="clip0_19_1053">
<rect width="25" height="25" fill="white" transform="translate(0.388123 0.498047)"/>
</clipPath>
</defs>
</svg>
