<svg width="26" height="26" viewBox="0 0 26 26" fill="none" xmlns="http://www.w3.org/2000/svg">
<g clip-path="url(#clip0_19_1053)">
<path d="M13.1371 16.4267C14.8974 16.4267 16.3244 14.9998 16.3244 13.2395C16.3244 11.4792 14.8974 10.0522 13.1371 10.0522C11.3769 10.0522 9.94989 11.4792 9.94989 13.2395C9.94989 14.9998 11.3769 16.4267 13.1371 16.4267Z" stroke="#4F547B" stroke-width="1.91235" stroke-linecap="round" stroke-linejoin="round"/>
<path d="M20.999 16.4266C20.8576 16.747 20.8154 17.1025 20.8779 17.4471C20.9404 17.7918 21.1047 18.1098 21.3496 18.3602L21.4134 18.4239C21.6109 18.6213 21.7677 18.8556 21.8746 19.1136C21.9815 19.3715 22.0366 19.648 22.0366 19.9272C22.0366 20.2065 21.9815 20.483 21.8746 20.7409C21.7677 20.9989 21.6109 21.2332 21.4134 21.4306C21.216 21.6281 20.9817 21.7848 20.7237 21.8918C20.4658 21.9987 20.1893 22.0537 19.9101 22.0537C19.6308 22.0537 19.3543 21.9987 19.0964 21.8918C18.8384 21.7848 18.6041 21.6281 18.4067 21.4306L18.343 21.3668C18.0926 21.1219 17.7746 20.9576 17.4299 20.8951C17.0853 20.8326 16.7298 20.8748 16.4094 21.0162C16.0952 21.1509 15.8272 21.3745 15.6384 21.6595C15.4496 21.9446 15.3483 22.2786 15.347 22.6205V22.8011C15.347 23.3646 15.1231 23.9051 14.7246 24.3036C14.3261 24.702 13.7857 24.9259 13.2221 24.9259C12.6586 24.9259 12.1181 24.702 11.7197 24.3036C11.3212 23.9051 11.0973 23.3646 11.0973 22.8011V22.7055C11.0891 22.3538 10.9753 22.0128 10.7706 21.7267C10.566 21.4406 10.28 21.2226 9.9499 21.1012C9.62946 20.9598 9.274 20.9176 8.92935 20.9801C8.58471 21.0426 8.26669 21.2069 8.0163 21.4518L7.95255 21.5156C7.75521 21.7131 7.52087 21.8698 7.26292 21.9768C7.00497 22.0837 6.72847 22.1387 6.44923 22.1387C6.17 22.1387 5.8935 22.0837 5.63555 21.9768C5.3776 21.8698 5.14325 21.7131 4.94591 21.5156C4.74835 21.3182 4.59163 21.0839 4.4847 20.8259C4.37777 20.568 4.32273 20.2915 4.32273 20.0122C4.32273 19.733 4.37777 19.4565 4.4847 19.1985C4.59163 18.9406 4.74835 18.7062 4.94591 18.5089L5.00966 18.4452C5.25458 18.1948 5.41889 17.8768 5.48138 17.5321C5.54387 17.1875 5.50168 16.832 5.36026 16.5116C5.22558 16.1973 5.00196 15.9293 4.71693 15.7406C4.43189 15.5518 4.09788 15.4505 3.75601 15.4491H3.5754C3.01185 15.4491 2.47139 15.2253 2.07291 14.8268C1.67443 14.4283 1.45056 13.8879 1.45056 13.3243C1.45056 12.7608 1.67443 12.2203 2.07291 11.8218C2.47139 11.4233 3.01185 11.1995 3.5754 11.1995H3.67101C4.02267 11.1913 4.36371 11.0774 4.64982 10.8728C4.93592 10.6682 5.15385 10.3822 5.27526 10.0521C5.41669 9.73163 5.45887 9.37617 5.39638 9.03153C5.33389 8.68688 5.16959 8.36886 4.92467 8.11847L4.86092 8.05473C4.66336 7.85739 4.50664 7.62304 4.3997 7.36509C4.29277 7.10714 4.23773 6.83064 4.23773 6.55141C4.23773 6.27217 4.29277 5.99567 4.3997 5.73772C4.50664 5.47977 4.66336 5.24543 4.86092 5.04809C5.05826 4.85053 5.2926 4.6938 5.55056 4.58687C5.80851 4.47994 6.085 4.4249 6.36424 4.4249C6.64348 4.4249 6.91997 4.47994 7.17792 4.58687C7.43588 4.6938 7.67022 4.85053 7.86756 5.04809L7.93131 5.11183C8.18169 5.35676 8.49972 5.52106 8.84436 5.58355C9.189 5.64604 9.54446 5.60385 9.8649 5.46243H9.9499C10.2641 5.32775 10.5321 5.10413 10.7209 4.8191C10.9097 4.53406 11.011 4.20005 11.0123 3.85818V3.67757C11.0123 3.11403 11.2362 2.57357 11.6347 2.17508C12.0331 1.7766 12.5736 1.55273 13.1371 1.55273C13.7007 1.55273 14.2411 1.7766 14.6396 2.17508C15.0381 2.57357 15.262 3.11403 15.262 3.67757V3.77319C15.2633 4.11506 15.3646 4.44907 15.5534 4.73411C15.7422 5.01914 16.0102 5.24276 16.3244 5.37744C16.6448 5.51886 17.0003 5.56105 17.3449 5.49856C17.6896 5.43607 18.0076 5.27176 18.258 5.02684L18.3217 4.96309C18.5191 4.76553 18.7534 4.60881 19.0114 4.50188C19.2693 4.39495 19.5458 4.33991 19.8251 4.33991C20.1043 4.33991 20.3808 4.39495 20.6387 4.50188C20.8967 4.60881 21.131 4.76553 21.3284 4.96309C21.5259 5.16043 21.6827 5.39478 21.7896 5.65273C21.8965 5.91068 21.9516 6.18718 21.9516 6.46641C21.9516 6.74565 21.8965 7.02215 21.7896 7.2801C21.6827 7.53805 21.5259 7.77239 21.3284 7.96973L21.2646 8.03348C21.0197 8.28387 20.8554 8.60189 20.7929 8.94653C20.7304 9.29117 20.7726 9.64664 20.914 9.96708V10.0521C21.0487 10.3663 21.2723 10.6343 21.5574 10.8231C21.8424 11.0118 22.1764 11.1131 22.5183 11.1145H22.6989C23.2624 11.1145 23.8029 11.3384 24.2014 11.7368C24.5999 12.1353 24.8237 12.6758 24.8237 13.2393C24.8237 13.8029 24.5999 14.3433 24.2014 14.7418C23.8029 15.1403 23.2624 15.3642 22.6989 15.3642H22.6033C22.2614 15.3655 21.9274 15.4668 21.6424 15.6556C21.3573 15.8444 21.1337 16.1123 20.999 16.4266V16.4266Z" stroke="#4F547B" stroke-width="1.91235" stroke-linecap="round" stroke-linejoin="round"/>
</g>
<defs>
<clipPath id="clip0_19_1053">
<rect width="25.498" height="25.498" fill="white" transform="translate(0.388123 0.490234)"/>
</clipPath>
</defs>
</svg>
