<svg width="19" height="19" viewBox="0 0 19 19" fill="none" xmlns="http://www.w3.org/2000/svg">
<g clip-path="url(#clip0_19_1123)">
<path d="M9.04231 11.3029C10.2908 11.3029 11.3029 10.2908 11.3029 9.04231C11.3029 7.79383 10.2908 6.78174 9.04231 6.78174C7.79383 6.78174 6.78174 7.79383 6.78174 9.04231C6.78174 10.2908 7.79383 11.3029 9.04231 11.3029Z" stroke="#4F547B" stroke-width="1.35635" stroke-linecap="round" stroke-linejoin="round"/>
<path d="M14.6184 11.3028C14.5181 11.53 14.4882 11.7822 14.5325 12.0266C14.5768 12.271 14.6934 12.4966 14.8671 12.6742L14.9123 12.7194C15.0524 12.8594 15.1636 13.0256 15.2394 13.2085C15.3152 13.3915 15.3543 13.5876 15.3543 13.7856C15.3543 13.9837 15.3152 14.1798 15.2394 14.3627C15.1636 14.5457 15.0524 14.7119 14.9123 14.8519C14.7723 14.992 14.6061 15.1032 14.4232 15.179C14.2402 15.2548 14.0441 15.2939 13.846 15.2939C13.648 15.2939 13.4519 15.2548 13.2689 15.179C13.086 15.1032 12.9198 14.992 12.7798 14.8519L12.7346 14.8067C12.557 14.6329 12.3314 14.5164 12.087 14.4721C11.8426 14.4278 11.5905 14.4577 11.3632 14.558C11.1403 14.6535 10.9502 14.8121 10.8163 15.0143C10.6825 15.2165 10.6106 15.4534 10.6097 15.6958V15.8239C10.6097 16.2236 10.4509 16.6069 10.1682 16.8896C9.88562 17.1722 9.5023 17.331 9.1026 17.331C8.70291 17.331 8.31958 17.1722 8.03696 16.8896C7.75433 16.6069 7.59555 16.2236 7.59555 15.8239V15.7561C7.58972 15.5067 7.50898 15.2648 7.36385 15.0619C7.21871 14.859 7.01589 14.7044 6.78174 14.6183C6.55447 14.518 6.30235 14.4881 6.05791 14.5324C5.81347 14.5767 5.58792 14.6932 5.41033 14.8669L5.36511 14.9122C5.22515 15.0523 5.05894 15.1634 4.87599 15.2393C4.69303 15.3151 4.49693 15.3542 4.29888 15.3542C4.10083 15.3542 3.90472 15.3151 3.72177 15.2393C3.53881 15.1634 3.3726 15.0523 3.23264 14.9122C3.09252 14.7722 2.98136 14.606 2.90552 14.423C2.82968 14.2401 2.79064 14.044 2.79064 13.8459C2.79064 13.6479 2.82968 13.4518 2.90552 13.2688C2.98136 13.0859 3.09252 12.9196 3.23264 12.7797L3.27785 12.7345C3.45157 12.5569 3.5681 12.3313 3.61242 12.0869C3.65674 11.8424 3.62682 11.5903 3.52651 11.3631C3.43099 11.1402 3.27239 10.9501 3.07023 10.8162C2.86806 10.6823 2.63116 10.6105 2.38869 10.6095H2.26059C1.8609 10.6095 1.47757 10.4508 1.19494 10.1681C0.912318 9.8855 0.75354 9.50217 0.75354 9.10248C0.75354 8.70278 0.912318 8.31946 1.19494 8.03683C1.47757 7.75421 1.8609 7.59543 2.26059 7.59543H2.32841C2.57782 7.58959 2.81971 7.50886 3.02263 7.36373C3.22555 7.21859 3.38012 7.01577 3.46623 6.78162C3.56654 6.55435 3.59646 6.30223 3.55214 6.05779C3.50781 5.81335 3.39128 5.58779 3.21757 5.4102L3.17236 5.36499C3.03224 5.22503 2.92108 5.05882 2.84524 4.87586C2.7694 4.69291 2.73036 4.4968 2.73036 4.29875C2.73036 4.1007 2.7694 3.9046 2.84524 3.72164C2.92108 3.53869 3.03224 3.37248 3.17236 3.23252C3.31232 3.0924 3.47853 2.98124 3.66148 2.9054C3.84444 2.82955 4.04054 2.79052 4.23859 2.79052C4.43664 2.79052 4.63275 2.82955 4.81571 2.9054C4.99866 2.98124 5.16487 3.0924 5.30483 3.23252L5.35004 3.27773C5.52763 3.45144 5.75319 3.56797 5.99763 3.6123C6.24207 3.65662 6.49419 3.6267 6.72146 3.52639H6.78174C7.00461 3.43087 7.19469 3.27227 7.32857 3.07011C7.46245 2.86794 7.5343 2.63104 7.53527 2.38857V2.26047C7.53527 1.86077 7.69405 1.47745 7.97667 1.19482C8.2593 0.912196 8.64262 0.753418 9.04232 0.753418C9.44201 0.753418 9.82534 0.912196 10.108 1.19482C10.3906 1.47745 10.5494 1.86077 10.5494 2.26047V2.32829C10.5503 2.57076 10.6222 2.80766 10.7561 3.00982C10.8899 3.21199 11.08 3.37059 11.3029 3.46611C11.5302 3.56641 11.7823 3.59634 12.0267 3.55201C12.2712 3.50769 12.4967 3.39116 12.6743 3.21745L12.7195 3.17223C12.8595 3.03211 13.0257 2.92096 13.2087 2.84511C13.3916 2.76927 13.5877 2.73024 13.7858 2.73024C13.9838 2.73024 14.1799 2.76927 14.3629 2.84511C14.5458 2.92096 14.712 3.03211 14.852 3.17223C14.9921 3.3122 15.1033 3.47841 15.1791 3.66136C15.255 3.84432 15.294 4.04042 15.294 4.23847C15.294 4.43652 15.255 4.63263 15.1791 4.81558C15.1033 4.99854 14.9921 5.16475 14.852 5.30471L14.8068 5.34992C14.6331 5.52751 14.5165 5.75307 14.4722 5.99751C14.4279 6.24195 14.4578 6.49406 14.5581 6.72134V6.78162C14.6536 7.00449 14.8122 7.19457 15.0144 7.32845C15.2166 7.46233 15.4535 7.53418 15.6959 7.53515H15.824C16.2237 7.53515 16.6071 7.69392 16.8897 7.97655C17.1723 8.25918 17.3311 8.6425 17.3311 9.0422C17.3311 9.44189 17.1723 9.82522 16.8897 10.1078C16.6071 10.3905 16.2237 10.5492 15.824 10.5492H15.7562C15.5138 10.5502 15.2769 10.6221 15.0747 10.7559C14.8725 10.8898 14.7139 11.0799 14.6184 11.3028V11.3028Z" stroke="#4F547B" stroke-width="1.35635" stroke-linecap="round" stroke-linejoin="round"/>
</g>
<defs>
<clipPath id="clip0_19_1123">
<rect width="18.0846" height="18.0846" fill="white"/>
</clipPath>
</defs>
</svg>
