<svg width="55" height="54" viewBox="0 0 55 54" fill="none" xmlns="http://www.w3.org/2000/svg">
<rect x="0.5" width="54" height="54" rx="8" fill="#1975FF" fill-opacity="0.1"/>
<path d="M32.8332 18.9998C32.8332 16.4852 32.8332 15.2292 32.0518 14.4478C31.2705 13.6665 30.0145 13.6665 27.4998 13.6665C24.9852 13.6665 23.7292 13.6665 22.9478 14.4478C22.1665 15.2292 22.1665 16.4852 22.1665 18.9998M14.1665 29.6665C14.1665 24.6385 14.1665 22.1238 15.7292 20.5625C17.2918 19.0012 19.8052 18.9998 24.8332 18.9998H30.1665C35.1945 18.9998 37.7092 18.9998 39.2705 20.5625C40.8318 22.1252 40.8332 24.6385 40.8332 29.6665C40.8332 34.6945 40.8332 37.2092 39.2705 38.7705C37.7078 40.3318 35.1945 40.3332 30.1665 40.3332H24.8332C19.8052 40.3332 17.2905 40.3332 15.7292 38.7705C14.1678 37.2078 14.1665 34.6945 14.1665 29.6665Z" stroke="#1975FF" stroke-width="1.5"/>
<path d="M34.1663 22.9998C34.1663 23.3535 34.0259 23.6926 33.7758 23.9426C33.5258 24.1927 33.1866 24.3332 32.833 24.3332C32.4794 24.3332 32.1402 24.1927 31.8902 23.9426C31.6402 23.6926 31.4997 23.3535 31.4997 22.9998C31.4997 22.6462 31.6402 22.3071 31.8902 22.057C32.1402 21.807 32.4794 21.6665 32.833 21.6665C33.1866 21.6665 33.5258 21.807 33.7758 22.057C34.0259 22.3071 34.1663 22.6462 34.1663 22.9998ZM23.4997 22.9998C23.4997 23.3535 23.3592 23.6926 23.1091 23.9426C22.8591 24.1927 22.52 24.3332 22.1663 24.3332C21.8127 24.3332 21.4736 24.1927 21.2235 23.9426C20.9735 23.6926 20.833 23.3535 20.833 22.9998C20.833 22.6462 20.9735 22.3071 21.2235 22.057C21.4736 21.807 21.8127 21.6665 22.1663 21.6665C22.52 21.6665 22.8591 21.807 23.1091 22.057C23.3592 22.3071 23.4997 22.6462 23.4997 22.9998Z" fill="#1975FF"/>
</svg>
