<svg width="74" height="37" viewBox="0 0 74 37" fill="none" xmlns="http://www.w3.org/2000/svg">
<path d="M20 7.62645C15.6461 5.4413 10.3351 5.45798 6 7.67649H7.95174V18.9025C7.38874 20.4538 6.82574 21.9884 6.2815 23.523C6.2252 23.6731 6.24397 23.8399 6.35657 23.9567C8.06434 25.4579 9.35925 27.2761 10.1662 29.2944C10.8231 30.8124 11.3298 32.3803 11.8928 33.9483C11.9303 34.1151 11.8928 34.2986 11.7989 34.4487C11.4424 34.9324 11.5925 35.5997 12.1555 35.8999C12.2181 35.9444 12.2869 35.9778 12.3619 36C12.3807 35.8499 12.3995 35.7164 12.3995 35.583C12.487 31.6686 12.5684 27.7543 12.6434 23.8399C12.681 23.5897 12.5496 23.3562 12.3056 23.2394C11.8177 22.9725 11.63 22.4387 11.8365 21.955C12.0992 21.3879 12.8311 21.1043 13.4692 21.3378C14.1072 21.5714 14.4263 22.2219 14.1635 22.789C14.0697 23.0059 13.9008 23.1894 13.6756 23.3228C13.5067 23.4062 13.3941 23.5563 13.3566 23.7231C13.2565 27.7376 13.1752 31.752 13.1126 35.7665C13.1126 35.8332 13.1126 35.8999 13.1126 35.9833C13.7131 35.8332 14.0697 35.2994 13.9008 34.7656C13.8758 34.6878 13.8382 34.61 13.7882 34.5321C13.6944 34.3987 13.6568 34.2319 13.6568 34.0651C14.4638 31.2461 15.7962 28.5772 17.6166 26.1752C18.2046 25.4968 18.849 24.8574 19.5496 24.2569C19.7185 24.1402 19.7936 23.9233 19.7185 23.7398C19.2118 22.1885 18.7051 20.6372 18.2172 19.086V7.62645H20Z" fill="white"/>
<path d="M24.2252 7.92951H26V0H0V8H1.71992C6.97115 1.99119 16.2843 1.23348 22.5053 6.30837C23.1274 6.80176 23.7007 7.34214 24.2252 7.92951Z" fill="white"/>
<path fill-rule="evenodd" clip-rule="evenodd" d="M26.7896 23.384C28.6876 23.2918 30.5304 24.0298 31.8387 25.3952C33.0549 26.736 33.663 28.5995 33.663 30.9858V31.281H24.5967C24.6704 31.8899 24.9653 32.4804 25.4075 32.9047C25.8498 33.3107 26.4395 33.5136 27.0476 33.4952C27.4161 33.5136 27.7847 33.4214 28.1164 33.2368C28.4112 33.0892 28.6508 32.8309 28.7798 32.5357H33.4603C33.1655 33.8273 32.3547 34.9528 31.2306 35.6539C29.9407 36.4473 28.4296 36.8532 26.9001 36.8163C25.0574 36.9086 23.2331 36.2444 21.8694 34.9712C20.5979 33.6428 19.9161 31.853 20.0083 30.0264C19.953 28.2366 20.6348 26.5022 21.9063 25.2476C23.2147 23.9929 24.9837 23.3287 26.7896 23.384ZM29.0746 28.6057C29.0009 28.0706 28.7429 27.5724 28.3375 27.2034C27.9137 26.8528 27.3793 26.6868 26.8449 26.7052C26.3473 26.6868 25.8498 26.8713 25.4812 27.2034C25.0943 27.5724 24.8178 28.0706 24.7073 28.6057H29.0746ZM71.4947 35.7831C71.6052 35.9122 71.7342 36.0229 71.9001 36.0967V36.4473H66.9431L66.7957 35.045C66.3534 35.617 65.7637 36.0967 65.1003 36.392C64.3264 36.7056 63.4787 36.8348 62.6495 36.8163C61.4517 36.8717 60.2723 36.5027 59.3325 35.7831C58.5217 35.0819 58.061 34.0487 58.1163 32.9785C58.0426 31.9637 58.448 30.9674 59.222 30.3031C60.3461 29.5282 61.6544 29.0485 63.018 28.9009C63.2637 28.864 63.6016 28.8086 64.0316 28.7348C65.7023 28.4765 66.5377 28.089 66.5377 27.5724C66.5561 27.2772 66.4087 26.982 66.1507 26.8159C65.8006 26.613 65.3952 26.5207 65.0082 26.5576C64.9222 26.5453 64.8362 26.5391 64.7502 26.5391C63.8473 26.5391 63.1286 27.2772 63.147 28.1813H58.6507C58.6139 26.7975 59.222 25.469 60.3092 24.5833C61.3411 23.7838 62.8706 23.384 64.8976 23.384C65.6839 23.384 66.464 23.4455 67.2379 23.5685C67.846 23.6792 68.4357 23.8638 68.9885 24.1405C69.7625 24.4726 70.4075 25.0446 70.8313 25.7642C71.2367 26.6683 71.421 27.6647 71.3657 28.6426V35.3034C71.3657 35.4694 71.4025 35.6355 71.4947 35.7831ZM66.1323 33.1077C66.5745 32.5726 66.7957 31.8899 66.7404 31.2072C66.7404 31.0596 66.7404 30.9489 66.7404 30.8751C66.7404 30.8013 66.7342 30.7337 66.722 30.6722C66.2428 31.0227 65.6716 31.2441 65.0819 31.3548C65.0205 31.3672 64.9714 31.3795 64.9345 31.3918C64.308 31.484 63.6999 31.687 63.147 31.9822C62.889 32.1298 62.7416 32.4066 62.7416 32.7018C62.7416 33.0154 62.9259 33.3107 63.2023 33.4583C63.5524 33.6612 63.9578 33.7719 64.3817 33.7535C65.0266 33.8088 65.6716 33.569 66.1323 33.1077ZM46.8018 30.3216C47.1704 30.9858 47.3362 31.7423 47.2994 32.4804C47.3547 33.7535 46.765 34.9528 45.7146 35.6724C44.351 36.5027 42.7662 36.9086 41.1815 36.7979C39.0562 36.7979 37.4591 36.4104 36.3903 35.6355C35.3031 34.8052 34.695 33.4952 34.7871 32.1298H39.2281C39.2281 32.2282 39.2343 32.3328 39.2466 32.4435C39.3756 33.3291 40.1864 33.938 41.0709 33.8273C41.4579 33.8457 41.8448 33.735 42.1765 33.5321C42.453 33.3845 42.6004 33.1077 42.6004 32.8125C42.6004 32.3697 41.9063 32.0129 40.5181 31.7423C40.2478 31.6808 40.0328 31.6378 39.8731 31.6132C38.5279 31.3918 37.238 30.8751 36.1323 30.1002C35.3768 29.4729 34.9714 28.5503 35.0082 27.5724C34.953 26.3546 35.5242 25.1738 36.5377 24.4726C37.8461 23.6792 39.3571 23.2918 40.8866 23.384C42.8399 23.384 44.3326 23.7346 45.3645 24.4357C46.378 25.1369 46.9677 26.2993 46.9308 27.5355H42.6741C42.6557 27.1665 42.4714 26.8344 42.1765 26.5945C41.8264 26.3731 41.421 26.2624 40.9972 26.2993C40.6655 26.2808 40.3154 26.3546 40.0021 26.5022C39.7994 26.5945 39.652 26.7975 39.6335 27.0373C39.652 27.2403 39.781 27.4248 39.9652 27.517C40.2969 27.6831 40.6471 27.7938 40.9972 27.8492C41.3289 27.9107 41.7834 27.9968 42.3608 28.1075C43.3006 28.2366 44.222 28.4765 45.1065 28.8271C45.7883 29.1776 46.378 29.6943 46.8018 30.3216ZM56.5868 18.0702C56.6974 18.144 56.7895 18.2731 56.808 18.4207C56.808 18.5314 56.7527 18.6237 56.6606 18.6975H56.6421L54.6704 19.4171V19.9153H54.6888V23.7531H56.6421V26.8528H54.6888V32.1667C54.6704 32.425 54.7625 32.6833 54.9284 32.8678C55.1864 33.0523 55.4812 33.1261 55.776 33.0892C55.8989 33.0892 56.0279 33.0831 56.163 33.0708C56.2981 33.0585 56.4579 33.0462 56.6421 33.0339V36.4473C55.9173 36.5826 55.3092 36.681 54.8178 36.7425C54.4124 36.7917 54.0009 36.8225 53.5832 36.8348C52.5512 36.927 51.5377 36.5765 50.7822 35.8753C50.1188 35.0081 49.8055 33.9195 49.8977 32.8309V26.8528H48.3313V23.7531H49.8977V20.2105L49.8424 20.026V19.4171L48.9579 19.1034C48.9579 19.5278 48.9394 19.9706 48.9579 20.395C49.007 20.6533 49.0684 20.9116 49.1421 21.1699C49.1544 21.256 49.1606 21.3483 49.1606 21.4467C49.0254 21.4098 48.8903 21.3667 48.7552 21.3175C48.7183 21.2806 48.6999 21.2253 48.6999 21.1699C48.7552 20.9485 48.8289 20.7271 48.8841 20.5057C48.8964 20.4565 48.9026 20.4073 48.9026 20.3581C48.9026 19.9522 48.9026 19.5401 48.9026 19.1219C48.9026 19.1096 48.8964 19.0973 48.8841 19.085L47.8891 18.7344V18.1071L52.2932 17L56.5684 18.0517L56.5868 18.0702ZM56.55 18.5314C56.6237 18.4761 56.6237 18.4392 56.6237 18.4207C56.6237 18.3469 56.5316 18.2547 56.4763 18.2178L56.3657 18.1993L52.3485 19.4909L48.147 18.2362L48.0733 18.2547V18.6052L51.851 19.9153H52.7171L56.55 18.5314Z" fill="white"/>
</svg>
