<svg width="55" height="55" viewBox="0 0 55 55" fill="none" xmlns="http://www.w3.org/2000/svg">
<rect x="0.5" y="0.5" width="54" height="54" rx="8" fill="#0AA455" fill-opacity="0.1"/>
<path d="M25.2335 21.5002C25.2335 21.4294 25.2616 21.3616 25.3116 21.3116C25.3616 21.2616 25.4294 21.2335 25.5002 21.2335H30.8335C30.9042 21.2335 30.972 21.2616 31.0221 21.3116C31.0721 21.3616 31.1002 21.4294 31.1002 21.5002C31.1002 21.5709 31.0721 21.6387 31.0221 21.6887C30.972 21.7387 30.9042 21.7668 30.8335 21.7668H25.5002C25.4294 21.7668 25.3616 21.7387 25.3116 21.6887C25.2616 21.6387 25.2335 21.5709 25.2335 21.5002ZM25.3116 23.9783C25.3616 23.9283 25.4294 23.9002 25.5002 23.9002H30.8335C30.9042 23.9002 30.972 23.9283 31.0221 23.9783C31.0721 24.0283 31.1002 24.0961 31.1002 24.1668C31.1002 24.2376 31.0721 24.3054 31.0221 24.3554C30.972 24.4054 30.9042 24.4335 30.8335 24.4335H25.5002C25.4294 24.4335 25.3616 24.4054 25.3116 24.3554C25.2616 24.3054 25.2335 24.2376 25.2335 24.1668C25.2335 24.0961 25.2616 24.0283 25.3116 23.9783ZM25.3116 33.0221L25.0288 33.3049L25.3116 33.0221C25.2616 32.972 25.2335 32.9042 25.2335 32.8335C25.2335 32.7628 25.2616 32.6949 25.3116 32.6449C25.3616 32.5949 25.4294 32.5668 25.5002 32.5668H30.8335C30.9042 32.5668 30.972 32.5949 31.0221 32.6449C31.0721 32.6949 31.1002 32.7628 31.1002 32.8335C31.1002 32.9042 31.0721 32.972 31.0221 33.0221C30.972 33.0721 30.9042 33.1002 30.8335 33.1002H25.5002C25.4294 33.1002 25.3616 33.0721 25.3116 33.0221ZM25.2335 30.1668C25.2335 30.0961 25.2616 30.0283 25.3116 29.9783L25.0291 29.6958L25.3116 29.9783C25.3616 29.9283 25.4294 29.9002 25.5002 29.9002H30.8335C30.9042 29.9002 30.972 29.9283 31.0221 29.9783C31.0721 30.0283 31.1002 30.0961 31.1002 30.1668C31.1002 30.2376 31.0721 30.3054 31.0221 30.3554C30.972 30.4054 30.9042 30.4335 30.8335 30.4335H25.5002C25.4294 30.4335 25.3616 30.4054 25.3116 30.3554C25.2616 30.3054 25.2335 30.2376 25.2335 30.1668Z" stroke="#0AA455" stroke-width="0.8"/>
<path d="M19.4998 29.7668H19.0998V30.1668V32.1668V32.5668H19.4998H21.4998H21.8998V32.1668V30.1668V29.7668H21.4998H19.4998ZM18.5665 29.5002C18.5665 29.4294 18.5946 29.3616 18.6446 29.3116C18.6946 29.2616 18.7624 29.2335 18.8332 29.2335H22.1665C22.2372 29.2335 22.3051 29.2616 22.3551 29.3116C22.4051 29.3616 22.4332 29.4294 22.4332 29.5002V32.8335C22.4332 32.9042 22.4051 32.972 22.3551 33.0221C22.3051 33.0721 22.2372 33.1002 22.1665 33.1002H18.8332C18.7624 33.1002 18.6946 33.0721 18.6446 33.0221C18.5946 32.972 18.5665 32.9042 18.5665 32.8335V29.5002Z" stroke="#0AA455" stroke-width="0.8"/>
<path d="M23.0188 21.6913L20.1666 24.5434L18.6478 23.0246C18.6004 22.9745 18.5742 22.908 18.5748 22.839C18.5754 22.7691 18.6035 22.7022 18.6529 22.6527C18.7024 22.6033 18.7692 22.5753 18.8392 22.5747C18.9082 22.5741 18.9747 22.6002 19.0248 22.6476L19.8838 23.5066L20.1666 23.7895L20.4495 23.5066L22.6418 21.3143C22.6919 21.2669 22.7584 21.2407 22.8274 21.2413C22.8973 21.2419 22.9642 21.27 23.0136 21.3194C23.0631 21.3689 23.0911 21.4357 23.0917 21.5057C23.0923 21.5747 23.0662 21.6412 23.0188 21.6913Z" stroke="#0AA455" stroke-width="0.8"/>
<path d="M36.4333 23.5V23.9H36.8333H38.1667H38.5667V23.5V22.1667C38.5667 21.8838 38.4543 21.6125 38.2542 21.4124C38.0542 21.2124 37.7829 21.1 37.5 21.1C37.2171 21.1 36.9458 21.2124 36.7458 21.4124C36.5457 21.6125 36.4333 21.8838 36.4333 22.1667V23.5ZM37.1672 36.5199L37.5 37.0191L37.8328 36.5199L38.4995 35.5199L38.5667 35.4191V35.298V24.8333V24.4333H38.1667H36.8333H36.4333V24.8333V35.298V35.4191L36.5005 35.5199L37.1672 36.5199ZM16.5639 16.5639C16.989 16.1388 17.5655 15.9 18.1667 15.9H31.5C32.1012 15.9 32.6777 16.1388 33.1028 16.5639C33.5279 16.989 33.7667 17.5655 33.7667 18.1667V36.8333C33.7667 37.4345 33.5279 38.011 33.1028 38.4361C32.6777 38.8612 32.1012 39.1 31.5 39.1H18.1667C17.5655 39.1 16.989 38.8612 16.5639 38.4361C16.1388 38.011 15.9 37.4345 15.9 36.8333V18.1667C15.9 17.5655 16.1388 16.989 16.5639 16.5639ZM16.941 16.941C16.616 17.2661 16.4333 17.707 16.4333 18.1667V36.8333C16.4333 37.293 16.616 37.7339 16.941 38.059C17.2661 38.384 17.707 38.5667 18.1667 38.5667H31.5C31.9597 38.5667 32.4006 38.384 32.7257 38.059C33.0507 37.7339 33.2333 37.293 33.2333 36.8333V18.1667C33.2333 17.707 33.0507 17.2661 32.7257 16.941C32.4006 16.616 31.9597 16.4333 31.5 16.4333H18.1667C17.707 16.4333 17.2661 16.616 16.941 16.941ZM35.9 22.1667C35.9 21.7423 36.0686 21.3354 36.3686 21.0353C36.6687 20.7352 37.0757 20.5667 37.5 20.5667C37.9243 20.5667 38.3313 20.7352 38.6314 21.0353C38.9314 21.3354 39.1 21.7423 39.1 22.1667V35.5809L37.5 37.9809L35.9 35.5809V22.1667Z" stroke="#0AA455" stroke-width="0.8"/>
</svg>
