<svg width="19" height="19" viewBox="0 0 19 19" fill="none" xmlns="http://www.w3.org/2000/svg">
<path d="M12.3553 9.49751C12.3553 10.9825 11.1554 12.1825 9.67036 12.1825C8.18536 12.1825 6.98535 10.9825 6.98535 9.49751C6.98535 8.01251 8.18536 6.8125 9.67036 6.8125C11.1554 6.8125 12.3553 8.01251 12.3553 9.49751Z" stroke="#262626" stroke-opacity="0.7" stroke-width="1.5" stroke-linecap="round" stroke-linejoin="round"/>
<path d="M9.66785 15.7015C12.3154 15.7015 14.7828 14.1416 16.5004 11.4416C17.1754 10.3841 17.1754 8.60656 16.5004 7.54906C14.7828 4.84906 12.3154 3.28906 9.66785 3.28906C7.02035 3.28906 4.55285 4.84906 2.83535 7.54906C2.16035 8.60656 2.16035 10.3841 2.83535 11.4416C4.55285 14.1416 7.02035 15.7015 9.66785 15.7015Z" stroke="#262626" stroke-opacity="0.7" stroke-width="1.5" stroke-linecap="round" stroke-linejoin="round"/>
</svg>
