<svg width="19" height="19" viewBox="0 0 19 19" fill="none" xmlns="http://www.w3.org/2000/svg">
<g clip-path="url(#clip0_4485_15808)">
<path d="M12.8396 12.0412L9.82958 9.03125L6.81958 12.0412" stroke="white" stroke-width="1.72" stroke-linecap="round" stroke-linejoin="round"/>
<path d="M9.8313 9.03125V15.8037" stroke="white" stroke-width="1.72" stroke-linecap="round" stroke-linejoin="round"/>
<path d="M16.1431 13.8389C16.877 13.4388 17.4568 12.8056 17.791 12.0394C18.1251 11.2731 18.1946 10.4174 17.9884 9.60735C17.7822 8.79725 17.3121 8.07889 16.6523 7.56563C15.9925 7.05238 15.1805 6.77347 14.3446 6.77292H13.3965C13.1687 5.89192 12.7442 5.07402 12.1548 4.38071C11.5654 3.6874 10.8266 3.13672 9.99373 2.77007C9.1609 2.40342 8.25579 2.23034 7.34645 2.26385C6.4371 2.29735 5.54718 2.53657 4.74359 2.96351C3.94001 3.39045 3.24366 3.99401 2.70691 4.72881C2.17016 5.46361 1.80697 6.31053 1.64465 7.2059C1.48233 8.10127 1.5251 9.02178 1.76974 9.89824C2.01438 10.7747 2.45454 11.5843 3.05711 12.2662" stroke="white" stroke-width="1.72" stroke-linecap="round" stroke-linejoin="round"/>
<path d="M12.8396 12.0412L9.82958 9.03125L6.81958 12.0412" stroke="white" stroke-width="1.72" stroke-linecap="round" stroke-linejoin="round"/>
</g>
<defs>
<clipPath id="clip0_4485_15808">
<rect width="18.06" height="18.06" fill="white" transform="translate(0.800049)"/>
</clipPath>
</defs>
</svg>
