<svg width="56" height="56" viewBox="0 0 56 56" fill="none" xmlns="http://www.w3.org/2000/svg">
<rect x="4.10156" y="3.81445" width="47.7987" height="47.7987" rx="23.8994" fill="#F2F4F7"/>
<path d="M24.0139 31.5783L27.9971 27.5951M27.9971 27.5951L31.9804 31.5783M27.9971 27.5951V36.5573M35.9636 32.318C37.18 31.3135 37.9552 29.7938 37.9552 28.093C37.9552 25.0682 35.5031 22.616 32.4783 22.616C32.2607 22.616 32.0571 22.5025 31.9466 22.315C30.648 20.1114 28.2505 18.6328 25.5076 18.6328C21.3828 18.6328 18.0391 21.9766 18.0391 26.1014C18.0391 28.1588 18.871 30.0219 20.2168 31.3727" stroke="#475467" stroke-width="1.99161" stroke-linecap="round" stroke-linejoin="round"/>
<rect x="4.10156" y="3.81445" width="47.7987" height="47.7987" rx="23.8994" stroke="#F9FAFB" stroke-width="7.16981"/>
</svg>
