<svg width="20" height="20" viewBox="0 0 20 20" fill="none" xmlns="http://www.w3.org/2000/svg">
<path d="M13.334 17.5V15.8333C13.334 14.9493 12.9828 14.1014 12.3577 13.4763C11.7326 12.8512 10.8847 12.5 10.0007 12.5H4.16732C3.28326 12.5 2.43542 12.8512 1.8103 13.4763C1.18517 14.1014 0.833984 14.9493 0.833984 15.8333V17.5" stroke="#2EA8DB" stroke-width="1.5" stroke-linecap="round" stroke-linejoin="round"/>
<path d="M7.08333 9.16667C8.92428 9.16667 10.4167 7.67428 10.4167 5.83333C10.4167 3.99238 8.92428 2.5 7.08333 2.5C5.24238 2.5 3.75 3.99238 3.75 5.83333C3.75 7.67428 5.24238 9.16667 7.08333 9.16667Z" stroke="#2EA8DB" stroke-width="1.5" stroke-linecap="round" stroke-linejoin="round"/>
<path d="M14.166 9.16667L15.8327 10.8333L19.166 7.5" stroke="#2EA8DB" stroke-width="1.5" stroke-linecap="round" stroke-linejoin="round"/>
</svg>
