<svg width="25" height="26" viewBox="0 0 25 26" fill="none" xmlns="http://www.w3.org/2000/svg">
<g clip-path="url(#clip0_3674_10792)">
<path d="M15.0413 21.3395L16.6247 22.9229L19.7913 19.7562M12.4893 24.2145C10.5934 24.2145 8.70801 23.7354 7.27051 22.777C4.74967 21.0895 4.74967 18.3395 7.27051 16.6624C10.1351 14.7458 14.833 14.7458 17.6976 16.6624M12.6663 12.8187C12.5622 12.8083 12.4372 12.8083 12.3226 12.8187C11.127 12.7781 9.99409 12.2737 9.16387 11.4124C8.33365 10.5511 7.87128 9.40041 7.87467 8.2041C7.87303 7.59715 7.99119 6.99585 8.22238 6.43465C8.45358 5.87346 8.79326 5.36341 9.22195 4.93375C9.65065 4.50409 10.1599 4.16326 10.7206 3.9308C11.2813 3.69834 11.8823 3.57883 12.4893 3.5791C15.0413 3.5791 17.1143 5.65202 17.1143 8.2041C17.1143 10.7041 15.1351 12.7354 12.6663 12.8187Z" stroke="#4F547B" stroke-width="2" stroke-linecap="round" stroke-linejoin="round"/>
</g>
<defs>
<clipPath id="clip0_3674_10792">
<rect width="25" height="25" fill="white" transform="translate(0 0.998047)"/>
</clipPath>
</defs>
</svg>
