<svg width="137" height="108" viewBox="0 0 137 108" fill="none" xmlns="http://www.w3.org/2000/svg">
<path d="M129.798 0.466215C122.152 1.68598 114.668 4.23601 107.27 6.24075C106.304 6.46143 106.075 7.9164 106.534 8.54787C109.322 12.1545 112.052 16.1252 115.738 18.7556L115.71 18.9375C113.855 41.3835 91.5636 59.8685 75.3378 72.9711C56.7392 88.1232 34.9425 101.095 10.843 103.826C7.87585 103.732 4.72677 103.609 1.63493 103.123C0.17995 102.894 -0.134821 104.895 1.29155 105.305L2.9284 105.563C2.81394 106.29 3.27371 106.922 4.18308 107.065C6.2123 107.198 8.29875 106.967 10.3566 106.918C59.8731 113.218 115.068 71.5808 125.714 24.0528C128.367 26.1475 131.23 28.0886 133.854 30.3652C134.983 31.4751 136.485 30.2202 136.504 28.9184C136.662 19.6245 133.584 10.7534 131.627 1.87222C131.56 1.11641 130.947 0.274459 129.798 0.466215ZM133.239 25.9821C131.046 24.5186 128.796 23.4194 126.632 21.7743C125.78 21.2671 124.967 21.6986 124.699 22.2156C124.153 22.1298 123.732 22.4362 123.465 22.9533C109.351 65.2763 74.1538 95.8953 31.8993 102.666C49.0672 96.6076 64.9498 85.6875 78.6214 74.6059C88.6578 66.4935 97.87 57.6923 105.952 47.7815C112.208 40.0061 118.443 29.991 116.897 19.6834C118.266 20.4579 119.337 18.3899 118.36 17.4908C115.64 14.6399 113.102 11.8177 110.775 8.84228C116.813 7.18344 122.88 5.34208 129.015 4.25748C130.503 11.3871 132.718 18.6315 133.239 25.9821Z" fill="white"/>
</svg>
