<svg width="24" height="24" viewBox="0 0 24 24" fill="none" xmlns="http://www.w3.org/2000/svg">
<rect x="0.272727" y="0.272727" width="23.4545" height="23.4545" rx="2.45455" fill="white"/>
<rect x="0.272727" y="0.272727" width="23.4545" height="23.4545" rx="2.45455" stroke="#E4E4E7" stroke-width="0.545455"/>
<path d="M12 12.5453C12.3013 12.5453 12.5455 12.3011 12.5455 11.9999C12.5455 11.6986 12.3013 11.4544 12 11.4544C11.6988 11.4544 11.4546 11.6986 11.4546 11.9999C11.4546 12.3011 11.6988 12.5453 12 12.5453Z" stroke="black" stroke-width="1.09091" stroke-linecap="round" stroke-linejoin="round"/>
<path d="M12 8.72714C12.3013 8.72714 12.5455 8.48293 12.5455 8.18169C12.5455 7.88044 12.3013 7.63623 12 7.63623C11.6988 7.63623 11.4546 7.88044 11.4546 8.18169C11.4546 8.48293 11.6988 8.72714 12 8.72714Z" stroke="black" stroke-width="1.09091" stroke-linecap="round" stroke-linejoin="round"/>
<path d="M12 16.3635C12.3013 16.3635 12.5455 16.1193 12.5455 15.818C12.5455 15.5168 12.3013 15.2726 12 15.2726C11.6988 15.2726 11.4546 15.5168 11.4546 15.818C11.4546 16.1193 11.6988 16.3635 12 16.3635Z" stroke="black" stroke-width="1.09091" stroke-linecap="round" stroke-linejoin="round"/>
</svg>
