<svg width="36" height="36" viewBox="0 0 36 36" fill="none" xmlns="http://www.w3.org/2000/svg">
<g clip-path="url(#clip0_1493_3900)">
<path d="M34.8 18.7H25.9333C25.7778 18.7 25.6222 18.7583 25.4667 18.875C25.3111 18.9917 25.2333 19.1278 25.2333 19.2833C25 20.2944 24.6111 21.2278 24.0667 22.0833C23.9889 22.2389 23.95 22.4139 23.95 22.6083C23.95 22.8028 24.0278 22.9389 24.1833 23.0167L30.3667 29.3167C30.5222 29.4722 30.7167 29.55 30.95 29.55C31.1833 29.4722 31.3389 29.3556 31.4167 29.2C33.8278 26.4 35.1889 23.1722 35.5 19.5167C35.5 19.2833 35.4222 19.0889 35.2667 18.9333C35.1111 18.7778 34.9556 18.7 34.8 18.7ZM30.8333 27.6833L25.5833 22.4333C25.9722 21.7333 26.2833 20.9556 26.5167 20.1H33.9833C33.5944 22.9 32.5444 25.4278 30.8333 27.6833ZM23.1333 24.0667C22.9778 23.9111 22.8222 23.8333 22.6667 23.8333C22.5111 23.8333 22.3556 23.8722 22.2 23.95C20.9556 24.8056 19.5556 25.2333 18 25.2333C16.6778 25.2333 15.4722 24.9028 14.3833 24.2417C13.2944 23.5806 12.4194 22.7056 11.7583 21.6167C11.0972 20.5278 10.7667 19.3222 10.7667 18C10.7667 16.2111 11.3306 14.6361 12.4583 13.275C13.5861 11.9139 15.0056 11.0778 16.7167 10.7667C16.8722 10.7667 17.0083 10.6889 17.125 10.5333C17.2417 10.3778 17.3 10.2222 17.3 10.0667V1.2C17.3 1.04444 17.2222 0.888889 17.0667 0.733333C16.9111 0.577778 16.7167 0.5 16.4833 0.5C13.5278 0.733333 10.825 1.66667 8.375 3.3C5.925 4.93333 4 7.05278 2.6 9.65833C1.2 12.2639 0.5 15.0444 0.5 18C0.5 21.1111 1.29722 24.0278 2.89167 26.75C4.48611 29.4722 6.625 31.6111 9.30833 33.1667C11.9917 34.7222 14.8889 35.5 18 35.5C20.1 35.5 22.1222 35.15 24.0667 34.45C26.0111 33.75 27.7611 32.7389 29.3167 31.4167C29.4722 31.2611 29.55 31.0667 29.55 30.8333C29.55 30.6 29.4722 30.4444 29.3167 30.3667L23.1333 24.0667ZM18 33.9833C15.1222 33.9833 12.4583 33.2639 10.0083 31.825C7.55833 30.3861 5.61389 28.4417 4.175 25.9917C2.73611 23.5417 2.01667 20.8778 2.01667 18C2.01667 15.3556 2.61944 12.8861 3.825 10.5917C5.03056 8.29722 6.68333 6.39167 8.78333 4.875C10.8833 3.35833 13.2556 2.40556 15.9 2.01667V9.48333C13.9556 9.95 12.3611 10.9806 11.1167 12.575C9.87222 14.1694 9.25 15.9778 9.25 18C9.25 19.5556 9.63889 21.0139 10.4167 22.375C11.1944 23.7361 12.2639 24.8056 13.625 25.5833C14.9861 26.3611 16.4639 26.75 18.0583 26.75C19.6528 26.75 21.1111 26.3222 22.4333 25.4667L27.8 30.7167C26.4 31.8056 24.8639 32.6222 23.1917 33.1667C21.5194 33.7111 19.7889 33.9833 18 33.9833ZM19.4 10.7667C20.8778 11.0778 22.1417 11.7583 23.1917 12.8083C24.2417 13.8583 24.9222 15.1222 25.2333 16.6C25.2333 16.8333 25.3111 16.9889 25.4667 17.0667C25.6222 17.1444 25.7778 17.1833 25.9333 17.1833H34.8C34.9556 17.1833 35.1111 17.1056 35.2667 16.95C35.4222 16.7944 35.5 16.6389 35.5 16.4833C35.2667 13.6833 34.4111 11.1167 32.9333 8.78333C31.4556 6.45 29.55 4.54444 27.2167 3.06667C24.8833 1.58889 22.3167 0.733333 19.5167 0.5C19.3611 0.5 19.2056 0.577778 19.05 0.733333C18.8944 0.888889 18.8167 1.04444 18.8167 1.2V10.0667C18.8167 10.2222 18.8556 10.3778 18.9333 10.5333C19.0111 10.6889 19.1667 10.7667 19.4 10.7667ZM20.2167 2.01667C22.55 2.32778 24.7083 3.125 26.6917 4.40833C28.675 5.69167 30.3083 7.325 31.5917 9.30833C32.875 11.2917 33.6722 13.45 33.9833 15.7833H26.5167C26.1278 14.2278 25.3694 12.8861 24.2417 11.7583C23.1139 10.6306 21.7722 9.87222 20.2167 9.48333V2.01667Z" fill="#757FEF"/>
</g>
<defs>
<clipPath id="clip0_1493_3900">
<rect width="35" height="35" fill="white" transform="matrix(1 0 0 -1 0.5 35.5)"/>
</clipPath>
</defs>
</svg>
