<svg width="35" height="35" viewBox="0 0 35 35" fill="none" xmlns="http://www.w3.org/2000/svg">
<g clip-path="url(#clip0_2350_1932)">
<path fill-rule="evenodd" clip-rule="evenodd" d="M29.1831 19.7362H25.5702C25.0537 19.7362 24.7099 19.3918 24.7099 18.8759C24.7099 18.3599 25.0542 18.0156 25.5702 18.0156H29.1831C30.0429 18.0156 30.9032 17.8439 31.7635 17.6712C32.2795 17.4996 32.6238 17.3274 32.9676 17.1552C33.312 16.9836 33.4841 16.4671 33.4841 16.1233C33.4841 15.7789 33.312 15.4346 33.1398 15.0908C32.2795 14.0589 30.731 13.3707 28.6666 12.6826C28.4944 12.6826 28.4944 12.5104 28.3222 12.5104C27.8062 12.166 27.4624 11.6501 27.2903 11.1341C27.2903 10.4454 27.6346 9.92942 28.1506 9.58563C29.3547 7.86499 30.0429 6.31708 29.8712 4.94023C29.6991 4.08047 29.3547 3.39233 28.6666 2.87579C27.4624 2.01547 25.7424 2.01547 24.7093 2.87579C24.0217 3.39233 23.6774 4.08047 23.5052 4.94023C23.3336 6.31652 24.0217 7.86499 25.2258 9.58563C25.5702 9.92999 25.398 10.446 25.0537 10.7897C24.7093 11.1341 24.1933 10.9619 23.8495 10.6181C22.1289 8.55313 21.4408 6.4887 21.7851 4.59644C21.9573 3.39233 22.6454 2.18765 23.6774 1.4995C25.398 0.123213 27.979 0.123213 29.6991 1.4995C30.731 2.35983 31.4191 3.39233 31.5913 4.59644C31.7635 6.4887 31.0754 8.5537 29.5269 10.6181C29.3547 10.7897 29.3547 10.9619 29.1825 10.9619C29.1825 10.9619 29.3547 10.9619 29.3547 11.1341C31.5913 11.8222 33.312 12.8542 34.3439 14.0583C34.8604 14.5748 35.2042 15.4351 35.2042 16.2955C35.2042 16.7628 35.0954 17.2237 34.8864 17.6417C34.6775 18.0597 34.374 18.4233 34.0001 18.7037C33.4841 19.0481 32.9676 19.3924 32.2795 19.564C31.2475 19.564 30.215 19.7362 29.1831 19.7362Z" fill="#757FEF"/>
<path fill-rule="evenodd" clip-rule="evenodd" d="M10.4299 19.7364H6.81703C5.61291 19.7364 4.58098 19.5642 3.72066 19.2205C3.03195 19.0483 2.51598 18.7039 2.00001 18.3601C1.31187 17.8442 0.795898 16.8117 0.795898 15.9513C0.795898 15.091 1.14025 14.4029 1.65622 13.7147C2.86033 12.5106 4.58041 11.6503 6.81703 10.9621C6.81703 10.9621 6.9892 10.9621 6.9892 10.79C6.9892 10.79 6.81703 10.6184 6.81703 10.4456C5.09695 8.38231 4.23719 6.1457 4.58154 4.42505C4.75316 3.22094 5.4413 2.01626 6.4738 1.32812C8.19445 -0.0481741 10.7748 -0.0481741 12.4955 1.32812C13.5274 2.18844 14.2156 3.22094 14.3878 4.42505C14.5599 6.31731 13.8718 8.38231 12.3233 10.4467C11.979 10.7911 11.463 10.7911 11.1192 10.6189C10.7749 10.2746 10.6027 9.7586 10.947 9.41425C12.3233 7.69416 12.8393 5.97352 12.6671 4.76941C12.6671 3.90908 12.1511 3.22094 11.463 2.70441C10.2589 1.84465 8.71041 1.84465 7.50574 2.70441C6.81759 3.22094 6.30162 3.90908 6.30162 4.59723C6.12945 5.97352 6.81759 7.52142 8.02227 9.24207C8.36662 9.7586 8.88259 10.2746 8.71041 10.7905C8.71041 11.4792 8.19445 11.823 7.67791 12.1668C7.67791 12.1668 7.5063 12.339 7.33356 12.339C5.4413 13.1993 4.06501 13.8875 3.03308 14.92C2.8609 15.2643 2.68872 15.6081 2.68872 15.9519C2.68872 16.4679 2.8609 16.8122 3.20469 16.9844C3.54904 17.156 3.8934 17.3288 4.40937 17.5004C5.09751 17.8447 5.95783 18.0163 6.81759 18.0163H10.4305C10.947 18.0163 11.2908 18.3607 11.2908 18.8767C11.2908 19.3926 10.9465 19.737 10.4305 19.737L10.4299 19.7364Z" fill="#757FEF"/>
<path fill-rule="evenodd" clip-rule="evenodd" d="M21.6131 34.704H14.5595C13.011 34.704 11.6347 34.5318 10.43 34.0158C9.57028 33.6715 8.88214 33.3277 8.36561 32.8117C7.33367 32.2958 6.81714 31.0911 6.81714 29.887C6.81714 28.8545 7.16149 27.9941 7.84964 27.1344C9.22593 25.5859 11.4625 24.3812 14.5595 23.3493L15.0754 22.8333L14.5595 22.3168C12.3229 19.3926 11.2909 16.8116 11.6347 14.4029C11.9791 12.8544 12.6667 11.4787 14.0429 10.4456C16.2796 8.89769 19.7208 8.89769 21.7853 10.4456C23.1616 11.4787 24.0219 12.8544 24.1935 14.4029C24.5379 16.8116 23.5054 19.5642 21.4409 22.3174C20.925 22.8333 20.925 23.0049 20.925 23.0049C20.925 23.0049 21.2693 23.1771 21.4409 23.3493C24.5379 24.3812 26.7745 25.5859 28.1508 27.1344C28.8389 27.8225 29.1833 28.8545 29.1833 29.887C29.1833 31.0911 28.6667 32.2958 27.8064 32.9839C27.2904 33.4999 26.6023 33.8437 25.742 34.188C24.3657 34.5324 22.9894 34.704 21.6131 34.704ZM18.0002 10.79C16.9677 10.79 15.9358 11.1343 15.0754 11.6503C14.0429 12.339 13.527 13.3709 13.3548 14.575C13.1832 16.4673 14.0435 18.7039 15.7636 21.1127C16.2796 21.6287 16.7961 22.1452 16.6239 23.0049C16.6239 23.6937 15.9352 24.2096 15.4198 24.7256C15.4198 24.7256 15.2476 24.8978 15.0754 24.8978C12.1513 25.7581 10.2584 26.9622 8.88214 28.3385C8.70996 28.6829 8.53778 29.371 8.53778 29.887C8.53778 30.5751 8.88214 31.2633 9.39811 31.607C9.74246 31.9514 10.43 32.2958 11.1188 32.4674C12.1507 32.8117 13.3548 32.9839 14.5595 32.9839H21.6131C22.8172 32.9839 24.0219 32.8117 25.0538 32.4674C25.7425 32.2958 26.2585 31.9514 26.7745 31.607C27.2904 31.2633 27.6348 30.5751 27.6348 29.887C27.6348 29.371 27.4626 28.6829 26.9461 28.3385C25.742 26.9622 23.6775 25.9297 20.7533 24.8978C20.5806 24.8978 20.5806 24.7256 20.409 24.7256C19.8925 24.2096 19.2043 23.6931 19.2043 23.0049C19.2043 22.3168 19.7208 21.6287 20.2368 21.1127C21.9575 18.8761 22.8172 16.4673 22.6456 14.575C22.4734 13.3709 21.9569 12.5106 20.925 11.6508C20.0646 11.1343 19.0327 10.79 18.0002 10.79Z" fill="#757FEF"/>
</g>
<defs>
<clipPath id="clip0_2350_1932">
<rect width="35" height="35" fill="white" transform="translate(0.5)"/>
</clipPath>
</defs>
</svg>
