<svg width="25" height="25" viewBox="0 0 25 25" fill="none" xmlns="http://www.w3.org/2000/svg">
<g clip-path="url(#clip0_1493_3903)">
<path d="M0.5 16.6665C0.666667 16.6665 0.805556 16.6109 0.916667 16.4998L6.75 10.6665L11.5833 15.4998C11.6944 15.5554 11.8194 15.5832 11.9583 15.5832C12.0972 15.5832 12.2222 15.5554 12.3333 15.4998L18.75 9.08317V11.9998C18.75 12.1109 18.8056 12.2221 18.9167 12.3332C19.0278 12.4443 19.1528 12.4998 19.2917 12.4998C19.4306 12.4998 19.5556 12.4443 19.6667 12.3332C19.7778 12.2221 19.8333 12.1109 19.8333 11.9998V7.83317C19.8333 7.6665 19.7778 7.52761 19.6667 7.4165C19.5556 7.30539 19.4167 7.24984 19.25 7.24984H15.0833C14.9722 7.24984 14.8611 7.30539 14.75 7.4165C14.6389 7.52761 14.5833 7.65261 14.5833 7.7915C14.5833 7.93039 14.6389 8.05539 14.75 8.1665C14.8611 8.27761 14.9722 8.33317 15.0833 8.33317H18L12 14.3332L7.16667 9.49984C7.05556 9.38873 6.93056 9.33317 6.79167 9.33317C6.65278 9.33317 6.52778 9.38873 6.41667 9.49984L0.166667 15.7498C0.0555556 15.8609 0 15.9859 0 16.1248C0 16.2637 0.0555556 16.3887 0.166667 16.4998C0.277778 16.6109 0.388889 16.6665 0.5 16.6665Z" fill="#00B69B"/>
</g>
<defs>
<clipPath id="clip0_1493_3903">
<rect width="25" height="25" fill="white" transform="matrix(1 0 0 -1 0 25)"/>
</clipPath>
</defs>
</svg>
