<svg width="36" height="36" viewBox="0 0 36 36" fill="none" xmlns="http://www.w3.org/2000/svg">
<g clip-path="url(#clip0_1493_1681)">
<path d="M28.85 30.25C27.3722 31.65 25.6806 32.7 23.775 33.4C21.8694 34.1 19.8667 34.45 17.7667 34.45C15.6667 34.45 13.6056 34.0417 11.5833 33.225C9.56111 32.4083 7.79167 31.2222 6.275 29.6667C4.75833 28.1111 3.57222 26.3417 2.71667 24.3583C1.86111 22.375 1.43333 20.275 1.43333 18.0583C1.43333 15.8417 1.86111 13.7417 2.71667 11.7583C3.57222 9.775 4.75833 8.00556 6.275 6.45C7.79167 4.89444 9.56111 3.70833 11.5833 2.89167C13.6056 2.075 15.6861 1.66667 17.825 1.66667C19.9639 1.66667 22.0056 2.05556 23.95 2.83333C24.1056 2.91111 24.2417 2.91111 24.3583 2.83333C24.475 2.75555 24.5722 2.65833 24.65 2.54167C24.7278 2.425 24.7278 2.30833 24.65 2.19167C24.5722 2.075 24.4944 1.97778 24.4167 1.9C22.3167 1.04445 20.1194 0.616665 17.825 0.616665C15.5306 0.616665 13.3333 1.06389 11.2333 1.95833C9.13333 2.85278 7.24722 4.11667 5.575 5.75C3.90278 7.38333 2.63889 9.26944 1.78333 11.4083C0.927778 13.5472 0.5 15.7833 0.5 18.1167C0.5 20.45 0.927778 22.6667 1.78333 24.7667C2.63889 26.8667 3.90278 28.7333 5.575 30.3667C7.24722 32 9.13333 33.2639 11.2333 34.1583C13.3333 35.0528 15.55 35.5 17.8833 35.5C20.0611 35.5 22.1417 35.1111 24.125 34.3333C26.1083 33.5556 27.9167 32.4667 29.55 31.0667C29.6278 30.9889 29.6667 30.8722 29.6667 30.7167C29.6667 30.5611 29.6278 30.425 29.55 30.3083C29.4722 30.1917 29.3556 30.1333 29.2 30.1333C29.0444 30.1333 28.9278 30.1722 28.85 30.25ZM33.9833 11.35C33.9056 11.1944 33.8083 11.0972 33.6917 11.0583C33.575 11.0194 33.4389 11.0194 33.2833 11.0583C33.1278 11.0972 33.0306 11.1944 32.9917 11.35C32.9528 11.5056 32.9722 11.6222 33.05 11.7C33.9056 13.7222 34.3333 15.8611 34.3333 18.1167C34.3333 20.0611 33.9833 21.9472 33.2833 23.775C32.5833 25.6028 31.6111 27.2556 30.3667 28.7333C30.2889 28.8111 30.25 28.9278 30.25 29.0833C30.25 29.2389 30.3083 29.3556 30.425 29.4333C30.5417 29.5111 30.6583 29.55 30.775 29.55C30.8917 29.55 31.0278 29.5111 31.1833 29.4333C32.5056 27.8 33.5167 26.0111 34.2167 24.0667C34.9167 22.1222 35.2667 20.1389 35.2667 18.1167C35.2667 15.7056 34.8389 13.45 33.9833 11.35ZM6.56667 11.7C6.48889 11.7 6.37222 11.7194 6.21667 11.7583C6.06111 11.7972 5.94444 11.8556 5.86667 11.9333C4.93333 13.8778 4.46667 15.9389 4.46667 18.1167C4.46667 20.5278 5.06944 22.7639 6.275 24.825C7.48056 26.8861 9.11389 28.5194 11.175 29.725C13.2361 30.9306 15.4722 31.5333 17.8833 31.5333C20.2944 31.5333 22.5306 30.9306 24.5917 29.725C26.6528 28.5194 28.2861 26.8861 29.4917 24.825C30.6972 22.7639 31.3 20.5278 31.3 18.1167C31.3 16.7944 31.1444 15.55 30.8333 14.3833C30.7556 14.2278 30.6583 14.1111 30.5417 14.0333C30.425 13.9556 30.2889 13.9361 30.1333 13.975C29.9778 14.0139 29.8806 14.1111 29.8417 14.2667C29.8028 14.4222 29.7833 14.5389 29.7833 14.6167C30.0944 15.7833 30.25 16.95 30.25 18.1167C30.25 20.2944 29.7056 22.3361 28.6167 24.2417C27.5278 26.1472 26.0306 27.6639 24.125 28.7917C22.2194 29.9194 20.1389 30.4833 17.8833 30.4833C15.6278 30.4833 13.5472 29.9194 11.6417 28.7917C9.73611 27.6639 8.23889 26.1472 7.15 24.2417C6.06111 22.3361 5.51667 20.2944 5.51667 18.1167C5.51667 16.0944 5.94444 14.1889 6.8 12.4C6.87778 12.3222 6.89722 12.2056 6.85833 12.05C6.81944 11.8944 6.72222 11.7778 6.56667 11.7ZM21.7333 5.75C21.8111 5.59444 21.8111 5.45833 21.7333 5.34167C21.6556 5.225 21.5389 5.16667 21.3833 5.16667C20.2167 4.85555 19.05 4.7 17.8833 4.7C15.7056 4.7 13.6833 5.16667 11.8167 6.1C9.95 7.03333 8.39444 8.35555 7.15 10.0667C7.07222 10.1444 7.03333 10.2611 7.03333 10.4167C7.03333 10.5722 7.09167 10.6889 7.20833 10.7667C7.325 10.8444 7.44167 10.8833 7.55833 10.8833C7.675 10.8833 7.81111 10.8056 7.96667 10.65C9.13333 9.09444 10.5722 7.86944 12.2833 6.975C13.9944 6.08055 15.8611 5.63333 17.8833 5.63333C18.9722 5.63333 20.0611 5.78889 21.15 6.1C21.3056 6.17778 21.4417 6.17778 21.5583 6.1C21.675 6.02222 21.7333 5.90556 21.7333 5.75ZM18.9333 9.6C19.0111 9.44444 18.9917 9.30833 18.875 9.19167C18.7583 9.075 18.6222 9.01667 18.4667 9.01667H17.8833C16.25 9.01667 14.7333 9.425 13.3333 10.2417C11.9333 11.0583 10.8444 12.1667 10.0667 13.5667C9.28889 14.9667 8.9 16.4833 8.9 18.1167C8.9 19.75 9.28889 21.2472 10.0667 22.6083C10.8444 23.9694 11.9333 25.0583 13.3333 25.875C14.7333 26.6917 16.25 27.1 17.8833 27.1C19.5167 27.1 21.0333 26.6917 22.4333 25.875C23.8333 25.0583 24.9222 23.9694 25.7 22.6083C26.4778 21.2472 26.8667 19.75 26.8667 18.1167V17.3C26.8667 17.2222 26.8083 17.125 26.6917 17.0083C26.575 16.8917 26.4583 16.8333 26.3417 16.8333C26.225 16.8333 26.1083 16.8917 25.9917 17.0083C25.875 17.125 25.8167 17.2611 25.8167 17.4167L25.9333 18.1167C25.9333 19.5167 25.5639 20.8389 24.825 22.0833C24.0861 23.3278 23.1139 24.3 21.9083 25C20.7028 25.7 19.3611 26.05 17.8833 26.05C16.4056 26.05 15.0639 25.7 13.8583 25C12.6528 24.3 11.6806 23.3278 10.9417 22.0833C10.2028 20.8389 9.83333 19.4972 9.83333 18.0583C9.83333 16.6194 10.2028 15.2778 10.9417 14.0333C11.6806 12.7889 12.6528 11.8167 13.8583 11.1167C15.0639 10.4167 16.4056 10.0667 17.8833 10.0667H18.4667C18.6222 10.0667 18.7389 10.0278 18.8167 9.95C18.8944 9.87222 18.9333 9.75556 18.9333 9.6ZM17.8833 14.5C17.8833 14.5 17.9222 14.5 18 14.5C18.0778 14.5 18.175 14.4611 18.2917 14.3833C18.4083 14.3056 18.4667 14.1889 18.4667 14.0333C18.4667 13.8778 18.4083 13.7611 18.2917 13.6833C18.175 13.6056 18.0389 13.5667 17.8833 13.5667C16.6389 13.5667 15.5694 13.9944 14.675 14.85C13.7806 15.7056 13.3333 16.775 13.3333 18.0583C13.3333 19.3417 13.7806 20.4306 14.675 21.325C15.5694 22.2194 16.6389 22.6667 17.8833 22.6667C19.1278 22.6667 20.1972 22.2194 21.0917 21.325C21.9861 20.4306 22.4333 19.3611 22.4333 18.1167C22.4333 17.9611 22.3944 17.825 22.3167 17.7083C22.2389 17.5917 22.1222 17.5333 21.9667 17.5333C21.8111 17.5333 21.675 17.5917 21.5583 17.7083C21.4417 17.825 21.3833 17.9611 21.3833 18.1167C21.3833 19.05 21.0333 19.8667 20.3333 20.5667C19.6333 21.2667 18.7972 21.6167 17.825 21.6167C16.8528 21.6167 16.0361 21.2667 15.375 20.5667C14.7139 19.8667 14.3833 19.0306 14.3833 18.0583C14.3833 17.0861 14.7139 16.25 15.375 15.55C16.0361 14.85 16.8722 14.5 17.8833 14.5ZM20.1 10.1833L21.0333 13.1L18.4667 15.6667C17.8444 16.2889 17.5722 17.0278 17.65 17.8833C17.65 18.0389 17.6889 18.175 17.7667 18.2917C17.8444 18.4083 17.9611 18.4667 18.1167 18.4667C18.9722 18.4667 19.7111 18.1556 20.3333 17.5333L21.0333 16.8333C21.1111 16.7556 21.15 16.6389 21.15 16.4833C21.15 16.3278 21.0917 16.2111 20.975 16.1333C20.8583 16.0556 20.7417 16.0167 20.625 16.0167C20.5083 16.0167 20.4111 16.0556 20.3333 16.1333L19.6333 16.7167C19.4 17.0278 19.0889 17.2222 18.7 17.3C18.7778 16.9111 18.9333 16.6 19.1667 16.3667L30.95 4.11667H31.0667H31.1833L31.65 4.46667V4.58333V4.7L21.85 14.5C21.7722 14.6556 21.7333 14.7917 21.7333 14.9083C21.7333 15.025 21.7722 15.1417 21.85 15.2583C21.9278 15.375 22.0444 15.4333 22.2 15.4333C22.3556 15.4333 22.4722 15.3944 22.55 15.3167L22.9 14.9667L26.1667 15.9C26.4778 15.9 26.7111 15.7833 26.8667 15.55L34.9167 8.08333C35.2278 7.77222 35.3444 7.42222 35.2667 7.03333C35.1889 6.64444 34.9556 6.37222 34.5667 6.21667L32.4667 5.28333C32.6222 5.05 32.7 4.79722 32.7 4.525C32.7 4.25278 32.5833 4 32.35 3.76667L32 3.41667C31.7667 3.18333 31.4556 3.06667 31.0667 3.06667C30.8333 3.06667 30.6 3.14444 30.3667 3.3L29.55 1.2C29.3167 0.811111 29.0056 0.577778 28.6167 0.5C28.2278 0.422222 27.8778 0.538887 27.5667 0.849998L20.3333 9.01667C20.0222 9.40556 19.9444 9.79445 20.1 10.1833ZM30.7167 10.65L28.15 9.6L29.7833 8.08333L32.35 9.13333L30.7167 10.65ZM28.15 12.9833L25.8167 12.05L27.3333 10.4167L29.9 11.4667L28.15 12.9833ZM26.1667 14.85C26.1667 14.85 26.1278 14.85 26.05 14.85L23.7167 14.15L25 12.8667L27.3333 13.8L26.1667 14.85ZM34.2167 7.26667C34.2944 7.26667 34.2944 7.30556 34.2167 7.38333L33.1667 8.31667L30.6 7.26667L31.65 6.1L34.2167 7.15C34.2167 7.15 34.2167 7.18889 34.2167 7.26667ZM24.3 5.98333L25.35 8.43333L23.8333 10.0667L22.7833 7.73333L24.3 5.98333ZM26.6333 3.41667L27.8 6.1L26.1667 7.73333L25.1167 5.16667L26.6333 3.41667ZM28.2667 1.55C28.3444 1.55 28.4028 1.55 28.4417 1.55C28.4806 1.55 28.5389 1.58889 28.6167 1.66667L29.6667 4.11667L28.5 5.28333L27.3333 2.6L28.2667 1.55ZM21.0333 9.71667L22.0833 8.55L23.0167 10.8833L21.85 12.1667L21.0333 9.83333C21.0333 9.83333 21.0333 9.79445 21.0333 9.71667Z" fill="#757FEF"/>
</g>
<defs>
<clipPath id="clip0_1493_1681">
<rect width="35" height="35" fill="white" transform="matrix(1 0 0 -1 0.5 35.5)"/>
</clipPath>
</defs>
</svg>
