<svg width="27" height="36" viewBox="0 0 27 36" fill="none" xmlns="http://www.w3.org/2000/svg">
<path d="M23.7167 11.6997C23.4833 11.3886 23.3083 11.058 23.1917 10.708C23.075 10.358 23.0556 9.9886 23.1333 9.59971C23.2111 8.89971 23.075 8.25804 22.725 7.67471C22.375 7.09137 21.8889 6.64415 21.2667 6.33304C20.8778 6.17748 20.5472 5.9636 20.275 5.69137C20.0028 5.41915 19.7889 5.12749 19.6333 4.81637C19.4 4.11637 18.9722 3.59137 18.35 3.24137C17.7278 2.89137 17.1056 2.79415 16.4833 2.94971C16.0944 2.94971 15.7056 2.91082 15.3167 2.83304C14.9278 2.75526 14.5778 2.59971 14.2667 2.36637C13.7222 1.89971 13.1 1.66637 12.4 1.66637C11.7 1.66637 11.0778 1.89971 10.5333 2.36637C10.2222 2.59971 9.87222 2.75526 9.48333 2.83304C9.09444 2.91082 8.70555 2.94971 8.31667 2.94971C7.69444 2.79415 7.07222 2.89137 6.45 3.24137C5.82778 3.59137 5.4 4.11637 5.16667 4.81637C5.01111 5.12749 4.79722 5.41915 4.525 5.69137C4.25278 5.9636 3.92222 6.17748 3.53333 6.33304C2.91111 6.64415 2.425 7.09137 2.075 7.67471C1.725 8.25804 1.58889 8.89971 1.66667 9.59971C1.74444 9.9886 1.725 10.358 1.60833 10.708C1.49167 11.058 1.31667 11.3886 1.08333 11.6997C0.694444 12.2442 0.5 12.8858 0.5 13.6247C0.5 14.3636 0.694444 15.0053 1.08333 15.5497C1.31667 15.8608 1.49167 16.1914 1.60833 16.5414C1.725 16.8914 1.74444 17.2608 1.66667 17.6497C1.58889 18.3497 1.725 18.9914 2.075 19.5747C2.425 20.158 2.91111 20.6053 3.53333 20.9164C3.92222 21.0719 4.25278 21.2858 4.525 21.558C4.79722 21.8303 5.01111 22.1219 5.16667 22.433C5.32222 22.7442 5.47778 23.0553 5.63333 23.3664L2.6 31.7664C2.52222 31.9997 2.56111 32.1942 2.71667 32.3497C2.87222 32.5053 3.06667 32.5442 3.3 32.4664L6.21667 31.533L7.73333 34.0997C7.88889 34.333 8.04444 34.4497 8.2 34.4497H8.31667C8.55 34.3719 8.70555 34.2553 8.78333 34.0997L11.8167 25.583C12.2056 25.6608 12.5944 25.6608 12.9833 25.583L16.0167 34.0997C16.0944 34.2553 16.25 34.3719 16.4833 34.4497H16.6C16.7556 34.4497 16.9111 34.333 17.0667 34.0997L18.5833 31.533L21.5 32.4664C21.7333 32.5442 21.9278 32.5053 22.0833 32.3497C22.2389 32.1942 22.2778 31.9997 22.2 31.7664L19.1667 23.3664C19.3222 23.0553 19.4778 22.7442 19.6333 22.433C19.7889 22.1219 20.0028 21.8303 20.275 21.558C20.5472 21.2858 20.8778 21.0719 21.2667 20.9164C21.8889 20.6053 22.375 20.158 22.725 19.5747C23.075 18.9914 23.2111 18.3497 23.1333 17.6497C23.0556 17.2608 23.075 16.8914 23.1917 16.5414C23.3083 16.1914 23.4833 15.8608 23.7167 15.5497C24.1056 15.0053 24.3 14.3636 24.3 13.6247C24.3 12.8858 24.1056 12.2442 23.7167 11.6997ZM8.08333 32.583L6.91667 30.5997C6.76111 30.3664 6.52778 30.2886 6.21667 30.3664L4 31.0664L6.56667 24.183C7.11111 24.3386 7.69444 24.3775 8.31667 24.2997C8.70555 24.2997 9.09444 24.3386 9.48333 24.4164C9.87222 24.4942 10.2222 24.6497 10.5333 24.883L10.8833 25.1164L8.08333 32.583ZM18.5833 30.3664C18.2722 30.2886 18.0389 30.3664 17.8833 30.5997L16.7167 32.583L13.9167 25.1164L14.2667 24.883C14.5778 24.6497 14.9278 24.4942 15.3167 24.4164C15.7056 24.3386 16.0944 24.2997 16.4833 24.2997C17.1056 24.3775 17.6889 24.3386 18.2333 24.183L20.8 31.0664L18.5833 30.3664ZM22.7833 14.9664C22.4722 15.3553 22.2583 15.783 22.1417 16.2497C22.025 16.7164 21.9861 17.2025 22.025 17.708C22.0639 18.2136 21.9667 18.6608 21.7333 19.0497C21.5 19.4386 21.1694 19.7303 20.7417 19.9247C20.3139 20.1192 19.925 20.3914 19.575 20.7414C19.225 21.0914 18.9528 21.4997 18.7583 21.9664C18.5639 22.433 18.2528 22.783 17.825 23.0164C17.3972 23.2497 16.95 23.3275 16.4833 23.2497C16.0167 23.1719 15.5306 23.2108 15.025 23.3664C14.5194 23.5219 14.0722 23.7358 13.6833 24.008C13.2944 24.2803 12.8667 24.4164 12.4 24.4164C11.9333 24.4164 11.5056 24.2803 11.1167 24.008C10.7278 23.7358 10.3 23.5219 9.83333 23.3664C9.52222 23.2886 9.21111 23.2497 8.9 23.2497H8.31667C7.85 23.3275 7.40278 23.2497 6.975 23.0164C6.54722 22.783 6.23611 22.433 6.04167 21.9664C5.84722 21.4997 5.575 21.0914 5.225 20.7414C4.875 20.3914 4.48611 20.1192 4.05833 19.9247C3.63056 19.7303 3.3 19.4386 3.06667 19.0497C2.83333 18.6608 2.73611 18.2136 2.775 17.708C2.81389 17.2025 2.775 16.7164 2.65833 16.2497C2.54167 15.783 2.32778 15.3553 2.01667 14.9664C1.70556 14.5775 1.55 14.1303 1.55 13.6247C1.55 13.1192 1.70556 12.6719 2.01667 12.283C2.32778 11.8942 2.54167 11.4664 2.65833 10.9997C2.775 10.533 2.81389 10.0469 2.775 9.54137C2.73611 9.03582 2.83333 8.5886 3.06667 8.19971C3.3 7.81082 3.63056 7.51915 4.05833 7.32471C4.48611 7.13026 4.875 6.85804 5.225 6.50804C5.575 6.15804 5.84722 5.74971 6.04167 5.28304C6.23611 4.81637 6.54722 4.46637 6.975 4.23304C7.40278 3.99971 7.85 3.92193 8.31667 3.99971C8.78333 4.07748 9.26944 4.0386 9.775 3.88304C10.2806 3.72748 10.7278 3.5136 11.1167 3.24137C11.5056 2.96915 11.9333 2.83304 12.4 2.83304C12.8667 2.83304 13.2944 2.96915 13.6833 3.24137C14.0722 3.5136 14.5194 3.72748 15.025 3.88304C15.5306 4.0386 16.0167 4.07748 16.4833 3.99971C16.95 3.92193 17.3972 3.99971 17.825 4.23304C18.2528 4.46637 18.5639 4.81637 18.7583 5.28304C18.9528 5.74971 19.225 6.15804 19.575 6.50804C19.925 6.85804 20.3139 7.13026 20.7417 7.32471C21.1694 7.51915 21.5 7.81082 21.7333 8.19971C21.9667 8.5886 22.0639 9.03582 22.025 9.54137C21.9861 10.0469 22.025 10.533 22.1417 10.9997C22.2583 11.4664 22.4722 11.8942 22.7833 12.283C23.0944 12.6719 23.25 13.1192 23.25 13.6247C23.25 14.1303 23.0944 14.5775 22.7833 14.9664ZM12.4 4.81637C10.8444 4.81637 9.38611 5.22471 8.025 6.04137C6.66389 6.85804 5.59444 7.92748 4.81667 9.24971C4.03889 10.5719 3.65 12.0303 3.65 13.6247C3.65 15.2192 4.03889 16.6775 4.81667 17.9997C5.59444 19.3219 6.66389 20.3914 8.025 21.208C9.38611 22.0247 10.8444 22.433 12.4 22.433C13.9556 22.433 15.4139 22.0247 16.775 21.208C18.1361 20.3914 19.2056 19.3219 19.9833 17.9997C20.7611 16.6775 21.15 15.2192 21.15 13.6247C21.15 12.0303 20.7611 10.5719 19.9833 9.24971C19.2056 7.92748 18.1361 6.87749 16.775 6.09971C15.4139 5.32193 13.9556 4.89415 12.4 4.81637ZM12.4 21.2664C11 21.2664 9.71667 20.9164 8.55 20.2164C7.38333 19.5164 6.45 18.583 5.75 17.4164C5.05 16.2497 4.7 14.9858 4.7 13.6247C4.7 12.2636 5.05 10.9997 5.75 9.83304C6.45 8.66637 7.38333 7.73304 8.55 7.03304C9.71667 6.33304 11 5.98304 12.4 5.98304C13.8 5.98304 15.0833 6.33304 16.25 7.03304C17.4167 7.73304 18.35 8.66637 19.05 9.83304C19.75 10.9997 20.1 12.2636 20.1 13.6247C20.1 14.9858 19.75 16.2497 19.05 17.4164C18.35 18.583 17.4167 19.5164 16.25 20.2164C15.0833 20.9164 13.8 21.2664 12.4 21.2664ZM14.3833 10.883L12.8667 7.96637C12.7889 7.73304 12.6333 7.61637 12.4 7.61637C12.1667 7.61637 12.0111 7.73304 11.9333 7.96637L10.4167 10.883L7.15 11.3497C6.91667 11.4275 6.76111 11.5636 6.68333 11.758C6.60556 11.9525 6.64444 12.1275 6.8 12.283L9.25 14.6164L8.66667 17.883C8.58889 18.1164 8.64722 18.3108 8.84167 18.4664C9.03611 18.6219 9.25 18.6219 9.48333 18.4664L12.4 16.9497L15.3167 18.4664C15.55 18.6219 15.7639 18.6219 15.9583 18.4664C16.1528 18.3108 16.2111 18.1164 16.1333 17.883L15.55 14.6164L18 12.283C18.1556 12.1275 18.1944 11.9525 18.1167 11.758C18.0389 11.5636 17.8833 11.4275 17.65 11.3497L14.3833 10.883ZM14.6167 14.033C14.4611 14.1886 14.4222 14.3442 14.5 14.4997L14.85 16.9497L12.6333 15.783C12.4778 15.7053 12.3222 15.7053 12.1667 15.783L9.95 16.9497L10.3 14.4997C10.3778 14.3442 10.3389 14.1886 10.1833 14.033L8.43333 12.283L10.8833 11.933C11.0389 11.933 11.1556 11.8164 11.2333 11.583L12.4 9.36637L13.5667 11.583C13.6444 11.8164 13.7611 11.933 13.9167 11.933L16.3667 12.283L14.6167 14.033Z" fill="#757FEF"/>
</svg>
