<svg width="42" height="42" viewBox="0 0 42 42" fill="none" xmlns="http://www.w3.org/2000/svg">
<path d="M21.21 22.3649C21.0705 22.3473 20.9294 22.3473 20.79 22.3649C19.3059 22.3149 17.8993 21.69 16.8674 20.6222C15.8355 19.5544 15.2591 18.1273 15.26 16.6424C15.26 13.4749 17.815 10.9024 21 10.9024C22.504 10.8997 23.9488 11.4883 25.0229 12.5411C26.097 13.5938 26.7144 15.0266 26.7419 16.5303C26.7695 18.0341 26.205 19.4885 25.1702 20.5799C24.1353 21.6713 22.7131 22.3124 21.21 22.3649ZM32.795 33.9149C29.5789 36.8707 25.368 38.5076 21 38.4999C16.45 38.4999 12.32 36.7674 9.20496 33.9149C9.37996 32.2699 10.43 30.6599 12.3025 29.3999C17.0975 26.2149 24.9375 26.2149 29.6975 29.3999C31.57 30.6599 32.62 32.2699 32.795 33.9149Z" stroke="black" stroke-width="2" stroke-linecap="round" stroke-linejoin="round"/>
<path d="M21 38.5C30.6652 38.5 38.5 30.6652 38.5 21C38.5 11.3348 30.6652 3.5 21 3.5C11.3348 3.5 3.5 11.3348 3.5 21C3.5 30.6652 11.3348 38.5 21 38.5Z" stroke="black" stroke-width="2" stroke-linecap="round" stroke-linejoin="round"/>
</svg>
