<svg width="48" height="48" viewBox="0 0 48 48" fill="none" xmlns="http://www.w3.org/2000/svg">
<rect width="48" height="48" rx="5" fill="white"/>
<path d="M29.9997 11.9613C26.2396 9.57095 21.6529 9.5892 17.9089 12.0161H19.5945V24.2965C19.1083 25.9935 18.6221 27.6723 18.152 29.351C18.1034 29.5152 18.1196 29.6977 18.2169 29.8254C19.6918 31.4677 20.8101 33.4566 21.507 35.6646C22.0743 37.3251 22.5119 39.0403 22.9981 40.7556C23.0305 40.938 22.9981 41.1388 22.917 41.303C22.6091 41.8321 22.7388 42.562 23.225 42.8905C23.279 42.9391 23.3384 42.9756 23.4033 43C23.4195 42.8357 23.4357 42.6898 23.4357 42.5438C23.5113 38.2618 23.5816 33.9797 23.6464 29.6977C23.6788 29.424 23.5653 29.1685 23.3547 29.0408C22.9333 28.7488 22.7712 28.1649 22.9495 27.6358C23.1764 27.0154 23.8085 26.7051 24.3595 26.9606C24.9106 27.2161 25.1861 27.9277 24.9592 28.5481C24.8782 28.7853 24.7323 28.9861 24.5378 29.132C24.3919 29.2233 24.2947 29.3875 24.2623 29.57C24.1758 33.9615 24.1056 38.353 24.0516 42.7445C24.0516 42.8175 24.0516 42.8905 24.0516 42.9817C24.5702 42.8175 24.8782 42.2336 24.7323 41.6497C24.7107 41.5645 24.6783 41.4794 24.635 41.3942C24.554 41.2482 24.5216 41.0658 24.5216 40.8833C25.2185 37.7995 26.3692 34.8799 27.9414 32.2523C28.4492 31.5103 29.0057 30.8108 29.6107 30.1539C29.7566 30.0262 29.8214 29.7889 29.7566 29.5882C29.319 27.8912 28.8814 26.1942 28.46 24.4972V11.9613H29.9997Z" fill="#22BFD9"/>
<path d="M35.1402 13.5602H36.9088V5H11V13.6363H12.7139C17.9467 7.14956 27.2272 6.33158 33.4264 11.8101C34.0463 12.3427 34.6176 12.9261 35.1402 13.5602Z" fill="#22BFD9"/>
</svg>
