<svg width="36" height="36" viewBox="0 0 36 36" fill="none" xmlns="http://www.w3.org/2000/svg">
<g style="mix-blend-mode:multiply">
<rect x="2" y="2" width="32" height="32" rx="16" fill="#FFEAEA"/>
<rect x="2" y="2" width="32" height="32" rx="16" stroke="#FFF5F5" stroke-width="4"/>
<path fill-rule="evenodd" clip-rule="evenodd" d="M14.1 10H19.4494L23.9831 14.7256V23.917C23.9831 25.0685 23.0516 26 21.9041 26H14.1C12.9486 26 12.0171 25.0685 12.0171 23.917V12.083C12.0171 10.9315 12.9486 10 14.1 10Z" fill="#E5252A"/>
<path opacity="0.302" fill-rule="evenodd" clip-rule="evenodd" d="M19.4453 10V14.6897H23.983L19.4453 10Z" fill="white"/>
<path d="M14.332 21.9382V19.0156H15.5754C15.8833 19.0156 16.1271 19.0996 16.3111 19.2715C16.495 19.4394 16.5869 19.6673 16.5869 19.9512C16.5869 20.235 16.495 20.4629 16.3111 20.6308C16.1271 20.8027 15.8833 20.8867 15.5754 20.8867H15.0797V21.9382H14.332ZM15.0797 20.251H15.4915C15.6034 20.251 15.6914 20.227 15.7513 20.1711C15.8113 20.1191 15.8433 20.0471 15.8433 19.9512C15.8433 19.8552 15.8113 19.7833 15.7513 19.7313C15.6914 19.6753 15.6034 19.6513 15.4915 19.6513H15.0797V20.251ZM16.8947 21.9382V19.0156H17.9302C18.1341 19.0156 18.326 19.0436 18.5059 19.1036C18.6858 19.1635 18.8498 19.2475 18.9937 19.3635C19.1376 19.4754 19.2536 19.6273 19.3375 19.8192C19.4175 20.0111 19.4615 20.231 19.4615 20.4789C19.4615 20.7228 19.4175 20.9427 19.3375 21.1346C19.2536 21.3265 19.1376 21.4784 18.9937 21.5903C18.8498 21.7063 18.6858 21.7902 18.5059 21.8502C18.326 21.9102 18.1341 21.9382 17.9302 21.9382H16.8947ZM17.6264 21.3025H17.8423C17.9582 21.3025 18.0662 21.2905 18.1661 21.2625C18.2621 21.2345 18.354 21.1905 18.442 21.1306C18.5259 21.0706 18.5939 20.9866 18.6419 20.8747C18.6898 20.7628 18.7138 20.6308 18.7138 20.4789C18.7138 20.323 18.6898 20.191 18.6419 20.0791C18.5939 19.9672 18.5259 19.8832 18.442 19.8232C18.354 19.7633 18.2621 19.7193 18.1661 19.6913C18.0662 19.6633 17.9582 19.6513 17.8423 19.6513H17.6264V21.3025ZM19.8373 21.9382V19.0156H21.9162V19.6513H20.5849V20.1191H21.6484V20.7508H20.5849V21.9382H19.8373Z" fill="white"/>
</g>
</svg>
