<svg width="36" height="36" viewBox="0 0 36 36" fill="none" xmlns="http://www.w3.org/2000/svg">
<g style="mix-blend-mode:multiply">
<rect x="2" y="2" width="32" height="32" rx="16" fill="#C5EDFF"/>
<rect x="2" y="2" width="32" height="32" rx="16" stroke="#E7F8FF" stroke-width="4"/>
<path d="M12.0483 24.3346H13.8638C14.149 24.3346 14.3803 24.1198 14.3803 23.8346C14.3803 23.5495 14.1492 23.3346 13.8638 23.3346H12.0483C11.284 23.3346 10.666 22.6563 10.666 21.8628V14.5013H23.166V16.3816C23.166 16.6668 23.4642 16.8981 23.7493 16.8981C24.0345 16.8981 24.3327 16.667 24.3327 16.3816V12.1503C24.3327 10.8048 23.0682 9.66797 21.737 9.66797H12.0483C10.7145 9.66797 9.66602 10.7815 9.66602 12.1503V21.8628C9.66602 23.2258 10.7145 24.3346 12.0483 24.3346ZM10.666 12.1503C10.666 11.3646 11.297 10.668 12.0483 10.668H21.737C22.5082 10.668 23.166 11.3646 23.166 12.1503V13.5013H10.666V12.1503Z" fill="#2EA8DB"/>
<path d="M21.4039 11.668H21.1974C20.9122 11.668 20.6809 11.9661 20.6809 12.2513C20.6809 12.5365 20.9121 12.8346 21.1974 12.8346H21.4039C21.6891 12.8346 21.9204 12.5365 21.9204 12.2513C21.9204 11.9661 21.6891 11.668 21.4039 11.668Z" fill="#2EA8DB"/>
<path d="M19.648 11.668H19.4415C19.1564 11.668 18.925 11.9661 18.925 12.2513C18.925 12.5365 19.1562 12.8346 19.4415 12.8346H19.648C19.9332 12.8346 20.1645 12.5365 20.1645 12.2513C20.1645 11.9661 19.9332 11.668 19.648 11.668Z" fill="#2EA8DB"/>
<path d="M17.7889 11.668H17.5824C17.2973 11.668 17.0659 11.9661 17.0659 12.2513C17.0659 12.5365 17.2971 12.8346 17.5824 12.8346H17.7889C18.0741 12.8346 18.3054 12.5365 18.3054 12.2513C18.3054 11.9661 18.0741 11.668 17.7889 11.668Z" fill="#2EA8DB"/>
<path d="M19.1654 16.8555C16.9008 16.8555 14.8326 18.2776 13.9993 20.3945C13.9993 20.3945 15.0834 24.3868 19.1654 24.2998C23.4784 24.208 24.3326 20.3945 24.3326 20.3945C23.4993 18.2776 21.4308 16.8555 19.1654 16.8555ZM19.2023 23.267C17.4299 23.267 15.8113 22.1941 15.1129 20.5776C15.8111 18.9611 17.4299 17.8883 19.2023 17.8883C20.9751 17.8883 22.5941 18.9611 23.2924 20.5776C22.5943 22.1941 20.9751 23.267 19.2023 23.267Z" fill="#2EA8DB"/>
<path d="M19.2027 18.5742C18.0977 18.5742 17.1987 19.4731 17.1987 20.5781C17.1987 21.6831 18.0977 22.5819 19.2027 22.5819C20.3077 22.5819 21.2066 21.6831 21.2066 20.5781C21.2066 19.4731 20.3077 18.5742 19.2027 18.5742ZM19.2027 21.5491C18.6672 21.5491 18.2316 21.1134 18.2316 20.5781C18.2316 20.0427 18.6672 19.6071 19.2027 19.6071C19.7382 19.6071 20.1737 20.0427 20.1737 20.5781C20.1737 21.1134 19.7382 21.5491 19.2027 21.5491Z" fill="#2EA8DB"/>
</g>
</svg>
