<svg width="69" height="28" viewBox="0 0 69 28" fill="none" xmlns="http://www.w3.org/2000/svg">
<rect width="69" height="28" rx="4" fill="#12B76A"/>
<path d="M13.7216 9.27273L16.1506 16.3807H16.2486L18.6776 9.27273H20.1009L16.9602 18H15.4389L12.2983 9.27273H13.7216ZM23.4237 18.1321C22.7788 18.1321 22.2234 17.9943 21.7575 17.7188C21.2944 17.4403 20.9364 17.0497 20.6836 16.5469C20.4336 16.0412 20.3086 15.4489 20.3086 14.7699C20.3086 14.0994 20.4336 13.5085 20.6836 12.9972C20.9364 12.4858 21.2887 12.0866 21.7404 11.7997C22.195 11.5128 22.7262 11.3693 23.3342 11.3693C23.7035 11.3693 24.0614 11.4304 24.408 11.5526C24.7546 11.6747 25.0657 11.8665 25.3413 12.1278C25.6168 12.3892 25.8342 12.7287 25.9933 13.1463C26.1523 13.5611 26.2319 14.0653 26.2319 14.6591V15.1108H21.0288V14.1562H24.9833C24.9833 13.821 24.9151 13.5241 24.7788 13.2656C24.6424 13.0043 24.4506 12.7983 24.2035 12.6477C23.9592 12.4972 23.6722 12.4219 23.3427 12.4219C22.9847 12.4219 22.6722 12.5099 22.4052 12.6861C22.141 12.8594 21.9364 13.0866 21.7915 13.3679C21.6495 13.6463 21.5785 13.9489 21.5785 14.2756V15.0213C21.5785 15.4588 21.6552 15.831 21.8086 16.1378C21.9648 16.4446 22.1822 16.679 22.4606 16.8409C22.739 17 23.0643 17.0795 23.4364 17.0795C23.6779 17.0795 23.8981 17.0455 24.0969 16.9773C24.2958 16.9062 24.4677 16.8011 24.6126 16.6619C24.7575 16.5227 24.8683 16.3509 24.945 16.1463L26.1509 16.3636C26.0543 16.7187 25.881 17.0298 25.631 17.2969C25.3839 17.5611 25.0728 17.767 24.6978 17.9148C24.3256 18.0597 23.9009 18.1321 23.4237 18.1321ZM27.6456 18V11.4545H28.8771V12.4943H28.9453C29.0646 12.142 29.2749 11.8651 29.576 11.6634C29.88 11.4588 30.2237 11.3565 30.6072 11.3565C30.6868 11.3565 30.7805 11.3594 30.8885 11.3651C30.9993 11.3707 31.0859 11.3778 31.1484 11.3864V12.6051C31.0973 12.5909 31.0064 12.5753 30.8757 12.5582C30.745 12.5384 30.6143 12.5284 30.4837 12.5284C30.1825 12.5284 29.9141 12.5923 29.6783 12.7202C29.4453 12.8452 29.2607 13.0199 29.1243 13.2443C28.9879 13.4659 28.9197 13.7187 28.9197 14.0028V18H27.6456ZM32.2511 18V11.4545H33.5252V18H32.2511ZM32.8945 10.4446C32.6729 10.4446 32.4826 10.3707 32.3235 10.223C32.1673 10.0724 32.0891 9.89347 32.0891 9.68608C32.0891 9.47585 32.1673 9.29687 32.3235 9.14915C32.4826 8.99858 32.6729 8.9233 32.8945 8.9233C33.1161 8.9233 33.305 8.99858 33.4613 9.14915C33.6204 9.29687 33.6999 9.47585 33.6999 9.68608C33.6999 9.89347 33.6204 10.0724 33.4613 10.223C33.305 10.3707 33.1161 10.4446 32.8945 10.4446ZM38.3544 11.4545V12.4773H34.6555V11.4545H38.3544ZM35.6697 18V10.696C35.6697 10.2869 35.7592 9.94744 35.9382 9.67756C36.1172 9.40483 36.3544 9.2017 36.6499 9.06818C36.9453 8.93182 37.2663 8.86364 37.6129 8.86364C37.8686 8.86364 38.0874 8.88494 38.2692 8.92756C38.451 8.96733 38.5859 9.00426 38.674 9.03835L38.3757 10.0696C38.3161 10.0526 38.2393 10.0327 38.1456 10.0099C38.0518 9.98437 37.9382 9.97159 37.8047 9.97159C37.495 9.97159 37.2734 10.0483 37.1399 10.2017C37.0092 10.3551 36.9439 10.5767 36.9439 10.8665V18H35.6697ZM39.669 18V11.4545H40.9432V18H39.669ZM40.3125 10.4446C40.0909 10.4446 39.9006 10.3707 39.7415 10.223C39.5852 10.0724 39.5071 9.89347 39.5071 9.68608C39.5071 9.47585 39.5852 9.29687 39.7415 9.14915C39.9006 8.99858 40.0909 8.9233 40.3125 8.9233C40.5341 8.9233 40.723 8.99858 40.8793 9.14915C41.0384 9.29687 41.1179 9.47585 41.1179 9.68608C41.1179 9.89347 41.0384 10.0724 40.8793 10.223C40.723 10.3707 40.5341 10.4446 40.3125 10.4446ZM45.4783 18.1321C44.8335 18.1321 44.2781 17.9943 43.8121 17.7188C43.3491 17.4403 42.9911 17.0497 42.7383 16.5469C42.4883 16.0412 42.3633 15.4489 42.3633 14.7699C42.3633 14.0994 42.4883 13.5085 42.7383 12.9972C42.9911 12.4858 43.3434 12.0866 43.7951 11.7997C44.2496 11.5128 44.7809 11.3693 45.3888 11.3693C45.7582 11.3693 46.1161 11.4304 46.4627 11.5526C46.8093 11.6747 47.1204 11.8665 47.396 12.1278C47.6715 12.3892 47.8888 12.7287 48.0479 13.1463C48.207 13.5611 48.2866 14.0653 48.2866 14.6591V15.1108H43.0835V14.1562H47.038C47.038 13.821 46.9698 13.5241 46.8335 13.2656C46.6971 13.0043 46.5053 12.7983 46.2582 12.6477C46.0138 12.4972 45.7269 12.4219 45.3974 12.4219C45.0394 12.4219 44.7269 12.5099 44.4599 12.6861C44.1957 12.8594 43.9911 13.0866 43.8462 13.3679C43.7042 13.6463 43.6332 13.9489 43.6332 14.2756V15.0213C43.6332 15.4588 43.7099 15.831 43.8633 16.1378C44.0195 16.4446 44.2369 16.679 44.5153 16.8409C44.7937 17 45.119 17.0795 45.4911 17.0795C45.7326 17.0795 45.9528 17.0455 46.1516 16.9773C46.3505 16.9062 46.5224 16.8011 46.6673 16.6619C46.8121 16.5227 46.9229 16.3509 46.9996 16.1463L48.2056 16.3636C48.109 16.7187 47.9357 17.0298 47.6857 17.2969C47.4386 17.5611 47.1275 17.767 46.7525 17.9148C46.3803 18.0597 45.9556 18.1321 45.4783 18.1321ZM52.1506 18.1278C51.6222 18.1278 51.1506 17.9929 50.7358 17.723C50.3239 17.4503 50 17.0625 49.7642 16.5597C49.5313 16.054 49.4148 15.4474 49.4148 14.7401C49.4148 14.0327 49.5327 13.4276 49.7685 12.9247C50.0071 12.4219 50.3338 12.0369 50.7486 11.7699C51.1634 11.5028 51.6335 11.3693 52.1591 11.3693C52.5653 11.3693 52.892 11.4375 53.1392 11.5739C53.3892 11.7074 53.5824 11.8636 53.7188 12.0426C53.858 12.2216 53.9659 12.3793 54.0426 12.5156H54.1193V9.27273H55.3935V18H54.1491V16.9815H54.0426C53.9659 17.1207 53.8551 17.2798 53.7102 17.4588C53.5682 17.6378 53.3722 17.794 53.1222 17.9276C52.8722 18.0611 52.5483 18.1278 52.1506 18.1278ZM52.4318 17.0412C52.7983 17.0412 53.108 16.9446 53.3608 16.7514C53.6165 16.5554 53.8097 16.2841 53.9403 15.9375C54.0739 15.5909 54.1406 15.1875 54.1406 14.7273C54.1406 14.2727 54.0753 13.875 53.9446 13.5341C53.8139 13.1932 53.6222 12.9276 53.3693 12.7372C53.1165 12.5469 52.804 12.4517 52.4318 12.4517C52.0483 12.4517 51.7287 12.5511 51.473 12.75C51.2173 12.9489 51.0241 13.2202 50.8935 13.5639C50.7656 13.9077 50.7017 14.2955 50.7017 14.7273C50.7017 15.1648 50.767 15.5582 50.8977 15.9077C51.0284 16.2571 51.2216 16.5341 51.4773 16.7386C51.7358 16.9403 52.054 17.0412 52.4318 17.0412Z" fill="white"/>
</svg>
