<svg width="24" height="24" viewBox="0 0 24 24" fill="none" xmlns="http://www.w3.org/2000/svg">
<path d="M14.4396 19.5278L15.9596 21.0478L18.9996 18.0078M11.9896 22.2878C10.1696 22.2878 8.35955 21.8278 6.97955 20.9078C4.55955 19.2878 4.55955 16.6478 6.97955 15.0378C9.72955 13.1978 14.2396 13.1978 16.9896 15.0378M12.1596 11.3478C12.0596 11.3378 11.9396 11.3378 11.8296 11.3478C10.6818 11.3088 9.59419 10.8246 8.79718 9.99774C8.00017 9.17087 7.55629 8.06624 7.55955 6.91778C7.55797 6.33511 7.67141 5.75786 7.89335 5.21911C8.1153 4.68037 8.44139 4.19072 8.85294 3.77825C9.26448 3.36577 9.75339 3.03857 10.2916 2.81541C10.8299 2.59225 11.4069 2.47752 11.9896 2.47778C14.4396 2.47778 16.4296 4.46778 16.4296 6.91778C16.4296 9.31778 14.5296 11.2678 12.1596 11.3478Z" stroke="#4F547B" stroke-width="1.5" stroke-linecap="round" stroke-linejoin="round"/>
</svg>
