<svg width="24" height="24" viewBox="0 0 24 24" fill="none" xmlns="http://www.w3.org/2000/svg">
<path d="M14 10.998H8M10 14.998H8M16 6.99805H8M20 10.498V6.79805C20 5.11789 20 4.27781 19.673 3.63608C19.3854 3.07159 18.9265 2.61265 18.362 2.32503C17.7202 1.99805 16.8802 1.99805 15.2 1.99805H8.8C7.11984 1.99805 6.27976 1.99805 5.63803 2.32503C5.07354 2.61265 4.6146 3.07159 4.32698 3.63608C4 4.27781 4 5.11789 4 6.79805V17.198C4 18.8782 4 19.7183 4.32698 20.36C4.6146 20.9245 5.07354 21.3834 5.63803 21.6711C6.27976 21.998 7.11984 21.998 8.8 21.998H11.5M22 21.998L20.5 20.498M21.5 17.998C21.5 19.931 19.933 21.498 18 21.498C16.067 21.498 14.5 19.931 14.5 17.998C14.5 16.0651 16.067 14.498 18 14.498C19.933 14.498 21.5 16.0651 21.5 17.998Z" stroke="#4F547B" stroke-width="1.5" stroke-linecap="round" stroke-linejoin="round"/>
</svg>
