<svg width="24" height="24" viewBox="0 0 24 24" fill="none" xmlns="http://www.w3.org/2000/svg">
<path d="M17.8877 10.8968C19.2827 10.7008 20.3567 9.50485 20.3597 8.05585C20.3597 6.62785 19.3187 5.44385 17.9537 5.21985" stroke="#4F547B" stroke-width="1.5" stroke-linecap="round" stroke-linejoin="round"/>
<path d="M19.7285 14.2504C21.0795 14.4524 22.0225 14.9254 22.0225 15.9004C22.0225 16.5714 21.5785 17.0074 20.8605 17.2814" stroke="#4F547B" stroke-width="1.5" stroke-linecap="round" stroke-linejoin="round"/>
<path fill-rule="evenodd" clip-rule="evenodd" d="M11.8867 14.6639C8.67273 14.6639 5.92773 15.1509 5.92773 17.0959C5.92773 19.0399 8.65573 19.5409 11.8867 19.5409C15.1007 19.5409 17.8447 19.0589 17.8447 17.1129C17.8447 15.1669 15.1177 14.6639 11.8867 14.6639Z" stroke="#4F547B" stroke-width="1.5" stroke-linecap="round" stroke-linejoin="round"/>
<path fill-rule="evenodd" clip-rule="evenodd" d="M11.8869 11.888C13.9959 11.888 15.7059 10.179 15.7059 8.069C15.7059 5.96 13.9959 4.25 11.8869 4.25C9.77793 4.25 8.0679 5.96 8.0679 8.069C8.05993 10.171 9.75693 11.881 11.8589 11.888H11.8869Z" stroke="#4F547B" stroke-width="1.5" stroke-linecap="round" stroke-linejoin="round"/>
<path d="M5.88509 10.8968C4.48909 10.7008 3.41609 9.50485 3.41309 8.05585C3.41309 6.62785 4.45409 5.44385 5.81909 5.21985" stroke="#4F547B" stroke-width="1.5" stroke-linecap="round" stroke-linejoin="round"/>
<path d="M4.044 14.2504C2.693 14.4524 1.75 14.9254 1.75 15.9004C1.75 16.5714 2.194 17.0074 2.912 17.2814" stroke="#4F547B" stroke-width="1.5" stroke-linecap="round" stroke-linejoin="round"/>
</svg>
