<svg width="69" height="28" viewBox="0 0 69 28" fill="none" xmlns="http://www.w3.org/2000/svg">
<rect width="69" height="28" rx="4" fill="#F04438"/>
<path d="M9.95881 18.5V9.77273H13.0696C13.7457 9.77273 14.3068 9.8892 14.7528 10.1222C15.2017 10.3551 15.5369 10.6776 15.7585 11.0895C15.9801 11.4986 16.0909 11.9716 16.0909 12.5085C16.0909 13.0426 15.9787 13.5128 15.7543 13.919C15.5327 14.3224 15.1974 14.6364 14.7486 14.8608C14.3026 15.0852 13.7415 15.1974 13.0653 15.1974H10.7088V14.0639H12.946C13.3722 14.0639 13.7188 14.0028 13.9858 13.8807C14.2557 13.7585 14.4531 13.581 14.5781 13.348C14.7031 13.1151 14.7656 12.8352 14.7656 12.5085C14.7656 12.179 14.7017 11.8935 14.5739 11.652C14.4489 11.4105 14.2514 11.2259 13.9815 11.098C13.7145 10.9673 13.3636 10.902 12.929 10.902H11.2756V18.5H9.95881ZM14.267 14.5625L16.4233 18.5H14.9233L12.8097 14.5625H14.267ZM20.3299 18.6321C19.685 18.6321 19.1296 18.4943 18.6637 18.2188C18.2006 17.9403 17.8427 17.5497 17.5898 17.0469C17.3398 16.5412 17.2148 15.9489 17.2148 15.2699C17.2148 14.5994 17.3398 14.0085 17.5898 13.4972C17.8427 12.9858 18.195 12.5866 18.6467 12.2997C19.1012 12.0128 19.6325 11.8693 20.2404 11.8693C20.6097 11.8693 20.9677 11.9304 21.3143 12.0526C21.6609 12.1747 21.9719 12.3665 22.2475 12.6278C22.5231 12.8892 22.7404 13.2287 22.8995 13.6463C23.0586 14.0611 23.1381 14.5653 23.1381 15.1591V15.6108H17.935V14.6562H21.8896C21.8896 14.321 21.8214 14.0241 21.685 13.7656C21.5487 13.5043 21.3569 13.2983 21.1097 13.1477C20.8654 12.9972 20.5785 12.9219 20.2489 12.9219C19.891 12.9219 19.5785 13.0099 19.3114 13.1861C19.0472 13.3594 18.8427 13.5866 18.6978 13.8679C18.5558 14.1463 18.4847 14.4489 18.4847 14.7756V15.5213C18.4847 15.9588 18.5614 16.331 18.7148 16.6378C18.8711 16.9446 19.0884 17.179 19.3668 17.3409C19.6452 17.5 19.9705 17.5795 20.3427 17.5795C20.5842 17.5795 20.8043 17.5455 21.0032 17.4773C21.2021 17.4062 21.3739 17.3011 21.5188 17.1619C21.6637 17.0227 21.7745 16.8509 21.8512 16.6463L23.0572 16.8636C22.9606 17.2187 22.7873 17.5298 22.5373 17.7969C22.2901 18.0611 21.979 18.267 21.604 18.4148C21.2319 18.5597 20.8072 18.6321 20.3299 18.6321ZM24.5518 11.9545H25.826V18.9261C25.826 19.3636 25.7464 19.733 25.5874 20.0341C25.4311 20.3352 25.1982 20.5639 24.8885 20.7202C24.5817 20.8764 24.2024 20.9545 23.7507 20.9545C23.7053 20.9545 23.6626 20.9545 23.6229 20.9545C23.5803 20.9545 23.5362 20.9531 23.4908 20.9503V19.8551C23.5305 19.8551 23.5661 19.8551 23.5973 19.8551C23.6257 19.8551 23.6584 19.8551 23.6953 19.8551C23.9964 19.8551 24.2138 19.7741 24.3473 19.6122C24.4837 19.4531 24.5518 19.2216 24.5518 18.9176V11.9545ZM25.1825 10.9446C24.9609 10.9446 24.7706 10.8707 24.6115 10.723C24.4553 10.5724 24.3771 10.3935 24.3771 10.1861C24.3771 9.97585 24.4553 9.79687 24.6115 9.64915C24.7706 9.49858 24.9609 9.4233 25.1825 9.4233C25.4041 9.4233 25.593 9.49858 25.7493 9.64915C25.9084 9.79687 25.9879 9.97585 25.9879 10.1861C25.9879 10.3935 25.9084 10.5724 25.7493 10.723C25.593 10.8707 25.4041 10.9446 25.1825 10.9446ZM30.3612 18.6321C29.7163 18.6321 29.1609 18.4943 28.695 18.2188C28.2319 17.9403 27.8739 17.5497 27.6211 17.0469C27.3711 16.5412 27.2461 15.9489 27.2461 15.2699C27.2461 14.5994 27.3711 14.0085 27.6211 13.4972C27.8739 12.9858 28.2262 12.5866 28.6779 12.2997C29.1325 12.0128 29.6637 11.8693 30.2717 11.8693C30.641 11.8693 30.9989 11.9304 31.3455 12.0526C31.6921 12.1747 32.0032 12.3665 32.2788 12.6278C32.5543 12.8892 32.7717 13.2287 32.9308 13.6463C33.0898 14.0611 33.1694 14.5653 33.1694 15.1591V15.6108H27.9663V14.6562H31.9208C31.9208 14.321 31.8526 14.0241 31.7163 13.7656C31.5799 13.5043 31.3881 13.2983 31.141 13.1477C30.8967 12.9972 30.6097 12.9219 30.2802 12.9219C29.9222 12.9219 29.6097 13.0099 29.3427 13.1861C29.0785 13.3594 28.8739 13.5866 28.729 13.8679C28.587 14.1463 28.516 14.4489 28.516 14.7756V15.5213C28.516 15.9588 28.5927 16.331 28.7461 16.6378C28.9023 16.9446 29.1197 17.179 29.3981 17.3409C29.6765 17.5 30.0018 17.5795 30.3739 17.5795C30.6154 17.5795 30.8356 17.5455 31.0344 17.4773C31.2333 17.4062 31.4052 17.3011 31.5501 17.1619C31.695 17.0227 31.8058 16.8509 31.8825 16.6463L33.0884 16.8636C32.9918 17.2187 32.8185 17.5298 32.5685 17.7969C32.3214 18.0611 32.0103 18.267 31.6353 18.4148C31.2631 18.5597 30.8384 18.6321 30.3612 18.6321ZM37.3402 18.6321C36.7067 18.6321 36.1612 18.4886 35.7038 18.2017C35.2493 17.9119 34.8999 17.5128 34.6555 17.0043C34.4112 16.4957 34.2891 15.9134 34.2891 15.2571C34.2891 14.5923 34.4141 14.0057 34.6641 13.4972C34.9141 12.9858 35.2663 12.5866 35.7209 12.2997C36.1754 12.0128 36.7109 11.8693 37.3274 11.8693C37.8246 11.8693 38.2678 11.9616 38.657 12.1463C39.0462 12.3281 39.3601 12.5838 39.5987 12.9134C39.8402 13.2429 39.9837 13.6278 40.0291 14.0682H38.7891C38.7209 13.7614 38.5646 13.4972 38.3203 13.2756C38.0788 13.054 37.755 12.9432 37.3487 12.9432C36.9936 12.9432 36.6825 13.0369 36.4155 13.2244C36.1513 13.4091 35.9453 13.6733 35.7976 14.017C35.6499 14.358 35.576 14.7614 35.576 15.2273C35.576 15.7045 35.6484 16.1165 35.7933 16.4631C35.9382 16.8097 36.1428 17.0781 36.407 17.2685C36.674 17.4588 36.9879 17.554 37.3487 17.554C37.5902 17.554 37.8089 17.5099 38.005 17.4219C38.2038 17.331 38.37 17.2017 38.5036 17.0341C38.6399 16.8665 38.7351 16.6648 38.7891 16.429H40.0291C39.9837 16.8523 39.8459 17.2301 39.6158 17.5625C39.3857 17.8949 39.0774 18.1562 38.6911 18.3466C38.3075 18.5369 37.8572 18.6321 37.3402 18.6321ZM44.4471 11.9545V12.9773H40.8718V11.9545H44.4471ZM41.8306 10.3864H43.1048V16.5781C43.1048 16.8253 43.1417 17.0114 43.2156 17.1364C43.2894 17.2585 43.3846 17.3423 43.5011 17.3878C43.6204 17.4304 43.7496 17.4517 43.8888 17.4517C43.9911 17.4517 44.0806 17.4446 44.1573 17.4304C44.234 17.4162 44.2937 17.4048 44.3363 17.3963L44.5664 18.4489C44.4925 18.4773 44.3874 18.5057 44.2511 18.5341C44.1147 18.5653 43.9442 18.5824 43.7397 18.5852C43.4045 18.5909 43.092 18.5312 42.8022 18.4062C42.5124 18.2812 42.2781 18.0881 42.0991 17.8267C41.9201 17.5653 41.8306 17.2372 41.8306 16.8423V10.3864ZM48.6072 18.6321C47.9624 18.6321 47.407 18.4943 46.9411 18.2188C46.478 17.9403 46.12 17.5497 45.8672 17.0469C45.6172 16.5412 45.4922 15.9489 45.4922 15.2699C45.4922 14.5994 45.6172 14.0085 45.8672 13.4972C46.12 12.9858 46.4723 12.5866 46.924 12.2997C47.3786 12.0128 47.9098 11.8693 48.5178 11.8693C48.8871 11.8693 49.245 11.9304 49.5916 12.0526C49.9382 12.1747 50.2493 12.3665 50.5249 12.6278C50.8004 12.8892 51.0178 13.2287 51.1768 13.6463C51.3359 14.0611 51.4155 14.5653 51.4155 15.1591V15.6108H46.2124V14.6562H50.1669C50.1669 14.321 50.0987 14.0241 49.9624 13.7656C49.826 13.5043 49.6342 13.2983 49.3871 13.1477C49.1428 12.9972 48.8558 12.9219 48.5263 12.9219C48.1683 12.9219 47.8558 13.0099 47.5888 13.1861C47.3246 13.3594 47.12 13.5866 46.9751 13.8679C46.8331 14.1463 46.7621 14.4489 46.7621 14.7756V15.5213C46.7621 15.9588 46.8388 16.331 46.9922 16.6378C47.1484 16.9446 47.3658 17.179 47.6442 17.3409C47.9226 17.5 48.2479 17.5795 48.62 17.5795C48.8615 17.5795 49.0817 17.5455 49.2805 17.4773C49.4794 17.4062 49.6513 17.3011 49.7962 17.1619C49.9411 17.0227 50.0518 16.8509 50.1286 16.6463L51.3345 16.8636C51.2379 17.2187 51.0646 17.5298 50.8146 17.7969C50.5675 18.0611 50.2564 18.267 49.8814 18.4148C49.5092 18.5597 49.0845 18.6321 48.6072 18.6321ZM55.2795 18.6278C54.7511 18.6278 54.2795 18.4929 53.8647 18.223C53.4528 17.9503 53.1289 17.5625 52.8931 17.0597C52.6602 16.554 52.5437 15.9474 52.5437 15.2401C52.5437 14.5327 52.6616 13.9276 52.8974 13.4247C53.136 12.9219 53.4627 12.5369 53.8775 12.2699C54.2923 12.0028 54.7624 11.8693 55.288 11.8693C55.6942 11.8693 56.021 11.9375 56.2681 12.0739C56.5181 12.2074 56.7113 12.3636 56.8477 12.5426C56.9869 12.7216 57.0948 12.8793 57.1715 13.0156H57.2482V9.77273H58.5224V18.5H57.2781V17.4815H57.1715C57.0948 17.6207 56.984 17.7798 56.8391 17.9588C56.6971 18.1378 56.5011 18.294 56.2511 18.4276C56.0011 18.5611 55.6772 18.6278 55.2795 18.6278ZM55.5607 17.5412C55.9272 17.5412 56.2369 17.4446 56.4897 17.2514C56.7454 17.0554 56.9386 16.7841 57.0692 16.4375C57.2028 16.0909 57.2695 15.6875 57.2695 15.2273C57.2695 14.7727 57.2042 14.375 57.0735 14.0341C56.9428 13.6932 56.7511 13.4276 56.4982 13.2372C56.2454 13.0469 55.9329 12.9517 55.5607 12.9517C55.1772 12.9517 54.8576 13.0511 54.6019 13.25C54.3462 13.4489 54.1531 13.7202 54.0224 14.0639C53.8945 14.4077 53.8306 14.7955 53.8306 15.2273C53.8306 15.6648 53.896 16.0582 54.0266 16.4077C54.1573 16.7571 54.3505 17.0341 54.6062 17.2386C54.8647 17.4403 55.1829 17.5412 55.5607 17.5412Z" fill="white"/>
</svg>
