<svg width="24" height="24" viewBox="0 0 24 24" fill="none" xmlns="http://www.w3.org/2000/svg">
<path d="M17 14.498V11.4924C17 11.3129 17 11.2232 16.9727 11.144C16.9485 11.0739 16.9091 11.0101 16.8572 10.9571C16.7986 10.8973 16.7183 10.8571 16.5578 10.7769L12 8.49799M4 9.49799V16.3046C4 16.6765 4 16.8625 4.05802 17.0253C4.10931 17.1692 4.1929 17.2995 4.30238 17.4061C4.42622 17.5267 4.59527 17.6042 4.93335 17.7591L11.3334 20.6924C11.5786 20.8048 11.7012 20.861 11.8289 20.8832C11.9421 20.9029 12.0579 20.9029 12.1711 20.8832C12.2988 20.861 12.4214 20.8048 12.6666 20.6924L19.0666 17.7591C19.4047 17.6042 19.5738 17.5267 19.6976 17.4061C19.8071 17.2995 19.8907 17.1692 19.942 17.0253C20 16.8625 20 16.6765 20 16.3046V9.49799M2 8.49799L11.6422 3.67688C11.7734 3.61128 11.839 3.57849 11.9078 3.56558C11.9687 3.55415 12.0313 3.55415 12.0922 3.56558C12.161 3.57849 12.2266 3.61128 12.3578 3.67688L22 8.49799L12.3578 13.3191C12.2266 13.3847 12.161 13.4175 12.0922 13.4304C12.0313 13.4418 11.9687 13.4418 11.9078 13.4304C11.839 13.4175 11.7734 13.3847 11.6422 13.3191L2 8.49799Z" stroke="#4F547B" stroke-width="1.5" stroke-linecap="round" stroke-linejoin="round"/>
</svg>
