<svg width="30" height="30" viewBox="0 0 30 30" fill="none" xmlns="http://www.w3.org/2000/svg">
<g clip-path="url(#clip0_5882_19200)">
<path fill-rule="evenodd" clip-rule="evenodd" d="M7.75707 0.142822H17.6915L26.1113 8.91901V25.9888C26.1113 28.1271 24.3813 29.8571 22.2504 29.8571H7.75707C5.61872 29.8571 3.88873 28.1271 3.88873 25.9888V4.01116C3.8887 1.87281 5.61868 0.142822 7.75707 0.142822Z" fill="#E5252A"/>
<path opacity="0.302" fill-rule="evenodd" clip-rule="evenodd" d="M17.6837 0.142822V8.85219H26.1109L17.6837 0.142822Z" fill="white"/>
<path d="M8.20905 22.3136V16.886H10.5182C11.0899 16.886 11.5428 17.0419 11.8844 17.3612C12.2259 17.673 12.3967 18.0963 12.3967 18.6234C12.3967 19.1506 12.2259 19.5738 11.8844 19.8856C11.5428 20.2049 11.0899 20.3608 10.5182 20.3608H9.59749V22.3136H8.20905ZM9.59749 19.1803H10.3623C10.5701 19.1803 10.7335 19.1357 10.8449 19.0318C10.9562 18.9353 11.0157 18.8016 11.0157 18.6234C11.0157 18.4453 10.9563 18.3116 10.8449 18.2151C10.7335 18.1111 10.5702 18.0666 10.3623 18.0666H9.59749V19.1803ZM12.9684 22.3136V16.886H14.8914C15.2701 16.886 15.6265 16.9379 15.9606 17.0493C16.2947 17.1607 16.5991 17.3167 16.8664 17.532C17.1337 17.7398 17.349 18.022 17.505 18.3784C17.6534 18.7348 17.7351 19.1432 17.7351 19.6035C17.7351 20.0564 17.6535 20.4648 17.505 20.8212C17.349 21.1776 17.1337 21.4597 16.8664 21.6676C16.5991 21.8829 16.2947 22.0388 15.9606 22.1502C15.6265 22.2616 15.2701 22.3136 14.8914 22.3136H12.9684ZM14.3271 21.133H14.7281C14.9434 21.133 15.1439 21.1108 15.3295 21.0588C15.5077 21.0068 15.6784 20.9251 15.8418 20.8138C15.9977 20.7024 16.1239 20.5464 16.213 20.3386C16.3021 20.1307 16.3467 19.8856 16.3467 19.6035C16.3467 19.3139 16.3021 19.0689 16.213 18.861C16.1239 18.6531 15.9977 18.4972 15.8418 18.3858C15.6784 18.2745 15.5077 18.1928 15.3295 18.1408C15.1439 18.0889 14.9434 18.0666 14.7281 18.0666H14.3271V21.133ZM18.4331 22.3136V16.886H22.294V18.0666H19.8215V18.9352H21.7965V20.1084H19.8215V22.3136H18.4331Z" fill="white"/>
</g>
<defs>
<clipPath id="clip0_5882_19200">
<rect width="29.7143" height="29.7143" fill="white" transform="translate(0.142853 0.142822)"/>
</clipPath>
</defs>
</svg>
