<svg xmlns="http://www.w3.org/2000/svg"  viewBox="0 0 64 64" width="64px" height="64px"><radialGradient id="Vmrtc1onPvLEC-UxUIFJ8a" cx="32" cy="32" r="33.002" gradientUnits="userSpaceOnUse"><stop offset="0" stop-color="#efdcb1"/><stop offset="0" stop-color="#f2e0bb"/><stop offset=".011" stop-color="#f2e0bc"/><stop offset=".362" stop-color="#f9edd2"/><stop offset=".699" stop-color="#fef4df"/><stop offset="1" stop-color="#fff7e4"/></radialGradient><path fill="url(#Vmrtc1onPvLEC-UxUIFJ8a)" d="M55.454,45.668c0.5,0.898,1.504,1.337,2.532,1.332c1.75-0.008,3.153,1.483,3.002,3.262	C60.855,51.838,59.434,53,57.852,53H48v1H26h-8H7c-1.71,0-3.086-1.431-2.996-3.161C4.089,49.216,5.545,48,7.17,48H8	c1.215,0,2.176-1.083,1.973-2.336C9.813,44.681,8.889,44,7.893,44H3c-1.71,0-3.086-1.431-2.996-3.161C0.089,39.216,1.545,38,3.17,38	H9.5c1.381,0,2.5-1.119,2.5-2.5l0,0c0-1.381-1.119-2.5-2.5-2.5l0,0C8.119,33,7,31.881,7,30.5l0,0C7,29.119,8.119,28,9.5,28H18v-7	h-7.5c-1.995,0-3.601-1.67-3.495-3.688C7.104,15.419,8.803,14,10.698,14H18v-4h24h6h8.5c1.995,0,3.601,1.67,3.495,3.688	C59.896,15.581,58.197,17,56.302,17H53.5c-1.995,0-3.601,1.67-3.495,3.688C50.104,22.581,51.803,24,53.698,24H56	c1.777,0,3.194,1.546,2.978,3.366c-0.179,1.509-1.546,2.572-3.064,2.635c-1.197,0.05-2.122,1.153-1.874,2.406	C54.228,33.355,55.123,34,56.089,34H60.5c1.995,0,3.601,1.67,3.495,3.688C63.896,39.581,62.197,41,60.302,41H58	C55.808,41,54.166,43.35,55.454,45.668z"/><linearGradient id="Vmrtc1onPvLEC-UxUIFJ8b" x1="33" x2="33" y1="260" y2="312" gradientTransform="matrix(1 0 0 -1 0 318)" gradientUnits="userSpaceOnUse"><stop offset="0" stop-color="#41bfec"/><stop offset=".232" stop-color="#4cc5ef"/><stop offset=".644" stop-color="#6bd4f6"/><stop offset="1" stop-color="#8ae4fd"/></linearGradient><path fill="url(#Vmrtc1onPvLEC-UxUIFJ8b)" d="M50,58H16c-1.657,0-3-1.343-3-3V9c0-1.657,1.343-3,3-3h20.757	c0.796,0,1.559,0.316,2.121,0.879l13.243,13.243C52.684,20.684,53,21.447,53,22.243V55C53,56.657,51.657,58,50,58z"/><linearGradient id="Vmrtc1onPvLEC-UxUIFJ8c" x1="38.879" x2="46.454" y1="297.879" y2="305.454" gradientTransform="matrix(1 0 0 -1 0 318)" gradientUnits="userSpaceOnUse"><stop offset="0" stop-color="#c6effd"/><stop offset=".375" stop-color="#b7ecfd"/><stop offset="1" stop-color="#95e6fd"/></linearGradient><path fill="url(#Vmrtc1onPvLEC-UxUIFJ8c)" d="M52.121,20.122L38.878,6.879c-0.255-0.255-0.556-0.452-0.878-0.6V18c0,1.657,1.343,3,3,3	h11.721C52.574,20.678,52.377,20.377,52.121,20.122z"/><linearGradient id="Vmrtc1onPvLEC-UxUIFJ8d" x1="45.5" x2="45.5" y1="293.917" y2="299.917" gradientTransform="matrix(1 0 0 -1 0 318)" gradientUnits="userSpaceOnUse"><stop offset="0" stop-color="#42c6ee"/><stop offset=".48" stop-color="#3bc3ed"/><stop offset="1" stop-color="#2ebeea"/></linearGradient><path fill="url(#Vmrtc1onPvLEC-UxUIFJ8d)" d="M41,21c-1.657,0-3-1.343-3-3v3c0,1.657,1.343,3,3,3h12v-1.757	c0-0.434-0.102-0.855-0.279-1.243H41z"/><linearGradient id="Vmrtc1onPvLEC-UxUIFJ8e" x1="13.5" x2="13.5" y1="46" y2="26.613" gradientUnits="userSpaceOnUse"><stop offset="0" stop-color="#2875e3"/><stop offset=".014" stop-color="#2876e3"/><stop offset=".588" stop-color="#2e88e7"/><stop offset="1" stop-color="#308ee8"/></linearGradient><path fill="url(#Vmrtc1onPvLEC-UxUIFJ8e)" d="M22,46H5c-1.105,0-2-0.895-2-2V27c0-1.105,0.895-2,2-2h17c1.105,0,2,0.895,2,2v17	C24,45.105,23.105,46,22,46z"/><path fill="#fff" d="M18.609,29.999L16.87,38.17l-1.93-8.182c-0.053-0.226-0.255-0.385-0.487-0.385h-1.788	c-0.232,0-0.433,0.159-0.487,0.385l-1.993,8.448l-1.795-8.437c-0.049-0.231-0.253-0.396-0.489-0.396H6.631	c-0.322,0-0.56,0.3-0.487,0.614l2.53,10.794c0.053,0.226,0.255,0.386,0.487,0.386h1.977c0.234,0,0.437-0.163,0.488-0.391	l1.933-8.677l1.934,8.677c0.051,0.229,0.254,0.391,0.488,0.391h1.858c0.232,0,0.434-0.16,0.487-0.386l2.53-10.794	c0.074-0.314-0.165-0.614-0.487-0.614h-1.271C18.862,29.603,18.658,29.768,18.609,29.999z"/><path fill="#f1fcff" d="M45.5,30h-14c-0.828,0-1.5-0.672-1.5-1.5v0c0-0.828,0.672-1.5,1.5-1.5h14c0.828,0,1.5,0.672,1.5,1.5	v0C47,29.328,46.328,30,45.5,30z"/><path fill="#f1fcff" d="M45.5,36h-14c-0.828,0-1.5-0.672-1.5-1.5l0,0c0-0.828,0.672-1.5,1.5-1.5h14	c0.828,0,1.5,0.672,1.5,1.5l0,0C47,35.328,46.328,36,45.5,36z"/><path fill="#f1fcff" d="M45.5,42h-14c-0.828,0-1.5-0.672-1.5-1.5l0,0c0-0.828,0.672-1.5,1.5-1.5h14	c0.828,0,1.5,0.672,1.5,1.5l0,0C47,41.328,46.328,42,45.5,42z"/><path fill="#f1fcff" d="M45.5,48h-14c-0.828,0-1.5-0.672-1.5-1.5l0,0c0-0.828,0.672-1.5,1.5-1.5h14	c0.828,0,1.5,0.672,1.5,1.5l0,0C47,47.328,46.328,48,45.5,48z"/></svg>