<svg width="24" height="25" viewBox="0 0 24 25" fill="none" xmlns="http://www.w3.org/2000/svg">
<path d="M11.9951 17.1748V14.6378" stroke="#4F547B" stroke-width="1.5" stroke-linecap="round" stroke-linejoin="round"/>
<path fill-rule="evenodd" clip-rule="evenodd" d="M18.19 5.82825C19.88 5.82825 21.24 7.19825 21.24 8.88825V12.3282C18.78 13.7682 15.53 14.6382 11.99 14.6382C8.45 14.6382 5.21 13.7682 2.75 12.3282V8.87825C2.75 7.18825 4.12 5.82825 5.81 5.82825H18.19Z" stroke="#4F547B" stroke-width="1.5" stroke-linecap="round" stroke-linejoin="round"/>
<path d="M15.4951 5.8238V5.4578C15.4951 4.2378 14.5051 3.2478 13.2851 3.2478H10.7051C9.48512 3.2478 8.49512 4.2378 8.49512 5.4578V5.8238" stroke="#4F547B" stroke-width="1.5" stroke-linecap="round" stroke-linejoin="round"/>
<path d="M2.77441 15.981L2.96341 18.49C3.09141 20.181 4.50041 21.488 6.19541 21.488H17.7944C19.4894 21.488 20.8984 20.181 21.0264 18.49L21.2154 15.981" stroke="#4F547B" stroke-width="1.5" stroke-linecap="round" stroke-linejoin="round"/>
</svg>
