<svg width="24" height="24" viewBox="0 0 24 24" fill="none" xmlns="http://www.w3.org/2000/svg">
<path d="M20 19.998V12.998M12 19.998V9.99805M4 19.998L4 15.998M13.4067 5.02555L18.5751 6.96372M10.7988 5.39897L5.20023 9.59788M21.0607 6.43739C21.6464 7.02317 21.6464 7.97292 21.0607 8.55871C20.4749 9.14449 19.5251 9.14449 18.9393 8.55871C18.3536 7.97292 18.3536 7.02317 18.9393 6.43739C19.5251 5.8516 20.4749 5.8516 21.0607 6.43739ZM5.06066 9.43739C5.64645 10.0232 5.64645 10.9729 5.06066 11.5587C4.47487 12.1445 3.52513 12.1445 2.93934 11.5587C2.35355 10.9729 2.35355 10.0232 2.93934 9.43739C3.52513 8.8516 4.47487 8.8516 5.06066 9.43739ZM13.0607 3.43739C13.6464 4.02317 13.6464 4.97292 13.0607 5.55871C12.4749 6.14449 11.5251 6.14449 10.9393 5.55871C10.3536 4.97292 10.3536 4.02317 10.9393 3.43739C11.5251 2.8516 12.4749 2.8516 13.0607 3.43739Z" stroke="#4F547B" stroke-width="1.5" stroke-linecap="round" stroke-linejoin="round"/>
</svg>
