<svg width="24" height="24" viewBox="0 0 24 24" fill="none" xmlns="http://www.w3.org/2000/svg">
<path d="M4.02001 5.96963C2.70624 7.70511 1.99677 9.82297 2.00001 11.9996C2.00001 17.5196 6.48001 21.9996 12 21.9996C17.52 21.9996 22 17.5196 22 11.9996C22 6.47963 17.52 1.99963 12 1.99963" stroke="#4F547B" stroke-width="1.5" stroke-linecap="round" stroke-linejoin="round"/>
<path d="M5 11.9996C5 15.8696 8.13 18.9996 12 18.9996C15.87 18.9996 19 15.8696 19 11.9996C19 8.12963 15.87 4.99963 12 4.99963" stroke="#4F547B" stroke-width="1.5" stroke-linecap="round" stroke-linejoin="round"/>
<path d="M12 15.9996C14.21 15.9996 16 14.2096 16 11.9996C16 9.78963 14.21 7.99963 12 7.99963" stroke="#4F547B" stroke-width="1.5" stroke-linecap="round" stroke-linejoin="round"/>
</svg>
