<svg width="24" height="25" viewBox="0 0 24 25" fill="none" xmlns="http://www.w3.org/2000/svg">
<path d="M8 12.698H15M8 16.698H12.38M10 6.49805H14C16 6.49805 16 5.49805 16 4.49805C16 2.49805 15 2.49805 14 2.49805H10C9 2.49805 8 2.49805 8 4.49805C8 6.49805 9 6.49805 10 6.49805Z" stroke="#4F547B" stroke-width="1.5" stroke-miterlimit="10" stroke-linecap="round" stroke-linejoin="round"/>
<path d="M16 4.51807C19.33 4.69807 21 5.92807 21 10.4981V16.4981C21 20.4981 20 22.4981 15 22.4981H9C4 22.4981 3 20.4981 3 16.4981V10.4981C3 5.93807 4.67 4.69807 8 4.51807" stroke="#4F547B" stroke-width="1.5" stroke-miterlimit="10" stroke-linecap="round" stroke-linejoin="round"/>
</svg>
