<svg width="24" height="24" viewBox="0 0 24 24" fill="none" xmlns="http://www.w3.org/2000/svg">
<path d="M18 20.998C19.6569 20.998 21 19.6549 21 17.998C21 16.3412 19.6569 14.998 18 14.998C16.3431 14.998 15 16.3412 15 17.998C15 19.6549 16.3431 20.998 18 20.998Z" stroke="#4F547B" stroke-width="1.5" stroke-linecap="round" stroke-linejoin="round"/>
<path d="M6 8.99805C7.65685 8.99805 9 7.6549 9 5.99805C9 4.34119 7.65685 2.99805 6 2.99805C4.34315 2.99805 3 4.34119 3 5.99805C3 7.6549 4.34315 8.99805 6 8.99805Z" stroke="#4F547B" stroke-width="1.5" stroke-linecap="round" stroke-linejoin="round"/>
<path d="M6 20.998V8.99805C6 11.385 6.94821 13.6742 8.63604 15.362C10.3239 17.0498 12.6131 17.998 15 17.998" stroke="#4F547B" stroke-width="1.5" stroke-linecap="round" stroke-linejoin="round"/>
</svg>
