<svg width="6" height="19" viewBox="0 0 6 19" fill="none" xmlns="http://www.w3.org/2000/svg">
<path d="M2.802 6.75C1.422 6.75 0.302002 7.87 0.302002 9.25C0.302002 10.63 1.422 11.75 2.802 11.75C4.182 11.75 5.302 10.63 5.302 9.25C5.302 7.87 4.182 6.75 2.802 6.75Z" fill="#2EA8DB"/>
<path d="M2.802 5C4.182 5 5.302 3.88 5.302 2.5C5.302 1.12 4.182 0 2.802 0C1.422 0 0.302002 1.12 0.302002 2.5C0.302002 3.88 1.422 5 2.802 5Z" fill="#2EA8DB"/>
<path d="M2.802 13.5C1.422 13.5 0.302002 14.62 0.302002 16C0.302002 17.38 1.422 18.5 2.802 18.5C4.182 18.5 5.302 17.38 5.302 16C5.302 14.62 4.182 13.5 2.802 13.5Z" fill="#2EA8DB"/>
</svg>
