<svg width="17" height="19" viewBox="0 0 17 19" fill="none" xmlns="http://www.w3.org/2000/svg">
<path d="M6.40158 15.2599C6.57898 15.2599 6.74907 15.1895 6.87455 15.0641C6.99986 14.9389 7.0703 14.7688 7.0703 14.5915V6.14984C7.0703 5.91112 6.94281 5.69044 6.73602 5.57108C6.52908 5.45157 6.27424 5.45157 6.06731 5.57108C5.86037 5.69044 5.73303 5.91112 5.73303 6.14984V14.5915C5.73303 14.7688 5.80346 14.9389 5.92878 15.0641C6.05425 15.1895 6.22434 15.2599 6.40159 15.2599H6.40158Z" fill="#242731"/>
<path d="M10.1772 15.2599C10.3545 15.2599 10.5246 15.1895 10.65 15.0641C10.7754 14.9389 10.8458 14.7688 10.8458 14.5915V6.14984C10.8458 5.91112 10.7185 5.69044 10.5115 5.57108C10.3046 5.45157 10.0497 5.45157 9.84281 5.57108C9.63603 5.69044 9.50854 5.91112 9.50854 6.14984V14.5915C9.50854 14.7688 9.57897 14.9389 9.70429 15.0641C9.82976 15.1895 9.99985 15.2599 10.1773 15.2599H10.1772Z" fill="#242731"/>
<path d="M0.99411 3.61861H1.73184V14.636C1.73184 15.6406 2.1311 16.604 2.8418 17.3142C3.55235 18.0246 4.51612 18.4235 5.52113 18.4235H11.0576C12.0626 18.4235 13.0264 18.0246 13.7369 17.3142C14.4476 16.6039 14.8469 15.6406 14.8469 14.636V3.61861H15.5846C15.8234 3.61861 16.0442 3.49133 16.1636 3.28448C16.2832 3.07763 16.2832 2.82289 16.1636 2.61604C16.0442 2.40935 15.8234 2.28191 15.5846 2.28191H11.5503V1.82517C11.5503 1.41148 11.3858 1.01486 11.0932 0.722361C10.8006 0.429875 10.4038 0.265625 9.98991 0.265625H6.5887C6.17484 0.265625 5.77805 0.429895 5.48542 0.722361C5.19281 1.01485 5.02834 1.41144 5.02834 1.82517V2.28191H0.99399C0.755177 2.28191 0.534395 2.40935 0.414989 2.61604C0.295427 2.8229 0.295427 3.07763 0.414989 3.28448C0.534395 3.49133 0.755174 3.61861 0.99399 3.61861H0.99411ZM6.36581 1.82517C6.36581 1.70208 6.46562 1.6023 6.58876 1.6023H9.98998C10.0492 1.6023 10.1058 1.62577 10.1476 1.66758C10.1895 1.70938 10.2129 1.76611 10.2129 1.82516V2.2819H6.36581L6.36581 1.82517ZM3.06923 3.61861H13.5093V14.636C13.5093 15.2859 13.2509 15.9093 12.7912 16.369C12.3314 16.8286 11.7078 17.0868 11.0574 17.0868H5.52097C4.8706 17.0868 4.24698 16.8286 3.78723 16.369C3.32747 15.9093 3.06907 15.2859 3.06907 14.636L3.06923 3.61861Z" fill="#242731"/>
</svg>
