<svg width="20" height="16" viewBox="0 0 20 16" fill="none" xmlns="http://www.w3.org/2000/svg">
<path d="M11.8349 0.66568C11.6931 0.684454 11.5583 0.75189 11.4581 0.854018L0.645121 11.6666C0.549148 11.7624 0.484566 11.8892 0.463388 12.0231L0.00592451 14.9164C-0.0537019 15.3161 0.347008 15.7132 0.746064 15.6498L3.63934 15.1989C3.77331 15.1779 3.90007 15.1131 3.99589 15.0172L14.8019 4.20459C15.0419 3.96534 15.0419 3.52874 14.8019 3.28947L12.3661 0.853664C12.179 0.662773 12.0253 0.654061 11.8346 0.665327L11.8349 0.66568ZM11.9157 2.22678L13.4364 3.74747L3.22901 13.9545L1.42584 14.2371L1.7085 12.434L11.9157 2.22678ZM6.67437 14.3651C6.31767 14.3651 6.02839 14.6542 6.02839 15.011C6.02839 15.3677 6.31766 15.657 6.67437 15.657H18.7319C19.0886 15.657 19.3779 15.3678 19.3779 15.011C19.3779 14.6543 19.0886 14.3651 18.7319 14.3651H6.67437Z" fill="#00B2FF"/>
</svg>
