<svg width="641" height="620" viewBox="0 0 641 620" fill="none" xmlns="http://www.w3.org/2000/svg">
<path d="M535.271 146.06C538.218 144.758 540.72 142.62 542.465 139.912C544.211 137.203 545.124 134.042 545.092 130.82C545.092 121.718 538.234 114.316 529.703 114.278C521.172 114.241 514.228 121.582 514.191 130.684C514.13 133.932 515.033 137.126 516.785 139.862C518.538 142.599 521.061 144.755 524.036 146.06C500.266 149.643 501.344 175.485 501.344 175.485L557.554 175.745C557.554 175.745 558.843 149.618 535.271 146.06Z" fill="#F5F5F5"/>
<path d="M203.137 49.5011L166.396 36.5059L130.014 49.3275C125.377 51.4851 121.334 52.7747 121.334 57.0403V78.2567C121.289 93.1577 125.445 107.77 133.325 120.417C141.257 133.307 152.939 143.466 166.805 149.532C181.685 144.77 192.771 132.097 199.566 121.247C207.437 108.597 211.588 93.9866 211.544 79.0875V60.0039C211.495 53.9279 208.221 50.9643 203.137 49.5011Z" fill="#F5F5F5"/>
<path d="M178.561 83.7494C178.569 81.8561 178.049 79.9978 177.059 78.3841C176.069 76.7703 174.647 75.4651 172.955 74.6154C171.263 73.7658 169.368 73.4055 167.482 73.575C165.596 73.7446 163.795 74.4374 162.282 75.5753C160.769 76.7132 159.603 78.251 158.916 80.0155C158.23 81.7801 158.05 83.7013 158.396 85.5627C158.743 87.4241 159.602 89.1518 160.877 90.5512C162.153 91.9507 163.794 92.9662 165.615 93.4834V108.698H171.17V93.4834C173.294 92.8867 175.165 91.6132 176.498 89.8564C177.832 88.0995 178.556 85.9553 178.561 83.7494Z" fill="#EBEBEB"/>
<path d="M515.518 246.128L521.78 249.526L518.966 254.238L512.642 250.518L512.766 257.474H507.359V250.456L501.097 254.201L498.332 249.489L504.594 246.091L498.332 242.644L501.097 237.932L507.409 241.801V234.782H512.815L512.691 241.801L519.015 238.006L521.83 242.718L515.518 246.128Z" fill="#E0E0E0"/>
<path d="M541.607 246.128L547.869 249.525L545.054 254.237L538.73 250.517L538.854 257.474H533.448L533.51 250.455L527.186 254.25L524.421 249.538L530.683 246.14L524.421 242.693L527.186 237.981L533.51 241.775L533.448 234.757H538.854L538.73 241.775L545.054 237.981L547.869 242.693L541.607 246.128Z" fill="#E0E0E0"/>
<path d="M567.697 246.128L573.972 249.526L571.157 254.238L564.833 250.518L564.944 257.474H559.538L559.6 250.456L553.276 254.25L550.511 249.538L556.785 246.141L550.56 242.681L553.326 237.969L559.65 241.764L559.588 234.745H564.994L564.882 241.764L571.206 237.969L574.021 242.681L567.697 246.128Z" fill="#E0E0E0"/>
<path d="M302.238 542.946V581.461H358.559H420.683V542.946H302.238Z" fill="#F5F5F5"/>
<path d="M297.266 532.171V542.946H424.824V532.171H358.559H297.266Z" fill="#EBEBEB"/>
<path d="M361.039 581.461H420.683V542.946H424.824V532.171H358.559V541.942L361.039 581.461Z" fill="#EBEBEB"/>
<path d="M342.823 549.146H318.805V554.95H342.823V549.146Z" fill="#E0E0E0"/>
<path d="M346.555 562.204H315.704V574.443H346.555V562.204Z" fill="white"/>
<path d="M320.453 493.706V532.22H376.786H438.91V493.706H320.453Z" fill="#F5F5F5"/>
<path d="M315.481 482.931V493.706H443.053V482.931H376.787H315.481Z" fill="#EBEBEB"/>
<path d="M379.267 532.221H438.911V493.706H443.053V482.931H376.787V492.714L379.267 532.221Z" fill="#EBEBEB"/>
<path d="M361.038 499.919H337.02V505.722H361.038V499.919Z" fill="#E0E0E0"/>
<path d="M364.784 512.964H333.933V525.203H364.784V512.964Z" fill="white"/>
<path d="M575.446 581.758C575.446 581.932 456.592 582.08 310.012 582.08C163.432 582.08 44.5527 581.932 44.5527 581.758C44.5527 581.584 163.382 581.436 310.012 581.436C456.642 581.436 575.446 581.56 575.446 581.758Z" fill="#263238"/>
<path d="M494.5 304.692H309.715C305.346 304.692 301.804 308.234 301.804 312.604V408.257C301.804 412.626 305.346 416.168 309.715 416.168H494.5C498.869 416.168 502.411 412.626 502.411 408.257V312.604C502.411 308.234 498.869 304.692 494.5 304.692Z" fill="white"/>
<path d="M494.512 416.169C494.512 416.169 495.045 416.169 496.062 415.983C497.57 415.656 498.952 414.903 500.043 413.813C500.838 413.01 501.451 412.046 501.841 410.985C502.063 410.373 502.213 409.736 502.287 409.088C502.287 408.419 502.287 407.699 502.287 406.955C502.287 403.979 502.287 400.545 502.287 396.688C502.287 381.225 502.225 358.881 502.188 331.266C502.188 327.806 502.188 324.272 502.188 320.664V315.183C502.188 313.335 502.374 311.463 501.617 309.752C501.096 308.456 500.229 307.327 499.113 306.488C497.996 305.649 496.671 305.131 495.281 304.99C494.363 304.928 493.347 304.99 492.379 304.99H480.413H428.557H309.74C308.474 304.988 307.228 305.302 306.115 305.904C305.002 306.506 304.057 307.377 303.366 308.437C302.663 309.488 302.236 310.699 302.126 311.959C302.064 313.199 302.126 314.563 302.126 315.853V361.708C302.126 371.628 302.126 381.382 302.126 390.972V405.157C302.126 406.323 302.126 407.501 302.126 408.642C302.183 409.758 302.479 410.849 302.994 411.841C303.523 412.815 304.255 413.663 305.141 414.329C306.026 414.994 307.045 415.461 308.128 415.697C309.23 415.874 310.348 415.933 311.463 415.871H359.91H405.096L470.518 415.97L488.3 416.032L470.518 416.094L405.096 416.193H359.91H311.463C310.307 416.254 309.147 416.191 308.004 416.007C306.835 415.755 305.735 415.252 304.78 414.533C303.825 413.813 303.038 412.895 302.473 411.841C301.904 410.777 301.578 409.599 301.519 408.394C301.519 407.154 301.519 406.062 301.519 404.884C301.519 400.21 301.519 395.473 301.519 390.699V361.708C301.519 351.788 301.519 341.682 301.519 331.39V315.89C301.519 314.575 301.519 313.311 301.519 311.947C301.611 310.591 302.037 309.279 302.759 308.127C303.512 306.982 304.534 306.037 305.735 305.375C306.949 304.728 308.302 304.384 309.678 304.37H428.495H480.351H492.317C493.309 304.37 494.252 304.37 495.269 304.37C496.263 304.474 497.23 304.76 498.121 305.213C499.89 306.111 501.277 307.617 502.027 309.454C502.389 310.353 502.583 311.312 502.597 312.281C502.597 313.211 502.597 314.141 502.597 315.071V320.552C502.597 324.156 502.597 327.69 502.597 331.154C502.597 358.769 502.51 381.114 502.485 396.577C502.485 400.433 502.485 403.868 502.485 406.844C502.485 407.588 502.485 408.294 502.485 408.989C502.406 409.65 502.248 410.3 502.014 410.923C501.614 412.001 500.984 412.979 500.167 413.788C499.05 414.886 497.636 415.631 496.099 415.933C495.715 416.005 495.325 416.046 494.934 416.057L494.512 416.169Z" fill="#263238"/>
<path d="M371.703 344.087V345.476H365.899V338.036H371.554V339.425H367.623V341H371.095V342.351H367.623V344.087H371.703Z" fill="#263238"/>
<path d="M379.961 337.986V345.426H378.535L374.815 340.876V345.426H373.104V337.986H374.48L378.2 342.537V337.986H379.961Z" fill="#263238"/>
<path d="M383.296 339.4H380.891V337.986H387.425V339.4H385.02V345.476H383.296V339.4Z" fill="#263238"/>
<path d="M394.159 344.087V345.476H388.355V338.036H394.022V339.425H390.079V341H393.563V342.351H390.079V344.087H394.159Z" fill="#263238"/>
<path d="M400.322 345.476L398.871 343.393H397.284V345.476H395.561V338.036H398.809C400.806 338.036 402.058 339.065 402.058 340.752C402.073 341.256 401.934 341.753 401.659 342.176C401.385 342.599 400.987 342.929 400.521 343.12L402.195 345.526L400.322 345.476ZM398.698 339.4H397.284V342.004H398.698C399.752 342.004 400.285 341.521 400.285 340.702C400.285 339.884 399.752 339.4 398.698 339.4Z" fill="#263238"/>
<path d="M405.977 341.731C406.025 340.923 406.31 340.147 406.796 339.5C407.282 338.852 407.948 338.362 408.71 338.09C409.472 337.818 410.298 337.776 411.084 337.969C411.87 338.162 412.582 338.582 413.131 339.177L412.015 340.206C411.784 339.932 411.495 339.711 411.17 339.559C410.844 339.407 410.49 339.327 410.131 339.326C409.524 339.369 408.956 339.641 408.542 340.086C408.128 340.531 407.898 341.117 407.898 341.725C407.898 342.333 408.128 342.919 408.542 343.364C408.956 343.809 409.524 344.081 410.131 344.124C410.491 344.13 410.848 344.054 411.174 343.901C411.501 343.749 411.788 343.524 412.015 343.244L413.131 344.273C412.585 344.873 411.874 345.298 411.087 345.495C410.301 345.693 409.473 345.653 408.709 345.381C407.944 345.11 407.277 344.618 406.791 343.969C406.305 343.32 406.022 342.541 405.977 341.731Z" fill="#263238"/>
<path d="M413.677 341.731C413.632 340.911 413.835 340.096 414.258 339.392C414.682 338.688 415.307 338.127 416.053 337.782C416.798 337.438 417.63 337.324 418.441 337.458C419.252 337.591 420.004 337.964 420.6 338.53C421.196 339.095 421.609 339.826 421.785 340.629C421.96 341.431 421.891 342.268 421.587 343.031C421.282 343.794 420.755 344.448 420.074 344.908C419.394 345.368 418.591 345.613 417.769 345.612C417.241 345.643 416.713 345.565 416.217 345.383C415.721 345.202 415.267 344.92 414.883 344.557C414.5 344.193 414.195 343.755 413.988 343.269C413.78 342.783 413.674 342.259 413.677 341.731ZM420.113 341.731C420.103 341.27 419.957 340.821 419.694 340.443C419.43 340.064 419.061 339.771 418.632 339.601C418.203 339.432 417.733 339.392 417.282 339.488C416.831 339.584 416.418 339.811 416.095 340.141C415.772 340.47 415.554 340.888 415.467 341.341C415.381 341.794 415.43 342.263 415.609 342.688C415.788 343.114 416.088 343.477 416.472 343.732C416.857 343.988 417.308 344.124 417.769 344.124C418.083 344.131 418.395 344.074 418.686 343.955C418.977 343.837 419.24 343.66 419.46 343.436C419.679 343.211 419.851 342.944 419.963 342.651C420.075 342.358 420.126 342.045 420.113 341.731Z" fill="#263238"/>
<path d="M423.187 337.986H426.56C427.546 337.986 428.492 338.378 429.19 339.076C429.888 339.774 430.28 340.72 430.28 341.706C430.28 342.693 429.888 343.639 429.19 344.337C428.492 345.034 427.546 345.426 426.56 345.426H423.162L423.187 337.986ZM426.498 344.05C427.113 344.05 427.702 343.806 428.137 343.371C428.572 342.936 428.817 342.346 428.817 341.731C428.817 341.116 428.572 340.526 428.137 340.091C427.702 339.657 427.113 339.412 426.498 339.412H424.923V344.05H426.498Z" fill="#263238"/>
<path d="M437.832 344.087V345.476H432.028V338.036H437.72V339.425H433.752V341H437.236V342.351H433.752V344.087H437.832Z" fill="#263238"/>
<path d="M343.257 357.442H325.042C322.336 357.442 320.144 359.635 320.144 362.34V390.699C320.144 393.404 322.336 395.597 325.042 395.597H343.257C345.962 395.597 348.155 393.404 348.155 390.699V362.34C348.155 359.635 345.962 357.442 343.257 357.442Z" fill="#EBEBEB"/>
<path d="M378.238 357.442H360.022C357.317 357.442 355.124 359.635 355.124 362.34V390.699C355.124 393.404 357.317 395.597 360.022 395.597H378.238C380.943 395.597 383.136 393.404 383.136 390.699V362.34C383.136 359.635 380.943 357.442 378.238 357.442Z" fill="#EBEBEB"/>
<path d="M413.218 357.442H395.002C392.297 357.442 390.104 359.635 390.104 362.34V390.699C390.104 393.404 392.297 395.597 395.002 395.597H413.218C415.923 395.597 418.116 393.404 418.116 390.699V362.34C418.116 359.635 415.923 357.442 413.218 357.442Z" fill="#EBEBEB"/>
<path d="M448.186 357.442H429.97C427.265 357.442 425.072 359.635 425.072 362.34V390.699C425.072 393.404 427.265 395.597 429.97 395.597H448.186C450.891 395.597 453.084 393.404 453.084 390.699V362.34C453.084 359.635 450.891 357.442 448.186 357.442Z" fill="#EBEBEB"/>
<path d="M483.166 357.442H464.951C462.246 357.442 460.053 359.635 460.053 362.34V390.699C460.053 393.404 462.246 395.597 464.951 395.597H483.166C485.871 395.597 488.064 393.404 488.064 390.699V362.34C488.064 359.635 485.871 357.442 483.166 357.442Z" fill="#EBEBEB"/>
<path d="M340.256 379.44C340.256 382.156 338.148 383.929 335.296 383.929C331.377 383.929 329.307 381.114 329.307 376.489C329.307 371.454 331.997 368.85 335.928 368.85C337.105 368.797 338.275 369.063 339.313 369.619L338.867 370.487C337.969 369.994 336.952 369.758 335.928 369.805C332.593 369.805 330.398 372 330.398 376.328C330.397 376.925 330.439 377.522 330.522 378.113C330.871 377.154 331.524 376.336 332.381 375.783C333.239 375.23 334.254 374.973 335.271 375.05C338.247 375.05 340.256 376.786 340.256 379.44ZM339.165 379.44C339.165 377.32 337.639 375.931 335.122 375.931C334.614 375.874 334.099 375.923 333.61 376.074C333.122 376.226 332.669 376.476 332.282 376.81C331.894 377.144 331.58 377.554 331.358 378.015C331.136 378.477 331.012 378.978 330.993 379.49C330.993 381.238 332.456 382.974 335.246 382.974C335.742 383.028 336.243 382.977 336.717 382.824C337.191 382.671 337.628 382.419 337.998 382.085C338.368 381.752 338.663 381.343 338.864 380.887C339.065 380.432 339.168 379.938 339.165 379.44Z" fill="#2EA8DB"/>
<path d="M374.852 379.725H371.727V383.854H370.661V379.725H362.167V378.944L370.252 368.962H371.492L363.556 378.77H370.711V375.137H371.752V378.77H374.877L374.852 379.725Z" fill="#2EA8DB"/>
<path d="M410.924 385.975C406.607 386.405 402.258 386.405 397.941 385.975C402.258 385.545 406.607 385.545 410.924 385.975Z" fill="#2EA8DB"/>
<path d="M314.539 318.866C316.217 318.866 317.577 317.506 317.577 315.828C317.577 314.15 316.217 312.79 314.539 312.79C312.861 312.79 311.501 314.15 311.501 315.828C311.501 317.506 312.861 318.866 314.539 318.866Z" fill="#263238"/>
<path d="M326.331 315.828C326.331 316.429 326.153 317.016 325.819 317.516C325.485 318.015 325.011 318.405 324.455 318.635C323.9 318.865 323.29 318.925 322.7 318.808C322.111 318.69 321.57 318.401 321.145 317.976C320.72 317.551 320.43 317.01 320.313 316.421C320.196 315.831 320.256 315.221 320.486 314.665C320.716 314.11 321.105 313.636 321.605 313.302C322.105 312.968 322.692 312.79 323.293 312.79C324.099 312.79 324.871 313.11 325.441 313.68C326.011 314.25 326.331 315.022 326.331 315.828Z" fill="#263238"/>
<path d="M331.887 318.866C333.564 318.866 334.925 317.506 334.925 315.828C334.925 314.15 333.564 312.79 331.887 312.79C330.209 312.79 328.849 314.15 328.849 315.828C328.849 317.506 330.209 318.866 331.887 318.866Z" fill="#263238"/>
<path d="M502.721 324.384C502.721 324.558 457.796 324.706 402.405 324.706C347.014 324.706 302.089 324.558 302.089 324.384C302.089 324.21 346.989 324.062 402.405 324.062C457.82 324.062 502.721 324.198 502.721 324.384Z" fill="#263238"/>
<path d="M465.88 59.8799H244.367C239.874 59.8799 236.232 63.5218 236.232 68.0143V271.808C236.232 276.301 239.874 279.943 244.367 279.943H465.88C470.373 279.943 474.015 276.301 474.015 271.808V68.0143C474.015 63.5218 470.373 59.8799 465.88 59.8799Z" fill="white"/>
<path d="M465.881 279.943H466.463C467.039 279.895 467.609 279.787 468.162 279.62C469.244 279.289 470.244 278.735 471.098 277.994C471.952 277.253 472.642 276.341 473.122 275.318C473.79 273.781 474.055 272.099 473.891 270.432C473.891 268.584 473.891 266.551 473.891 264.356C473.891 259.966 473.891 254.895 473.891 249.191C473.891 226.375 473.829 193.391 473.779 152.57C473.779 132.172 473.779 109.84 473.779 85.8456C473.779 79.8605 473.779 73.7721 473.779 67.5804C473.686 66.0665 473.157 64.6121 472.254 63.393C471.352 62.1739 470.116 61.2422 468.695 60.7108C467.218 60.2436 465.663 60.075 464.12 60.2148H419.864H244.392C242.53 60.2256 240.732 60.898 239.32 62.112C237.862 63.3437 236.908 65.0699 236.642 66.9604C236.556 67.9085 236.527 68.8608 236.555 69.8124V146.159C236.555 175.51 236.555 203.819 236.555 230.789C236.555 244.28 236.555 257.42 236.555 270.209C236.555 271.002 236.555 271.821 236.555 272.577C236.627 273.339 236.806 274.086 237.088 274.797C237.662 276.221 238.641 277.445 239.903 278.318C241.153 279.191 242.632 279.674 244.156 279.707H267.109H333.833L430.454 279.819H456.717L430.454 279.881L333.833 279.98H267.109H244.144C242.506 279.939 240.915 279.419 239.569 278.485C238.223 277.55 237.179 276.243 236.567 274.722C236.263 273.96 236.067 273.158 235.985 272.342C235.923 271.498 235.985 270.73 235.985 269.924C235.985 257.135 235.985 243.995 235.985 230.504C235.985 203.534 235.985 175.225 235.985 145.874C235.985 131.192 235.985 116.267 235.985 101.098V69.7504C235.951 68.7697 235.984 67.7878 236.084 66.8116C236.356 64.7949 237.363 62.9494 238.911 61.6284C240.431 60.2993 242.373 59.5523 244.392 59.5204H419.864H464.045C465.657 59.3813 467.28 59.5668 468.819 60.066C470.34 60.6352 471.663 61.6324 472.629 62.9373C473.595 64.2421 474.162 65.7988 474.263 67.4192C474.263 73.6192 474.263 79.72 474.263 85.7216C474.263 109.716 474.263 132.048 474.263 152.446C474.263 193.242 474.189 226.251 474.164 249.067C474.164 254.771 474.164 259.842 474.164 264.232C474.164 266.427 474.164 268.46 474.164 270.308C474.321 272.004 474.04 273.712 473.345 275.268C472.723 276.572 471.764 277.685 470.567 278.494C469.371 279.303 467.979 279.777 466.538 279.868L465.881 279.943Z" fill="#263238"/>
<path d="M254.2 75.1324C254.2 75.9472 253.959 76.7436 253.506 77.4209C253.053 78.0982 252.409 78.6258 251.656 78.937C250.903 79.2483 250.075 79.3291 249.276 79.1692C248.477 79.0094 247.743 78.616 247.168 78.039C246.593 77.4621 246.202 76.7274 246.044 75.928C245.887 75.1286 245.97 74.3004 246.284 73.5484C246.597 72.7964 247.127 72.1543 247.805 71.7034C248.484 71.2525 249.281 71.0132 250.096 71.0156C250.636 71.0156 251.171 71.1222 251.67 71.3293C252.168 71.5363 252.621 71.8397 253.003 72.2222C253.384 72.6046 253.686 73.0585 253.892 73.558C254.097 74.0574 254.202 74.5924 254.2 75.1324Z" fill="#263238"/>
<path d="M262.074 79.2361C264.341 79.2361 266.179 77.3985 266.179 75.1317C266.179 72.8649 264.341 71.0273 262.074 71.0273C259.807 71.0273 257.97 72.8649 257.97 75.1317C257.97 77.3985 259.807 79.2361 262.074 79.2361Z" fill="#263238"/>
<path d="M274.077 79.2361C276.344 79.2361 278.181 77.3985 278.181 75.1317C278.181 72.8649 276.344 71.0273 274.077 71.0273C271.81 71.0273 269.973 72.8649 269.973 75.1317C269.973 77.3985 271.81 79.2361 274.077 79.2361Z" fill="#263238"/>
<path d="M474.015 86.7999C474.015 86.9859 420.782 87.1223 355.124 87.1223C289.466 87.1223 236.232 86.9859 236.232 86.7999C236.232 86.6139 289.453 86.4775 355.124 86.4775C420.794 86.4775 474.015 86.6139 474.015 86.7999Z" fill="#263238"/>
<path d="M388.716 169.694C388.716 169.694 388.802 169.558 389.001 169.31L389.162 169.099L389.323 168.814C389.46 168.583 389.581 168.343 389.683 168.095C389.683 167.958 389.807 167.81 389.856 167.648L390.005 167.128C390.06 166.936 390.101 166.742 390.129 166.545C390.129 166.334 390.204 166.123 390.216 165.9C390.297 164.869 390.247 163.831 390.067 162.812C389.545 160.024 388.591 157.334 387.24 154.839C385.498 151.51 383.46 148.343 381.152 145.378C378.374 141.772 375.345 138.366 372.087 135.185C368.358 131.525 364.376 128.131 360.171 125.03C357.951 123.393 355.608 121.806 353.14 120.318C350.624 118.781 348.01 117.41 345.316 116.213C342.546 114.949 339.631 114.033 336.636 113.485C335.104 113.213 333.541 113.175 331.998 113.374C331.224 113.484 330.468 113.701 329.754 114.018C329.053 114.363 328.419 114.829 327.881 115.395C327.368 115.989 326.973 116.675 326.716 117.416C326.483 118.164 326.353 118.94 326.331 119.722C326.311 121.279 326.524 122.83 326.964 124.323C327.853 127.244 329.102 130.043 330.684 132.656C332.174 135.197 333.831 137.637 335.644 139.959C337.404 142.241 339.252 144.398 341.124 146.42C344.686 150.245 348.515 153.813 352.582 157.096C356.111 159.974 359.841 162.597 363.742 164.945C366.952 166.897 370.33 168.557 373.836 169.905C376.471 170.957 379.252 171.601 382.082 171.815C383.111 171.866 384.144 171.795 385.157 171.604C385.38 171.604 385.578 171.492 385.777 171.443C385.97 171.392 386.161 171.33 386.347 171.257L386.843 171.046L387.277 170.823C387.513 170.694 387.737 170.545 387.947 170.376L388.207 170.19L388.406 170.004C388.629 169.781 388.753 169.682 388.753 169.682L388.418 170.017L388.22 170.203L387.972 170.401C387.76 170.573 387.531 170.722 387.29 170.848L386.88 171.12L386.372 171.331C386.191 171.408 386.005 171.47 385.814 171.517C385.607 171.588 385.396 171.646 385.182 171.691C384.162 171.9 383.12 171.975 382.082 171.914C379.244 171.721 376.454 171.09 373.811 170.042C370.292 168.695 366.902 167.035 363.68 165.082C359.779 162.732 356.05 160.109 352.52 157.232C348.442 153.954 344.604 150.386 341.038 146.556C339.165 144.535 337.318 142.377 335.544 140.096C333.736 137.761 332.079 135.314 330.584 132.767C329.001 130.143 327.752 127.331 326.864 124.397C326.413 122.885 326.195 121.313 326.22 119.735C326.246 118.939 326.379 118.151 326.616 117.391C326.898 116.623 327.318 115.912 327.856 115.296C328.406 114.706 329.062 114.227 329.791 113.882C330.522 113.556 331.293 113.331 332.085 113.212C333.648 113.014 335.232 113.051 336.784 113.324C339.801 113.876 342.738 114.801 345.526 116.077C348.227 117.275 350.845 118.65 353.363 120.194C355.843 121.682 358.187 123.269 360.406 124.918C364.618 128.025 368.601 131.431 372.323 135.111C375.588 138.297 378.621 141.711 381.4 145.328C383.701 148.302 385.731 151.477 387.463 154.814C388.811 157.322 389.761 160.025 390.278 162.825C390.451 163.853 390.492 164.899 390.402 165.937C390.383 166.15 390.35 166.361 390.303 166.57C390.283 166.768 390.242 166.963 390.179 167.152L390.03 167.686C389.978 167.838 389.916 167.987 389.844 168.132C389.751 168.386 389.626 168.628 389.472 168.851C389.428 168.952 389.374 169.047 389.311 169.136L389.15 169.347L388.716 169.694Z" fill="#2EA8DB"/>
<path d="M399.962 142.513V142.042V141.782C399.962 141.683 399.962 141.583 399.9 141.459C399.857 141.192 399.786 140.931 399.689 140.678C399.689 140.542 399.59 140.381 399.528 140.232L399.28 139.736C399.199 139.556 399.1 139.386 398.982 139.227C398.875 139.041 398.755 138.863 398.623 138.694C398.005 137.865 397.28 137.123 396.465 136.487C394.21 134.755 391.7 133.383 389.025 132.42C385.51 131.091 381.883 130.083 378.187 129.407C373.688 128.562 369.134 128.04 364.56 127.844C359.338 127.59 354.105 127.702 348.899 128.179C346.158 128.439 343.356 128.824 340.516 129.357C337.615 129.88 334.753 130.597 331.948 131.502C329.032 132.385 326.24 133.635 323.64 135.222C322.315 136.035 321.123 137.047 320.106 138.223C319.603 138.819 319.185 139.483 318.866 140.195C318.559 140.917 318.391 141.691 318.37 142.476C318.394 143.259 318.558 144.032 318.853 144.758C319.178 145.467 319.595 146.13 320.093 146.729C321.118 147.906 322.313 148.922 323.64 149.743C326.244 151.322 329.035 152.572 331.948 153.463C334.756 154.356 337.618 155.073 340.516 155.608C343.356 156.141 346.158 156.513 348.899 156.773C354.104 157.261 359.338 157.377 364.56 157.121C369.135 156.938 373.693 156.441 378.2 155.633C381.896 154.957 385.523 153.948 389.037 152.619C391.708 151.646 394.216 150.275 396.477 148.552C397.289 147.913 398.014 147.171 398.635 146.345C398.768 146.172 398.888 145.99 398.994 145.799C399.112 145.641 399.212 145.471 399.292 145.291L399.54 144.807C399.602 144.646 399.652 144.497 399.701 144.349C399.8 144.097 399.87 143.835 399.912 143.567C399.912 143.456 399.912 143.357 399.974 143.257V142.997V142.513C399.974 142.513 399.974 142.675 399.974 142.997V143.257C399.974 143.357 399.974 143.456 399.974 143.58C399.936 143.846 399.869 144.108 399.776 144.361C399.776 144.51 399.676 144.659 399.614 144.82L399.379 145.316C399.291 145.496 399.192 145.67 399.081 145.837C398.971 146.021 398.851 146.199 398.722 146.37C398.105 147.207 397.38 147.958 396.564 148.602C394.312 150.348 391.802 151.733 389.124 152.706C385.607 154.05 381.976 155.071 378.274 155.757C373.77 156.604 369.212 157.134 364.634 157.344C359.409 157.609 354.171 157.501 348.961 157.021C346.208 156.761 343.393 156.389 340.553 155.856C337.647 155.319 334.777 154.603 331.96 153.711C329.034 152.825 326.23 151.575 323.615 149.991C322.273 149.166 321.064 148.142 320.031 146.953C319.528 146.338 319.111 145.658 318.791 144.931C318.456 144.191 318.283 143.388 318.283 142.575C318.283 141.763 318.456 140.96 318.791 140.219C319.116 139.495 319.533 138.816 320.031 138.198C321.075 137.011 322.292 135.987 323.64 135.16C326.26 133.578 329.068 132.328 331.997 131.44C334.807 130.536 337.674 129.82 340.578 129.295C343.43 128.762 346.233 128.39 348.985 128.129C354.161 127.626 359.365 127.489 364.56 127.72C369.139 127.927 373.697 128.462 378.2 129.32C381.901 129.999 385.533 131.016 389.05 132.358C391.728 133.331 394.238 134.716 396.49 136.462C397.303 137.11 398.028 137.86 398.647 138.694C398.78 138.867 398.9 139.05 399.007 139.24C399.12 139.405 399.219 139.579 399.304 139.761L399.54 140.244C399.602 140.405 399.652 140.567 399.701 140.703C399.795 140.96 399.862 141.226 399.9 141.497C399.9 141.608 399.9 141.72 399.9 141.807V142.079C399.962 142.352 399.962 142.513 399.962 142.513Z" fill="#2EA8DB"/>
<path d="M385.058 108.698L384.649 108.438L384.425 108.289C384.334 108.236 384.239 108.191 384.14 108.153C383.904 108.024 383.654 107.92 383.396 107.843C383.247 107.843 383.099 107.731 382.937 107.694L382.404 107.582C382.212 107.54 382.017 107.511 381.821 107.495C381.607 107.483 381.391 107.483 381.176 107.495C380.141 107.482 379.108 107.599 378.101 107.843C375.357 108.571 372.74 109.713 370.339 111.228C367.135 113.188 364.117 115.438 361.324 117.949C357.916 120.969 354.725 124.226 351.776 127.695C348.377 131.664 345.265 135.87 342.464 140.281C341 142.6 339.562 145.08 338.248 147.56C336.885 150.174 335.696 152.874 334.689 155.645C333.622 158.502 332.91 161.48 332.569 164.511C332.403 166.058 332.474 167.622 332.779 169.148C332.949 169.912 333.22 170.65 333.585 171.343C333.969 172.027 334.478 172.633 335.086 173.129C335.717 173.588 336.428 173.928 337.181 174.133C337.94 174.317 338.72 174.396 339.5 174.369C341.057 174.282 342.591 173.96 344.051 173.414C346.904 172.332 349.611 170.899 352.111 169.148C354.542 167.483 356.861 165.66 359.055 163.692C361.212 161.77 363.234 159.786 365.119 157.777C368.686 153.959 371.98 149.894 374.976 145.613C377.604 141.895 379.966 137.996 382.045 133.945C383.777 130.613 385.205 127.131 386.31 123.541C387.178 120.835 387.625 118.013 387.637 115.171C387.633 114.14 387.492 113.114 387.215 112.121C387.215 111.897 387.079 111.699 387.017 111.501C386.955 111.302 386.88 111.129 386.794 110.955L386.558 110.471C386.471 110.323 386.372 110.186 386.298 110.062C386.157 109.83 385.991 109.613 385.802 109.417L385.603 109.169L385.405 108.996L385.058 108.673L385.417 108.983L385.616 109.157C385.692 109.23 385.763 109.309 385.826 109.393C386.013 109.59 386.18 109.806 386.322 110.037C386.409 110.174 386.508 110.298 386.595 110.447L386.831 110.943C386.927 111.117 387.005 111.299 387.066 111.488C387.128 111.687 387.215 111.885 387.265 112.108C387.551 113.104 387.701 114.135 387.711 115.171C387.716 118.02 387.277 120.852 386.409 123.566C385.309 127.165 383.89 130.659 382.169 134.007C380.091 138.066 377.729 141.973 375.1 145.7C372.111 149.994 368.817 154.068 365.242 157.889C363.358 159.91 361.336 161.907 359.166 163.829C356.968 165.8 354.645 167.627 352.21 169.297C349.701 171.061 346.981 172.502 344.113 173.587C342.637 174.139 341.086 174.465 339.512 174.555C338.712 174.582 337.911 174.502 337.132 174.319C336.355 174.1 335.624 173.743 334.974 173.265C334.347 172.755 333.822 172.133 333.424 171.43C333.049 170.722 332.77 169.967 332.593 169.185C332.292 167.642 332.226 166.062 332.395 164.498C332.731 161.449 333.447 158.454 334.528 155.583C335.535 152.808 336.724 150.103 338.086 147.485C339.413 144.906 340.839 142.451 342.315 140.12C345.133 135.711 348.257 131.505 351.665 127.534C354.619 124.065 357.818 120.812 361.237 117.8C364.046 115.292 367.076 113.042 370.289 111.079C372.702 109.57 375.333 108.441 378.089 107.731C379.099 107.481 380.137 107.365 381.176 107.384C381.4 107.384 381.611 107.384 381.821 107.384C382.022 107.399 382.22 107.428 382.416 107.471L382.95 107.582L383.409 107.743C383.667 107.824 383.917 107.932 384.152 108.066C384.251 108.104 384.346 108.15 384.438 108.202L384.661 108.363L385.058 108.698Z" fill="#2EA8DB"/>
<path d="M317.874 159.365C318.085 159.577 318.228 159.846 318.286 160.14C318.344 160.433 318.313 160.737 318.199 161.013C318.084 161.288 317.89 161.524 317.641 161.69C317.393 161.856 317.101 161.945 316.802 161.945C316.503 161.945 316.211 161.856 315.962 161.69C315.714 161.524 315.52 161.288 315.405 161.013C315.29 160.737 315.26 160.433 315.318 160.14C315.375 159.846 315.519 159.577 315.729 159.365C315.87 159.224 316.037 159.111 316.221 159.035C316.405 158.958 316.603 158.919 316.802 158.919C317.001 158.919 317.199 158.958 317.383 159.035C317.567 159.111 317.734 159.224 317.874 159.365Z" fill="#2EA8DB"/>
<path d="M403.421 112.382C403.424 112.684 403.337 112.98 403.17 113.233C403.004 113.485 402.767 113.683 402.489 113.8C402.21 113.917 401.903 113.949 401.606 113.892C401.31 113.834 401.037 113.69 400.822 113.477C400.608 113.264 400.461 112.993 400.401 112.697C400.341 112.4 400.371 112.093 400.486 111.814C400.601 111.534 400.797 111.295 401.048 111.127C401.299 110.959 401.594 110.869 401.896 110.869C402.096 110.868 402.294 110.905 402.479 110.981C402.664 111.056 402.832 111.167 402.974 111.308C403.116 111.449 403.228 111.616 403.305 111.8C403.382 111.985 403.421 112.182 403.421 112.382Z" fill="#2EA8DB"/>
<path d="M327.447 164.35C327.447 164.426 327.424 164.501 327.382 164.564C327.34 164.627 327.279 164.676 327.209 164.705C327.139 164.734 327.062 164.742 326.987 164.727C326.913 164.712 326.844 164.676 326.79 164.622C326.737 164.568 326.7 164.5 326.685 164.425C326.67 164.351 326.678 164.273 326.707 164.203C326.736 164.133 326.785 164.073 326.849 164.031C326.912 163.988 326.986 163.966 327.062 163.966C327.164 163.966 327.262 164.006 327.334 164.078C327.406 164.151 327.447 164.248 327.447 164.35Z" fill="#2EA8DB"/>
<path d="M335.668 121.868C335.668 121.944 335.646 122.018 335.603 122.081C335.561 122.145 335.501 122.194 335.431 122.223C335.361 122.252 335.283 122.26 335.209 122.245C335.134 122.23 335.066 122.193 335.012 122.14C334.958 122.086 334.922 122.017 334.907 121.943C334.892 121.868 334.9 121.791 334.929 121.721C334.958 121.65 335.007 121.59 335.07 121.548C335.133 121.506 335.208 121.483 335.284 121.483C335.386 121.483 335.484 121.524 335.556 121.596C335.628 121.668 335.668 121.766 335.668 121.868Z" fill="#2EA8DB"/>
<path d="M395.796 142.513C395.796 142.615 395.756 142.713 395.684 142.785C395.611 142.857 395.514 142.898 395.412 142.898C395.31 142.898 395.212 142.857 395.14 142.785C395.068 142.713 395.027 142.615 395.027 142.513C395.027 142.411 395.068 142.314 395.14 142.241C395.212 142.169 395.31 142.129 395.412 142.129C395.514 142.129 395.611 142.169 395.684 142.241C395.756 142.314 395.796 142.411 395.796 142.513Z" fill="#2EA8DB"/>
<path d="M401.153 124.558C401.153 124.66 401.112 124.758 401.04 124.83C400.968 124.902 400.87 124.943 400.768 124.943C400.666 124.943 400.568 124.902 400.496 124.83C400.424 124.758 400.384 124.66 400.384 124.558C400.384 124.456 400.424 124.359 400.496 124.286C400.568 124.214 400.666 124.174 400.768 124.174C400.87 124.174 400.968 124.214 401.04 124.286C401.112 124.359 401.153 124.456 401.153 124.558Z" fill="#2EA8DB"/>
<path d="M375.187 150.983H370.426V125.055C370.426 122.118 369.259 119.301 367.182 117.225C365.106 115.148 362.289 113.981 359.352 113.981C356.416 113.981 353.599 115.148 351.523 117.225C349.446 119.301 348.279 122.118 348.279 125.055V150.983H343.48V125.055C343.48 120.855 345.149 116.827 348.118 113.858C351.088 110.888 355.116 109.22 359.315 109.22C363.515 109.22 367.543 110.888 370.512 113.858C373.482 116.827 375.15 120.855 375.15 125.055L375.187 150.983Z" fill="#2EA8DB"/>
<g opacity="0.3">
<path d="M375.187 150.983H370.426V125.055C370.426 122.118 369.259 119.301 367.182 117.225C365.106 115.148 362.289 113.981 359.352 113.981C356.416 113.981 353.599 115.148 351.523 117.225C349.446 119.301 348.279 122.118 348.279 125.055V150.983H343.48V125.055C343.48 120.855 345.149 116.827 348.118 113.858C351.088 110.888 355.116 109.22 359.315 109.22C363.515 109.22 367.543 110.888 370.512 113.858C373.482 116.827 375.15 120.855 375.15 125.055L375.187 150.983Z" fill="black"/>
</g>
<path d="M377.903 139.451H340.802C339.261 139.451 338.012 140.7 338.012 142.241V164.04C338.012 165.581 339.261 166.83 340.802 166.83H377.903C379.443 166.83 380.693 165.581 380.693 164.04V142.241C380.693 140.7 379.443 139.451 377.903 139.451Z" fill="#2EA8DB"/>
<g opacity="0.3">
<path d="M362.924 149.581C362.929 148.916 362.748 148.262 362.401 147.693C362.054 147.125 361.555 146.665 360.961 146.365C360.366 146.065 359.7 145.938 359.036 145.996C358.373 146.055 357.74 146.299 357.207 146.699C356.675 147.098 356.265 147.639 356.024 148.26C355.783 148.881 355.72 149.556 355.842 150.211C355.965 150.865 356.268 151.472 356.717 151.964C357.166 152.455 357.744 152.811 358.385 152.991V158.323H360.32V152.991C361.066 152.785 361.725 152.341 362.196 151.725C362.666 151.109 362.922 150.356 362.924 149.581Z" fill="black"/>
</g>
<path d="M340.293 164.239C340.194 164.239 340.107 159.676 340.107 154.046C340.107 148.416 340.194 143.841 340.293 143.841C340.393 143.841 340.467 148.404 340.467 154.046C340.467 159.688 340.38 164.239 340.293 164.239Z" fill="#FAFAFA"/>
<path d="M356.562 154.145C356.562 154.145 356.388 154.145 356.14 153.909C355.789 153.647 355.48 153.334 355.223 152.979C354.771 152.394 354.456 151.716 354.299 150.994C354.143 150.272 354.151 149.524 354.321 148.805C354.49 148.086 354.819 147.414 355.282 146.838C355.745 146.263 356.33 145.797 356.996 145.477C357.384 145.269 357.803 145.122 358.236 145.043C358.396 145.013 358.56 145.013 358.72 145.043C358.172 145.229 357.637 145.453 357.12 145.713C356.515 146.046 355.986 146.503 355.568 147.053C355.149 147.604 354.85 148.235 354.69 148.908C354.53 149.58 354.513 150.279 354.639 150.959C354.765 151.638 355.031 152.284 355.421 152.855C355.766 153.315 356.148 153.746 356.562 154.145Z" fill="#FAFAFA"/>
<path d="M422.716 190.303H291.314C284.931 190.303 279.757 195.477 279.757 201.86V203.273C279.757 209.656 284.931 214.83 291.314 214.83H422.716C429.099 214.83 434.273 209.656 434.273 203.273V201.86C434.273 195.477 429.099 190.303 422.716 190.303Z" fill="#F5F5F5"/>
<path d="M423.844 223.932H292.442C286.059 223.932 280.885 229.106 280.885 235.488V236.902C280.885 243.285 286.059 248.459 292.442 248.459H423.844C430.227 248.459 435.401 243.285 435.401 236.902V235.488C435.401 229.106 430.227 223.932 423.844 223.932Z" fill="#F5F5F5"/>
<path d="M304.172 202.369V198.822H305.647V202.319C305.647 203.559 306.168 204.018 307.061 204.018C307.954 204.018 308.475 203.522 308.475 202.319V198.822H309.925V202.369C309.925 203.132 309.622 203.863 309.083 204.403C308.543 204.942 307.812 205.245 307.049 205.245C306.286 205.245 305.554 204.942 305.014 204.403C304.475 203.863 304.172 203.132 304.172 202.369Z" fill="#263238"/>
<path d="M310.807 204.712L311.265 203.695C311.779 204.001 312.366 204.164 312.964 204.166C313.621 204.166 313.857 203.992 313.857 203.72C313.857 202.926 310.918 203.72 310.918 201.798C310.918 200.868 311.749 200.21 313.175 200.21C313.825 200.2 314.468 200.349 315.047 200.644L314.576 201.649C314.15 201.406 313.666 201.281 313.175 201.289C312.543 201.289 312.27 201.488 312.27 201.736C312.27 202.566 315.209 201.736 315.209 203.682C315.209 204.588 314.378 205.232 312.915 205.232C312.178 205.249 311.451 205.069 310.807 204.712Z" fill="#263238"/>
<path d="M320.838 203.125H317.118C317.194 203.43 317.378 203.697 317.635 203.877C317.893 204.057 318.207 204.138 318.519 204.104C318.747 204.114 318.975 204.078 319.188 203.997C319.401 203.916 319.596 203.792 319.759 203.633L320.516 204.451C320.257 204.719 319.944 204.927 319.597 205.062C319.25 205.197 318.878 205.255 318.507 205.233C318.156 205.277 317.8 205.246 317.462 205.141C317.125 205.036 316.813 204.861 316.549 204.626C316.285 204.391 316.074 204.102 315.93 203.779C315.787 203.456 315.714 203.106 315.717 202.753C315.716 202.416 315.784 202.083 315.917 201.774C316.049 201.465 316.243 201.186 316.487 200.954C316.73 200.722 317.018 200.542 317.334 200.425C317.649 200.308 317.985 200.256 318.321 200.273C318.652 200.264 318.981 200.322 319.289 200.443C319.597 200.564 319.878 200.746 320.115 200.977C320.352 201.208 320.54 201.484 320.668 201.789C320.797 202.094 320.863 202.422 320.863 202.753C320.863 202.852 320.838 203.001 320.838 203.125ZM317.118 202.294H319.511C319.44 202.031 319.284 201.799 319.068 201.634C318.852 201.469 318.587 201.379 318.315 201.379C318.042 201.379 317.778 201.469 317.562 201.634C317.345 201.799 317.189 202.031 317.118 202.294Z" fill="#263238"/>
<path d="M324.88 200.211V201.525H324.558C324.384 201.524 324.212 201.56 324.053 201.63C323.894 201.7 323.751 201.803 323.634 201.931C323.517 202.06 323.429 202.212 323.374 202.377C323.32 202.542 323.3 202.716 323.318 202.889V205.183H321.904V200.31H323.256V200.88C323.455 200.649 323.706 200.468 323.988 200.352C324.27 200.236 324.576 200.187 324.88 200.211Z" fill="#263238"/>
<path d="M330.659 202.368V205.158H329.245V202.592C329.245 201.798 328.885 201.438 328.253 201.438C327.621 201.438 327.087 201.86 327.087 202.753V205.158H325.674V200.285H327.025V200.88C327.235 200.667 327.486 200.5 327.764 200.389C328.041 200.278 328.339 200.226 328.637 200.236C328.917 200.217 329.198 200.261 329.459 200.363C329.72 200.465 329.956 200.624 330.149 200.828C330.342 201.031 330.487 201.275 330.575 201.541C330.664 201.807 330.692 202.09 330.659 202.368Z" fill="#263238"/>
<path d="M336.251 202.381V205.158H334.924V204.6C334.76 204.838 334.536 205.026 334.274 205.146C334.012 205.266 333.723 205.313 333.436 205.282C332.295 205.282 331.613 204.65 331.613 203.807C331.613 202.964 332.221 202.344 333.709 202.344H334.8C334.8 201.748 334.44 201.389 333.672 201.389C333.167 201.387 332.676 201.548 332.27 201.848L331.762 200.856C332.389 200.45 333.124 200.243 333.87 200.26C335.383 200.211 336.251 200.88 336.251 202.381ZM334.837 203.621V203.125H333.87C333.2 203.125 333.002 203.373 333.002 203.695C333.002 204.018 333.3 204.29 333.796 204.29C334.012 204.297 334.225 204.236 334.405 204.116C334.585 203.996 334.723 203.823 334.8 203.621H334.837Z" fill="#263238"/>
<path d="M345.762 202.369V205.159H344.348V202.592C344.348 201.798 344.001 201.439 343.431 201.439C342.86 201.439 342.352 201.848 342.352 202.679V205.159H341V202.592C341 201.798 340.666 201.439 340.07 201.439C339.475 201.439 339.004 201.848 339.004 202.679V205.159H337.528V200.286H338.88V200.881C339.072 200.668 339.308 200.501 339.571 200.389C339.835 200.278 340.119 200.226 340.405 200.236C340.72 200.222 341.034 200.288 341.316 200.429C341.598 200.57 341.84 200.781 342.017 201.042C342.228 200.78 342.496 200.57 342.802 200.43C343.108 200.29 343.442 200.224 343.778 200.236C344.056 200.219 344.334 200.264 344.593 200.367C344.852 200.47 345.084 200.63 345.274 200.833C345.464 201.037 345.606 201.281 345.69 201.546C345.775 201.812 345.799 202.093 345.762 202.369Z" fill="#263238"/>
<path d="M351.838 203.125H348.118C348.181 203.434 348.36 203.708 348.618 203.89C348.876 204.072 349.194 204.149 349.507 204.104C349.734 204.114 349.962 204.077 350.175 203.996C350.388 203.915 350.582 203.791 350.747 203.633L351.491 204.451C351.233 204.72 350.92 204.929 350.573 205.064C350.226 205.199 349.853 205.257 349.482 205.233C349.132 205.275 348.777 205.242 348.441 205.137C348.105 205.031 347.795 204.855 347.532 204.62C347.27 204.386 347.06 204.098 346.917 203.776C346.774 203.454 346.702 203.105 346.704 202.753C346.704 202.416 346.772 202.083 346.904 201.774C347.036 201.465 347.23 201.186 347.474 200.954C347.717 200.722 348.006 200.542 348.321 200.425C348.636 200.308 348.972 200.256 349.308 200.273C349.966 200.273 350.597 200.534 351.062 200.999C351.527 201.464 351.788 202.095 351.788 202.753C351.863 202.852 351.85 203.001 351.838 203.125ZM348.118 202.294H350.523C350.483 202 350.333 201.733 350.102 201.546C349.872 201.36 349.579 201.268 349.283 201.289C349.001 201.284 348.727 201.384 348.514 201.57C348.3 201.755 348.164 202.013 348.13 202.294H348.118Z" fill="#263238"/>
<path d="M361.188 202.678C361.188 204.302 360.444 205.232 359.328 205.232C359.064 205.25 358.8 205.182 358.577 205.04C358.354 204.897 358.183 204.686 358.088 204.439C357.923 204.697 357.693 204.906 357.42 205.046C357.148 205.185 356.843 205.25 356.538 205.232C355.971 205.173 355.445 204.906 355.063 204.483C354.682 204.059 354.47 203.509 354.47 202.938C354.47 202.368 354.682 201.818 355.063 201.394C355.445 200.971 355.971 200.703 356.538 200.644C356.8 200.632 357.062 200.681 357.303 200.786C357.544 200.891 357.757 201.051 357.927 201.252V200.719H359.167V203.645C359.167 204.079 359.353 204.228 359.601 204.228C359.849 204.228 360.27 203.744 360.27 202.703C360.276 202.27 360.19 201.841 360.019 201.444C359.848 201.046 359.595 200.689 359.277 200.396C358.959 200.102 358.583 199.879 358.173 199.74C357.763 199.601 357.328 199.55 356.897 199.59C356.026 199.59 355.19 199.937 354.574 200.553C353.958 201.169 353.611 202.005 353.611 202.876C353.611 203.748 353.958 204.584 354.574 205.2C355.19 205.816 356.026 206.162 356.897 206.162C357.514 206.162 358.124 206.026 358.683 205.766L358.968 206.596C358.319 206.893 357.611 207.042 356.897 207.03C356.334 207.061 355.77 206.977 355.24 206.782C354.709 206.588 354.225 206.287 353.815 205.899C353.405 205.511 353.078 205.043 352.855 204.525C352.632 204.006 352.517 203.447 352.517 202.883C352.517 202.318 352.632 201.759 352.855 201.241C353.078 200.722 353.405 200.254 353.815 199.866C354.225 199.478 354.709 199.177 355.24 198.983C355.77 198.788 356.334 198.704 356.897 198.735C357.443 198.69 357.992 198.759 358.509 198.937C359.027 199.115 359.502 199.398 359.905 199.768C360.308 200.138 360.63 200.588 360.851 201.089C361.071 201.59 361.186 202.131 361.188 202.678ZM357.951 202.938C357.969 202.78 357.953 202.619 357.903 202.467C357.854 202.315 357.772 202.176 357.664 202.058C357.556 201.941 357.423 201.848 357.276 201.786C357.129 201.724 356.97 201.694 356.811 201.698C356.482 201.698 356.166 201.829 355.934 202.062C355.701 202.294 355.571 202.61 355.571 202.938C355.571 203.267 355.701 203.583 355.934 203.815C356.166 204.048 356.482 204.178 356.811 204.178C356.97 204.183 357.129 204.153 357.276 204.091C357.423 204.029 357.556 203.936 357.664 203.818C357.772 203.701 357.854 203.561 357.903 203.41C357.953 203.258 357.969 203.097 357.951 202.938Z" fill="#263238"/>
<path d="M370.425 202.369V205.159H369.011V202.592C369.011 201.798 368.664 201.439 368.094 201.439C367.523 201.439 367.015 201.848 367.015 202.679V205.159H365.601V202.592C365.601 201.798 365.267 201.439 364.671 201.439C364.076 201.439 363.605 201.848 363.605 202.679V205.159H362.191V200.285H363.543V200.881C363.735 200.668 363.971 200.501 364.234 200.389C364.498 200.278 364.782 200.225 365.068 200.236C365.383 200.221 365.697 200.288 365.979 200.429C366.261 200.57 366.503 200.781 366.68 201.042C366.889 200.781 367.155 200.572 367.459 200.432C367.762 200.292 368.095 200.225 368.429 200.236C368.708 200.217 368.987 200.26 369.248 200.362C369.508 200.465 369.742 200.624 369.933 200.828C370.124 201.032 370.268 201.277 370.353 201.543C370.438 201.809 370.462 202.091 370.425 202.369Z" fill="#263238"/>
<path d="M376.005 202.381V205.158H374.691V204.6C374.527 204.838 374.302 205.026 374.041 205.146C373.779 205.266 373.489 205.313 373.203 205.282C372.062 205.282 371.38 204.65 371.38 203.807C371.38 202.964 371.987 202.344 373.475 202.344H374.591C374.591 201.748 374.232 201.389 373.475 201.389C372.971 201.382 372.478 201.544 372.074 201.848L371.566 200.856C372.189 200.452 372.919 200.245 373.661 200.26C375.149 200.211 376.005 200.88 376.005 202.381ZM374.591 203.621V203.125H373.624C372.967 203.125 372.756 203.373 372.756 203.695C372.756 204.018 373.054 204.29 373.55 204.29C373.772 204.305 373.993 204.248 374.181 204.127C374.368 204.007 374.512 203.829 374.591 203.621Z" fill="#263238"/>
<path d="M377.121 198.822C377.122 198.711 377.147 198.601 377.192 198.5C377.238 198.398 377.305 198.307 377.387 198.233C377.47 198.158 377.567 198.102 377.673 198.066C377.779 198.031 377.891 198.019 378.001 198.029C378.154 198.046 378.298 198.106 378.416 198.203C378.535 198.299 378.623 198.428 378.67 198.574C378.717 198.72 378.721 198.876 378.681 199.024C378.641 199.172 378.56 199.305 378.446 199.407C378.332 199.51 378.191 199.577 378.04 199.601C377.889 199.626 377.734 199.606 377.594 199.544C377.454 199.482 377.335 199.381 377.251 199.253C377.167 199.125 377.122 198.975 377.121 198.822ZM377.295 200.286H378.696V205.159H377.295V200.286Z" fill="#263238"/>
<path d="M380.023 198.4H381.437V205.121H380.023V198.4Z" fill="#263238"/>
<path d="M382.404 204.352C382.404 204.119 382.497 203.895 382.662 203.73C382.827 203.564 383.051 203.472 383.285 203.472C383.518 203.472 383.742 203.564 383.907 203.73C384.072 203.895 384.165 204.119 384.165 204.352C384.165 204.586 384.072 204.81 383.907 204.975C383.742 205.14 383.518 205.232 383.285 205.232C383.051 205.232 382.827 205.14 382.662 204.975C382.497 204.81 382.404 204.586 382.404 204.352Z" fill="#263238"/>
<path d="M384.697 202.728C384.696 202.381 384.767 202.038 384.906 201.721C385.045 201.403 385.249 201.119 385.505 200.885C385.761 200.651 386.063 200.474 386.391 200.364C386.72 200.254 387.068 200.215 387.413 200.248C387.859 200.21 388.307 200.308 388.696 200.529C389.086 200.751 389.399 201.085 389.595 201.488L388.504 202.07C388.379 201.886 388.208 201.736 388.008 201.637C387.808 201.537 387.586 201.491 387.362 201.502C387.139 201.513 386.923 201.581 386.734 201.7C386.545 201.819 386.39 201.985 386.283 202.181C386.176 202.378 386.122 202.598 386.125 202.821C386.129 203.045 386.189 203.263 386.302 203.456C386.414 203.65 386.574 203.811 386.766 203.924C386.959 204.037 387.177 204.099 387.401 204.104C387.628 204.104 387.852 204.042 388.046 203.924C388.241 203.806 388.399 203.637 388.504 203.434L389.595 204.03C389.397 204.43 389.083 204.762 388.694 204.983C388.305 205.204 387.859 205.304 387.413 205.27C387.063 205.303 386.709 205.262 386.376 205.148C386.043 205.035 385.738 204.852 385.481 204.611C385.225 204.371 385.022 204.079 384.887 203.754C384.752 203.429 384.687 203.079 384.697 202.728Z" fill="#263238"/>
<path d="M389.993 202.728C389.953 202.192 390.075 201.656 390.344 201.19C390.614 200.724 391.017 200.35 391.501 200.117C391.986 199.884 392.529 199.801 393.061 199.881C393.593 199.961 394.089 200.199 394.483 200.565C394.878 200.93 395.154 201.406 395.274 201.93C395.395 202.454 395.354 203.003 395.159 203.504C394.963 204.005 394.621 204.435 394.178 204.739C393.734 205.043 393.209 205.207 392.671 205.208C392.329 205.236 391.985 205.192 391.661 205.08C391.337 204.967 391.039 204.789 390.788 204.556C390.536 204.323 390.335 204.04 390.199 203.726C390.062 203.411 389.992 203.071 389.993 202.728ZM393.911 202.728C393.889 202.489 393.799 202.261 393.65 202.072C393.501 201.884 393.301 201.742 393.073 201.665C392.846 201.588 392.601 201.579 392.368 201.639C392.135 201.699 391.925 201.825 391.762 202.002C391.6 202.179 391.492 202.399 391.453 202.636C391.414 202.873 391.444 203.117 391.54 203.337C391.636 203.557 391.794 203.744 391.995 203.876C392.196 204.008 392.431 204.079 392.671 204.08C392.844 204.081 393.015 204.045 393.173 203.976C393.331 203.907 393.473 203.805 393.59 203.678C393.707 203.551 393.795 203.401 393.851 203.237C393.906 203.074 393.927 202.9 393.911 202.728Z" fill="#263238"/>
<path d="M404.526 202.369V205.159H403.112V202.592C403.112 201.798 402.752 201.439 402.182 201.439C401.612 201.439 401.103 201.848 401.103 202.679V205.159H399.69V202.592C399.69 201.798 399.355 201.439 398.772 201.439C398.189 201.439 397.706 201.848 397.706 202.679V205.159H396.292V200.285H397.631V200.881C397.825 200.668 398.063 200.5 398.329 200.389C398.594 200.278 398.881 200.225 399.169 200.236C399.482 200.22 399.795 200.286 400.075 200.427C400.356 200.568 400.595 200.78 400.768 201.042C400.98 200.781 401.249 200.573 401.554 200.433C401.86 200.293 402.193 200.226 402.529 200.236C402.808 200.217 403.088 200.26 403.348 200.362C403.608 200.465 403.843 200.624 404.034 200.828C404.225 201.032 404.368 201.277 404.453 201.543C404.538 201.809 404.563 202.091 404.526 202.369Z" fill="#263238"/>
<path d="M323.107 236.332L325.401 237.572L324.372 239.295L322.053 237.931V240.486H320.069V237.906L317.824 239.32L316.808 237.596L319.114 236.356L316.808 235.116L317.824 233.393L320.143 234.782V232.215H322.127V234.782L324.446 233.393L325.475 235.116L323.107 236.332Z" fill="#263238"/>
<path d="M332.668 236.332L334.962 237.572L333.933 239.32L331.614 237.956V240.51H329.642V237.931L327.361 239.32L326.344 237.596L328.638 236.356L326.344 235.116L327.361 233.393L329.679 234.782V232.215H331.651V234.782L333.97 233.393L334.999 235.116L332.668 236.332Z" fill="#263238"/>
<path d="M342.24 236.332L344.534 237.572L343.48 239.32L341.174 237.956V240.51H339.19V237.931L336.933 239.32L335.929 237.596L338.223 236.356L335.929 235.116L336.933 233.393L339.252 234.782V232.215H341.236V234.782L343.542 233.393L344.584 235.116L342.24 236.332Z" fill="#263238"/>
<path d="M351.776 236.332L354.07 237.572L353.041 239.295L350.722 237.931V240.486H348.738V237.906L346.493 239.32L345.477 237.596L347.783 236.356L345.477 235.116L346.493 233.393L348.812 234.782V232.215H350.796V234.782L353.115 233.393L354.144 235.116L351.776 236.332Z" fill="#263238"/>
<path d="M361.336 236.332L363.63 237.572L362.601 239.296L360.282 237.932V240.486H358.36V237.907L356.054 239.321L355.037 237.597L357.331 236.357L355.037 235.117L356.054 233.394L358.36 234.733V232.166H360.332V234.733L362.651 233.344L363.68 235.068L361.336 236.332Z" fill="#263238"/>
<path d="M370.897 236.332L373.191 237.572L372.162 239.295L369.843 237.931V240.486H367.859V237.906L365.602 239.32L364.598 237.596L366.892 236.356L364.598 235.116L365.602 233.393L367.921 234.782V232.215H369.905V234.782L372.224 233.393L373.253 235.116L370.897 236.332Z" fill="#263238"/>
<path d="M380.445 236.332L382.739 237.572L381.709 239.295L379.391 237.931V240.486H377.407V237.906L375.162 239.32L374.146 237.596L376.452 236.356L374.146 235.116L375.162 233.393L377.481 234.782V232.215H379.44V234.782L381.759 233.393L382.788 235.116L380.445 236.332Z" fill="#263238"/>
<path d="M390.005 236.332L392.299 237.572L391.27 239.295L388.951 237.931V240.486H386.98V237.906L384.723 239.32L383.706 237.596L386 236.356L383.706 235.116L384.723 233.393L387.042 234.782V232.215H389.013V234.782L391.332 233.393L392.361 235.116L390.005 236.332Z" fill="#263238"/>
<path d="M277.388 167.834H180.792C180.131 167.834 179.477 167.964 178.867 168.217C178.257 168.471 177.703 168.842 177.236 169.309C176.77 169.777 176.4 170.332 176.149 170.943C175.897 171.553 175.768 172.208 175.77 172.868V216.864C175.762 217.525 175.886 218.182 176.135 218.795C176.385 219.408 176.754 219.965 177.222 220.433C177.69 220.901 178.247 221.271 178.86 221.52C179.473 221.77 180.13 221.894 180.792 221.886H221.315L229.921 232.934L237.1 221.886H277.388C278.047 221.886 278.7 221.756 279.31 221.503C279.919 221.251 280.473 220.881 280.939 220.415C281.405 219.948 281.775 219.395 282.028 218.785C282.28 218.176 282.41 217.523 282.41 216.864V172.868C282.41 171.535 281.881 170.257 280.94 169.313C279.998 168.369 278.721 167.837 277.388 167.834Z" fill="white"/>
<path d="M277.388 167.834H277.859C278.33 167.875 278.793 167.979 279.235 168.144C279.959 168.404 280.613 168.829 281.145 169.384C281.905 170.202 282.372 171.249 282.472 172.36C282.571 177.147 282.546 184.116 282.583 192.944C282.583 197.359 282.583 202.232 282.583 207.514C282.583 210.168 282.583 212.908 282.583 215.76C282.617 216.489 282.584 217.22 282.484 217.943C282.332 218.695 282.019 219.406 281.566 220.026C281.102 220.662 280.502 221.186 279.809 221.559C279.116 221.933 278.348 222.146 277.561 222.184H237.038L237.286 222.06C235.029 225.519 232.599 229.276 230.119 233.096L229.883 233.455L229.61 233.12L221.005 222.084L221.253 222.208H182.28C181.573 222.208 180.916 222.208 180.159 222.208C179.059 222.077 178.026 221.609 177.202 220.867C176.378 220.126 175.804 219.148 175.559 218.067C175.435 217.371 175.39 216.664 175.422 215.959V197.793C175.422 192.51 175.422 187.331 175.422 182.256V172.869C175.423 172.216 175.545 171.568 175.782 170.959C176.242 169.749 177.122 168.746 178.262 168.132C178.831 167.841 179.449 167.656 180.085 167.586C180.696 167.556 181.309 167.556 181.92 167.586H192.472H205.84H229.821L264.541 167.686L273.978 167.748L264.541 167.81L229.821 167.909H205.84H182.019C181.424 167.909 180.779 167.909 180.246 167.909C179.683 167.973 179.136 168.142 178.634 168.405C177.609 168.93 176.81 169.812 176.39 170.885C176.177 171.426 176.068 172.002 176.067 172.584V174.444C176.067 176.924 176.067 179.404 176.067 181.97V197.508C176.067 202.782 176.067 208.155 176.067 213.628V215.686C176.028 216.345 176.065 217.007 176.179 217.658C176.397 218.608 176.904 219.467 177.63 220.117C178.356 220.768 179.266 221.178 180.234 221.291C180.866 221.353 181.598 221.291 182.28 221.291H221.464L221.563 221.415L230.168 232.451H229.66L236.84 221.415L236.926 221.278H237.1H277.598C278.312 221.255 279.01 221.068 279.639 220.733C280.269 220.397 280.814 219.922 281.232 219.344C281.651 218.787 281.939 218.143 282.075 217.459C282.171 216.765 282.204 216.064 282.174 215.364C282.174 212.512 282.174 209.771 282.174 207.118C282.174 201.835 282.174 196.962 282.174 192.548C282.174 183.744 282.174 176.775 282.236 171.976C282.126 170.939 281.692 169.963 280.996 169.186C280.487 168.617 279.855 168.172 279.148 167.884C278.567 167.784 277.974 167.767 277.388 167.834Z" fill="#263238"/>
<path d="M210.998 180.259V181.884H209.944V180.247L208.158 177.32H209.287L210.527 179.354L211.767 177.32H212.808L210.998 180.259Z" fill="#263238"/>
<path d="M212.759 179.59C212.737 179.095 212.863 178.605 213.122 178.183C213.381 177.761 213.76 177.425 214.21 177.22C214.661 177.016 215.163 176.95 215.651 177.033C216.139 177.116 216.592 177.343 216.95 177.685C217.308 178.027 217.555 178.468 217.66 178.952C217.765 179.436 217.723 179.94 217.539 180.4C217.355 180.859 217.038 181.253 216.628 181.531C216.218 181.809 215.734 181.958 215.239 181.958C214.919 181.973 214.599 181.923 214.299 181.811C213.998 181.699 213.724 181.527 213.492 181.305C213.26 181.084 213.076 180.817 212.95 180.523C212.824 180.228 212.759 179.91 212.759 179.59ZM216.703 179.59C216.7 179.306 216.614 179.029 216.454 178.794C216.295 178.559 216.069 178.377 215.806 178.27C215.543 178.163 215.254 178.136 214.976 178.193C214.698 178.25 214.443 178.388 214.243 178.589C214.043 178.791 213.907 179.047 213.853 179.326C213.798 179.605 213.827 179.893 213.936 180.155C214.046 180.417 214.23 180.641 214.466 180.799C214.703 180.956 214.98 181.04 215.264 181.04C215.456 181.046 215.646 181.012 215.824 180.94C216.001 180.869 216.163 180.762 216.297 180.626C216.432 180.49 216.538 180.328 216.607 180.15C216.677 179.972 216.709 179.781 216.703 179.59Z" fill="#263238"/>
<path d="M218.55 179.862V177.32H219.616V179.8C219.616 180.668 220.001 181.04 220.633 181.04C221.265 181.04 221.662 180.681 221.662 179.8V177.32H222.716V179.887C222.716 180.44 222.497 180.969 222.106 181.36C221.715 181.751 221.185 181.97 220.633 181.97C220.08 181.97 219.551 181.751 219.16 181.36C218.769 180.969 218.55 180.44 218.55 179.887V179.862Z" fill="#263238"/>
<path d="M226.697 181.884L225.817 180.644H224.837V181.884H223.771V177.32H225.754C226.994 177.32 227.751 177.953 227.751 178.982C227.765 179.292 227.681 179.598 227.512 179.858C227.343 180.118 227.097 180.319 226.809 180.433L227.838 181.908L226.697 181.884ZM225.705 178.164H224.837V179.8H225.705C226.35 179.8 226.672 179.49 226.672 178.994C226.672 178.498 226.35 178.151 225.68 178.151L225.705 178.164Z" fill="#263238"/>
<path d="M230.168 179.59C230.172 179.081 230.332 178.586 230.627 178.172C230.922 177.758 231.337 177.444 231.816 177.273C232.295 177.103 232.815 177.084 233.306 177.219C233.796 177.354 234.233 177.636 234.558 178.028L233.876 178.66C233.735 178.487 233.557 178.348 233.355 178.253C233.154 178.159 232.933 178.111 232.71 178.114C232.344 178.148 232.003 178.318 231.755 178.589C231.507 178.861 231.37 179.216 231.37 179.584C231.37 179.952 231.507 180.306 231.755 180.578C232.003 180.85 232.344 181.02 232.71 181.053C232.932 181.059 233.152 181.013 233.354 180.921C233.556 180.829 233.734 180.692 233.876 180.52L234.558 181.14C234.234 181.531 233.798 181.813 233.309 181.948C232.82 182.084 232.301 182.065 231.822 181.896C231.343 181.727 230.928 181.416 230.632 181.003C230.337 180.591 230.175 180.098 230.168 179.59Z" fill="#263238"/>
<path d="M234.893 179.59C234.871 179.095 234.997 178.605 235.256 178.183C235.514 177.761 235.893 177.425 236.344 177.22C236.795 177.016 237.297 176.95 237.785 177.033C238.273 177.116 238.725 177.343 239.083 177.685C239.442 178.027 239.689 178.468 239.794 178.952C239.899 179.436 239.857 179.94 239.673 180.4C239.489 180.859 239.172 181.253 238.762 181.531C238.352 181.809 237.868 181.958 237.373 181.958C237.053 181.973 236.733 181.923 236.432 181.811C236.132 181.699 235.858 181.527 235.626 181.305C235.394 181.084 235.209 180.817 235.083 180.523C234.958 180.228 234.893 179.91 234.893 179.59ZM238.836 179.59C238.831 179.306 238.743 179.031 238.582 178.797C238.421 178.564 238.195 178.384 237.931 178.279C237.668 178.173 237.38 178.149 237.102 178.207C236.825 178.265 236.571 178.404 236.372 178.606C236.174 178.808 236.039 179.065 235.986 179.343C235.932 179.621 235.962 179.909 236.072 180.17C236.181 180.432 236.365 180.655 236.601 180.812C236.837 180.969 237.115 181.053 237.398 181.053C237.59 181.058 237.782 181.024 237.96 180.952C238.139 180.88 238.301 180.772 238.436 180.634C238.571 180.497 238.676 180.334 238.745 180.154C238.814 179.974 238.845 179.782 238.836 179.59Z" fill="#263238"/>
<path d="M240.721 177.32H242.816C243.138 177.287 243.462 177.321 243.769 177.421C244.077 177.521 244.359 177.685 244.599 177.901C244.839 178.117 245.031 178.381 245.162 178.676C245.294 178.972 245.362 179.291 245.362 179.614C245.362 179.937 245.294 180.256 245.162 180.552C245.031 180.847 244.839 181.111 244.599 181.327C244.359 181.544 244.077 181.707 243.769 181.807C243.462 181.907 243.138 181.941 242.816 181.908H240.721V177.32ZM242.754 181.04C243.133 181.04 243.495 180.89 243.763 180.622C244.03 180.355 244.18 179.992 244.18 179.614C244.18 179.236 244.03 178.873 243.763 178.606C243.495 178.338 243.133 178.188 242.754 178.188H241.799V181.04H242.754Z" fill="#263238"/>
<path d="M249.711 181.04V181.896H246.152V177.32H249.624V178.164H247.206V179.168H249.339V179.999H247.206V181.04H249.711Z" fill="#263238"/>
<path d="M267.964 186.707H190.228C187.797 186.707 185.826 188.678 185.826 191.109V207.527C185.826 209.958 187.797 211.929 190.228 211.929H267.964C270.395 211.929 272.366 209.958 272.366 207.527V191.109C272.366 188.678 270.395 186.707 267.964 186.707Z" fill="#F5F5F5"/>
<path d="M203.36 200.881C203.362 201.4 203.256 201.914 203.047 202.389C202.839 202.865 202.534 203.292 202.15 203.642C201.767 203.992 201.315 204.259 200.823 204.424C200.331 204.589 199.809 204.649 199.293 204.601C196.093 204.601 194.395 202.294 194.395 198.475C194.395 194.334 196.589 192.213 199.826 192.213C200.786 192.171 201.74 192.385 202.591 192.833L202.231 193.552C201.496 193.149 200.664 192.956 199.826 192.994C197.085 192.994 195.287 194.792 195.287 198.339C195.283 198.828 195.317 199.317 195.387 199.802C195.678 199.022 196.215 198.357 196.918 197.91C197.62 197.462 198.45 197.256 199.28 197.322C201.773 197.235 203.36 198.661 203.36 200.881ZM202.467 200.881C202.467 199.132 201.227 198.004 199.156 198.004C198.74 197.961 198.32 198.004 197.921 198.129C197.522 198.254 197.153 198.46 196.836 198.732C196.52 199.005 196.262 199.34 196.079 199.715C195.895 200.091 195.791 200.5 195.771 200.918C195.771 202.344 197.011 203.782 199.268 203.782C199.677 203.834 200.093 203.797 200.487 203.674C200.881 203.551 201.244 203.345 201.552 203.07C201.86 202.796 202.105 202.458 202.272 202.08C202.438 201.702 202.522 201.293 202.517 200.881H202.467Z" fill="#2EA8DB"/>
<path d="M219.616 201.079H217.061V204.464H216.181V201.079H209.225V200.434L215.859 192.25H216.851L210.341 200.285H216.206V197.309H217.061V200.285H219.616V201.079Z" fill="#2EA8DB"/>
<path d="M233.181 201.017C233.181 203.05 231.718 204.551 228.903 204.551C228.112 204.581 227.322 204.451 226.583 204.167C225.843 203.884 225.169 203.453 224.601 202.901L225.047 202.219C225.554 202.719 226.157 203.11 226.82 203.368C227.483 203.626 228.192 203.746 228.903 203.72C231.098 203.72 232.276 202.678 232.276 201.017C232.276 199.355 231.16 198.313 228.717 198.313H227.949V197.669L231.557 193.043H225.047V192.2H232.71V192.82L228.99 197.52C231.879 197.631 233.181 199.033 233.181 201.017Z" fill="#2EA8DB"/>
<path d="M248 192.2V192.82L242.754 204.414H241.775L246.97 192.994H240.113V195.337H239.245V192.2H248Z" fill="#2EA8DB"/>
<path d="M254.199 198.4C254.199 194.581 256.171 192.2 258.973 192.2C261.776 192.2 263.76 194.569 263.76 198.4C263.76 202.232 261.788 204.6 258.973 204.6C256.158 204.6 254.199 202.12 254.199 198.4ZM262.879 198.4C262.879 195.003 261.292 193.031 258.986 193.031C256.679 193.031 255.092 195.003 255.092 198.4C255.092 201.798 256.679 203.769 258.986 203.769C261.292 203.769 262.879 201.748 262.879 198.4Z" fill="#2EA8DB"/>
<path d="M520.056 517.725C536.287 510.831 555.086 497.278 563.456 480.649C545.443 488.126 530.254 501.102 520.056 517.725Z" fill="#263238"/>
<path d="M523.516 491.921C539.747 485.039 558.546 471.486 566.916 454.857C548.9 462.322 533.708 475.296 523.516 491.921Z" fill="#263238"/>
<path d="M528.24 466.835C544.484 459.941 563.27 446.387 571.64 429.771C553.626 437.238 538.435 450.212 528.24 466.835Z" fill="#263238"/>
<path d="M534.093 440.573C549.407 431.521 566.482 415.401 572.88 397.817C555.863 407.732 542.328 422.665 534.13 440.573" fill="#263238"/>
<path d="M540.392 420.472C551.552 405.877 561.955 384.152 561.819 365.329C549.414 381.206 541.962 400.385 540.392 420.472Z" fill="#263238"/>
<path d="M537.268 430.033C535.011 410.292 527.348 385.479 514.303 370.674C516.505 392.159 524.436 412.659 537.268 430.033Z" fill="#263238"/>
<path d="M532.022 451.621C528.054 431.273 518.01 406.101 503.204 391.828C507.258 413.988 517.213 434.645 532.022 451.621Z" fill="#263238"/>
<path d="M525.996 477.946C522.04 457.561 511.971 432.426 497.24 418.153C501.294 440.313 511.249 460.97 526.058 477.946" fill="#263238"/>
<path d="M521.159 510.272C517.179 489.924 507.135 464.752 492.342 450.479C496.395 472.639 506.351 493.296 521.159 510.272Z" fill="#263238"/>
<path d="M541.149 416.641C541.088 416.735 541.046 416.84 541.025 416.951C540.938 417.186 540.839 417.484 540.715 417.856C540.442 418.711 540.057 419.889 539.586 421.377C538.607 424.44 537.292 428.892 535.742 434.422C534.192 439.953 532.481 446.562 530.72 453.94C528.959 461.318 527.223 469.489 525.587 478.095C523.95 486.701 522.673 494.959 521.594 502.473C520.515 509.988 519.746 516.783 519.188 522.487C518.63 528.191 518.233 532.829 518.035 536.04C517.936 537.603 517.861 538.83 517.799 539.76C517.799 540.157 517.799 540.467 517.799 540.727C517.783 540.834 517.783 540.943 517.799 541.05C517.837 540.946 517.858 540.838 517.861 540.727C517.861 540.479 517.861 540.157 517.961 539.773C518.047 538.88 518.171 537.652 518.32 536.053C518.593 532.866 519.052 528.241 519.672 522.537C520.292 516.833 521.147 510.062 522.214 502.56C523.28 495.058 524.694 486.825 526.256 478.219C527.819 469.613 529.629 461.467 531.328 454.076C533.027 446.686 534.713 440.077 536.213 434.534C537.714 428.991 538.954 424.527 539.859 421.452L540.876 417.893C540.975 417.521 541.049 417.211 541.124 416.963C541.146 416.857 541.154 416.749 541.149 416.641Z" fill="#263238"/>
<path d="M512.12 528.463C519.002 514.054 524.011 493.743 520.639 477.958C512.943 493.605 509.983 511.158 512.12 528.463Z" fill="#455A64"/>
<path d="M500.7 509.801C507.582 495.38 512.592 475.081 509.206 459.296C501.508 474.942 498.552 492.497 500.7 509.801Z" fill="#455A64"/>
<path d="M490.432 490.817C497.314 476.396 502.324 456.097 498.939 440.312C491.241 455.957 488.284 473.512 490.432 490.817Z" fill="#455A64"/>
<path d="M480.314 470.344C485.435 455.092 488.002 434.285 482.794 419.07C477.017 435.56 476.155 453.374 480.314 470.344Z" fill="#455A64"/>
<path d="M473.68 453.58C473.172 437.348 468.398 417.012 458.316 405.021C458.542 422.368 463.887 439.261 473.68 453.58Z" fill="#455A64"/>
<path d="M476.768 461.628C464.826 450.368 446.673 439.171 430.354 437.708C443.118 450.098 459.271 458.422 476.768 461.628Z" fill="#455A64"/>
<path d="M484.84 478.715C471.461 468.1 451.571 458.155 434.385 458.118C448.792 469.83 466.353 476.999 484.84 478.715Z" fill="#455A64"/>
<path d="M494.884 499.311C481.504 488.709 461.627 478.752 444.44 478.715C458.844 490.424 476.401 497.593 494.884 499.311Z" fill="#455A64"/>
<path d="M508.909 523.02C495.529 512.406 475.64 502.461 458.453 502.411C472.856 514.131 490.419 521.305 508.909 523.02Z" fill="#455A64"/>
<path d="M472.167 450.642C472.167 450.642 472.167 450.728 472.241 450.902L472.514 451.671L473.63 454.585C474.61 457.065 476.11 460.785 478.007 465.224C481.827 474.14 487.493 486.304 494.524 499.374C498.046 505.884 501.58 512.009 504.878 517.502C508.177 522.996 511.314 527.881 514.005 531.924C516.695 535.966 518.965 539.202 520.502 541.41L522.337 543.89L522.821 544.534C522.933 544.683 522.995 544.758 523.007 544.745C522.967 544.66 522.921 544.577 522.871 544.497L522.437 543.815C522.003 543.183 521.432 542.315 520.701 541.224C519.163 538.979 516.981 535.706 514.364 531.638C511.748 527.571 508.66 522.661 505.362 517.168C502.063 511.674 498.579 505.536 495.057 499.026C488.027 486.081 482.36 473.929 478.404 465.001C476.445 460.562 474.895 456.953 473.853 454.448L472.613 451.572L472.279 450.828C472.247 450.762 472.21 450.7 472.167 450.642Z" fill="#263238"/>
<path d="M479.359 530.212H547.758V543.393H540.727L534.812 580.99H492.528L486.44 543.393H479.359V530.212Z" fill="#2EA8DB"/>
<path d="M479.359 543.12C479.359 542.947 494.562 542.798 513.311 542.798C532.059 542.798 547.262 542.947 547.262 543.12C547.262 543.294 532.072 543.43 513.311 543.43C494.549 543.43 479.359 543.294 479.359 543.12Z" fill="#263238"/>
<path d="M87.5566 581.015H76.4586L72.3418 531.03H85.4114L87.5566 581.015Z" fill="#263238"/>
<path d="M183.78 581.015H194.878L198.995 531.03H185.925L183.78 581.015Z" fill="#263238"/>
<path d="M206.621 537.366L63.7233 540.714L59.3833 448.421C59.2809 446.28 59.6143 444.14 60.3633 442.132C61.1124 440.123 62.2614 438.288 63.7408 436.737C65.2202 435.185 66.9992 433.951 68.9699 433.107C70.9406 432.264 73.0621 431.829 75.2057 431.83H196.961C199.134 431.83 201.284 432.277 203.277 433.143C205.27 434.009 207.064 435.276 208.547 436.864C210.029 438.453 211.17 440.329 211.896 442.377C212.623 444.425 212.921 446.601 212.771 448.768L206.621 537.366Z" fill="#2EA8DB"/>
<path d="M213.95 448.112H213.553H212.375L207.874 448.186H191.307C177.32 448.186 158.001 448.062 136.673 448.558C115.333 449.265 95.9886 449.141 82.0138 448.93C75.0202 448.818 69.3534 448.682 65.4474 448.558L60.9462 448.409H59.7806C59.6489 448.426 59.5155 448.426 59.3838 448.409H59.7806H60.9462H65.4474L82.0138 448.57C96.001 448.67 115.32 448.719 136.661 448C158.001 447.516 177.32 447.74 191.307 447.839L207.874 447.975L212.375 448.037H213.553L213.95 448.112Z" fill="#263238"/>
<path d="M111.501 433.269C108.289 433.739 105.164 434.679 102.226 436.059C99.3808 437.624 96.7854 439.605 94.5254 441.937C94.9805 441.072 95.5802 440.292 96.2986 439.63C99.5947 436.239 103.919 434.034 108.599 433.356C109.554 433.156 110.536 433.127 111.501 433.269Z" fill="#263238"/>
<path d="M170.276 265.46L187.735 297.365L213.279 283.056L225.679 287.16C225.679 287.16 194.382 321.161 189.285 322.934C184.189 324.707 174.542 324.992 169.036 318.086C164.076 311.799 149.395 278.815 149.395 278.815L170.276 265.46Z" fill="#FFBE9D"/>
<path d="M242.184 244.627C241.96 244.352 241.669 244.139 241.339 244.009C241.009 243.879 240.651 243.835 240.299 243.883L228.16 245.52C227.632 245.599 227.128 245.79 226.68 246.081C226.233 246.372 225.854 246.756 225.568 247.206L200.26 286.08L202.194 287.159L215.661 286.738L242.569 245.111L242.184 244.627Z" fill="#263238"/>
<path d="M233.566 249.674C233.663 249.828 233.806 249.947 233.975 250.016C234.143 250.084 234.329 250.097 234.506 250.054C234.683 250.011 234.842 249.913 234.96 249.775C235.078 249.636 235.15 249.464 235.165 249.283C235.18 249.101 235.138 248.92 235.044 248.764C234.95 248.608 234.81 248.485 234.643 248.413C234.476 248.341 234.29 248.324 234.112 248.363C233.935 248.403 233.774 248.497 233.653 248.632C233.51 248.763 233.421 248.943 233.405 249.136C233.389 249.329 233.446 249.521 233.566 249.674Z" fill="white"/>
<path d="M242.568 245.111C241.797 245.327 241.009 245.481 240.212 245.57L233.764 246.575L229.313 247.219C228.935 247.253 228.57 247.371 228.244 247.564C227.918 247.757 227.639 248.021 227.428 248.335L225.99 250.567C223.993 253.63 221.823 256.991 219.542 260.487C214.941 267.531 210.75 273.892 207.675 278.48L204.017 283.961C203.591 284.641 203.115 285.287 202.591 285.895C202.94 285.164 203.355 284.467 203.831 283.812L207.303 278.281C210.266 273.619 214.383 267.221 218.984 260.177C221.29 256.668 223.485 253.32 225.481 250.257C225.99 249.501 226.486 248.757 226.957 248.025C227.221 247.645 227.566 247.329 227.967 247.097C228.368 246.866 228.814 246.725 229.276 246.686L233.752 246.116L240.237 245.347C241.007 245.207 241.786 245.128 242.568 245.111Z" fill="#455A64"/>
<path d="M229.065 258.987C229.065 258.987 227.987 258.801 227.391 261.764C226.796 264.728 224.911 273.234 224.911 273.234L219.232 270.221L212.115 271.151C212.115 271.151 210.565 272.577 211.705 273.358C212.846 274.14 217.335 274.933 217.335 274.933L220.646 279.707L211.135 275.119C211.135 275.119 207.961 275.95 208.891 277.884C209.821 279.819 216.231 285.882 216.231 285.882L211.47 285.523L205.84 282.076C205.84 282.076 204.104 282.162 204.749 283.638C205.394 285.114 211.296 290.47 211.296 290.47L218.439 293.942C218.439 293.942 222.345 293.632 222.717 292.479C222.969 291.572 223.127 290.641 223.188 289.702C223.188 289.702 225.259 289.144 225.668 288.139C225.896 287.295 225.942 286.411 225.804 285.548C225.804 285.548 229.053 286.118 229.462 284.308C229.746 282.051 229.654 279.763 229.189 277.537C228.867 276.136 230.578 263.178 230.429 262.794C230.281 262.409 231.111 258.131 229.065 258.987Z" fill="#FFBE9D"/>
<path d="M222.902 292.504C222.338 292.843 221.699 293.038 221.042 293.075C217.874 293.535 214.649 292.767 212.028 290.93C211.048 290.223 210.564 289.69 210.626 289.578C210.688 289.466 213.02 291.351 216.492 292.157C219.964 292.963 222.865 292.281 222.902 292.504Z" fill="#EB996E"/>
<path d="M221.216 289.938C221.104 290.099 219.827 289.442 218.475 288.326C217.124 287.21 216.231 286.106 216.367 285.97C216.504 285.833 217.607 286.676 218.946 287.768C220.286 288.859 221.327 289.764 221.216 289.938Z" fill="#EB996E"/>
<path d="M224.973 283.775C224.862 283.936 223.597 283.291 222.332 282.113C221.067 280.935 220.323 279.745 220.472 279.633C220.621 279.521 221.613 280.464 222.828 281.592C224.043 282.721 225.085 283.601 224.973 283.775Z" fill="#EB996E"/>
<path d="M228.928 278.802C228.73 278.889 228.011 277.562 226.882 276.086C225.754 274.611 224.65 273.606 224.774 273.408C224.898 273.209 226.262 274.077 227.453 275.64C228.268 276.51 228.785 277.618 228.928 278.802Z" fill="#EB996E"/>
<path d="M233.752 508.773C233.847 508.386 233.847 507.982 233.752 507.595C233.551 506.523 233.129 505.505 232.512 504.606C232.311 504.295 232.074 504.008 231.806 503.751C231.63 503.585 231.413 503.47 231.177 503.417C230.941 503.365 230.696 503.377 230.466 503.453C230.331 503.5 230.209 503.577 230.108 503.678C230.007 503.778 229.93 503.901 229.884 504.036C229.797 504.293 229.797 504.572 229.884 504.83C230.053 505.261 230.26 505.676 230.504 506.07C230.962 506.851 231.347 507.62 231.942 508.55C232.115 508.799 232.354 508.997 232.631 509.122C232.909 509.246 233.215 509.293 233.517 509.256C234.071 509.157 234.594 508.928 235.042 508.587C235.863 507.985 236.612 507.29 237.274 506.516C237.593 506.149 237.891 505.764 238.167 505.363C238.468 504.971 238.691 504.525 238.824 504.048C238.898 503.768 238.872 503.471 238.749 503.208C238.627 502.945 238.416 502.734 238.154 502.61C237.909 502.538 237.649 502.529 237.399 502.586C237.15 502.642 236.919 502.762 236.728 502.932C236.161 503.428 235.661 503.995 235.24 504.619C234.616 505.495 234.12 506.455 233.765 507.471C233.601 507.829 233.517 508.218 233.517 508.612C234.104 507.307 234.814 506.062 235.637 504.892C236.057 504.334 236.54 503.827 237.076 503.379C237.361 503.18 237.708 503.044 237.919 503.156C238.041 503.228 238.135 503.34 238.185 503.473C238.234 503.606 238.237 503.752 238.192 503.887C238.063 504.275 237.866 504.636 237.609 504.954C237.348 505.326 237.063 505.685 236.766 506.045C236.124 506.766 235.409 507.418 234.633 507.992C234.27 508.271 233.844 508.459 233.393 508.537C233.208 508.56 233.02 508.53 232.851 508.451C232.682 508.372 232.539 508.247 232.438 508.091C231.954 507.384 231.483 506.504 231.024 505.772C230.814 505.388 230.553 505.016 230.429 504.706C230.305 504.396 230.429 504.148 230.615 504.048C231.148 503.838 231.682 504.445 232.041 504.954C232.847 506.107 233.428 507.403 233.752 508.773Z" fill="#263238"/>
<path d="M203.286 509.814L188.158 542.612L163.742 531.328L179.391 490.743L203.286 509.814Z" fill="#FFBE9D"/>
<path d="M190.96 540.417L182.119 557.281C182.119 557.281 204.749 580.68 202.629 585.912L149.433 560.406L164.04 526.591L190.96 540.417Z" fill="#455A64"/>
<path d="M166.829 547.088C166.245 547.014 165.653 547.151 165.16 547.473C164.667 547.796 164.305 548.284 164.138 548.849C164.026 549.432 164.143 550.035 164.464 550.534C164.785 551.032 165.285 551.388 165.862 551.527C166.483 551.621 167.117 551.482 167.641 551.136C168.165 550.79 168.543 550.263 168.702 549.655C168.754 549.034 168.564 548.417 168.171 547.934C167.778 547.45 167.212 547.138 166.594 547.063" fill="#E0E0E0"/>
<g opacity="0.6">
<path d="M149.481 560.406L151.689 556.165L201.871 582.205C201.871 582.205 203.744 584.363 202.677 585.925L149.481 560.406Z" fill="white"/>
</g>
<path d="M183.16 557.418C183.036 557.678 181.672 557.17 179.998 557.418C178.324 557.666 177.109 558.41 176.923 558.187C176.737 557.963 177.84 556.661 179.874 556.426C181.907 556.19 183.333 557.207 183.16 557.418Z" fill="#263238"/>
<path d="M187.637 562.402C187.637 562.688 186.236 562.588 184.834 563.258C183.433 563.928 182.615 564.982 182.354 564.845C182.094 564.709 182.64 563.159 184.413 562.365C186.186 561.572 187.748 562.154 187.637 562.402Z" fill="#263238"/>
<path d="M187.599 570.599C187.339 570.599 187.599 569.073 188.951 567.97C190.302 566.866 191.79 566.879 191.79 567.151C191.79 567.424 190.687 567.821 189.583 568.739C188.479 569.656 187.872 570.698 187.599 570.599Z" fill="#263238"/>
<path d="M185.702 550.933C185.479 551.119 184.462 550.189 182.949 549.581C181.437 548.973 180.06 548.887 180.035 548.601C180.011 548.316 181.548 547.919 183.321 548.601C185.095 549.283 185.925 550.784 185.702 550.933Z" fill="#263238"/>
<path d="M195.994 536.04L235.885 436.232C235.885 436.232 234.98 419.194 231.842 413.825C228.705 408.456 133.696 377.072 133.696 377.072C133.696 377.072 109.504 371.244 93.3593 377.072C77.2145 382.9 65.1245 403.112 67.3193 414.272C69.5141 425.432 79.0125 433.702 79.0125 433.702L148.886 435.786L186.967 449.674L161.324 523.168L195.994 536.04Z" fill="#263238"/>
<path d="M231.471 467.84L232.376 503.936L205.48 504.606L201.611 461.28L231.471 467.84Z" fill="#FFBE9D"/>
<path d="M233.976 500.712L233.48 519.746C233.48 519.746 264.108 530.745 264.48 536.387L205.493 536.982L203.67 500.191L233.976 500.712Z" fill="#455A64"/>
<path d="M215.215 517.378C214.649 517.556 214.169 517.936 213.867 518.447C213.565 518.957 213.462 519.561 213.578 520.143C213.735 520.714 214.106 521.204 214.613 521.511C215.121 521.817 215.726 521.918 216.306 521.792C216.904 521.6 217.409 521.193 217.725 520.651C218.041 520.108 218.145 519.468 218.017 518.853C217.794 518.272 217.353 517.801 216.788 517.539C216.223 517.277 215.579 517.246 214.991 517.452" fill="#E0E0E0"/>
<g opacity="0.6">
<path d="M205.53 536.983L205.642 532.196L262.161 533.436C262.161 533.436 264.79 534.552 264.517 536.412L205.53 536.983Z" fill="white"/>
</g>
<path d="M234.435 519.436C234.435 519.721 232.984 519.87 231.583 520.812C230.181 521.755 229.425 522.97 229.165 522.858C228.904 522.747 229.313 521.073 231.037 519.969C232.761 518.866 234.497 519.176 234.435 519.436Z" fill="#263238"/>
<path d="M240.647 521.929C240.721 522.214 239.469 522.71 238.501 523.937C237.534 525.165 237.261 526.417 236.989 526.417C236.716 526.417 236.493 524.781 237.733 523.268C238.973 521.755 240.634 521.656 240.647 521.929Z" fill="#263238"/>
<path d="M244.28 529.307C244.02 529.369 243.611 527.93 244.28 526.343C244.95 524.756 246.351 524.124 246.475 524.359C246.599 524.595 245.768 525.45 245.235 526.752C244.702 528.054 244.516 529.27 244.28 529.307Z" fill="#263238"/>
<path d="M233.839 512.492C233.728 512.753 232.401 512.368 230.777 512.492C229.152 512.616 227.887 513.15 227.726 512.902C227.565 512.654 228.78 511.662 230.702 511.5C232.624 511.339 233.988 512.257 233.839 512.492Z" fill="#263238"/>
<path d="M215.76 367.598C215.76 367.598 231.88 366.358 233.666 383.793C235.451 401.227 237.212 482.844 237.212 482.844L199.64 485.981L193.812 402.616L133.759 377.072C133.759 377.072 205.009 365.366 215.76 367.598Z" fill="#263238"/>
<path d="M149.37 344.014C149.37 344.014 159.141 371.43 157.281 374.48C155.421 377.531 130.286 390.104 130.286 390.104L67.3686 414.272C67.3686 414.272 60.9082 403.992 60.9082 388.232C60.9082 372.472 82.7942 344.038 82.7942 344.038L149.37 344.014Z" fill="#263238"/>
<path d="M130.721 375.721C130.814 375.785 130.914 375.839 131.018 375.882L131.911 376.291L135.396 377.841L148.478 383.545L193.626 402.976L193.415 402.691C193.986 410.924 194.655 419.815 195.238 429.016C196.776 450.53 198.189 470.358 199.305 486.056V486.341H199.59L227.019 483.935L234.571 483.229L236.542 483.03L237.212 482.931C236.985 482.912 236.757 482.912 236.53 482.931L234.558 483.055L226.994 483.613L199.541 485.771L199.851 486.031C198.772 470.345 197.371 450.505 195.932 428.991C195.287 419.79 194.692 410.9 194.072 402.666V402.468L193.886 402.381L148.639 383.161L135.482 377.655L131.961 376.204L131.043 375.845C130.939 375.795 130.831 375.754 130.721 375.721Z" fill="#455A64"/>
<path d="M80.6865 378.411C81.2926 378.317 81.887 378.159 82.4597 377.94L87.1965 376.403C92.3663 374.656 97.6649 373.317 103.044 372.397C108.425 371.519 113.919 371.591 119.275 372.608C123.367 373.464 125.723 374.629 125.773 374.493C125.265 374.148 124.715 373.869 124.136 373.662C122.6 373.016 121.011 372.501 119.387 372.125C113.974 370.945 108.386 370.802 102.92 371.703C97.4976 372.619 92.1719 374.034 87.0105 375.931C85.0265 376.638 83.4393 377.246 82.3357 377.68C81.7668 377.878 81.2152 378.123 80.6865 378.411Z" fill="#455A64"/>
<path d="M89.5771 363.965C91.4106 363.853 93.2493 363.853 95.0828 363.965C96.7816 364.077 98.8028 364.337 101.035 364.598C103.267 364.858 105.734 365.168 108.289 365.652C112.659 366.347 116.849 367.902 120.614 370.227C122.117 371.273 123.546 372.421 124.892 373.662C124.646 373.227 124.336 372.83 123.975 372.484C123.045 371.483 122.01 370.585 120.887 369.806C117.123 367.318 112.869 365.664 108.413 364.957C105.834 364.474 103.354 364.188 101.109 363.953C98.8648 363.717 96.8311 363.519 95.1075 363.469C93.7493 363.409 92.3885 363.467 91.0403 363.643C90.5397 363.68 90.0469 363.788 89.5771 363.965Z" fill="#455A64"/>
<path d="M117.366 143.692C110.137 142.452 103.726 145.242 97.6621 149.321C91.4563 153.683 86.7269 159.833 84.104 166.951C81.4811 174.068 81.0892 181.816 82.9805 189.162C84.0277 192.896 85.8201 196.378 88.2496 199.4C90.6791 202.422 93.6953 204.921 97.1165 206.746C106.528 211.52 118.569 209.858 127.001 203.484C135.433 197.111 140.231 186.583 140.641 176.031C141.031 168.712 139.114 161.456 135.16 155.286C133.155 152.237 130.544 149.634 127.489 147.639C124.434 145.645 121 144.301 117.403 143.692" fill="#263238"/>
<path d="M96.7821 168.305C97.8485 165.528 97.4269 162.44 97.8485 159.501C98.7785 153.041 104.048 147.858 110 145.34C115.605 142.997 122.4 143.505 129.196 145.688C133.883 147.108 138.068 149.835 141.261 153.549C143.293 156.069 144.691 159.039 145.338 162.211C145.985 165.382 145.863 168.663 144.981 171.777L111.922 166.966C108.822 169.52 105.648 172.137 101.891 173.563C100.808 174.038 99.6205 174.226 98.4437 174.108C97.8574 174.039 97.3037 173.802 96.8485 173.426C96.3934 173.05 96.0561 172.551 95.8769 171.988C95.5793 170.736 96.3233 169.508 96.7821 168.305Z" fill="#263238"/>
<path d="M129.903 154.814L101.035 160.94C99.6975 161.028 98.4406 161.612 97.5099 162.578C96.5791 163.543 96.0412 164.82 96.001 166.16L96.3482 228.644C96.3774 232.91 97.8063 237.048 100.415 240.424L103.168 243.97C109.455 252.067 122.165 251.249 126.964 242.197C127.257 241.683 127.482 241.133 127.633 240.56C127.72 240.002 127.869 239.63 127.894 239.159L128.452 233.058C128.725 227.503 128.774 221.898 128.774 221.898C128.774 221.898 140.591 220.41 143.654 205.183C145.155 197.619 145.254 185.107 145.006 174.877C144.745 165.714 139.103 154.207 129.903 154.814Z" fill="#FFBE9D"/>
<path d="M140.578 186.657C140.562 187.168 140.347 187.653 139.979 188.007C139.61 188.362 139.118 188.558 138.607 188.555C138.356 188.566 138.105 188.527 137.869 188.44C137.634 188.353 137.418 188.219 137.235 188.046C137.052 187.874 136.906 187.667 136.805 187.436C136.704 187.206 136.651 186.958 136.647 186.707C136.667 186.196 136.882 185.712 137.25 185.356C137.617 185 138.108 184.8 138.619 184.797C138.871 184.787 139.122 184.828 139.357 184.917C139.593 185.005 139.809 185.14 139.991 185.314C140.174 185.487 140.32 185.695 140.421 185.926C140.522 186.157 140.575 186.406 140.578 186.657Z" fill="#263238"/>
<path d="M142.017 181.313C141.756 181.561 140.318 180.408 138.197 180.334C136.077 180.259 134.477 181.251 134.279 180.979C134.081 180.706 134.428 180.408 135.122 179.949C136.062 179.345 137.168 179.051 138.284 179.106C139.381 179.144 140.436 179.53 141.297 180.21C141.93 180.743 142.141 181.214 142.017 181.313Z" fill="#263238"/>
<path d="M121.631 186.174C121.618 186.687 121.404 187.175 121.036 187.532C120.667 187.889 120.173 188.087 119.66 188.084C119.41 188.094 119.16 188.054 118.926 187.966C118.692 187.877 118.478 187.743 118.296 187.571C118.115 187.399 117.97 187.192 117.869 186.963C117.769 186.733 117.716 186.486 117.713 186.236C117.726 185.725 117.938 185.24 118.304 184.883C118.67 184.526 119.161 184.327 119.672 184.327C119.923 184.317 120.173 184.357 120.408 184.445C120.643 184.533 120.857 184.667 121.04 184.839C121.222 185.011 121.369 185.218 121.47 185.447C121.572 185.676 121.627 185.924 121.631 186.174Z" fill="#263238"/>
<path d="M121.941 180.804C121.681 181.052 120.243 179.887 118.122 179.812C116.002 179.738 114.402 180.73 114.204 180.469C114.005 180.209 114.353 179.899 115.059 179.428C115.999 178.833 117.098 178.539 118.209 178.585C119.31 178.629 120.369 179.019 121.235 179.701C121.855 180.222 122.065 180.693 121.941 180.804Z" fill="#263238"/>
<path d="M128.278 196.876C129.409 196.584 130.569 196.422 131.737 196.392C132.283 196.392 132.791 196.268 132.903 195.908C132.967 195.353 132.863 194.792 132.605 194.296C132.146 192.97 131.663 191.581 131.167 190.118C129.17 184.178 127.757 179.305 127.992 179.23C128.228 179.156 130.051 183.905 132.035 189.845C132.506 191.308 132.965 192.697 133.399 194.036C133.717 194.7 133.788 195.457 133.597 196.169C133.51 196.355 133.382 196.519 133.223 196.65C133.065 196.781 132.879 196.875 132.68 196.925C132.378 196.988 132.07 197.017 131.762 197.012C130.6 197.121 129.428 197.075 128.278 196.876Z" fill="#263238"/>
<path d="M128.773 221.96C121.557 221.795 114.529 219.627 108.475 215.698C108.475 215.698 113.211 226.499 128.6 225.618L128.773 221.96Z" fill="#EB996E"/>
<path d="M127.187 201.934C126.804 201.413 126.294 200.998 125.706 200.729C125.118 200.46 124.471 200.345 123.826 200.397C123.35 200.422 122.884 200.545 122.457 200.758C122.03 200.972 121.652 201.271 121.346 201.637C121.056 201.974 120.874 202.392 120.826 202.834C120.777 203.277 120.863 203.724 121.073 204.117C121.399 204.507 121.833 204.793 122.321 204.936C122.809 205.08 123.329 205.075 123.814 204.923C124.828 204.611 125.769 204.096 126.579 203.41C126.827 203.255 127.042 203.053 127.211 202.815C127.289 202.697 127.331 202.559 127.331 202.418C127.331 202.277 127.289 202.139 127.211 202.021" fill="#EB996E"/>
<path d="M122.004 198.102C122.351 198.102 122.264 200.384 124.161 202.095C126.058 203.806 128.514 203.645 128.526 203.968C128.526 204.104 127.956 204.389 126.926 204.377C125.58 204.342 124.289 203.832 123.281 202.938C122.323 202.094 121.728 200.912 121.619 199.64C121.52 198.636 121.842 198.078 122.004 198.102Z" fill="#263238"/>
<path d="M121.817 174.53C121.594 175.101 119.486 174.741 116.993 174.94C114.501 175.138 112.48 175.746 112.17 175.212C112.033 174.964 112.393 174.431 113.224 173.91C114.325 173.259 115.567 172.88 116.845 172.807C118.113 172.699 119.39 172.899 120.565 173.39C121.519 173.786 121.916 174.258 121.817 174.53Z" fill="#263238"/>
<path d="M141.756 172.05C141.372 172.522 139.934 171.964 138.185 171.864C136.437 171.765 134.936 172.063 134.614 171.554C134.465 171.306 134.726 170.835 135.383 170.401C136.273 169.876 137.304 169.642 138.334 169.732C139.36 169.787 140.344 170.16 141.149 170.798C141.744 171.319 141.93 171.827 141.756 172.05Z" fill="#263238"/>
<path d="M91.4874 163.842C94.4882 155.05 107.607 143.072 116.808 143.902L131.44 153.066C130.908 155.582 129.705 157.908 127.958 159.796C126.212 161.684 123.987 163.065 121.52 163.792C118.879 164.536 115.729 164.697 114.08 166.917C112.431 169.136 113.311 172.546 111.786 174.878C109.666 178.126 104.073 177.854 102.461 181.375C101.767 182.913 102.077 184.773 101.345 186.335C100.378 188.369 95.1454 190.861 93.0002 190.142C90.855 189.423 90.9294 185.765 90.2722 183.83C89.4264 181.654 89.365 179.252 90.0986 177.035C91.165 172.683 90.0614 168.033 91.4874 163.842Z" fill="#263238"/>
<path d="M99.3486 192.039C99.3486 190.898 98.1085 188.158 97.0545 187.934C94.0661 187.352 88.6349 187.389 88.2877 195.027C87.8165 205.468 98.3937 203.782 98.4309 203.484C98.4681 203.186 99.1998 195.982 99.3486 192.039Z" fill="#FFBE9D"/>
<path d="M95.48 199.393C95.48 199.393 95.294 199.504 94.9716 199.628C94.538 199.803 94.0537 199.803 93.62 199.628C92.5288 199.169 91.6856 197.371 91.7104 195.499C91.7307 194.599 91.9465 193.715 92.3428 192.907C92.4575 192.586 92.6482 192.298 92.8987 192.067C93.1492 191.836 93.4521 191.669 93.7812 191.581C93.9914 191.533 94.2117 191.561 94.4027 191.661C94.5936 191.761 94.7426 191.926 94.8228 192.126C94.9468 192.424 94.8228 192.635 94.9344 192.647C95.046 192.659 95.1576 192.486 95.0956 192.052C95.0566 191.791 94.9245 191.553 94.7236 191.382C94.586 191.264 94.4263 191.175 94.2538 191.12C94.0814 191.065 93.8997 191.044 93.7192 191.06C93.2872 191.128 92.8795 191.305 92.5346 191.574C92.1897 191.843 91.9189 192.195 91.7476 192.597C91.2658 193.481 91.0062 194.468 90.9912 195.474C90.9912 197.582 91.946 199.603 93.4712 200.112C93.7476 200.205 94.041 200.235 94.3305 200.201C94.6199 200.166 94.8982 200.068 95.1452 199.913C95.3808 199.641 95.48 199.405 95.48 199.393Z" fill="#EB996E"/>
<path d="M89.2798 161.201C89.2798 157.927 85.2374 155.794 82.0506 155.001C78.7992 154.442 75.4556 155.081 72.639 156.799C70.965 157.716 69.2786 159.031 68.919 160.903C68.5594 162.775 70.345 165.007 72.1306 164.338C71.258 164.623 70.4596 165.099 69.7932 165.731C69.1269 166.362 68.6091 167.134 68.2773 167.99C67.9455 168.846 67.8081 169.766 67.8748 170.681C67.9416 171.597 68.2109 172.487 68.6633 173.285C69.1157 174.084 69.7399 174.773 70.4908 175.301C71.2418 175.83 72.1007 176.185 73.0055 176.341C73.9103 176.496 74.8385 176.449 75.723 176.203C76.6074 175.956 77.4261 175.517 78.1198 174.915C77.214 177.943 75.297 180.57 72.6886 182.355C75.3868 182.742 78.1393 182.412 80.669 181.397C83.1987 180.382 85.4163 178.718 87.0984 176.573C88.7805 174.428 89.8678 171.878 90.2508 169.179C90.6338 166.481 90.2989 163.729 89.2798 161.201Z" fill="#263238"/>
<path d="M82.0136 177.742C81.7033 176.726 81.5691 175.665 81.6168 174.605C81.5752 169.446 83.2698 164.424 86.428 160.345C87.0243 159.468 87.7717 158.703 88.6353 158.088C86.4545 160.872 84.7147 163.976 83.4768 167.289C81.5548 172.869 82.2492 177.754 82.0136 177.742Z" fill="#2EA8DB"/>
<path d="M128.39 149.917C129.344 154.17 135.83 159.613 138.644 162.924C144.051 169.236 145.117 171.331 145.068 185.455C147.622 180.582 149.581 175.795 149.383 170.302C149.262 164.738 147.11 159.41 143.332 155.323C141.441 153.329 139.112 151.803 136.53 150.864C133.947 149.926 131.181 149.601 128.452 149.917" fill="#263238"/>
<path d="M172.67 266.079C172.67 266.079 161.411 247.318 158.286 243.524C155.777 240.591 152.624 238.278 149.073 236.766C147.67 236.16 146.201 235.723 144.695 235.464L128.501 231.88C128.501 231.88 128.501 242.929 116.907 243.611C105.313 244.293 95.5914 228.16 95.5914 228.16C95.5914 228.16 76.8798 231.062 72.4158 233.368C67.9518 235.675 60.9086 238.589 57.0398 257.92L54.3242 276.867L86.5642 279.843L89.6518 327.757L105.635 338.917C105.635 338.917 149.965 350.437 152.755 351.193C155.545 351.949 156.475 279.868 156.475 279.868C156.475 279.868 167.958 272.54 172.67 266.079Z" fill="#263238"/>
<path d="M151.441 258.02C151.703 258.458 151.915 258.924 152.074 259.408C152.433 260.314 152.905 261.64 153.425 263.302C156.136 272.008 157.253 281.132 156.724 290.235C156.625 291.971 156.488 293.372 156.339 294.339C156.307 294.843 156.219 295.342 156.079 295.827C156.02 295.325 156.02 294.817 156.079 294.314C156.141 293.347 156.215 291.946 156.253 290.21C156.373 285.696 156.166 281.178 155.633 276.694C155.073 272.216 154.187 267.786 152.979 263.438C152.52 261.764 152.111 260.413 151.813 259.495C151.638 259.018 151.513 258.523 151.441 258.02Z" fill="#455A64"/>
<path d="M150.04 336.499L89.2796 323.28L86.4772 279.88L59.4824 277.4C59.4824 277.4 60.4868 307.061 61.516 315.84C63.0164 328.526 70.506 345.836 74.8956 349.32C79.2852 352.805 152.706 351.218 152.706 351.218L150.04 336.499Z" fill="#FFBE9D"/>
<path d="M184.524 344.361C184.322 344.78 183.999 345.129 183.597 345.363C183.195 345.598 182.731 345.706 182.267 345.675C182.069 345.661 181.873 345.624 181.684 345.563C180.333 345.129 180.444 342.389 180.444 342.389L174.021 341.347C174.021 341.347 165.651 346.741 162.675 350.313C159.699 353.884 152.11 350.995 152.11 350.995L149.481 337.28L161.323 326.579C161.323 326.579 160.604 327.211 161.423 325.215C162.241 323.219 165.949 323.975 165.949 323.975C166.531 322.983 168.962 322.636 168.962 322.636L179.353 323.876C180.409 323.998 181.424 324.356 182.323 324.922C183.222 325.489 183.983 326.25 184.549 327.149L188.951 334.106C188.951 334.106 191.269 339.066 190.897 340.306C190.732 340.804 190.384 341.221 189.925 341.474C189.465 341.726 188.927 341.797 188.417 341.67C188.417 341.67 187.909 344.968 187.041 345.08C186.154 345.034 185.284 344.823 184.474 344.46L184.524 344.361Z" fill="#FFBE9D"/>
<path d="M162.439 334.515C162.439 334.626 163.828 334.515 166.048 334.589C168.93 334.728 171.78 335.262 174.517 336.176C176.024 336.683 177.488 337.309 178.894 338.049C180.134 338.756 181.449 339.289 181.858 340.244C181.95 340.442 181.989 340.661 181.969 340.879C181.949 341.096 181.873 341.305 181.746 341.484C181.558 341.776 181.286 342.006 180.965 342.141C180.67 342.244 180.359 342.29 180.047 342.277C180.047 342.277 180.37 342.562 181.039 342.389C181.444 342.279 181.798 342.034 182.044 341.694C182.222 341.468 182.339 341.2 182.383 340.915C182.426 340.63 182.395 340.339 182.292 340.07C182.028 339.473 181.597 338.965 181.052 338.607C180.481 338.247 179.886 337.863 179.229 337.503C177.805 336.722 176.315 336.066 174.777 335.544C171.981 334.599 169.049 334.117 166.097 334.118C164.865 334.057 163.63 334.191 162.439 334.515Z" fill="#EB996E"/>
<path d="M161.696 341.137C161.696 341.336 165.937 341.137 171.133 341.46C176.328 341.782 180.495 342.402 180.532 342.204C179.665 341.863 178.755 341.641 177.829 341.546C175.625 341.172 173.402 340.924 171.17 340.802C168.935 340.678 166.696 340.678 164.462 340.802C163.529 340.786 162.598 340.899 161.696 341.137Z" fill="#EB996E"/>
<path d="M184.462 344.1C184.554 343.74 184.599 343.369 184.598 342.997C184.662 341.981 184.662 340.962 184.598 339.946C184.563 339.237 184.468 338.532 184.313 337.838C184.126 337.026 183.781 336.259 183.297 335.581C182.273 334.012 180.95 332.659 179.403 331.601C177.876 330.543 176.206 329.708 174.443 329.121C172.981 328.708 171.473 328.479 169.954 328.439C168.714 328.439 167.648 328.439 166.928 328.439C166.553 328.414 166.176 328.452 165.812 328.551C167.177 328.746 168.551 328.862 169.929 328.898C171.401 328.996 172.858 329.263 174.269 329.691C175.961 330.309 177.565 331.143 179.043 332.171C180.506 333.197 181.767 334.483 182.763 335.966C183.579 337.172 184.047 338.579 184.115 340.033C184.388 342.501 184.326 344.1 184.462 344.1Z" fill="#EB996E"/>
<path d="M169.471 325.253C169.471 325.352 171.021 325.401 173.501 325.687C175.981 325.972 179.701 326.22 181.896 329.518C184.007 331.979 185.768 334.721 187.128 337.665C187.578 338.929 187.911 340.233 188.12 341.559C188.193 341.194 188.193 340.819 188.12 340.455C188.057 339.448 187.852 338.454 187.513 337.504C186.256 334.444 184.509 331.608 182.342 329.109C181.763 328.343 181.088 327.656 180.333 327.063C179.589 326.525 178.746 326.137 177.853 325.922C176.414 325.536 174.939 325.299 173.451 325.215C172.128 325.07 170.791 325.083 169.471 325.253Z" fill="#EB996E"/>
<path d="M164.92 348.105C165.14 347.966 165.347 347.809 165.54 347.634L167.276 346.233C169.46 344.535 171.742 342.966 174.109 341.533H173.96L180.383 342.625L180.16 342.352C180.139 342.88 180.181 343.408 180.284 343.927C180.368 344.504 180.623 345.044 181.015 345.477C181.251 345.69 181.544 345.828 181.859 345.873C182.158 345.929 182.465 345.929 182.764 345.873C183.388 345.782 183.957 345.464 184.363 344.981C184.472 344.868 184.568 344.743 184.649 344.609L184.711 344.497L184.339 344.633L184.537 344.708C184.81 344.819 185.083 344.919 185.368 345.005C185.653 345.092 185.938 345.167 186.248 345.229C186.409 345.242 186.571 345.242 186.732 345.229C186.936 345.241 187.141 345.203 187.327 345.117C187.609 344.895 187.824 344.599 187.947 344.261C188.078 343.977 188.186 343.683 188.269 343.381C188.444 342.783 188.58 342.174 188.679 341.558L188.307 341.819C188.742 341.909 189.194 341.881 189.615 341.737C190.036 341.593 190.411 341.339 190.7 341C190.986 340.65 191.144 340.212 191.146 339.76C191.111 339.341 191.037 338.925 190.923 338.52C190.436 336.941 189.844 335.395 189.15 333.895L186.806 330.175L185.318 327.831C184.866 327.011 184.321 326.245 183.694 325.55C183.029 324.881 182.236 324.354 181.363 324C180.511 323.683 179.616 323.499 178.709 323.454L168.925 322.351H168.851C168.262 322.445 167.685 322.599 167.127 322.809C166.532 322.988 166.01 323.353 165.639 323.851L165.999 323.739C165.47 323.495 164.89 323.384 164.308 323.417C163.726 323.449 163.162 323.624 162.663 323.925C161.796 324.557 161.205 325.498 161.014 326.554L161.089 326.418L152.929 333.759L150.735 335.78C150.464 336 150.219 336.25 150.003 336.524C150.294 336.333 150.568 336.117 150.821 335.879L153.115 333.957L161.411 326.79H161.473V326.703C161.65 325.783 162.168 324.964 162.924 324.409C163.35 324.167 163.828 324.031 164.318 324.012C164.807 323.993 165.294 324.09 165.739 324.297L165.962 324.384L166.098 324.186C166.422 323.802 166.854 323.525 167.338 323.392C167.857 323.204 168.392 323.067 168.938 322.983H168.851L178.635 324.136C179.482 324.186 180.318 324.362 181.115 324.657C181.906 324.974 182.624 325.451 183.223 326.058C183.815 326.722 184.33 327.45 184.76 328.228L186.248 330.584C187.054 331.824 187.848 333.064 188.592 334.304C189.282 335.765 189.866 337.273 190.34 338.818C190.45 339.177 190.52 339.547 190.551 339.921C190.558 340.243 190.447 340.556 190.241 340.802C190.03 341.049 189.756 341.234 189.448 341.336C189.14 341.439 188.809 341.456 188.493 341.385H188.158V341.695C188.063 342.284 187.935 342.868 187.773 343.443C187.668 343.954 187.438 344.431 187.104 344.832C187.017 344.845 186.93 344.845 186.843 344.832H186.447C186.186 344.832 185.913 344.708 185.641 344.633L184.847 344.361L184.661 344.286L184.277 344.423V344.497C184.216 344.603 184.146 344.703 184.066 344.795C183.751 345.171 183.311 345.422 182.826 345.501C182.593 345.551 182.352 345.551 182.119 345.501C181.9 345.481 181.693 345.394 181.524 345.253C180.98 344.468 180.733 343.514 180.829 342.563V342.327H180.606L174.158 341.323H174.084H174.022C171.663 342.799 169.405 344.431 167.264 346.208C166.52 346.841 165.962 347.349 165.59 347.696C165.352 347.808 165.128 347.945 164.92 348.105Z" fill="#EB996E"/>
<path d="M263.277 304.47L183.334 305.127C180.73 305.127 178.262 306.367 177.865 308.934L169.185 367.214H127.943C127.336 367.257 126.769 367.529 126.355 367.974C125.94 368.419 125.71 369.005 125.71 369.613C125.71 370.221 125.94 370.807 126.355 371.252C126.769 371.697 127.336 371.969 127.943 372.013H259.482L268.472 310.509C268.585 309.761 268.534 308.998 268.325 308.271C268.115 307.544 267.752 306.872 267.258 306.298C266.765 305.725 266.154 305.265 265.467 304.949C264.78 304.634 264.033 304.47 263.277 304.47Z" fill="#E0E0E0"/>
<path d="M263.276 304.47C263.694 304.453 264.111 304.495 264.516 304.594C265.58 304.846 266.54 305.421 267.264 306.241C267.987 307.06 268.44 308.083 268.559 309.17C268.589 310.273 268.489 311.376 268.261 312.456L267.108 320.578C265.347 332.792 262.818 350.4 259.668 372.05V372.261H259.457L131.849 372.335H128.414C127.79 372.395 127.162 372.274 126.604 371.988C126.177 371.754 125.821 371.41 125.573 370.991C125.325 370.572 125.194 370.094 125.194 369.607C125.194 369.121 125.325 368.643 125.573 368.224C125.821 367.805 126.177 367.461 126.604 367.227C127.164 366.947 127.791 366.831 128.414 366.892H169.136L168.826 367.165C171.963 346.295 174.902 326.827 177.506 309.356C177.592 308.189 178.125 307.101 178.994 306.318C179.861 305.586 180.919 305.117 182.044 304.966C183.115 304.862 184.192 304.825 185.268 304.855H188.405L200.446 304.78L221.836 304.644L252.29 304.483H263.252C263.252 304.483 263.016 304.483 262.545 304.483H260.437L252.29 304.594L221.836 304.929L200.446 305.152L188.405 305.264H185.268C184.221 305.244 183.174 305.282 182.131 305.375C181.101 305.511 180.132 305.942 179.341 306.615C178.955 306.962 178.642 307.382 178.418 307.85C178.195 308.318 178.066 308.825 178.039 309.343C175.435 326.815 172.533 346.283 169.359 367.152V367.425H128.439C127.929 367.361 127.412 367.447 126.951 367.673C126.531 367.914 126.207 368.292 126.033 368.744C125.86 369.195 125.846 369.693 125.996 370.153C126.173 370.619 126.506 371.009 126.938 371.257C127.404 371.482 127.924 371.572 128.439 371.517H131.874L259.482 371.591L259.234 371.802C262.446 350.164 265.05 332.569 266.86 320.355C267.319 317.317 267.728 314.601 268.1 312.257C268.33 311.194 268.443 310.109 268.435 309.021C268.331 307.959 267.902 306.956 267.208 306.146C266.514 305.336 265.587 304.76 264.554 304.495C264.129 304.465 263.702 304.457 263.276 304.47Z" fill="#263238"/>
<path d="M219.914 342.513C222.681 342.513 224.923 340.27 224.923 337.504C224.923 334.737 222.681 332.494 219.914 332.494C217.147 332.494 214.904 334.737 214.904 337.504C214.904 340.27 217.147 342.513 219.914 342.513Z" fill="white"/>
<path d="M172.359 371.467C172.471 371.467 175.013 356.649 178.039 338.334C181.064 320.019 183.433 305.139 183.321 305.127C183.209 305.115 180.655 319.945 177.629 338.26C174.604 356.575 172.26 371.455 172.359 371.467Z" fill="#263238"/>
</svg>
