<svg width="110" height="62" viewBox="0 0 110 62" fill="none" xmlns="http://www.w3.org/2000/svg">
<path d="M30.4534 12.9312C23.9183 9.24107 15.9465 9.26924 9.43945 13.0157H12.369V31.9734C11.5239 34.5931 10.6789 37.1846 9.86199 39.7761C9.77748 40.0297 9.80565 40.3114 9.97466 40.5085C12.538 43.0437 14.4817 46.1141 15.6929 49.5226C16.6789 52.086 17.4394 54.7338 18.2845 57.3817C18.3408 57.6634 18.2845 57.9733 18.1436 58.2268C17.6084 59.0437 17.8338 60.1704 18.6788 60.6775C18.7727 60.7526 18.876 60.8089 18.9887 60.8465C19.0169 60.593 19.045 60.3676 19.045 60.1423C19.1765 53.532 19.2986 46.9217 19.4112 40.3114C19.4676 39.8888 19.2704 39.4945 18.9042 39.2973C18.1718 38.8466 17.8901 37.9452 18.2 37.1283C18.5943 36.1705 19.6929 35.6917 20.6507 36.086C21.6084 36.4804 22.0873 37.579 21.6929 38.5367C21.5521 38.9029 21.2986 39.2128 20.9605 39.4381C20.707 39.579 20.538 39.8325 20.4817 40.1142C20.3314 46.8935 20.2094 53.6728 20.1155 60.4521C20.1155 60.5648 20.1155 60.6775 20.1155 60.8183C21.0169 60.5648 21.5521 59.6634 21.2986 58.762C21.261 58.6305 21.2047 58.4991 21.1295 58.3676C20.9887 58.1423 20.9324 57.8606 20.9324 57.5789C22.1436 52.8183 24.1436 48.3113 26.876 44.255C27.7586 43.1095 28.7257 42.0297 29.7774 41.0156C30.0309 40.8184 30.1436 40.4522 30.0309 40.1423C29.2703 37.5226 28.5098 34.9029 27.7774 32.2832V12.9312H30.4534Z" fill="url(#paint0_linear_4238_14027)"/>
<path d="M37.2956 13.4944H40.028V0.818359H0V13.607H2.64788C10.7323 4.00144 25.0703 2.79018 34.6477 10.9028C35.6055 11.6915 36.4881 12.5554 37.2956 13.4944Z" fill="url(#paint1_linear_4238_14027)"/>
<path fill-rule="evenodd" clip-rule="evenodd" d="M41.0428 40.9027C43.9442 40.7618 46.7611 41.8886 48.7611 43.9731C50.6203 46.02 51.5498 48.8651 51.5498 52.5083V52.959H37.6907C37.8034 53.8885 38.2541 54.7899 38.9302 55.4378C39.6062 56.0575 40.5076 56.3674 41.4372 56.3392C42.0006 56.3674 42.564 56.2266 43.071 55.9449C43.5217 55.7195 43.8879 55.3252 44.0851 54.8744H51.24C50.7893 56.8463 49.5498 58.5646 47.8315 59.635C45.8597 60.8463 43.5499 61.466 41.2119 61.4096C38.395 61.5505 35.6063 60.5364 33.5218 58.5927C31.5781 56.5646 30.5359 53.8322 30.6767 51.0435C30.5922 48.3111 31.6344 45.6632 33.5781 43.7477C35.5781 41.8323 38.2823 40.8182 41.0428 40.9027ZM44.5358 48.8745C44.4231 48.0576 44.0287 47.297 43.409 46.7336C42.7611 46.1984 41.9442 45.9449 41.1274 45.9731C40.3668 45.9449 39.6062 46.2266 39.0429 46.7336C38.4513 47.297 38.0288 48.0576 37.8598 48.8745H44.5358ZM109.381 59.8322C109.55 60.0294 109.747 60.1984 110 60.311V60.8463H102.423L102.197 58.7054C101.521 59.5787 100.62 60.311 99.606 60.7617C98.4229 61.2406 97.1271 61.4378 95.8595 61.4096C94.0285 61.4941 92.2257 60.9308 90.7891 59.8322C89.5497 58.7618 88.8454 57.1843 88.93 55.5505C88.8173 54.0012 89.437 52.4801 90.6201 51.466C92.3384 50.2829 94.3384 49.5505 96.4229 49.3252C96.7985 49.2688 97.3149 49.1843 97.9722 49.0717C100.526 48.6773 101.803 48.0858 101.803 47.297C101.831 46.8463 101.606 46.3956 101.212 46.1421C100.676 45.8322 100.057 45.6914 99.4651 45.7477C99.3337 45.729 99.2022 45.7196 99.0707 45.7196C97.6905 45.7196 96.5919 46.8463 96.6201 48.2266H89.7468C89.6905 46.1139 90.6201 44.0858 92.282 42.7337C93.8595 41.513 96.1975 40.9027 99.2961 40.9027C100.498 40.9027 101.69 40.9966 102.874 41.1844C103.803 41.3534 104.705 41.6351 105.55 42.0576C106.733 42.5646 107.719 43.4379 108.366 44.5365C108.986 45.9167 109.268 47.4379 109.183 48.9308V59.0998C109.183 59.3533 109.24 59.6068 109.381 59.8322ZM101.183 55.7477C101.859 54.9308 102.197 53.8885 102.113 52.8463C102.113 52.6209 102.113 52.4519 102.113 52.3393C102.113 52.2266 102.104 52.1233 102.085 52.0294C101.352 52.5646 100.479 52.9026 99.5778 53.0716C99.4839 53.0904 99.4088 53.1092 99.3524 53.128C98.3947 53.2688 97.4651 53.5787 96.6201 54.0294C96.2257 54.2547 96.0003 54.6773 96.0003 55.128C96.0003 55.6068 96.282 56.0575 96.7046 56.2829C97.2398 56.5928 97.8595 56.7618 98.5074 56.7336C99.4933 56.8181 100.479 56.4519 101.183 55.7477ZM71.6343 51.4942C72.1976 52.5083 72.4512 53.6632 72.3948 54.7899C72.4793 56.7336 71.5779 58.5646 69.9723 59.6632C67.8878 60.9308 65.4653 61.5505 63.0427 61.3815C59.7939 61.3815 57.3526 60.7899 55.7188 59.6068C54.0569 58.3392 53.1273 56.3392 53.2681 54.2547H60.0568C60.0568 54.405 60.0662 54.5646 60.085 54.7336C60.2822 56.0857 61.5216 57.0153 62.8737 56.8463C63.4653 56.8744 64.0568 56.7054 64.5639 56.3956C64.9864 56.1702 65.2117 55.7477 65.2117 55.297C65.2117 54.6209 64.1507 54.0763 62.0287 53.6632C61.6155 53.5693 61.2869 53.5036 61.0428 53.466C58.9864 53.128 57.0146 52.3393 55.3245 51.1562C54.1695 50.1984 53.5498 48.79 53.6062 47.297C53.5217 45.4379 54.3949 43.6351 55.9442 42.5646C57.9442 41.3534 60.254 40.7618 62.592 40.9027C65.5779 40.9027 67.8596 41.4379 69.4371 42.5083C70.9864 43.5787 71.8878 45.3534 71.8314 47.2407H65.3244C65.2963 46.6773 65.0146 46.1703 64.5639 45.8041C64.0287 45.466 63.4089 45.297 62.7611 45.3534C62.254 45.3252 61.7188 45.4379 61.2399 45.6632C60.9301 45.8041 60.7047 46.1139 60.6766 46.4801C60.7047 46.79 60.9019 47.0717 61.1836 47.2125C61.6906 47.466 62.2258 47.635 62.7611 47.7196C63.2681 47.8135 63.9629 47.9449 64.8456 48.1139C66.2822 48.3111 67.6906 48.6773 69.0427 49.2125C70.085 49.7477 70.9864 50.5364 71.6343 51.4942ZM86.5919 32.79C86.7609 32.9027 86.9018 33.0999 86.93 33.3253C86.93 33.4943 86.8455 33.6351 86.7046 33.7478H86.6764L83.6624 34.8464V35.6069H83.6905V41.4661H86.6764V46.1984H83.6905V54.3111C83.6624 54.7054 83.8032 55.0998 84.0567 55.3815C84.4511 55.6632 84.9018 55.7759 85.3525 55.7195C85.5403 55.7195 85.7375 55.7101 85.944 55.6913C86.1506 55.6726 86.3948 55.6538 86.6764 55.635V60.8463C85.5685 61.0528 84.6389 61.2031 83.8877 61.297C83.268 61.3721 82.6389 61.419 82.0004 61.4378C80.4229 61.5786 78.8737 61.0434 77.7187 59.973C76.7047 58.6491 76.2258 56.9871 76.3666 55.3252V46.1984H73.9723V41.4661H76.3666V36.0576L76.2821 35.7759V34.8464L74.93 34.3675C74.93 35.0154 74.9018 35.6914 74.93 36.3393C75.0051 36.7337 75.099 37.1281 75.2117 37.5224C75.2305 37.6539 75.2399 37.7947 75.2399 37.945C75.0333 37.8886 74.8267 37.8229 74.6202 37.7478C74.5638 37.6914 74.5357 37.6069 74.5357 37.5224C74.6202 37.1844 74.7328 36.8464 74.8173 36.5083C74.8361 36.4332 74.8455 36.3581 74.8455 36.283C74.8455 35.6633 74.8455 35.0342 74.8455 34.3957C74.8455 34.3769 74.8361 34.3581 74.8173 34.3393L73.2962 33.8041V32.8464L80.0286 31.1562L86.5638 32.7619L86.5919 32.79ZM86.5356 33.4943C86.6483 33.4098 86.6483 33.3534 86.6483 33.3253C86.6483 33.2126 86.5074 33.0717 86.4229 33.0154L86.2539 32.9872L80.1131 34.959L73.6906 33.0436L73.5779 33.0717V33.6069L79.3525 35.6069H80.6765L86.5356 33.4943Z" fill="url(#paint2_linear_4238_14027)"/>
<defs>
<linearGradient id="paint0_linear_4238_14027" x1="7.84211" y1="38.0011" x2="34.642" y2="38.0011" gradientUnits="userSpaceOnUse">
<stop stop-color="#13B8FF"/>
<stop offset="1" stop-color="#048BC4"/>
</linearGradient>
<linearGradient id="paint1_linear_4238_14027" x1="-3.04267" y1="7.84014" x2="48.0065" y2="7.84014" gradientUnits="userSpaceOnUse">
<stop stop-color="#13B8FF"/>
<stop offset="1" stop-color="#048BC4"/>
</linearGradient>
<linearGradient id="paint2_linear_4238_14027" x1="24.6334" y1="47.7949" x2="125.814" y2="47.7949" gradientUnits="userSpaceOnUse">
<stop stop-color="#13B8FF"/>
<stop offset="1" stop-color="#048BC4"/>
</linearGradient>
</defs>
</svg>
