<svg width="200" height="63" viewBox="0 0 200 63" fill="none" xmlns="http://www.w3.org/2000/svg">
<path d="M175.899 40C175.432 40 175.059 39.761 174.698 39.5299C174.691 39.5256 174.684 39.5211 174.677 39.5165L168.85 35.5324C167.232 36.5926 165.611 37.6582 163.991 38.7226L162.8 39.505C162.457 39.7483 162.139 39.8667 161.828 39.8667C161.512 39.8667 161.221 39.7407 161.008 39.5118C160.719 39.2015 160.599 38.7354 160.639 38.0879V29.4736C160.639 29.2189 160.759 28.9791 160.962 28.8266L181.169 13.6896L156.66 26.6572C156.397 26.797 156.078 26.7786 155.831 26.6095L155.056 26.0775C152.832 24.5523 150.608 23.0269 148.378 21.5012C147.733 21.1087 146.903 20.4862 147.009 19.5848C147.127 18.592 148.324 18.2005 148.743 18.0678L166.351 11.6599L197.801 0.288455C197.828 0.278477 197.861 0.266034 197.897 0.252244C198.245 0.119284 198.585 0 198.926 0C199.315 0 199.646 0.169956 199.837 0.466147C200.172 0.9879 199.902 1.58398 199.813 1.77984C199.8 1.8091 199.785 1.83757 199.769 1.86504L177.359 38.9353C177.186 39.233 176.736 40 175.899 40ZM175.573 38.1752C175.651 38.225 175.751 38.2884 175.831 38.334C175.866 38.2868 175.913 38.2176 175.971 38.1176C175.974 38.1132 175.976 38.109 175.979 38.1046L197.803 2.00394L166.897 13.1784L149.275 19.5914C149.265 19.5952 149.254 19.5989 149.243 19.6024C149.012 19.6754 148.855 19.7416 148.75 19.7946C148.846 19.8773 148.996 19.9894 149.229 20.1301C149.242 20.138 149.254 20.1461 149.267 20.1547C151.503 21.6847 153.733 23.2148 155.963 24.7444L156.339 25.0019L189.522 7.44457C189.894 7.24816 190.354 7.37125 190.578 7.72764C190.802 8.08404 190.715 8.55355 190.379 8.80568L162.248 29.8783V37.9377L163.109 37.3717C164.88 36.2083 166.652 35.0435 168.421 33.8858C168.693 33.7076 169.045 33.7112 169.313 33.8948L175.573 38.1752Z" fill="#FFB053"/>
<path d="M1 61.9999C13 50.6665 56 8.01866 83 35.0187C117 69.0188 159 35.0188 157.5 35.0188" stroke="#FFB053" stroke-width="2" stroke-dasharray="4 4"/>
</svg>
