<svg width="158" height="78" viewBox="0 0 158 78" fill="none" xmlns="http://www.w3.org/2000/svg">
<path d="M30.4534 17.9312C23.9183 14.2411 15.9465 14.2692 9.43945 18.0157H12.369V36.9734C11.5239 39.5931 10.6789 42.1846 9.86199 44.7761C9.77748 45.0297 9.80565 45.3114 9.97466 45.5085C12.538 48.0437 14.4817 51.1141 15.6929 54.5226C16.6789 57.086 17.4394 59.7338 18.2845 62.3817C18.3408 62.6634 18.2845 62.9733 18.1436 63.2268C17.6084 64.0437 17.8338 65.1704 18.6788 65.6775C18.7727 65.7526 18.876 65.8089 18.9887 65.8465C19.0169 65.593 19.045 65.3676 19.045 65.1423C19.1765 58.532 19.2986 51.9217 19.4112 45.3114C19.4676 44.8888 19.2704 44.4945 18.9042 44.2973C18.1718 43.8466 17.8901 42.9452 18.2 42.1283C18.5943 41.1705 19.6929 40.6917 20.6507 41.086C21.6084 41.4804 22.0873 42.579 21.6929 43.5367C21.5521 43.9029 21.2986 44.2128 20.9605 44.4381C20.707 44.579 20.538 44.8325 20.4817 45.1142C20.3314 51.8935 20.2094 58.6728 20.1155 65.4521C20.1155 65.5648 20.1155 65.6775 20.1155 65.8183C21.0169 65.5648 21.5521 64.6634 21.2986 63.762C21.261 63.6305 21.2047 63.4991 21.1295 63.3676C20.9887 63.1423 20.9324 62.8606 20.9324 62.5789C22.1436 57.8183 24.1436 53.3113 26.876 49.255C27.7586 48.1095 28.7257 47.0297 29.7774 46.0156C30.0309 45.8184 30.1436 45.4522 30.0309 45.1423C29.2703 42.5226 28.5098 39.9029 27.7774 37.2832V17.9312H30.4534Z" fill="white"/>
<path d="M37.2956 18.4944H40.028V5.81836H0V18.607H2.64788C10.7323 9.00144 25.0703 7.79018 34.6477 15.9028C35.6055 16.6915 36.4881 17.5554 37.2956 18.4944Z" fill="white"/>
<path fill-rule="evenodd" clip-rule="evenodd" d="M41.0428 45.9027C43.9442 45.7618 46.7611 46.8886 48.7611 48.9731C50.6203 51.02 51.5498 53.8651 51.5498 57.5083V57.959H37.6907C37.8034 58.8885 38.2541 59.7899 38.9302 60.4378C39.6062 61.0575 40.5076 61.3674 41.4372 61.3392C42.0006 61.3674 42.564 61.2266 43.071 60.9449C43.5217 60.7195 43.8879 60.3252 44.0851 59.8744H51.24C50.7893 61.8463 49.5498 63.5646 47.8315 64.635C45.8597 65.8463 43.5499 66.466 41.2119 66.4096C38.395 66.5505 35.6063 65.5364 33.5218 63.5927C31.5781 61.5646 30.5359 58.8322 30.6767 56.0435C30.5922 53.3111 31.6344 50.6632 33.5781 48.7477C35.5781 46.8323 38.2823 45.8182 41.0428 45.9027ZM44.5358 53.8745C44.4231 53.0576 44.0287 52.297 43.409 51.7336C42.7611 51.1984 41.9442 50.9449 41.1274 50.9731C40.3668 50.9449 39.6062 51.2266 39.0429 51.7336C38.4513 52.297 38.0288 53.0576 37.8598 53.8745H44.5358ZM109.381 64.8322C109.55 65.0294 109.747 65.1984 110 65.311V65.8463H102.423L102.197 63.7054C101.521 64.5787 100.62 65.311 99.606 65.7617C98.4229 66.2406 97.1271 66.4378 95.8595 66.4096C94.0285 66.4941 92.2257 65.9308 90.7891 64.8322C89.5497 63.7618 88.8454 62.1843 88.93 60.5505C88.8173 59.0012 89.437 57.4801 90.6201 56.466C92.3384 55.2829 94.3384 54.5505 96.4229 54.3252C96.7985 54.2688 97.3149 54.1843 97.9722 54.0717C100.526 53.6773 101.803 53.0858 101.803 52.297C101.831 51.8463 101.606 51.3956 101.212 51.1421C100.676 50.8322 100.057 50.6914 99.4651 50.7477C99.3337 50.729 99.2022 50.7196 99.0707 50.7196C97.6905 50.7196 96.5919 51.8463 96.6201 53.2266H89.7468C89.6905 51.1139 90.6201 49.0858 92.282 47.7337C93.8595 46.513 96.1975 45.9027 99.2961 45.9027C100.498 45.9027 101.69 45.9966 102.874 46.1844C103.803 46.3534 104.705 46.6351 105.55 47.0576C106.733 47.5646 107.719 48.4379 108.366 49.5365C108.986 50.9167 109.268 52.4379 109.183 53.9308V64.0998C109.183 64.3533 109.24 64.6068 109.381 64.8322ZM101.183 60.7477C101.859 59.9308 102.197 58.8885 102.113 57.8463C102.113 57.6209 102.113 57.4519 102.113 57.3393C102.113 57.2266 102.104 57.1233 102.085 57.0294C101.352 57.5646 100.479 57.9026 99.5778 58.0716C99.4839 58.0904 99.4088 58.1092 99.3524 58.128C98.3947 58.2688 97.4651 58.5787 96.6201 59.0294C96.2257 59.2547 96.0003 59.6773 96.0003 60.128C96.0003 60.6068 96.282 61.0575 96.7046 61.2829C97.2398 61.5928 97.8595 61.7618 98.5074 61.7336C99.4933 61.8181 100.479 61.4519 101.183 60.7477ZM71.6343 56.4942C72.1976 57.5083 72.4512 58.6632 72.3948 59.7899C72.4793 61.7336 71.5779 63.5646 69.9723 64.6632C67.8878 65.9308 65.4653 66.5505 63.0427 66.3815C59.7939 66.3815 57.3526 65.7899 55.7188 64.6068C54.0569 63.3392 53.1273 61.3392 53.2681 59.2547H60.0568C60.0568 59.405 60.0662 59.5646 60.085 59.7336C60.2822 61.0857 61.5216 62.0153 62.8737 61.8463C63.4653 61.8744 64.0568 61.7054 64.5639 61.3956C64.9864 61.1702 65.2117 60.7477 65.2117 60.297C65.2117 59.6209 64.1507 59.0763 62.0287 58.6632C61.6155 58.5693 61.2869 58.5036 61.0428 58.466C58.9864 58.128 57.0146 57.3393 55.3245 56.1562C54.1695 55.1984 53.5498 53.79 53.6062 52.297C53.5217 50.4379 54.3949 48.6351 55.9442 47.5646C57.9442 46.3534 60.254 45.7618 62.592 45.9027C65.5779 45.9027 67.8596 46.4379 69.4371 47.5083C70.9864 48.5787 71.8878 50.3534 71.8314 52.2407H65.3244C65.2963 51.6773 65.0146 51.1703 64.5639 50.8041C64.0287 50.466 63.4089 50.297 62.7611 50.3534C62.254 50.3252 61.7188 50.4379 61.2399 50.6632C60.9301 50.8041 60.7047 51.1139 60.6766 51.4801C60.7047 51.79 60.9019 52.0717 61.1836 52.2125C61.6906 52.466 62.2258 52.635 62.7611 52.7196C63.2681 52.8135 63.9629 52.9449 64.8456 53.1139C66.2822 53.3111 67.6906 53.6773 69.0427 54.2125C70.085 54.7477 70.9864 55.5364 71.6343 56.4942ZM86.5919 37.79C86.7609 37.9027 86.9018 38.0999 86.93 38.3253C86.93 38.4943 86.8455 38.6351 86.7046 38.7478H86.6764L83.6624 39.8464V40.6069H83.6905V46.4661H86.6764V51.1984H83.6905V59.3111C83.6624 59.7054 83.8032 60.0998 84.0567 60.3815C84.4511 60.6632 84.9018 60.7759 85.3525 60.7195C85.5403 60.7195 85.7375 60.7101 85.944 60.6913C86.1506 60.6726 86.3948 60.6538 86.6764 60.635V65.8463C85.5685 66.0528 84.6389 66.2031 83.8877 66.297C83.268 66.3721 82.6389 66.419 82.0004 66.4378C80.4229 66.5786 78.8737 66.0434 77.7187 64.973C76.7047 63.6491 76.2258 61.9871 76.3666 60.3252V51.1984H73.9723V46.4661H76.3666V41.0576L76.2821 40.7759V39.8464L74.93 39.3675C74.93 40.0154 74.9018 40.6914 74.93 41.3393C75.0051 41.7337 75.099 42.1281 75.2117 42.5224C75.2305 42.6539 75.2399 42.7947 75.2399 42.945C75.0333 42.8886 74.8267 42.8229 74.6202 42.7478C74.5638 42.6914 74.5357 42.6069 74.5357 42.5224C74.6202 42.1844 74.7328 41.8464 74.8173 41.5083C74.8361 41.4332 74.8455 41.3581 74.8455 41.283C74.8455 40.6633 74.8455 40.0342 74.8455 39.3957C74.8455 39.3769 74.8361 39.3581 74.8173 39.3393L73.2962 38.8041V37.8464L80.0286 36.1562L86.5638 37.7619L86.5919 37.79ZM86.5356 38.4943C86.6483 38.4098 86.6483 38.3534 86.6483 38.3253C86.6483 38.2126 86.5074 38.0717 86.4229 38.0154L86.2539 37.9872L80.1131 39.959L73.6906 38.0436L73.5779 38.0717V38.6069L79.3525 40.6069H80.6765L86.5356 38.4943Z" fill="white"/>
</svg>
