<svg width="376" height="207" viewBox="0 0 376 207" fill="none" xmlns="http://www.w3.org/2000/svg">
<g clip-path="url(#clip0_1600_22669)">
<path d="M104.082 41.5537C81.7464 28.9453 54.501 29.0413 32.2617 41.8425H42.2741V106.618C39.3858 115.569 36.4978 124.423 33.7058 133.278C33.417 134.145 33.5133 135.107 34.0909 135.781C42.8517 144.443 49.4947 154.934 53.6343 166.58C57.0041 175.339 59.6033 184.386 62.4916 193.434C62.6841 194.396 62.4916 195.455 62.0101 196.321C60.1809 199.112 60.9513 202.962 63.8392 204.695C64.1602 204.951 64.5132 205.144 64.8984 205.272C64.9948 204.406 65.0908 203.636 65.0908 202.866C65.5402 180.28 65.9575 157.693 66.3424 135.107C66.5351 133.663 65.8612 132.316 64.6096 131.642C62.1065 130.102 61.1437 127.022 62.2028 124.231C63.5504 120.958 67.3052 119.322 70.5786 120.67C73.8518 122.017 75.4885 125.771 74.1406 129.043C73.6594 130.295 72.793 131.353 71.6375 132.123C70.7711 132.605 70.1935 133.471 70.0011 134.433C69.4874 157.597 69.0704 180.761 68.7495 203.925C68.7495 204.31 68.7495 204.695 68.7495 205.176C71.8302 204.31 73.6594 201.23 72.793 198.15C72.6645 197.7 72.4721 197.251 72.2151 196.802C71.7338 196.032 71.5414 195.07 71.5414 194.107C75.681 177.841 82.5164 162.442 91.855 148.582C94.8715 144.668 98.1767 140.978 101.771 137.513C102.638 136.84 103.023 135.588 102.638 134.529C100.038 125.578 97.4389 116.627 94.9357 107.676V41.5537H104.082Z" fill="#FFCC08"/>
<path d="M127.466 43.4789H136.805V0.166992H0V43.8636H9.04972C36.68 11.043 85.6833 6.90437 118.416 34.6238C121.69 37.3187 124.706 40.2705 127.466 43.4789Z" fill="#FFCC08"/>
<path fill-rule="evenodd" clip-rule="evenodd" d="M140.273 137.127C150.189 136.646 159.816 140.496 166.652 147.618C173.006 154.612 176.183 164.333 176.183 176.782V178.322H128.816C129.202 181.498 130.742 184.578 133.053 186.791C135.363 188.909 138.444 189.968 141.621 189.871C143.546 189.968 145.472 189.486 147.205 188.524C148.745 187.754 149.997 186.407 150.671 184.866H175.124C173.584 191.604 169.347 197.475 163.475 201.132C156.736 205.271 148.841 207.389 140.851 207.196C131.223 207.677 121.692 204.212 114.568 197.571C107.925 190.641 104.363 181.305 104.844 171.777C104.556 162.441 108.118 153.393 114.761 146.848C121.596 140.304 130.838 136.839 140.273 137.127ZM152.211 164.366C151.826 161.574 150.478 158.976 148.36 157.051C146.146 155.222 143.354 154.356 140.562 154.452C137.962 154.356 135.363 155.318 133.438 157.051C131.416 158.976 129.972 161.574 129.394 164.366H152.211ZM373.834 201.806C374.411 202.48 375.085 203.057 375.949 203.442V205.271H350.053L349.281 197.956C346.971 200.94 343.891 203.442 340.426 204.982C336.382 206.618 331.953 207.292 327.621 207.196C321.363 207.485 315.202 205.56 310.292 201.806C306.056 198.149 303.649 192.759 303.938 187.176C303.553 181.883 305.671 176.685 309.714 173.22C315.587 169.178 322.422 166.675 329.547 165.906C330.83 165.713 332.595 165.424 334.842 165.039C343.57 163.692 347.934 161.671 347.934 158.976C348.03 157.436 347.261 155.896 345.914 155.029C344.083 153.971 341.967 153.49 339.944 153.682C339.495 153.618 339.045 153.586 338.596 153.586C333.879 153.586 330.124 157.436 330.221 162.152H306.73C306.537 154.933 309.714 148.003 315.394 143.384C320.786 139.213 328.776 137.127 339.366 137.127C343.474 137.127 347.548 137.448 351.595 138.09C354.77 138.667 357.853 139.63 360.741 141.073C364.784 142.806 368.154 145.79 370.365 149.543C372.484 154.259 373.448 159.457 373.157 164.558V199.304C373.157 200.17 373.352 201.036 373.834 201.806ZM345.815 187.85C348.126 185.059 349.281 181.498 348.994 177.937C348.994 177.166 348.994 176.589 348.994 176.204C348.994 175.819 348.963 175.466 348.898 175.145C346.393 176.974 343.409 178.129 340.329 178.706C340.008 178.771 339.752 178.835 339.559 178.899C336.286 179.38 333.109 180.439 330.221 181.979C328.873 182.749 328.102 184.193 328.102 185.733C328.102 187.369 329.065 188.909 330.509 189.679C332.339 190.738 334.457 191.315 336.671 191.219C340.04 191.508 343.409 190.256 345.815 187.85ZM244.826 173.317C246.751 176.782 247.618 180.728 247.425 184.578C247.714 191.219 244.633 197.475 239.146 201.229C232.022 205.56 223.742 207.677 215.462 207.1C204.359 207.1 196.015 205.078 190.431 201.036C184.751 196.705 181.574 189.871 182.056 182.749H205.257C205.257 183.262 205.29 183.808 205.354 184.385C206.028 189.005 210.264 192.181 214.885 191.604C216.907 191.7 218.928 191.122 220.661 190.064C222.105 189.294 222.875 187.85 222.875 186.31C222.875 184 219.249 182.139 211.997 180.728C210.585 180.407 209.462 180.182 208.627 180.054C201.599 178.899 194.86 176.204 189.084 172.162C185.136 168.889 183.018 164.077 183.211 158.976C182.922 152.623 185.907 146.463 191.202 142.806C198.037 138.667 205.931 136.646 213.922 137.127C224.127 137.127 231.925 138.956 237.317 142.613C242.612 146.271 245.692 152.335 245.5 158.783H223.261C223.165 156.858 222.202 155.126 220.661 153.875C218.832 152.719 216.714 152.142 214.5 152.335C212.767 152.238 210.938 152.623 209.301 153.393C208.242 153.875 207.472 154.933 207.376 156.184C207.472 157.243 208.146 158.206 209.109 158.687C210.841 159.553 212.67 160.13 214.5 160.42C216.233 160.74 218.607 161.189 221.624 161.767C226.534 162.441 231.348 163.692 235.969 165.521C239.531 167.349 242.612 170.044 244.826 173.317ZM295.947 109.408C296.525 109.793 297.006 110.466 297.103 111.237C297.103 111.814 296.814 112.295 296.332 112.68H296.236L285.935 116.434V119.032H286.031V139.052H296.236V155.222H286.031V182.942C285.935 184.289 286.416 185.636 287.282 186.599C288.63 187.561 290.171 187.947 291.711 187.754C292.353 187.754 293.027 187.722 293.733 187.657C294.439 187.594 295.273 187.529 296.236 187.465V205.271C292.449 205.977 289.272 206.49 286.705 206.811C284.587 207.068 282.437 207.228 280.255 207.292C274.863 207.773 269.568 205.945 265.621 202.287C262.155 197.764 260.519 192.085 261 186.407V155.222H252.817V139.052H261V120.572L260.711 119.61V116.434L256.09 114.798C256.09 117.011 255.993 119.321 256.09 121.535C256.347 122.883 256.667 124.23 257.053 125.577C257.117 126.027 257.149 126.508 257.149 127.021C256.443 126.829 255.737 126.604 255.031 126.348C254.838 126.155 254.742 125.866 254.742 125.577C255.031 124.423 255.416 123.268 255.705 122.112C255.769 121.856 255.801 121.599 255.801 121.343C255.801 119.225 255.801 117.076 255.801 114.894C255.801 114.83 255.769 114.766 255.705 114.701L250.506 112.873V109.6L273.515 103.825L295.851 109.312L295.947 109.408ZM295.755 111.814C296.14 111.525 296.14 111.333 296.14 111.237C296.14 110.852 295.658 110.37 295.369 110.178L294.792 110.081L273.804 116.819L251.854 110.274L251.469 110.37V112.199L271.205 119.032H275.73L295.755 111.814Z" fill="#FFCC08"/>
</g>
<defs>
<clipPath id="clip0_1600_22669">
<rect width="376" height="207" fill="white"/>
</clipPath>
</defs>
</svg>
