<svg width="34" height="34" viewBox="0 0 34 34" fill="none" xmlns="http://www.w3.org/2000/svg">
<path d="M24.1542 28.73C22.7658 30.0758 21.25 29.8633 19.7908 29.2258C18.2467 28.5742 16.83 28.5458 15.2008 29.2258C13.1608 30.1042 12.0842 29.8492 10.8658 28.73C3.95249 21.6042 4.97249 10.7525 12.8208 10.3558C14.7333 10.455 16.065 11.4042 17.1842 11.4892C18.8558 11.1492 20.4567 10.1717 22.2417 10.2992C24.3808 10.4692 25.9958 11.3192 27.0583 12.8492C22.6383 15.4983 23.6867 21.3208 27.7383 22.95C26.9308 25.075 25.8825 27.1858 24.14 28.7442L24.1542 28.73ZM17.0425 10.2708C16.83 7.11167 19.3942 4.505 22.3408 4.25C22.7517 7.905 19.0258 10.625 17.0425 10.2708Z" fill="#262626"/>
</svg>
