<svg width="18" height="18" viewBox="0 0 18 18" fill="none" xmlns="http://www.w3.org/2000/svg">
<path d="M13.9999 7.33424L10.6666 4.0009M1.08325 16.9176L3.90356 16.6042C4.24813 16.5659 4.42042 16.5468 4.58146 16.4946C4.72433 16.4484 4.86029 16.383 4.98566 16.3004C5.12696 16.2072 5.24954 16.0846 5.49469 15.8395L16.4999 4.83424C17.4204 3.91376 17.4204 2.42138 16.4999 1.5009C15.5795 0.580429 14.0871 0.580428 13.1666 1.5009L2.16136 12.5061C1.91621 12.7513 1.79363 12.8739 1.70045 13.0152C1.61778 13.1405 1.55243 13.2765 1.50618 13.4194C1.45405 13.5804 1.43491 13.7527 1.39662 14.0973L1.08325 16.9176Z" stroke="#D3D3D3" stroke-width="1.5" stroke-linecap="round" stroke-linejoin="round"/>
</svg>
