<svg width="34" height="34" viewBox="0 0 34 34" fill="none" xmlns="http://www.w3.org/2000/svg">
<path d="M27.625 5.3125H6.375C5.52962 5.3125 4.71887 5.64833 4.1211 6.2461C3.52333 6.84387 3.1875 7.65462 3.1875 8.5V23.375C3.1875 24.2204 3.52333 25.0311 4.1211 25.6289C4.71887 26.2267 5.52962 26.5625 6.375 26.5625H15.9375V28.6875H12.75C12.4682 28.6875 12.198 28.7994 11.9987 28.9987C11.7994 29.198 11.6875 29.4682 11.6875 29.75C11.6875 30.0318 11.7994 30.302 11.9987 30.5013C12.198 30.7006 12.4682 30.8125 12.75 30.8125H21.25C21.5318 30.8125 21.802 30.7006 22.0013 30.5013C22.2006 30.302 22.3125 30.0318 22.3125 29.75C22.3125 29.4682 22.2006 29.198 22.0013 28.9987C21.802 28.7994 21.5318 28.6875 21.25 28.6875H18.0625V26.5625H27.625C28.4704 26.5625 29.2811 26.2267 29.8789 25.6289C30.4767 25.0311 30.8125 24.2204 30.8125 23.375V8.5C30.8125 7.65462 30.4767 6.84387 29.8789 6.2461C29.2811 5.64833 28.4704 5.3125 27.625 5.3125ZM6.375 7.4375H27.625C27.9068 7.4375 28.177 7.54944 28.3763 7.7487C28.5756 7.94796 28.6875 8.21821 28.6875 8.5V19.125H5.3125V8.5C5.3125 8.21821 5.42444 7.94796 5.6237 7.7487C5.82296 7.54944 6.09321 7.4375 6.375 7.4375ZM27.625 24.4375H6.375C6.09321 24.4375 5.82296 24.3256 5.6237 24.1263C5.42444 23.927 5.3125 23.6568 5.3125 23.375V21.25H28.6875V23.375C28.6875 23.6568 28.5756 23.927 28.3763 24.1263C28.177 24.3256 27.9068 24.4375 27.625 24.4375Z" fill="#262626"/>
</svg>
