<svg width="20" height="20" viewBox="0 0 20 20" fill="none" xmlns="http://www.w3.org/2000/svg">
<path d="M0.833032 2.16602H7.98303L9.2222 7.74101L7.6722 9.29102C8.58356 10.7094 9.78946 11.915 11.208 12.826L12.758 11.2768L18.333 12.516V19.666H17.4997C14.2916 19.6715 11.1509 18.7463 8.45803 17.0027C6.47239 15.7176 4.7814 14.0267 3.49637 12.041C1.75272 9.34818 0.827562 6.20741 0.833032 2.99935V2.16602ZM2.5222 3.83268C2.66262 6.43261 3.48114 8.9505 4.89637 11.136C6.0533 12.9235 7.57557 14.4457 9.36303 15.6027C11.5485 17.0179 14.0664 17.8364 16.6664 17.9768V13.8527L13.2889 13.1027L11.4772 14.9152L10.9247 14.601C8.8269 13.4089 7.09015 11.6722 5.89803 9.57435L5.58387 9.02185L7.39637 7.21018L6.64637 3.83268H2.5222Z" fill="#CED2DA"/>
</svg>
