<svg width="20" height="20" viewBox="0 0 20 20" fill="none" xmlns="http://www.w3.org/2000/svg">
<path d="M10 3.00148C8.4529 3.00148 6.96917 3.61607 5.87521 4.71003C4.78125 5.80399 4.16667 7.28772 4.16667 8.83482C4.16667 11.2198 5.65167 13.5207 7.28167 15.3032C8.11512 16.2112 9.02453 17.0464 10 17.7998C10.1456 17.6882 10.3164 17.552 10.5125 17.3915C11.2957 16.7484 12.0328 16.0511 12.7183 15.3048C14.3483 13.5207 15.8333 11.2207 15.8333 8.83482C15.8333 7.28772 15.2188 5.80399 14.1248 4.71003C13.0308 3.61607 11.5471 3.00148 10 3.00148ZM10 19.8465L9.5275 19.5215L9.525 19.5198L9.52 19.5157L9.50333 19.504L9.44083 19.4598L9.21583 19.2957C8.07572 18.4388 7.01656 17.4792 6.05167 16.429C4.34833 14.564 2.5 11.8648 2.5 8.83398C2.5 6.84486 3.29018 4.93721 4.6967 3.53068C6.10322 2.12416 8.01088 1.33398 10 1.33398C11.9891 1.33398 13.8968 2.12416 15.3033 3.53068C16.7098 4.93721 17.5 6.84486 17.5 8.83398C17.5 11.8648 15.6517 14.5648 13.9483 16.4273C12.9837 17.4775 11.9248 18.4371 10.785 19.294C10.69 19.3649 10.5942 19.4346 10.4975 19.5032L10.48 19.5148L10.475 19.519L10.4733 19.5198L10 19.8465ZM10 7.16815C9.55797 7.16815 9.13405 7.34375 8.82149 7.65631C8.50893 7.96887 8.33333 8.39279 8.33333 8.83482C8.33333 9.27684 8.50893 9.70077 8.82149 10.0133C9.13405 10.3259 9.55797 10.5015 10 10.5015C10.442 10.5015 10.866 10.3259 11.1785 10.0133C11.4911 9.70077 11.6667 9.27684 11.6667 8.83482C11.6667 8.39279 11.4911 7.96887 11.1785 7.65631C10.866 7.34375 10.442 7.16815 10 7.16815ZM6.66667 8.83482C6.66667 7.95076 7.01786 7.10292 7.64298 6.4778C8.2681 5.85267 9.11594 5.50148 10 5.50148C10.8841 5.50148 11.7319 5.85267 12.357 6.4778C12.9821 7.10292 13.3333 7.95076 13.3333 8.83482C13.3333 9.71887 12.9821 10.5667 12.357 11.1918C11.7319 11.817 10.8841 12.1682 10 12.1682C9.11594 12.1682 8.2681 11.817 7.64298 11.1918C7.01786 10.5667 6.66667 9.71887 6.66667 8.83482Z" fill="#CED2DA"/>
</svg>
