<svg width="18" height="15" viewBox="0 0 18 15" fill="none" xmlns="http://www.w3.org/2000/svg">
<path fill-rule="evenodd" clip-rule="evenodd" d="M11.5003 0L12.3336 0.83332L12.3336 2.5H17.3336V14.1667H0.666992V2.5H5.66699V0.83332L6.50027 0H11.5003ZM2.33359 8.63027V12.5H15.667V8.63027C14.0019 9.10668 12.335 9.40465 10.667 9.52379V10.8333H7.33363V9.52383C5.66559 9.40469 3.99867 9.10672 2.33363 8.63031M15.667 4.16672H2.33363V6.89195C4.5591 7.57555 6.78051 7.91672 9.00027 7.91672C11.2201 7.91672 13.4415 7.57555 15.667 6.89195V4.16672ZM10.667 1.66672H7.33367V2.5H10.667V1.66672Z" fill="#CED2DA"/>
</svg>
