<svg width="32" height="32" viewBox="0 0 32 32" fill="none" xmlns="http://www.w3.org/2000/svg">
<g id="image- 1">
<g id="Group">
<path id="Vector" d="M12.0026 14.3333C9.97594 14.3333 8.33594 12.6933 8.33594 10.6667C8.33594 8.64 9.97594 7 12.0026 7C14.0293 7 15.6693 8.64 15.6693 10.6667C15.6693 12.6933 14.0293 14.3333 12.0026 14.3333ZM12.0026 9C11.0826 9 10.3359 9.74667 10.3359 10.6667C10.3359 11.5867 11.0826 12.3333 12.0026 12.3333C12.9226 12.3333 13.6693 11.5867 13.6693 10.6667C13.6693 9.74667 12.9226 9 12.0026 9Z" fill="white"/>
<path id="Vector_2" d="M20.0013 30.3327H12.0013C4.7613 30.3327 1.66797 27.2393 1.66797 19.9993V11.9993C1.66797 4.75935 4.7613 1.66602 12.0013 1.66602H17.3346C17.8813 1.66602 18.3346 2.11935 18.3346 2.66602C18.3346 3.21268 17.8813 3.66602 17.3346 3.66602H12.0013C5.85464 3.66602 3.66797 5.85268 3.66797 11.9993V19.9993C3.66797 26.146 5.85464 28.3327 12.0013 28.3327H20.0013C26.148 28.3327 28.3346 26.146 28.3346 19.9993V13.3327C28.3346 12.786 28.788 12.3327 29.3346 12.3327C29.8813 12.3327 30.3346 12.786 30.3346 13.3327V19.9993C30.3346 27.2393 27.2413 30.3327 20.0013 30.3327Z" fill="white"/>
<path id="Vector_3" d="M24 11.6659C23.4533 11.6659 23 11.2126 23 10.6659V2.66593C23 2.26593 23.24 1.8926 23.6133 1.74593C23.9867 1.59927 24.4133 1.67927 24.7067 1.95927L27.3733 4.62593C27.76 5.0126 27.76 5.6526 27.3733 6.03927C26.9867 6.42593 26.3467 6.42593 25.96 6.03927L25 5.07927V10.6659C25 11.2126 24.5467 11.6659 24 11.6659Z" fill="white"/>
<path id="Vector_4" d="M21.3326 6.33326C21.0793 6.33326 20.8259 6.23992 20.6259 6.03992C20.2393 5.65326 20.2393 5.01326 20.6259 4.62659L23.2926 1.95992C23.6793 1.57326 24.3193 1.57326 24.7059 1.95992C25.0926 2.34659 25.0926 2.98659 24.7059 3.37326L22.0393 6.03992C21.8393 6.23992 21.5859 6.33326 21.3326 6.33326Z" fill="white"/>
<path id="Vector_5" d="M3.55909 26.2661C3.23909 26.2661 2.91909 26.1061 2.73242 25.8261C2.42576 25.3728 2.54576 24.7461 2.99909 24.4394L9.57242 20.0261C11.0124 19.0661 12.9991 19.1728 14.3058 20.2794L14.7458 20.6661C15.4124 21.2394 16.5458 21.2394 17.1991 20.6661L22.7458 15.9061C24.1591 14.6928 26.3858 14.6928 27.8124 15.9061L29.9858 17.7728C30.3991 18.1328 30.4524 18.7594 30.0924 19.1861C29.7324 19.5994 29.0924 19.6528 28.6791 19.2928L26.5058 17.4261C25.8391 16.8528 24.7191 16.8528 24.0524 17.4261L18.5058 22.1861C17.0924 23.3994 14.8658 23.3994 13.4391 22.1861L12.9991 21.7994C12.3858 21.2794 11.3724 21.2261 10.6924 21.6928L4.13242 26.1061C3.94576 26.2128 3.74576 26.2661 3.55909 26.2661Z" fill="white"/>
</g>
</g>
</svg>
