
<svg width="32" height="32" viewBox="0 0 32 32" fill="none" xmlns="http://www.w3.org/2000/svg"><g id="press-pass 1"><g id="_x30_2_Press_Pass"><g id="Group"><path id="Vector" d="M11.3202 19.6869C12.2771 19.0179 12.9056 17.9107 12.9056 16.6582C12.9056 14.6194 11.2452 12.9609 9.20445 12.9609C7.16614 12.9609 5.5077 14.6194 5.5077 16.6582C5.5077 17.9629 6.18901 19.1094 7.21264 19.7674C5.79277 20.3226 4.60452 21.4097 3.94795 22.8411C3.30902 24.2348 4.32576 25.8249 5.85983 25.8249H12.8959C14.4288 25.8249 15.4471 24.2356 14.8078 22.8411C14.1172 21.3357 12.8383 20.2121 11.3202 19.6869ZM6.5037 16.6582C6.5037 15.1691 7.7152 13.9571 9.20439 13.9571C10.696 13.9571 11.9095 15.1691 11.9095 16.6582C11.9095 18.1474 10.696 19.3589 9.20439 19.3589C7.7152 19.3589 6.5037 18.1474 6.5037 16.6582ZM12.8958 24.8289H5.85976C5.05583 24.8289 4.51377 23.9966 4.85352 23.2566C5.66233 21.4926 7.43802 20.3526 9.37758 20.3526C11.3176 20.3526 13.0933 21.4926 13.9021 23.2566C14.2382 23.9887 13.7086 24.8289 12.8958 24.8289Z" fill="#ffffff"></path><path id="Vector_2" d="M17.4668 15.7069H18.8597C19.1349 15.7069 19.3577 15.4842 19.3577 15.2089C19.3577 14.9337 19.1349 14.7109 18.8597 14.7109H17.4668C17.1915 14.7109 16.9688 14.9337 16.9688 15.2089C16.9688 15.4842 17.1914 15.7069 17.4668 15.7069Z" fill="#ffffff"></path><path id="Vector_3" d="M24.4896 17.334H17.4668C17.1915 17.334 16.9688 17.5567 16.9688 17.832C16.9688 18.1072 17.1915 18.33 17.4668 18.33H24.4897C24.7649 18.33 24.9877 18.1072 24.9877 17.832C24.9877 17.5567 24.7649 17.334 24.4896 17.334Z" fill="#ffffff"></path><path id="Vector_4" d="M17.4668 21.453H18.8597C19.1349 21.453 19.3577 21.2303 19.3577 20.955C19.3577 20.6798 19.1349 20.457 18.8597 20.457H17.4668C17.1915 20.457 16.9688 20.6798 16.9688 20.955C16.9687 21.2303 17.1914 21.453 17.4668 21.453Z" fill="#ffffff"></path><path id="Vector_5" d="M24.4896 23.0801H17.4668C17.1915 23.0801 16.9688 23.3028 16.9688 23.5781C16.9688 23.8533 17.1915 24.0761 17.4668 24.0761H24.4897C24.7649 24.0761 24.9877 23.8533 24.9877 23.5781C24.9877 23.3028 24.7649 23.0801 24.4896 23.0801Z" fill="#ffffff"></path><path id="Vector_6" d="M26.3761 2.85938C23.3126 2.85938 20.82 5.35144 20.82 8.415C20.82 8.83794 20.8717 9.24837 20.9618 9.6445H2.94606C1.35619 9.64444 0.0625 10.9381 0.0625 12.528V26.2587C0.0625 27.8486 1.35619 29.1423 2.94606 29.1423H25.7905C27.3804 29.1423 28.6741 27.8486 28.6741 26.2587V13.4684C30.5959 12.5925 31.9375 10.6593 31.9375 8.41494C31.9375 5.35144 29.4425 2.85938 26.3761 2.85938ZM27.6781 26.2587C27.6781 27.2995 26.8313 28.1462 25.7906 28.1462H2.94606C1.90525 28.1462 1.05856 27.2995 1.05856 26.2587V12.528C1.05856 11.4872 1.90531 10.6404 2.94606 10.6404H21.2886C22.1487 12.5985 24.104 13.971 26.3761 13.971C26.8251 13.971 27.2596 13.9117 27.678 13.8109V26.2587H27.6781ZM26.3761 12.975C23.8616 12.975 21.816 10.9294 21.816 8.41494C21.816 5.901 23.8616 3.85538 26.3761 3.85538C28.8934 3.85538 30.9414 5.901 30.9414 8.41494C30.9414 10.9294 28.8934 12.975 26.3761 12.975Z" fill="#ffffff"></path><path id="Vector_7" d="M27.6085 6.92912L25.6908 8.84681L25.147 8.30306C24.9525 8.1085 24.6374 8.1085 24.4428 8.30306C24.2482 8.49763 24.2482 8.81275 24.4428 9.00731L25.3387 9.90319C25.4359 10.0004 25.5634 10.0491 25.6908 10.0491C25.8182 10.0491 25.9457 10.0004 26.0429 9.90319L28.3127 7.63338C28.5073 7.43881 28.5073 7.12369 28.3127 6.92912C28.1182 6.73456 27.803 6.73456 27.6085 6.92912Z" fill="#ffffff"></path></g></g></g></svg>