<svg width="32" height="32" viewBox="0 0 32 32" fill="none" xmlns="http://www.w3.org/2000/svg">
<g id="electronics 1" clip-path="url(#clip0_4026_8636)">
<path id="Vector" d="M0.533447 8C0.827881 8 1.06665 7.76123 1.06665 7.46655V2.1333C1.06665 1.54419 1.54419 1.06665 2.1333 1.06665H7.46655C7.76123 1.06665 8 0.827881 8 0.533447C8 0.23877 7.76123 0 7.46655 0H2.1333C0.955078 0 0 0.955078 0 2.1333V7.46655C0 7.76123 0.23877 8 0.533447 8Z" fill="white"/>
<path id="Vector_2" d="M29.8667 0H24.5334C24.2388 0 24 0.23877 24 0.533447C24 0.827881 24.2388 1.06665 24.5334 1.06665H29.8667C30.4558 1.06665 30.9333 1.54419 30.9333 2.1333V7.46655C30.9333 7.76123 31.1721 8 31.4666 8C31.7612 8 32 7.76123 32 7.46655V2.1333C32 0.955078 31.0449 0 29.8667 0Z" fill="white"/>
<path id="Vector_3" d="M7.46655 30.9333H2.1333C1.54419 30.9333 1.06665 30.4558 1.06665 29.8667V24.5334C1.06665 24.2388 0.827881 24 0.533447 24C0.23877 24 0 24.2388 0 24.5334V29.8667C0 31.0449 0.955078 32 2.1333 32H7.46655C7.76123 32 8 31.7612 8 31.4666C8 31.1721 7.76123 30.9333 7.46655 30.9333Z" fill="white"/>
<path id="Vector_4" d="M31.4666 24C31.1721 24 30.9333 24.2388 30.9333 24.5334V29.8667C30.9333 30.4558 30.4558 30.9333 29.8667 30.9333H24.5334C24.2388 30.9333 24 31.1721 24 31.4666C24 31.7612 24.2388 32 24.5334 32H29.8667C31.0449 32 32 31.0449 32 29.8667V24.5334C32 24.2388 31.7612 24 31.4666 24Z" fill="white"/>
<path id="Vector_5" d="M31.4666 13.3308H24.3125C24.6885 12.5991 24.5916 11.7134 24.0662 11.0803C23.8196 10.8245 23.4919 10.6621 23.1392 10.6206C23.5444 9.34521 24.0374 6.95532 22.8987 5.00513C21.7856 3.0979 19.4556 2.13086 15.9734 2.13086C12.4912 2.13086 10.1599 3.0979 9.0481 5.00513C7.90771 6.95801 8.40259 9.35107 8.80859 10.6248C8.47217 10.6775 8.1626 10.8398 7.92798 11.0867C7.40674 11.7195 7.31177 12.6016 7.68628 13.3308H0.533447C0.23877 13.3308 0 13.5696 0 13.8643C0 14.1587 0.23877 14.3975 0.533447 14.3975H8.15039C8.23657 14.6357 8.28296 14.8867 8.28809 15.1399C8.26392 15.5859 8.42212 16.0225 8.72583 16.3496C8.97412 16.5964 9.29297 16.7595 9.63843 16.8162C9.68188 17.6079 9.87427 18.3843 10.2053 19.1047C10.4033 19.4441 10.6606 19.7451 10.9653 19.9934L10.7141 21.989L5.61548 23.5576C4.4939 23.8982 3.729 24.9343 3.7334 26.1064V27.731C3.7334 28.3201 4.21094 28.7976 4.80005 28.7976H27.2C27.7891 28.7976 28.2666 28.3201 28.2666 27.731V26.1064C28.271 24.9343 27.5061 23.8982 26.3845 23.5576L21.2859 21.989L21.0347 19.9939C21.3391 19.7454 21.5967 19.4441 21.7947 19.1047C22.1287 18.3848 22.3228 17.6082 22.3669 16.8157C23.1838 16.6956 23.7715 15.968 23.7173 15.1443C23.7188 14.8896 23.7634 14.6372 23.8496 14.3975H31.4666C31.7612 14.3975 32 14.1587 32 13.8643C32 13.5696 31.7612 13.3308 31.4666 13.3308ZM10.0134 5.46899C10.9424 3.96191 12.9473 3.19751 15.9734 3.19751C18.9995 3.19751 21.0049 3.96191 21.9333 5.46899C22.5134 6.54761 22.6919 7.79712 22.4368 8.99487C22.0806 7.86694 21.4863 6.6167 20.5168 6.0227C20.0481 5.7312 19.4341 5.84961 19.1077 6.29468C18.7866 6.73145 17.9558 7.46411 16 7.46411C14.0442 7.46411 13.2134 6.73145 12.8928 6.29468C12.5667 5.84888 11.9517 5.73047 11.4832 6.02319C10.481 6.63696 9.8833 7.95068 9.52905 9.10644C9.24731 7.87524 9.41919 6.5835 10.0134 5.46899ZM8.78076 13.1665C8.42236 12.4905 8.50513 12.0286 8.70142 11.821C8.87695 11.6545 9.13892 11.6182 9.35303 11.731C9.36621 11.7366 9.37988 11.7412 9.39355 11.7454C9.4187 11.7568 9.44482 11.7661 9.47144 11.7734C9.50391 11.7827 9.53711 11.7888 9.57056 11.7917C9.58447 11.7917 9.5979 11.7991 9.61182 11.7991C9.62549 11.7991 9.63403 11.7927 9.64575 11.7922C9.68188 11.7893 9.71777 11.7827 9.75244 11.7725L9.76489 11.7688L9.7793 11.7639C9.79883 11.7583 9.81836 11.752 9.8374 11.7441C9.86841 11.7278 9.89771 11.7085 9.9248 11.686C9.93335 11.6797 9.94141 11.6738 9.94922 11.667C9.96924 11.6536 9.98804 11.6392 10.0059 11.623C10.0273 11.5962 10.0461 11.5674 10.0618 11.5369C10.0662 11.5298 10.071 11.5239 10.0747 11.5171C10.0862 11.4976 10.0962 11.4773 10.1045 11.4563C10.1108 11.438 10.1157 11.4192 10.1194 11.4001C10.1289 11.3711 10.1355 11.3411 10.1396 11.3105C10.2576 10.3325 10.823 7.67651 12.031 6.92554C12.4736 7.52515 13.574 8.53101 16 8.53101C18.426 8.53101 19.5264 7.52515 19.9595 6.93091C21.1023 7.63061 21.6709 10.0215 21.8325 11.1177C21.7622 11.3513 21.8621 11.6025 22.0735 11.7246C22.1152 11.7446 22.1594 11.759 22.2048 11.7671C22.2444 11.7778 22.2854 11.7839 22.3264 11.7854C22.3628 11.7908 22.3997 11.7925 22.4363 11.79H22.4512C22.4634 11.79 22.4736 11.781 22.4858 11.7788C22.5288 11.7737 22.5708 11.7632 22.6111 11.7473C22.8293 11.6165 23.1077 11.645 23.2949 11.8174C23.4929 12.0242 23.5764 12.4871 23.2129 13.1763C23.1855 13.2295 23.1626 13.2786 23.1377 13.3298H8.86133C8.83423 13.2776 8.81006 13.2241 8.78076 13.1665ZM27.2 26.1064V27.731H4.80005V26.1064C4.79736 25.4033 5.25635 24.7817 5.92896 24.5774L10.874 23.0562C11.2917 23.948 12.5334 25.5977 16 25.5977C19.4666 25.5977 20.7083 23.948 21.126 23.0562L26.071 24.5774C26.7437 24.7817 27.2026 25.4033 27.2 26.1064ZM20.2576 22.3613C20.1355 22.7554 19.3948 24.531 16 24.531C12.5962 24.531 11.8604 22.7454 11.7424 22.3623L11.95 20.7144C12.2944 20.9319 12.6299 21.1196 12.8977 21.2583C12.9578 21.2871 13.0107 21.3289 13.0527 21.3804C13.7693 22.2937 14.8416 22.8579 16 22.9309C17.1626 22.8567 18.238 22.2891 18.9551 21.3708C18.9978 21.3215 19.0505 21.2817 19.1099 21.2546C19.3765 21.1177 19.7078 20.9309 20.05 20.7148L20.2576 22.3613ZM22.6506 15.1614C22.6611 15.3228 22.6099 15.4819 22.5078 15.6072C22.3206 15.7466 22.0886 15.8127 21.856 15.7932C21.5615 15.7932 21.3228 16.032 21.3228 16.3267C21.3218 17.1118 21.1621 17.8889 20.8533 18.6108C20.6118 19.0701 19.7556 19.7212 18.6277 20.3069C18.4363 20.4001 18.2671 20.5334 18.1318 20.6978C17.616 21.3679 16.8425 21.7913 16 21.8643C15.1616 21.791 14.3921 21.3704 13.8779 20.7043C13.7429 20.5381 13.5737 20.4028 13.3818 20.3079C12.2463 19.7185 11.3904 19.0674 11.1499 18.6099C10.8469 17.8867 10.6882 17.1116 10.6826 16.3276C10.6826 16.0332 10.4438 15.7944 10.1494 15.7944C9.91431 15.8145 9.68018 15.7473 9.49121 15.6062C9.39014 15.481 9.34131 15.3215 9.35474 15.1614C9.35571 14.9041 9.32593 14.6477 9.26611 14.3975H22.7349C22.6748 14.6482 22.6465 14.9053 22.6506 15.1628V15.1614Z" fill="white"/>
</g>
<defs>
<clipPath id="clip0_4026_8636">
<rect width="32" height="32" fill="white"/>
</clipPath>
</defs>
</svg>
