<svg width="51" height="50" viewBox="0 0 51 50" fill="none" xmlns="http://www.w3.org/2000/svg">
<rect opacity="0.1" x="0.5" width="50" height="50" rx="10" fill="#00B2FF"/>
<path d="M34.7251 20.7172L34.2751 34.3376C34.2368 35.5041 33.7454 36.6097 32.9052 37.4199C32.065 38.23 30.9422 38.6808 29.7751 38.6767H21.2251C20.0587 38.6809 18.9366 38.2306 18.0965 37.4215C17.2565 36.6123 16.7646 35.5078 16.7251 34.3421L16.2751 20.7172C16.2652 20.4188 16.3743 20.1288 16.5783 19.9108C16.7824 19.6929 17.0646 19.5649 17.363 19.5551C17.6613 19.5452 17.9514 19.6543 18.1693 19.8583C18.3873 20.0623 18.5152 20.3446 18.5251 20.6429L18.9751 34.2667C18.9975 34.8483 19.2444 35.3986 19.664 35.802C20.0835 36.2054 20.6431 36.4305 21.2251 36.4301H29.7751C30.3579 36.4305 30.9181 36.2047 31.3377 35.8004C31.7574 35.396 32.0038 34.8446 32.0251 34.2622L32.4751 20.6429C32.4849 20.3446 32.6129 20.0623 32.8308 19.8583C33.0488 19.6543 33.3389 19.5452 33.6372 19.5551C33.9356 19.5649 34.2178 19.6929 34.4218 19.9108C34.6259 20.1288 34.7349 20.4188 34.7251 20.7172ZM36.2135 16.1846C36.2135 16.4829 36.0949 16.7691 35.884 16.9801C35.673 17.191 35.3868 17.3096 35.0885 17.3096H15.9128C15.6145 17.3096 15.3283 17.191 15.1173 16.9801C14.9064 16.7691 14.7878 16.4829 14.7878 16.1846C14.7878 15.8862 14.9064 15.6 15.1173 15.3891C15.3283 15.1781 15.6145 15.0596 15.9128 15.0596H19.4003C19.7568 15.0605 20.1009 14.9288 20.3656 14.6901C20.6303 14.4514 20.7967 14.1227 20.8325 13.7681C20.9155 12.9361 21.3053 12.1649 21.9258 11.6046C22.5464 11.0443 23.3534 10.7351 24.1895 10.7373H26.8107C27.6468 10.7351 28.4537 11.0443 29.0743 11.6046C29.6949 12.1649 30.0847 12.9361 30.1677 13.7681C30.2035 14.1227 30.3699 14.4514 30.6346 14.6901C30.8993 14.9288 31.2434 15.0605 31.5998 15.0596H35.0873C35.3857 15.0596 35.6719 15.1781 35.8828 15.3891C36.0938 15.6 36.2123 15.8862 36.2123 16.1846H36.2135ZM22.7855 15.0596H28.217C28.0691 14.7218 27.9724 14.3638 27.9301 13.9976C27.9022 13.7203 27.7724 13.4632 27.5658 13.2761C27.3592 13.0891 27.0905 12.9853 26.8118 12.9851H24.1906C23.9119 12.9853 23.6432 13.0891 23.4366 13.2761C23.23 13.4632 23.1002 13.7203 23.0723 13.9976C23.0296 14.3639 22.9337 14.7218 22.7855 15.0596ZM23.9183 32.1044V22.5251C23.9183 22.2267 23.7998 21.9405 23.5888 21.7296C23.3779 21.5186 23.0917 21.4001 22.7933 21.4001C22.495 21.4001 22.2088 21.5186 21.9978 21.7296C21.7869 21.9405 21.6683 22.2267 21.6683 22.5251V32.1089C21.6683 32.4073 21.7869 32.6935 21.9978 32.9044C22.2088 33.1154 22.495 33.2339 22.7933 33.2339C23.0917 33.2339 23.3779 33.1154 23.5888 32.9044C23.7998 32.6935 23.9183 32.4073 23.9183 32.1089V32.1044ZM29.3341 32.1044V22.5251C29.3341 22.2267 29.2156 21.9405 29.0046 21.7296C28.7936 21.5186 28.5075 21.4001 28.2091 21.4001C27.9107 21.4001 27.6246 21.5186 27.4136 21.7296C27.2026 21.9405 27.0841 22.2267 27.0841 22.5251V32.1089C27.0841 32.4073 27.2026 32.6935 27.4136 32.9044C27.6246 33.1154 27.9107 33.2339 28.2091 33.2339C28.5075 33.2339 28.7936 33.1154 29.0046 32.9044C29.2156 32.6935 29.3341 32.4073 29.3341 32.1089V32.1044Z" fill="#2EA8DB"/>
</svg>
