<svg width="18" height="18" viewBox="0 0 18 18" fill="none" xmlns="http://www.w3.org/2000/svg">
<path d="M9.00002 13.167C9.23613 13.167 9.43419 13.087 9.59419 12.927C9.75363 12.7675 9.83335 12.5698 9.83335 12.3337V9.83366H12.3542C12.5903 9.83366 12.7847 9.75366 12.9375 9.59366C13.0903 9.43421 13.1667 9.23644 13.1667 9.00033C13.1667 8.76421 13.0867 8.56616 12.9267 8.40616C12.7672 8.24671 12.5695 8.16699 12.3334 8.16699H9.83335V5.64616C9.83335 5.41005 9.75363 5.2156 9.59419 5.06283C9.43419 4.91005 9.23613 4.83366 9.00002 4.83366C8.76391 4.83366 8.56613 4.91338 8.40669 5.07283C8.24669 5.23283 8.16669 5.43088 8.16669 5.66699V8.16699H5.64585C5.40974 8.16699 5.2153 8.24671 5.06252 8.40616C4.90974 8.56616 4.83335 8.76421 4.83335 9.00033C4.83335 9.23644 4.91308 9.43421 5.07252 9.59366C5.23252 9.75366 5.43058 9.83366 5.66669 9.83366H8.16669V12.3545C8.16669 12.5906 8.24669 12.785 8.40669 12.9378C8.56613 13.0906 8.76391 13.167 9.00002 13.167ZM9.00002 17.3337C7.84724 17.3337 6.76391 17.1148 5.75002 16.677C4.73613 16.2398 3.85419 15.6462 3.10419 14.8962C2.35419 14.1462 1.76058 13.2642 1.32335 12.2503C0.885576 11.2364 0.666687 10.1531 0.666687 9.00033C0.666687 7.84755 0.885576 6.76421 1.32335 5.75033C1.76058 4.73644 2.35419 3.85449 3.10419 3.10449C3.85419 2.35449 4.73613 1.7606 5.75002 1.32283C6.76391 0.885603 7.84724 0.666992 9.00002 0.666992C10.1528 0.666992 11.2361 0.885603 12.25 1.32283C13.2639 1.7606 14.1459 2.35449 14.8959 3.10449C15.6459 3.85449 16.2395 4.73644 16.6767 5.75033C17.1145 6.76421 17.3334 7.84755 17.3334 9.00033C17.3334 10.1531 17.1145 11.2364 16.6767 12.2503C16.2395 13.2642 15.6459 14.1462 14.8959 14.8962C14.1459 15.6462 13.2639 16.2398 12.25 16.677C11.2361 17.1148 10.1528 17.3337 9.00002 17.3337ZM9.00002 15.667C10.8472 15.667 12.4203 15.0178 13.7192 13.7195C15.0175 12.4206 15.6667 10.8475 15.6667 9.00033C15.6667 7.1531 15.0175 5.58005 13.7192 4.28116C12.4203 2.98283 10.8472 2.33366 9.00002 2.33366C7.1528 2.33366 5.58002 2.98283 4.28169 4.28116C2.9828 5.58005 2.33335 7.1531 2.33335 9.00033C2.33335 10.8475 2.9828 12.4206 4.28169 13.7195C5.58002 15.0178 7.1528 15.667 9.00002 15.667Z" fill="white"/>
</svg>
