<svg width="51" height="50" viewBox="0 0 51 50" fill="none" xmlns="http://www.w3.org/2000/svg">
<rect opacity="0.1" x="0.5" width="50" height="50" rx="10" fill="#00B2FF"/>
<path d="M35.13 19.3296C34.2134 17.2236 32.6317 15.4762 30.6271 14.3552C28.6224 13.2342 26.3055 12.8013 24.0314 13.1231C21.7573 13.4448 19.6513 14.5033 18.0363 16.1364C16.4213 17.7694 15.3863 19.887 15.09 22.1646C13.6598 22.5071 12.4053 23.3628 11.5646 24.5694C10.7238 25.7759 10.3555 27.2492 10.5295 28.7094C10.7034 30.1697 11.4076 31.5151 12.5083 32.4904C13.6089 33.4656 15.0294 34.0027 16.5 33.9996C16.8978 33.9996 17.2793 33.8416 17.5606 33.5603C17.8419 33.279 18 32.8974 18 32.4996C18 32.1018 17.8419 31.7202 17.5606 31.4389C17.2793 31.1576 16.8978 30.9996 16.5 30.9996C15.7043 30.9996 14.9412 30.6835 14.3786 30.1209C13.816 29.5583 13.5 28.7952 13.5 27.9996C13.5 27.2039 13.816 26.4409 14.3786 25.8783C14.9412 25.3157 15.7043 24.9996 16.5 24.9996C16.8978 24.9996 17.2793 24.8416 17.5606 24.5603C17.8419 24.279 18 23.8974 18 23.4996C18.0038 21.7255 18.6364 20.0102 19.7854 18.6585C20.9343 17.3067 22.5253 16.406 24.2756 16.1164C26.0259 15.8268 27.8222 16.167 29.3453 17.0766C30.8685 17.9862 32.0199 19.4063 32.595 21.0846C32.6807 21.3424 32.8348 21.572 33.0409 21.749C33.247 21.926 33.4972 22.0437 33.765 22.0896C34.7641 22.2784 35.6698 22.8 36.3345 23.5694C36.9992 24.3388 37.3838 25.3106 37.4256 26.3266C37.4673 27.3425 37.1638 28.3426 36.5644 29.1639C35.965 29.9853 35.1052 30.5794 34.125 30.8496C33.7391 30.9491 33.4085 31.1977 33.206 31.5409C33.0034 31.8841 32.9455 32.2937 33.045 32.6796C33.1444 33.0655 33.3931 33.3961 33.7363 33.5986C34.0795 33.8011 34.4891 33.8591 34.875 33.7596C36.4535 33.3425 37.8529 32.4216 38.8605 31.1368C39.8681 29.852 40.4289 28.2735 40.4577 26.641C40.4866 25.0085 39.9819 23.4112 39.0203 22.0916C38.0587 20.772 36.6928 19.8022 35.13 19.3296ZM26.565 22.4346C26.4223 22.298 26.2541 22.191 26.07 22.1196C25.7048 21.9696 25.2951 21.9696 24.93 22.1196C24.7458 22.191 24.5776 22.298 24.435 22.4346L19.935 26.9346C19.6525 27.2171 19.4938 27.6001 19.4938 27.9996C19.4938 28.399 19.6525 28.7821 19.935 29.0646C20.2174 29.3471 20.6005 29.5057 21 29.5057C21.3994 29.5057 21.7825 29.3471 22.065 29.0646L24 27.1146V35.4996C24 35.8974 24.158 36.279 24.4393 36.5603C24.7206 36.8416 25.1021 36.9996 25.5 36.9996C25.8978 36.9996 26.2793 36.8416 26.5606 36.5603C26.8419 36.279 27 35.8974 27 35.4996V27.1146L28.935 29.0646C29.0744 29.2052 29.2403 29.3168 29.4231 29.3929C29.6059 29.4691 29.8019 29.5083 30 29.5083C30.198 29.5083 30.394 29.4691 30.5768 29.3929C30.7596 29.3168 30.9255 29.2052 31.065 29.0646C31.2056 28.9252 31.3171 28.7593 31.3933 28.5765C31.4694 28.3937 31.5087 28.1976 31.5087 27.9996C31.5087 27.8016 31.4694 27.6055 31.3933 27.4227C31.3171 27.2399 31.2056 27.074 31.065 26.9346L26.565 22.4346Z" fill="#2EA8DB"/>
</svg>
