<svg width="210" height="150" viewBox="0 0 210 150" fill="none" xmlns="http://www.w3.org/2000/svg">
<path d="M74.1707 21.1611H42.3259V73.8727H74.1707V21.1611Z" fill="#E0E0E0"/>
<path d="M73.1117 21.1611H41.2668V73.8727H73.1117V21.1611Z" fill="#EBEBEB"/>
<path d="M71.7548 22.2285H42.6232V72.8023H71.7548V22.2285Z" fill="white"/>
<path d="M66.0836 28.8008H48.1692V66.2307H66.0836V28.8008Z" fill="#EBEBEB"/>
<path d="M48.1693 52.978C48.1276 49.4808 51.2718 46.067 54.7329 45.5777C56.3842 45.3469 58.1384 45.675 59.6813 45.0411C62.4335 43.9125 63.3119 40.254 66.0753 39.167L66.2031 66.222H48.1693V52.978Z" fill="#E0E0E0"/>
<path d="M157.448 18.7676V47.7741H115.787L114.286 18.9705L157.448 18.7676Z" fill="#E0E0E0"/>
<path d="M114.289 18.9705V47.7129H155.95V18.9705L114.289 18.9705Z" fill="white"/>
<path d="M156.144 47.9102H114.089V18.7842H156.144V47.9102ZM114.486 47.5155H155.75V19.1595H114.486V47.5155Z" fill="#E0E0E0"/>
<path d="M151.435 22.543H118.798V44.1436H151.435V22.543Z" fill="white"/>
<path d="M151.435 22.5428H151.274H150.81H149.019L142.292 22.5678L118.798 22.615L118.893 22.5205C118.893 29.1202 118.893 36.4205 118.893 44.1183L118.79 44.0155L151.427 44.0349L151.346 44.1183C151.363 37.5436 151.377 32.1643 151.388 28.4002C151.388 26.5265 151.405 25.0642 151.41 24.0551C151.41 23.5602 151.41 23.1794 151.41 22.9125C151.41 22.654 151.41 22.5177 151.41 22.5177C151.41 22.5177 151.41 22.6428 151.41 22.8958C151.41 23.1488 151.41 23.5324 151.41 24.0078C151.41 25.0086 151.41 26.4681 151.43 28.3363C151.43 32.1004 151.455 37.5103 151.474 44.1044V44.1851H151.391L118.754 44.2073H118.651V44.1044C118.651 36.4177 118.651 29.1063 118.651 22.5066V22.4121H118.742L142.3 22.4594L149.003 22.4844H150.776H151.229C151.299 22.4988 151.368 22.5183 151.435 22.5428Z" fill="#E0E0E0"/>
<path d="M114.286 18.8896C114.544 19.0135 114.785 19.1695 115.003 19.3539C115.429 19.6625 116.01 20.0989 116.638 20.5993C117.266 21.0997 117.814 21.5751 118.203 21.931C118.427 22.1082 118.627 22.3138 118.798 22.5426C118.762 22.587 117.758 21.7586 116.507 20.7606C115.256 19.7626 114.25 18.9369 114.286 18.8896Z" fill="#E0E0E0"/>
<path d="M155.947 18.9706C155.983 19.0151 155.002 19.8519 153.756 20.8388C152.511 21.8257 151.471 22.5874 151.435 22.5429C151.399 22.4984 152.38 21.6616 153.629 20.6747C154.877 19.6878 155.911 18.9261 155.947 18.9706Z" fill="#E0E0E0"/>
<path d="M155.914 47.7181L151.268 43.9512L155.914 47.7181Z" fill="white"/>
<path d="M151.268 43.9517C151.305 43.91 152.38 44.7162 153.656 45.756C154.932 46.7957 155.95 47.6742 155.914 47.7186C155.878 47.7631 154.802 46.9541 153.529 45.9144C152.255 44.8747 151.235 43.9962 151.268 43.9517Z" fill="#E0E0E0"/>
<path d="M114.286 47.7131C114.252 47.6687 115.223 46.843 116.457 45.8672C117.691 44.8914 118.717 44.1381 118.753 44.1825C118.789 44.227 117.816 45.0527 116.585 46.0285C115.353 47.0042 114.322 47.7576 114.286 47.7131Z" fill="#E0E0E0"/>
<path d="M125.426 29.2703V36.5039H145.961V29.2703H125.426Z" fill="#E0E0E0"/>
<path d="M94.2616 115.134C94.2616 113.874 95.2263 112.962 96.5245 112.962C96.8373 112.951 97.1487 113.008 97.4369 113.13C97.7251 113.252 97.983 113.436 98.1925 113.668L97.6893 114.138C97.5477 113.98 97.3736 113.853 97.1789 113.768C96.9841 113.683 96.7733 113.64 96.5607 113.643C96.3601 113.635 96.1599 113.667 95.9721 113.738C95.7842 113.808 95.6126 113.916 95.4677 114.055C95.3227 114.194 95.2073 114.361 95.1285 114.545C95.0497 114.73 95.0091 114.929 95.0091 115.129C95.0091 115.33 95.0497 115.529 95.1285 115.713C95.2073 115.898 95.3227 116.065 95.4677 116.204C95.6126 116.342 95.7842 116.45 95.9721 116.521C96.1599 116.592 96.3601 116.624 96.5607 116.615C96.7741 116.619 96.9858 116.576 97.1808 116.489C97.3758 116.402 97.5493 116.273 97.6893 116.112L98.1981 116.596C97.9883 116.828 97.7304 117.011 97.4422 117.133C97.1541 117.255 96.8428 117.313 96.5301 117.302C95.2179 117.307 94.2616 116.396 94.2616 115.134Z" fill="#EBEBEB"/>
<path d="M89.972 118.445H84.7345V113.207H89.972V118.445ZM85.0125 118.167H89.694V113.485H85.0125V118.167Z" fill="#EBEBEB"/>
<path d="M83.7367 119.534C83.581 119.418 84.832 117.538 86.7585 115.545C88.6851 113.552 90.5143 112.229 90.6505 112.379C90.7868 112.529 89.1855 114.08 87.2923 116.048C85.3991 118.017 83.8979 119.662 83.7367 119.534Z" fill="#E0E0E0"/>
<path d="M90.7225 119.421C90.5529 119.543 89.124 117.806 87.2364 115.79C85.3488 113.775 83.7141 112.229 83.8448 112.068C83.9755 111.907 85.8436 113.236 87.7646 115.295C89.6856 117.355 90.881 119.321 90.7225 119.421Z" fill="#E0E0E0"/>
<path d="M54.9082 98.0498L52.3367 97.8663L51.7446 99.0228L50.7577 98.9533L53.4404 93.9688L54.38 94.0355L56.326 99.348L55.3252 99.2785L54.9082 98.0498ZM54.6469 97.2769L53.8379 94.9556L52.7259 97.1379L54.6469 97.2769Z" fill="#EBEBEB"/>
<path d="M46.5098 99.2355L40.1881 98.7879L40.6385 92.4551L46.9574 92.9054L46.5098 99.2355ZM40.4856 98.5294L46.2513 98.9408L46.6599 93.1723L40.8942 92.7637L40.4856 98.5294Z" fill="#EBEBEB"/>
<path d="M38.8453 100.055C38.7007 99.9303 40.4104 97.7758 42.9263 95.5184C45.4422 93.2611 47.7608 91.7793 47.872 91.935C47.9832 92.0907 45.8898 93.8199 43.424 96.055C40.9581 98.2901 38.9982 100.194 38.8453 100.055Z" fill="#E0E0E0"/>
<path d="M47.3661 100.533C47.1882 100.644 45.6258 98.3781 43.4936 95.7566C41.3613 93.1351 39.4793 91.1307 39.6183 90.9778C39.7573 90.8249 41.8923 92.6291 44.0663 95.3007C46.2402 97.9723 47.5301 100.435 47.3661 100.533Z" fill="#E0E0E0"/>
<path d="M161.563 70.5501C161.805 71.4008 161.285 72.0874 160 72.4488L157.532 73.1466L156.142 68.1815L158.469 67.5227C159.658 67.1863 160.44 67.5227 160.662 68.2955C160.733 68.5171 160.74 68.7542 160.682 68.9796C160.624 69.2049 160.503 69.4092 160.334 69.5688C160.619 69.5701 160.896 69.6678 161.119 69.8459C161.342 70.024 161.498 70.2721 161.563 70.5501ZM157.254 68.643L157.643 70.0136L158.947 69.6438C159.586 69.4631 159.884 69.1323 159.756 68.6792C159.628 68.226 159.2 68.0926 158.56 68.2733L157.254 68.643ZM160.609 70.7197C160.467 70.2248 160.028 70.1109 159.333 70.3082L157.846 70.7308L158.249 72.1625L159.739 71.7399C160.434 71.5426 160.748 71.2173 160.609 70.7197Z" fill="#EBEBEB"/>
<path d="M146.832 76.7839L145.105 70.6873L151.202 68.9609L152.928 75.0575L146.832 76.7839ZM145.442 70.8791L147.015 76.4391L152.575 74.8629L150.999 69.3029L145.442 70.8791Z" fill="#EBEBEB"/>
<path d="M146 78.4345C145.82 78.3622 146.695 75.7573 148.294 72.7772C149.892 69.797 151.571 67.6175 151.727 67.7287C151.883 67.8399 150.504 70.1723 148.947 73.1191C147.39 76.0659 146.189 78.5123 146 78.4345Z" fill="#E0E0E0"/>
<path d="M154.176 75.9854C154.046 76.1494 151.808 74.5509 148.911 72.8107C146.014 71.0704 143.562 69.8222 143.646 69.6303C143.729 69.4385 146.348 70.4115 149.284 72.1907C152.219 73.9699 154.299 75.8381 154.176 75.9854Z" fill="#E0E0E0"/>
<path d="M125.075 32.4697H53.6819V104.894H125.075V32.4697Z" fill="white"/>
<path d="M125.075 104.895C125.075 104.895 125.075 104.861 125.075 104.806C125.075 104.75 125.075 104.661 125.075 104.55C125.075 104.325 125.075 103.994 125.075 103.549C125.075 102.665 125.075 101.361 125.061 99.6571C125.061 96.2544 125.042 91.2671 125.028 84.9231C125.014 72.2546 124.992 54.1624 124.964 32.4701L125.089 32.5952L53.7041 32.6146L53.8487 32.4701C53.8487 59.0107 53.8487 83.8723 53.8292 104.892L53.7041 104.77L105.429 104.831L119.943 104.864L123.774 104.878H124.761H125.011H125.097H124.775H123.802L119.993 104.892L105.509 104.925L53.7041 104.986H53.579V104.861C53.579 83.8417 53.579 58.9913 53.5596 32.4395V32.2949H53.7125L125.097 32.3144H125.225V32.4395C125.197 54.1652 125.175 72.2824 125.161 84.9815C125.145 91.3143 125.133 96.2905 125.128 99.6877C125.128 101.378 125.128 102.676 125.111 103.555C125.111 103.988 125.111 104.319 125.111 104.542V104.789C125.103 104.825 125.091 104.861 125.075 104.895Z" fill="#263238"/>
<path d="M59.2864 44.2822V46.2032H58.9278V44.5825H58.5219V44.2822H59.2864Z" fill="black"/>
<path d="M59.656 45.9947C59.656 45.9651 59.6618 45.9359 59.6731 45.9085C59.6844 45.8812 59.701 45.8564 59.7219 45.8355C59.7428 45.8146 59.7677 45.798 59.795 45.7867C59.8223 45.7754 59.8516 45.7695 59.8811 45.7695C59.9107 45.7695 59.94 45.7754 59.9673 45.7867C59.9946 45.798 60.0195 45.8146 60.0404 45.8355C60.0613 45.8564 60.0779 45.8812 60.0892 45.9085C60.1005 45.9359 60.1063 45.9651 60.1063 45.9947C60.1063 46.0243 60.1005 46.0536 60.0892 46.0809C60.0779 46.1082 60.0613 46.133 60.0404 46.1539C60.0195 46.1748 59.9946 46.1914 59.9673 46.2028C59.94 46.2141 59.9107 46.2199 59.8811 46.2199C59.8516 46.2199 59.8223 46.2141 59.795 46.2028C59.7677 46.1914 59.7428 46.1748 59.7219 46.1539C59.701 46.133 59.6844 46.1082 59.6731 46.0809C59.6618 46.0536 59.656 46.0243 59.656 45.9947Z" fill="black"/>
<path d="M83.2248 36.5179C83.2154 36.3117 83.2679 36.1073 83.3757 35.9311C83.4834 35.7549 83.6415 35.6151 83.8294 35.5295C84.0173 35.4439 84.2266 35.4166 84.4302 35.451C84.6338 35.4854 84.8225 35.58 84.9719 35.7225C85.1213 35.8651 85.2246 36.0491 85.2685 36.2509C85.3123 36.4527 85.2948 36.663 85.2181 36.8547C85.1414 37.0465 85.0091 37.2109 84.8381 37.3267C84.6672 37.4426 84.4655 37.5046 84.259 37.5048C84.1254 37.5116 83.9918 37.4911 83.8663 37.4446C83.7409 37.398 83.6263 37.3263 83.5295 37.234C83.4327 37.1416 83.3558 37.0305 83.3034 36.9073C83.251 36.7842 83.2243 36.6517 83.2248 36.5179ZM84.9345 36.5179C84.9345 36.3843 84.8949 36.2537 84.8207 36.1426C84.7465 36.0315 84.641 35.945 84.5175 35.8938C84.3941 35.8427 84.2582 35.8293 84.1272 35.8554C83.9962 35.8814 83.8758 35.9458 83.7813 36.0403C83.6868 36.1347 83.6225 36.2551 83.5964 36.3862C83.5704 36.5172 83.5837 36.653 83.6349 36.7765C83.686 36.8999 83.7726 37.0054 83.8837 37.0796C83.9948 37.1539 84.1254 37.1935 84.259 37.1935C84.3482 37.1958 84.437 37.1799 84.5198 37.1467C84.6027 37.1135 84.6779 37.0638 84.7408 37.0006C84.8038 36.9373 84.8532 36.8619 84.8861 36.7789C84.9189 36.696 84.9344 36.6071 84.9318 36.5179H84.9345Z" fill="black"/>
<path d="M87.378 35.5586V37.4796H87.0861L86.0269 36.1785V37.4796H85.6711V35.5586H85.9657L87.0249 36.8541V35.5586H87.378Z" fill="black"/>
<path d="M87.895 35.5586H88.2508V37.1766H89.2572V37.4796H87.895V35.5586Z" fill="black"/>
<path d="M89.5383 35.5586H89.8941V37.4796H89.5383V35.5586Z" fill="black"/>
<path d="M92.1208 35.5586V37.4796H91.8261L90.7697 36.1785V37.4796H90.4167V35.5586H90.7113L91.7677 36.8541V35.5586H92.1208Z" fill="black"/>
<path d="M94.078 37.1793V37.4796H92.6352V35.5586H94.0252V35.8561H92.9938V36.3565H93.9223V36.6484H92.9938V37.1793H94.078Z" fill="black"/>
<path d="M95.6211 35.8588H94.9845V35.5586H96.608V35.8588H95.9714V37.4796H95.6128L95.6211 35.8588Z" fill="black"/>
<path d="M98.326 37.1793V37.4796H96.886V35.5586H98.276V35.8561H97.2307V36.3565H98.1564V36.6484H97.2307V37.1793H98.326Z" fill="black"/>
<path d="M98.5536 37.2763L98.6787 36.9983C98.8621 37.1346 99.0842 37.2086 99.3126 37.2096C99.6128 37.2096 99.7379 37.1012 99.7379 36.9594C99.7379 36.5452 98.5953 36.8176 98.5953 36.1032C98.5953 35.7918 98.8428 35.5305 99.371 35.5305C99.5957 35.5263 99.8172 35.5851 100.01 35.7001L99.8964 35.9781C99.737 35.8812 99.5547 35.8285 99.3682 35.8252C99.0707 35.8252 98.9512 35.9419 98.9512 36.0865C98.9512 36.4951 100.088 36.2283 100.088 36.9344C100.088 37.243 99.838 37.4904 99.3126 37.4904C99.0431 37.5027 98.7769 37.4276 98.5536 37.2763Z" fill="black"/>
<path d="M100.811 35.8588H100.175V35.5586H101.804V35.8588H101.167V37.4796H100.811V35.8588Z" fill="black"/>
<path d="M68.1822 52.7223H67.2203L67.0312 53.1671H66.6643L67.5289 51.2461H67.8791L68.7465 53.1671H68.374L68.1822 52.7223ZM68.0626 52.4443L67.7012 51.6103L67.3426 52.4443H68.0626Z" fill="black"/>
<path d="M58.4994 37.4764C58.9308 37.4764 59.2806 37.1267 59.2806 36.6952C59.2806 36.2638 58.9308 35.9141 58.4994 35.9141C58.068 35.9141 57.7182 36.2638 57.7182 36.6952C57.7182 37.1267 58.068 37.4764 58.4994 37.4764Z" fill="black"/>
<path d="M60.8656 37.4764C61.297 37.4764 61.6467 37.1267 61.6467 36.6952C61.6467 36.2638 61.297 35.9141 60.8656 35.9141C60.4341 35.9141 60.0844 36.2638 60.0844 36.6952C60.0844 37.1267 60.4341 37.4764 60.8656 37.4764Z" fill="black"/>
<path d="M63.231 37.4764C63.6624 37.4764 64.0122 37.1267 64.0122 36.6952C64.0122 36.2638 63.6624 35.9141 63.231 35.9141C62.7996 35.9141 62.4498 36.2638 62.4498 36.6952C62.4498 37.1267 62.7996 37.4764 63.231 37.4764Z" fill="black"/>
<path d="M125.075 40.5596C125.075 40.5985 109.173 40.6319 89.5604 40.6319C69.9475 40.6319 54.0431 40.5985 54.0431 40.5596C54.0431 40.5207 69.942 40.4873 89.5604 40.4873C109.179 40.4873 125.075 40.5207 125.075 40.5596Z" fill="black"/>
<path d="M117.269 45.9307C117.269 45.9696 104.889 46.003 89.6216 46.003C74.3539 46.003 61.969 45.9696 61.969 45.9307C61.969 45.8918 74.3483 45.8584 89.6216 45.8584C104.895 45.8584 117.269 45.889 117.269 45.9307Z" fill="black"/>
<path d="M83.3083 47.8106C83.3083 47.8495 78.5823 47.8828 72.7443 47.8828C66.9063 47.8828 62.1636 47.8495 62.1636 47.8106C62.1636 47.7716 66.8896 47.7383 72.7443 47.7383C78.599 47.7383 83.3083 47.7689 83.3083 47.8106Z" fill="black"/>
<path d="M65.1939 53.4701H62.6613V50.9375H65.1939V53.4701ZM62.9393 53.1921H64.9159V51.2155H62.9393V53.1921Z" fill="black"/>
<path d="M68.6298 57.4539C68.6298 57.7819 68.3712 57.9737 67.8764 57.9737H66.9228V56.0527H67.8208C68.2823 56.0527 68.5297 56.2473 68.5297 56.5531C68.5326 56.6397 68.5109 56.7254 68.4671 56.8002C68.4233 56.875 68.3592 56.9358 68.2823 56.9757C68.3857 57.0045 68.4763 57.0674 68.5394 57.1542C68.6025 57.241 68.6343 57.3466 68.6298 57.4539ZM67.2787 56.3419V56.8701H67.7846C68.0293 56.8701 68.1711 56.7839 68.1711 56.6087C68.1711 56.4336 68.0293 56.3307 67.7846 56.3307L67.2787 56.3419ZM68.2684 57.4261C68.2684 57.2342 68.1238 57.1481 67.8541 57.1481H67.2787V57.7041H67.8541C68.1238 57.7041 68.2684 57.6095 68.2684 57.4261Z" fill="black"/>
<path d="M65.1939 58.2793H62.6613V55.7578H65.1939V58.2793ZM62.9393 58.0013H64.9159V56.0358H62.9393V58.0013Z" fill="black"/>
<path d="M66.7839 61.8218C66.7938 61.6187 66.8631 61.423 66.9832 61.2589C67.1032 61.0948 67.2687 60.9695 67.4593 60.8985C67.6498 60.8275 67.8569 60.8139 68.0551 60.8594C68.2533 60.9049 68.4337 61.0075 68.5742 61.1546L68.3434 61.3714C68.2788 61.2993 68.1994 61.242 68.1107 61.2031C68.022 61.1643 67.926 61.1449 67.8291 61.1462C67.65 61.1462 67.4782 61.2174 67.3515 61.3441C67.2248 61.4708 67.1536 61.6426 67.1536 61.8218C67.1536 62.0009 67.2248 62.1728 67.3515 62.2995C67.4782 62.4261 67.65 62.4973 67.8291 62.4973C67.9262 62.4987 68.0225 62.479 68.1113 62.4397C68.2 62.4003 68.2793 62.3422 68.3434 62.2694L68.5742 62.489C68.4337 62.636 68.2533 62.7386 68.0551 62.7842C67.8569 62.8297 67.6498 62.8161 67.4593 62.7451C67.2687 62.6741 67.1032 62.5488 66.9832 62.3847C66.8631 62.2206 66.7938 62.0249 66.7839 61.8218Z" fill="black"/>
<path d="M65.1939 63.0863H62.6613V60.5537H65.1939V63.0863ZM62.9393 62.8083H64.9159V60.8317H62.9393V62.8083Z" fill="black"/>
<path d="M66.9228 65.6689H67.7568C68.3796 65.6689 68.8049 66.0526 68.8049 66.628C68.8049 67.2035 68.3796 67.5899 67.7568 67.5899H66.9228V65.6689ZM67.7568 67.2869C67.8468 67.2928 67.937 67.2801 68.0218 67.2497C68.1066 67.2193 68.1844 67.1718 68.2501 67.1102C68.3159 67.0486 68.3683 66.9741 68.4041 66.8914C68.44 66.8087 68.4585 66.7196 68.4585 66.6294C68.4585 66.5393 68.44 66.4501 68.4041 66.3674C68.3683 66.2848 68.3159 66.2103 68.2501 66.1487C68.1844 66.087 68.1066 66.0396 68.0218 66.0092C67.937 65.9788 67.8468 65.9661 67.7568 65.972H67.2787V67.2869H67.7568Z" fill="black"/>
<path d="M65.1939 67.8959H62.6613V65.3633H65.1939V67.8959ZM62.9393 67.6179H64.9159V65.6413H62.9393V67.6179Z" fill="black"/>
<path d="M89.6188 52.2051C89.6188 52.244 85.4488 52.2774 80.2891 52.2774C75.1295 52.2774 70.9567 52.244 70.9567 52.2051C70.9567 52.1662 75.1267 52.1328 80.2891 52.1328C85.4516 52.1328 89.6188 52.1634 89.6188 52.2051Z" fill="black"/>
<path d="M115.306 57.0117C115.306 57.0534 105.376 57.084 93.1327 57.084C80.8896 57.084 70.9567 57.0534 70.9567 57.0117C70.9567 56.97 80.8841 56.9395 93.1327 56.9395C105.381 56.9395 115.306 56.9728 115.306 57.0117Z" fill="black"/>
<path d="M77.0587 66.6279C77.0587 66.6669 75.6937 66.7002 74.0007 66.7002C72.3077 66.7002 70.9427 66.6669 70.9427 66.6279C70.9427 66.589 72.3077 66.5557 74.0007 66.5557C75.6937 66.5557 77.0587 66.6001 77.0587 66.6279Z" fill="black"/>
<path d="M93.13 61.8213C93.13 61.8602 88.1677 61.8936 82.0433 61.8936C75.919 61.8936 70.9567 61.8602 70.9567 61.8213C70.9567 61.7824 75.919 61.749 82.0433 61.749C88.1677 61.749 93.13 61.7796 93.13 61.8213Z" fill="black"/>
<path d="M59.3559 73.472V73.7722H57.9381V73.5331L58.7026 72.8103C58.8889 72.6324 58.9222 72.5184 58.9222 72.4128C58.9222 72.2349 58.7999 72.1348 58.5636 72.1348C58.4785 72.1304 58.3936 72.1463 58.3158 72.1811C58.238 72.2159 58.1695 72.2686 58.116 72.335L57.8658 72.1431C57.954 72.0368 58.0657 71.9526 58.1921 71.897C58.3186 71.8415 58.4563 71.8163 58.5942 71.8234C59.0112 71.8234 59.2808 72.0347 59.2808 72.3794C59.2778 72.498 59.2477 72.6142 59.1928 72.7193C59.1378 72.8243 59.0596 72.9154 58.9639 72.9855L58.4496 73.4748L59.3559 73.472Z" fill="black"/>
<path d="M59.5644 73.564C59.5644 73.5043 59.5881 73.4471 59.6303 73.4048C59.6726 73.3626 59.7298 73.3389 59.7896 73.3389C59.8493 73.3389 59.9066 73.3626 59.9488 73.4048C59.991 73.4471 60.0148 73.5043 60.0148 73.564C60.0148 73.6238 59.991 73.681 59.9488 73.7233C59.9066 73.7655 59.8493 73.7892 59.7896 73.7892C59.7298 73.7892 59.6726 73.7655 59.6303 73.7233C59.5881 73.681 59.5644 73.6238 59.5644 73.564Z" fill="black"/>
<path d="M67.5096 80.2916H66.5505L66.3614 80.7364H65.9917L66.8563 78.8154H67.2093L68.0767 80.7364H67.6958L67.5096 80.2916ZM67.3928 80.0136L67.0314 79.1796L66.67 80.0136H67.3928Z" fill="black"/>
<path d="M116.596 73.5C116.596 73.5389 104.217 73.5723 88.9488 73.5723C73.6811 73.5723 61.3018 73.5501 61.3018 73.5C61.3018 73.45 73.6783 73.4277 88.9516 73.4277C104.225 73.4277 116.596 73.4611 116.596 73.5Z" fill="black"/>
<path d="M82.6384 75.3789C82.6384 75.4178 77.9124 75.4512 72.0577 75.4512C66.203 75.4512 61.477 75.4178 61.477 75.3789C61.477 75.34 66.203 75.3066 72.0577 75.3066C77.9124 75.3066 82.6384 75.3372 82.6384 75.3789Z" fill="black"/>
<path d="M64.5098 81.056H61.9772V78.5234H64.5098V81.056ZM62.2552 80.778H64.2318V78.8014H62.2552V80.778Z" fill="black"/>
<path d="M67.9572 85.0232C67.9572 85.3512 67.6986 85.5431 67.2066 85.5431H66.2502V83.6221H67.1398C67.6013 83.6221 67.8487 83.8167 67.8487 84.1225C67.851 84.209 67.829 84.2944 67.7853 84.369C67.7415 84.4437 67.6778 84.5046 67.6013 84.545C67.7065 84.5717 67.7993 84.6339 67.8641 84.7209C67.9289 84.808 67.9618 84.9147 67.9572 85.0232ZM66.6089 83.9112V84.4422H67.112C67.3595 84.4422 67.4985 84.3532 67.4985 84.1781C67.4985 84.0029 67.3595 83.9001 67.112 83.9001L66.6089 83.9112ZM67.5985 84.9954C67.5985 84.8036 67.454 84.7174 67.1843 84.7174H66.6089V85.2734H67.1843C67.454 85.2651 67.5985 85.1789 67.5985 84.9871V84.9954Z" fill="black"/>
<path d="M64.5098 85.849H61.9772V83.3164H64.5098V85.849ZM62.2552 85.571H64.2318V83.5944H62.2552V85.571Z" fill="black"/>
<path d="M66.1138 89.3964C66.1125 89.2629 66.1385 89.1305 66.1903 89.0074C66.2421 88.8843 66.3185 88.7731 66.4148 88.6806C66.5112 88.5882 66.6255 88.5164 66.7506 88.4698C66.8757 88.4232 67.0091 88.4027 67.1424 88.4095C67.2847 88.4037 67.4264 88.4293 67.5576 88.4845C67.6888 88.5398 67.8062 88.6233 67.9014 88.7292L67.6734 88.946C67.6085 88.8742 67.5291 88.817 67.4404 88.7782C67.3518 88.7394 67.2559 88.7198 67.1591 88.7208C66.9799 88.7208 66.8081 88.792 66.6814 88.9187C66.5547 89.0454 66.4836 89.2172 66.4836 89.3964C66.4836 89.5755 66.5547 89.7474 66.6814 89.8741C66.8081 90.0007 66.9799 90.0719 67.1591 90.0719C67.2562 90.0731 67.3524 90.0534 67.4411 90.014C67.5299 89.9747 67.6091 89.9167 67.6734 89.844L67.9014 90.0636C67.7613 90.211 67.581 90.3139 67.3829 90.3597C67.1848 90.4054 66.9776 90.3919 66.7871 90.3208C66.5966 90.2497 66.4312 90.1241 66.3115 89.9598C66.1918 89.7954 66.1231 89.5995 66.1138 89.3964Z" fill="black"/>
<path d="M64.5098 90.6556H61.9772V88.123H64.5098V90.6556ZM62.2552 90.3776H64.2318V88.401H62.2552V90.3776Z" fill="black"/>
<path d="M66.2502 93.2383H67.0842C67.707 93.2383 68.1323 93.6219 68.1323 94.2002C68.1323 94.7784 67.707 95.1593 67.0842 95.1593H66.2502V93.2383ZM67.0842 94.859C67.1758 94.8674 67.2682 94.8567 67.3554 94.8274C67.4426 94.7981 67.5228 94.751 67.5907 94.689C67.6587 94.627 67.713 94.5515 67.7501 94.4673C67.7873 94.3831 67.8065 94.2922 67.8065 94.2002C67.8065 94.1082 67.7873 94.0172 67.7501 93.933C67.713 93.8489 67.6587 93.7734 67.5907 93.7114C67.5228 93.6494 67.4426 93.6022 67.3554 93.5729C67.2682 93.5436 67.1758 93.5329 67.0842 93.5413H66.62V94.859H67.0842Z" fill="black"/>
<path d="M64.5098 95.4642H61.9772V92.9316H64.5098V95.4642ZM62.2552 95.1862H64.2318V93.2096H62.2552V95.1862Z" fill="black"/>
<path d="M88.949 79.7744C88.949 79.8133 84.779 79.8467 79.6165 79.8467C74.4541 79.8467 70.2841 79.8133 70.2841 79.7744C70.2841 79.7355 74.4541 79.7021 79.6165 79.7021C84.779 79.7021 88.949 79.7355 88.949 79.7744Z" fill="black"/>
<path d="M114.633 84.5811C114.633 84.6228 104.706 84.6533 92.4601 84.6533C80.2142 84.6533 70.2841 84.6228 70.2841 84.5811C70.2841 84.5394 80.2115 84.5088 92.4601 84.5088C104.709 84.5088 114.633 84.5421 114.633 84.5811Z" fill="black"/>
<path d="M76.3889 94.1973C76.3889 94.239 75.0212 94.2696 73.3309 94.2696C71.6407 94.2696 70.2729 94.239 70.2729 94.1973C70.2729 94.1556 71.6407 94.125 73.3309 94.125C75.0212 94.125 76.3889 94.1584 76.3889 94.1973Z" fill="black"/>
<path d="M92.4601 89.3965C92.4601 89.4354 87.4951 89.4688 81.3735 89.4688C75.2519 89.4688 70.2841 89.4354 70.2841 89.3965C70.2841 89.3576 75.2492 89.3242 81.3735 89.3242C87.4978 89.3242 92.4601 89.3492 92.4601 89.3965Z" fill="black"/>
<path d="M110.413 100.795H98.9679C98.5065 100.795 98.0497 100.704 97.6236 100.527C97.1974 100.35 96.8102 100.092 96.4841 99.7652C96.158 99.4389 95.8995 99.0515 95.7232 98.6252C95.5469 98.1989 95.4563 97.742 95.4567 97.2807C95.4567 96.3495 95.8266 95.4564 96.4851 94.7979C97.1436 94.1394 98.0366 93.7695 98.9679 93.7695H110.413C111.344 93.7695 112.237 94.1394 112.896 94.7979C113.554 95.4564 113.924 96.3495 113.924 97.2807C113.925 97.742 113.834 98.1989 113.658 98.6252C113.481 99.0515 113.223 99.4389 112.897 99.7652C112.571 100.092 112.184 100.35 111.757 100.527C111.331 100.704 110.874 100.795 110.413 100.795Z" fill="#1AB6F7"/>
<path d="M101.826 96.4453V98.3552H101.462L100.5 97.1959V98.3552H100.063V96.4453H100.428L101.375 97.6046V96.4453H101.826Z" fill="white"/>
<path d="M103.755 98.015V98.3708H102.276V96.4609H103.719V96.8168H102.724V97.231H103.611V97.5729H102.724V98.015H103.755Z" fill="white"/>
<path d="M105.29 98.3552L104.828 97.6935L104.375 98.3552H103.869L104.575 97.385L103.905 96.4453H104.406L104.845 97.0653L105.276 96.4453H105.754L105.087 97.3683L105.801 98.3552H105.29Z" fill="white"/>
<path d="M106.338 96.8067H105.726V96.4453H107.394V96.8067H106.782V98.3552H106.338V96.8067Z" fill="white"/>
<path d="M109.81 98.2118C109.787 98.2115 109.764 98.2055 109.744 98.1944C109.723 98.1832 109.706 98.1673 109.693 98.1479C109.673 98.1172 109.666 98.0799 109.673 98.0439C109.681 98.008 109.702 97.9764 109.732 97.956L110.619 97.3639C110.633 97.3551 110.645 97.3428 110.652 97.3282C110.66 97.3135 110.664 97.2971 110.664 97.2805C110.664 97.2637 110.659 97.2472 110.651 97.2326C110.643 97.218 110.631 97.2057 110.616 97.1971L109.738 96.6772C109.707 96.6581 109.684 96.6276 109.676 96.5922C109.667 96.5568 109.673 96.5194 109.691 96.488C109.71 96.4567 109.74 96.4339 109.775 96.4246C109.81 96.4152 109.848 96.4201 109.88 96.4382L110.758 96.9552C110.813 96.9882 110.859 97.0345 110.891 97.0899C110.923 97.1452 110.941 97.2077 110.943 97.2718C110.944 97.3358 110.93 97.3992 110.9 97.4561C110.871 97.513 110.828 97.5616 110.775 97.5974L109.888 98.1868C109.865 98.2026 109.838 98.2113 109.81 98.2118Z" fill="white"/>
<path d="M62.347 58.2357C62.2636 58.1523 62.8002 57.4767 63.548 56.7261C64.2958 55.9755 64.9714 55.4418 65.0575 55.5252C65.1437 55.6086 64.6044 56.2869 63.8566 57.0347C63.1088 57.7825 62.4332 58.3219 62.347 58.2357Z" fill="#1AB6F7"/>
<path d="M65.5192 58.4993C65.4358 58.5855 64.7158 58.0017 63.9124 57.1983C63.109 56.3949 62.5224 55.6776 62.6114 55.5914C62.7003 55.5053 63.4176 56.0891 64.2182 56.8925C65.0188 57.6959 65.6054 58.4159 65.5192 58.4993Z" fill="#1AB6F7"/>
<path d="M61.7381 81.178C61.652 81.0918 62.1913 80.4163 62.9391 79.6685C63.6869 78.9207 64.3625 78.3841 64.4486 78.4675C64.5348 78.5509 63.9955 79.2265 63.2449 79.9771C62.4943 80.7277 61.8215 81.2614 61.7381 81.178Z" fill="#1AB6F7"/>
<path d="M64.9159 81.4422C64.8298 81.5256 64.1125 80.9446 63.3091 80.1412C62.5057 79.3378 61.9191 78.6177 62.0081 78.5343C62.097 78.4509 62.8115 79.032 63.6149 79.8354C64.4183 80.6388 64.9938 81.356 64.9159 81.4422Z" fill="#1AB6F7"/>
<path d="M115.657 137.641L96.1384 131.375C96.0863 131.358 96.0317 131.352 95.9772 131.355L80.9652 132.467C78.327 126.073 75.0215 118.081 73.5176 114.43C73.2669 113.832 72.8632 113.31 72.3469 112.917C71.8306 112.524 71.2199 112.275 70.5763 112.193L54.3189 110.069C54.1256 110.045 53.9295 110.073 53.7503 110.149C53.571 110.225 53.4149 110.347 53.2976 110.502C53.1802 110.658 53.1057 110.841 53.0815 111.034C53.0572 111.228 53.0842 111.424 53.1596 111.603L62.3142 132.951C62.4353 133.234 62.6141 133.489 62.839 133.7C63.0639 133.91 63.3301 134.072 63.6208 134.174L82.2162 141.594C82.6412 141.763 83.1016 141.824 83.5561 141.772L84.746 141.641C88.8659 141.21 109.21 139.139 115.573 138.472C115.674 138.467 115.77 138.425 115.843 138.356C115.916 138.286 115.962 138.193 115.972 138.092C115.982 137.992 115.956 137.891 115.898 137.808C115.84 137.725 115.755 137.666 115.657 137.641Z" fill="#E0E0E0"/>
<path d="M115.657 137.64C115.722 137.66 115.781 137.697 115.829 137.745C115.878 137.793 115.914 137.852 115.935 137.918C115.96 138 115.961 138.088 115.936 138.17C115.912 138.253 115.864 138.326 115.798 138.382C115.711 138.45 115.603 138.487 115.493 138.487L115.126 138.526L110.558 139.01L93.7559 140.759L88.1959 141.337L85.2352 141.643L83.7145 141.807C83.1879 141.889 82.6488 141.826 82.1549 141.626L69.7172 136.672L66.3951 135.346L64.7021 134.673L63.8486 134.334C63.7069 134.273 63.5706 134.223 63.4177 134.159C63.2723 134.095 63.1343 134.014 63.0063 133.92C62.7488 133.729 62.5331 133.488 62.3725 133.211C62.2168 132.933 62.1167 132.641 61.9888 132.355L61.2466 130.628C60.748 129.472 60.2467 128.303 59.7426 127.123C57.7215 122.397 55.6254 117.526 53.482 112.528L53.1873 111.841C53.0628 111.613 52.9986 111.356 53.0011 111.096C53.0171 110.831 53.1213 110.579 53.2971 110.38C53.4729 110.181 53.7102 110.046 53.9713 109.998C54.0352 109.984 54.102 109.998 54.1687 109.979L54.3605 109.992L54.7275 110.042L55.4586 110.137L56.9153 110.326L62.6644 111.079L68.28 111.813L69.67 111.994C70.1287 112.064 70.5874 112.094 71.06 112.203C71.9731 112.438 72.766 113.005 73.284 113.793C73.5156 114.185 73.7101 114.598 73.865 115.027C74.0355 115.442 74.206 115.855 74.3765 116.267L75.3856 118.716L77.3539 123.487C78.6382 126.606 79.8753 129.603 81.0513 132.455L80.9901 132.416L95.6185 131.334L96.0244 131.304C96.0975 131.303 96.1702 131.316 96.2384 131.343L96.4302 131.407L97.1642 131.651L98.6431 132.127L101.431 133.041L106.352 134.629L113.233 136.853L115.04 137.445C115.448 137.578 115.657 137.651 115.657 137.651C115.657 137.651 115.445 137.589 115.034 137.462L113.221 136.889L106.338 134.682L101.415 133.108L98.607 132.207L97.128 131.735L96.3691 131.493C96.2498 131.444 96.1245 131.411 95.9966 131.396L95.5907 131.426L80.9651 132.538H80.9234L80.9039 132.497C79.7252 129.647 78.4881 126.659 77.1982 123.534L75.2272 118.763C74.8936 117.955 74.5563 117.139 74.2153 116.314C74.0457 115.903 73.8733 115.48 73.7037 115.074C73.5512 114.655 73.3604 114.25 73.1338 113.865C72.6374 113.108 71.8774 112.563 71.0016 112.336C70.5679 112.23 70.1009 112.197 69.6449 112.13L68.2549 111.95L62.6366 111.218L56.8875 110.468L55.428 110.279L54.6969 110.181C54.4628 110.134 54.2233 110.119 53.9852 110.137C53.7564 110.18 53.5485 110.299 53.3945 110.473C53.2404 110.648 53.149 110.869 53.1345 111.102C53.1328 111.34 53.1931 111.575 53.3097 111.783L53.6127 112.469L59.8705 127.067C60.3764 128.246 60.8768 129.414 61.3717 130.573C61.6219 131.151 61.8665 131.726 62.1139 132.299C62.239 132.577 62.3474 132.883 62.492 133.133C62.6419 133.394 62.8445 133.62 63.0869 133.798C63.2072 133.886 63.3367 133.962 63.4733 134.023C63.6068 134.081 63.7513 134.134 63.8959 134.192L64.7494 134.534L66.4396 135.21L69.7756 136.536L82.2078 141.504C82.6827 141.698 83.202 141.759 83.709 141.679L85.2324 141.515L88.1931 141.215L93.7531 140.659L110.561 138.954L115.131 138.496L115.498 138.462C115.604 138.462 115.708 138.428 115.793 138.365C115.856 138.313 115.903 138.243 115.927 138.164C115.951 138.086 115.952 138.002 115.929 137.923C115.903 137.825 115.839 137.741 115.751 137.69C115.69 137.653 115.657 137.642 115.657 137.64Z" fill="#263238"/>
<path d="M90.5362 133.776L97.856 136.84L106.977 135.889L99.3071 132.723L90.5362 133.776Z" fill="#F5F5F5"/>
<path d="M85.0182 139.567L99.3074 138.277L85.6632 132.867L81.2763 133.198L83.5948 138.791L85.0182 139.567Z" fill="#F5F5F5"/>
<path d="M114.242 137.632L114.144 137.649L113.852 137.685L112.74 137.799L108.609 138.202L94.9873 139.473L84.2787 140.44H84.2343L84.2176 140.399L81.8462 134.613L81.1957 132.995C81.1234 132.81 81.0678 132.668 81.0289 132.57C81.0086 132.521 80.9909 132.471 80.9761 132.42C80.9761 132.42 81.0011 132.467 81.0456 132.562L81.2291 132.981L81.9102 134.586C82.494 135.976 83.328 137.963 84.3288 140.354L84.2676 140.315L94.9734 139.323L108.609 138.094L112.732 137.744L113.844 137.655L114.136 137.635L114.242 137.632Z" fill="black"/>
<path d="M53.632 110.84H53.7543L54.1157 110.882L55.5057 111.062L60.6042 111.757C62.7559 112.057 65.3302 112.419 68.163 112.839L70.3425 113.175L70.8985 113.27C70.9903 113.283 71.0876 113.306 71.1765 113.328C71.2238 113.328 71.2738 113.347 71.3211 113.361C71.5556 113.455 71.7684 113.596 71.9466 113.776C72.0188 113.852 72.0763 113.942 72.1162 114.04L72.2246 114.318C72.8056 115.769 73.4061 117.273 74.0233 118.81C76.4808 124.968 78.702 130.544 80.3144 134.587C81.1123 136.602 81.7572 138.237 82.2076 139.371C82.4244 139.927 82.594 140.372 82.7135 140.678C82.7691 140.822 82.8108 140.933 82.8414 141.017C82.8572 141.055 82.8702 141.094 82.8803 141.133C82.8607 141.097 82.8431 141.06 82.8275 141.022L82.6857 140.686L82.1548 139.393C81.6961 138.259 81.0428 136.633 80.2088 134.623L73.9037 118.863C73.2866 117.326 72.6861 115.822 72.1051 114.37L71.9966 114.092C71.9631 114.01 71.9151 113.935 71.8549 113.87C71.7305 113.735 71.5802 113.626 71.4128 113.55C71.3712 113.53 71.3285 113.513 71.285 113.498L71.1515 113.464C71.0626 113.445 70.9736 113.425 70.8735 113.411L70.3175 113.314L68.138 112.972L60.5875 111.86L55.4946 111.118L54.1046 110.912L53.7459 110.854L53.632 110.84Z" fill="black"/>
<path d="M68.0016 123.62C68.6966 124.551 68.8356 125.621 68.3158 126.01C67.7959 126.4 66.8062 125.963 66.1112 125.032C65.4162 124.101 65.2772 123.033 65.7971 122.641C66.317 122.249 67.3066 122.691 68.0016 123.62Z" fill="white"/>
<path d="M155.955 107.744C155.024 102.462 149.183 99.2784 147.254 97.5215L150.153 101.4C151.637 107.52 152.2 113.828 151.821 120.115C151.782 120.801 151.858 121.727 152.347 121.824C152.524 121.839 152.699 121.784 152.836 121.671C154.549 120.573 155.661 118.057 155.908 115.466C156.155 112.875 156.378 110.187 155.955 107.744Z" fill="#1AB6F7"/>
<path d="M151.68 101.829C151.402 101.298 151.516 99.6046 150.012 101.373L149.914 100.711L140.621 93.5664L119.907 94.6423C117.919 94.7674 114.934 98.209 114.189 99.6463C113.577 104.992 113.455 109.738 113.455 109.738C113.455 109.738 112.743 115.681 113.455 118.492C114.166 121.302 115.009 122.317 116.11 124.502C116.915 125.995 117.92 127.372 119.095 128.594L120.063 136.1L141.702 138.046L151.607 137.49C151.607 137.49 150.721 122.687 150.721 122.426C150.721 122.303 151.958 119.445 153.287 116.412C155.544 111.222 154.271 106.838 151.68 101.829Z" fill="#455A64"/>
<path d="M97.3363 128.752C97.4447 128.752 98.5261 121.443 99.235 119.784C99.9022 118.219 114.189 99.6426 114.189 99.6426L117.552 110.485L116.11 116.284L108.326 125.649L106.127 132.438L97.3363 128.752Z" fill="#455A64"/>
<path d="M154.56 107.383C153.534 100.88 148.469 101.164 148.469 101.164L143.434 109.924V128.038L119.146 130.14L118.695 136.239C118.695 136.239 142.895 141.771 148.486 139.917C152.186 138.691 155.311 135.597 155.653 130.54C155.994 125.483 155.589 113.888 154.56 107.383Z" fill="#455A64"/>
<path d="M108.351 125.639C108.28 125.225 108.187 124.815 108.073 124.411C107.768 123.439 107.218 122.563 106.476 121.866C105.734 121.169 104.825 120.675 103.836 120.432C103.425 120.34 103.009 120.27 102.591 120.221C102.705 120.208 102.821 120.208 102.935 120.221C103.247 120.234 103.557 120.275 103.861 120.344C104.876 120.568 105.81 121.063 106.567 121.775C107.323 122.488 107.872 123.392 108.156 124.391C108.244 124.691 108.303 124.998 108.334 125.309C108.353 125.418 108.359 125.529 108.351 125.639Z" fill="black"/>
<path d="M119.976 129.889C120.011 129.88 120.046 129.873 120.082 129.869L120.391 129.825L121.581 129.666L125.965 129.11L140.421 127.354L143.634 126.97L143.57 127.039C143.757 122.113 143.848 117.771 143.815 114.66C143.815 113.106 143.782 111.858 143.762 110.999C143.762 110.576 143.743 110.245 143.737 110.015V109.759C143.737 109.701 143.737 109.673 143.737 109.67C143.74 109.7 143.74 109.729 143.737 109.759C143.737 109.823 143.737 109.906 143.754 110.012C143.754 110.245 143.782 110.568 143.801 110.999C143.837 111.855 143.876 113.103 143.898 114.66C143.948 117.771 143.882 122.119 143.701 127.042V127.103H143.64L140.426 127.49L125.956 129.205L121.569 129.708L120.374 129.836L120.063 129.867L119.976 129.889Z" fill="black"/>
<path d="M155.983 129.889C155.987 129.926 155.987 129.963 155.983 130C155.983 130.078 155.983 130.186 155.967 130.322C155.941 130.737 155.894 131.15 155.825 131.559C155.716 132.209 155.557 132.849 155.349 133.475C155.066 134.301 154.685 135.09 154.215 135.827C153.644 136.723 152.923 137.515 152.083 138.168C151.118 138.917 150.003 139.449 148.814 139.727C148.173 139.881 147.523 139.99 146.868 140.052C146.186 140.114 145.501 140.139 144.816 140.13C143.38 140.101 141.948 139.967 140.532 139.73L132.328 138.382L128.75 137.787L125.634 137.211C123.735 136.855 122.195 136.586 121.128 136.424L119.896 136.244L119.576 136.199C119.54 136.196 119.503 136.189 119.468 136.177H119.576L119.899 136.21C120.177 136.241 120.599 136.288 121.136 136.363C122.206 136.508 123.749 136.764 125.653 137.106L128.764 137.662L132.345 138.243L140.549 139.583C141.96 139.823 143.387 139.959 144.819 139.991C145.514 139.991 146.192 139.972 146.857 139.919C147.505 139.859 148.147 139.753 148.78 139.602C149.954 139.33 151.056 138.809 152.011 138.073C152.842 137.433 153.559 136.655 154.129 135.774C154.599 135.046 154.983 134.266 155.272 133.45C155.484 132.831 155.65 132.197 155.769 131.554C155.861 131.023 155.917 130.606 155.936 130.322L155.969 130C155.971 129.963 155.976 129.925 155.983 129.889Z" fill="black"/>
<path d="M119.32 130.336C119.309 130.299 119.302 130.261 119.298 130.222C119.284 130.136 119.265 130.022 119.245 129.883C119.201 129.572 119.137 129.138 119.059 128.588V128.607L117.219 126.57C116.86 126.058 116.536 125.523 116.249 124.968C115.927 124.337 115.643 123.687 115.398 123.022C114.855 121.52 114.482 119.962 114.286 118.377C114.092 116.661 114.052 114.932 114.166 113.209C114.252 111.624 114.416 110.201 114.572 109.011C114.728 107.821 114.875 106.862 114.981 106.198L115.106 105.436C115.12 105.355 115.131 105.291 115.142 105.239C115.144 105.216 115.15 105.193 115.159 105.172C115.161 105.194 115.161 105.216 115.159 105.239C115.159 105.294 115.159 105.358 115.137 105.439C115.111 105.628 115.081 105.884 115.039 106.206C114.95 106.87 114.82 107.832 114.675 109.025C114.53 110.218 114.4 111.635 114.314 113.22C114.207 114.934 114.25 116.654 114.442 118.36C114.635 119.935 115.001 121.485 115.531 122.981C115.771 123.638 116.05 124.282 116.365 124.907C116.647 125.459 116.963 125.992 117.313 126.503L119.129 128.566L119.279 129.864C119.293 130.006 119.304 130.12 119.315 130.206C119.324 130.249 119.326 130.293 119.32 130.336Z" fill="black"/>
<path d="M147.134 131.012C146.951 130.809 146.783 130.592 146.631 130.364C146.328 129.955 145.903 129.399 145.405 128.807C144.908 128.215 144.438 127.695 144.09 127.328C143.891 127.138 143.705 126.934 143.534 126.717C143.76 126.874 143.969 127.055 144.157 127.256C144.635 127.717 145.087 128.205 145.511 128.716C145.938 129.223 146.338 129.753 146.709 130.303C146.874 130.524 147.017 130.762 147.134 131.012Z" fill="black"/>
<path d="M103.28 129.645C103.074 128.458 101.993 127.532 101.993 127.532C101.993 127.532 101.476 126.087 100.703 125.706C99.93 125.325 99.3128 126.087 98.64 125.881C97.9673 125.675 96.5245 125.623 96.0602 125.881C95.5959 126.14 95.0288 127.583 95.0288 127.583C94.5608 127.601 94.1029 127.725 93.6889 127.944C93.3379 128.125 93.0342 128.386 92.802 128.706C92.6005 128.627 92.3799 128.612 92.1694 128.661C91.959 128.711 91.7685 128.823 91.6233 128.984C91.3413 129.313 91.1302 129.697 91.0034 130.112L90.6364 131.096C90.5658 131.247 90.5333 131.412 90.5419 131.577C90.5702 131.714 90.6439 131.836 90.751 131.925C90.8581 132.014 90.9921 132.064 91.1313 132.067C91.2726 132.067 91.4125 132.038 91.5418 131.981C91.6711 131.924 91.787 131.841 91.8819 131.736C92.0711 131.549 92.238 131.341 92.3795 131.116L92.4712 131.761C92.4712 131.761 92.6241 132.781 93.4498 132.842C94.0197 132.887 94.6368 132.225 94.6368 132.225L96.0797 132.069L96.2854 133.512C96.3804 133.79 96.5621 134.031 96.8038 134.198C97.0455 134.365 97.3344 134.45 97.6281 134.441C98.1452 134.441 98.8124 133.565 98.8124 133.565L100.155 134.079C100.155 134.079 101.701 135.164 102.424 134.802C102.626 134.7 102.787 134.532 102.881 134.326C102.975 134.12 102.996 133.888 102.941 133.668C103.249 133.318 103.493 132.916 103.661 132.481C103.855 131.864 103.497 130.832 103.28 129.645Z" fill="#FFBE9D"/>
<path d="M92.4378 131.512C92.379 131.002 92.3968 130.486 92.4906 129.981C92.5388 129.47 92.6644 128.969 92.8632 128.496C92.9021 128.496 92.7492 129.172 92.6324 130.003C92.5157 130.834 92.4906 131.512 92.4378 131.512Z" fill="#EB996E"/>
<path d="M94.6923 130.156C94.7799 130.507 94.821 130.868 94.8146 131.229C94.8441 131.49 94.8176 131.755 94.7367 132.005C94.6561 132.2 94.5421 132.283 94.5338 132.261C94.5255 132.238 94.5922 132.152 94.6394 131.983C94.6871 131.74 94.6974 131.492 94.67 131.246C94.6276 130.883 94.6351 130.517 94.6923 130.156Z" fill="#EB996E"/>
<path d="M95.6543 129.542C95.6821 129.569 95.4931 129.82 95.229 130.075C94.9649 130.331 94.7313 130.537 94.7008 130.509C94.6702 130.481 94.862 130.231 95.1261 129.975C95.3902 129.72 95.6265 129.514 95.6543 129.542Z" fill="#EB996E"/>
<path d="M95.8462 126.768C95.8774 127.028 95.8886 127.29 95.8796 127.552C95.8796 128.038 95.8991 128.705 95.938 129.442C95.9769 130.179 96.0353 130.846 96.077 131.33C96.1165 131.589 96.1332 131.851 96.127 132.114C96.0502 131.862 95.9999 131.603 95.9769 131.341C95.9074 130.86 95.8351 130.193 95.7934 129.45C95.7517 128.708 95.7573 128.038 95.7767 127.552C95.7727 127.289 95.796 127.026 95.8462 126.768Z" fill="#EB996E"/>
<path d="M101.256 127.32C101.256 127.32 101.195 127.459 101.098 127.709C100.962 128.063 100.854 128.427 100.775 128.799C100.725 129.038 100.672 129.296 100.614 129.571C100.559 129.873 100.477 130.169 100.369 130.455C100.249 130.779 100.047 131.067 99.7828 131.289C99.6384 131.415 99.4664 131.504 99.2808 131.55C99.0953 131.596 98.9015 131.597 98.7153 131.553C98.5219 131.51 98.3469 131.407 98.2149 131.259C98.0931 131.112 98.0151 130.934 97.9897 130.745C97.9503 130.407 97.9437 130.066 97.9703 129.727C98.0018 129.158 98.0893 128.594 98.2316 128.042C98.3271 127.671 98.4497 127.306 98.5986 126.953C98.6514 126.827 98.6931 126.733 98.7264 126.675C98.7406 126.641 98.7593 126.609 98.782 126.58C98.7474 126.715 98.7037 126.848 98.6514 126.978C98.5237 127.335 98.417 127.7 98.3317 128.07C98.2052 128.618 98.1289 129.176 98.1037 129.738C98.0817 130.066 98.09 130.396 98.1287 130.722C98.1514 130.886 98.2187 131.04 98.3233 131.167C98.4366 131.291 98.5849 131.379 98.7487 131.417C98.9137 131.455 99.0854 131.454 99.2496 131.413C99.4139 131.372 99.5662 131.292 99.6939 131.181C99.9419 130.973 100.133 130.705 100.25 130.403C100.425 129.867 100.568 129.322 100.681 128.771C100.768 128.397 100.891 128.033 101.048 127.684C101.091 127.588 101.14 127.495 101.195 127.406C101.228 127.347 101.251 127.317 101.256 127.32Z" fill="#EB996E"/>
<path d="M101.801 127.945C101.762 128.254 101.626 128.541 101.412 128.767C101.199 128.993 100.919 129.145 100.614 129.202C100.857 129.041 101.089 128.863 101.306 128.668C101.489 128.44 101.654 128.198 101.801 127.945Z" fill="#EB996E"/>
<path d="M98.8152 131.541C98.9065 131.927 98.93 132.326 98.8847 132.72C98.8699 133.07 98.8206 133.419 98.7374 133.759V133.779C98.727 133.784 98.7155 133.787 98.7038 133.788C98.692 133.788 98.6804 133.786 98.6697 133.781C98.659 133.776 98.6495 133.769 98.642 133.76C98.6345 133.751 98.6291 133.74 98.6262 133.729C98.6262 133.701 98.6262 133.69 98.6262 133.69C98.6262 133.69 98.6262 133.704 98.6456 133.715C98.6651 133.726 98.6846 133.737 98.6929 133.715L98.6762 133.737C98.6762 133.548 98.7179 133.153 98.7429 132.697C98.7399 132.311 98.764 131.924 98.8152 131.541Z" fill="#EB996E"/>
<path d="M102.087 130.391C101.98 130.567 101.853 130.732 101.709 130.88C101.391 131.25 101.111 131.653 100.875 132.081C100.641 132.508 100.508 132.984 100.486 133.471C100.486 133.846 100.55 134.074 100.525 134.08C100.428 133.892 100.379 133.682 100.383 133.471C100.375 132.961 100.501 132.458 100.747 132.011C100.992 131.572 101.295 131.168 101.648 130.81C101.776 130.652 101.924 130.511 102.087 130.391Z" fill="#EB996E"/>
<path d="M101.518 132.952C101.431 132.639 101.445 132.307 101.559 132.003C101.673 131.7 101.88 131.44 102.151 131.262C103.122 130.572 106.027 128.76 106.088 128.76C106.149 128.76 109.499 127.648 110.908 127.503C112.318 127.358 118.487 130.422 118.487 130.422C118.487 130.422 119.918 132.485 119.688 134.464C119.457 136.443 118.167 136.557 118.167 136.557L116.377 136.121L114.531 135.768C114.531 135.768 110.447 136.905 109.805 136.696C109.163 136.488 108.94 135.79 109.635 135.412C110.33 135.034 112.329 134.442 112.329 134.442L113.866 133.791L108.862 134.506C108.862 134.506 104.631 135.34 104.136 135.223C103.641 135.106 103.566 134.737 103.525 134.389C103.525 134.389 101.821 135.223 101.315 134.767C100.809 134.311 100.586 133.319 101.518 132.952Z" fill="#FFBE9D"/>
<path d="M112.318 131.736C112.194 131.756 112.068 131.762 111.942 131.755C111.703 131.755 111.356 131.755 110.928 131.783C110.428 131.806 109.932 131.875 109.446 131.991C109.159 132.064 108.88 132.164 108.612 132.289C108.334 132.417 108.056 132.567 107.778 132.734C107.494 132.896 107.199 133.036 106.894 133.153C106.609 133.259 106.31 133.323 106.007 133.345C105.508 133.345 105.01 133.401 104.523 133.512C104.205 133.613 103.924 133.807 103.716 134.068C103.646 134.17 103.584 134.276 103.53 134.388C103.53 134.388 103.53 134.352 103.547 134.29C103.576 134.201 103.617 134.116 103.669 134.037C103.869 133.749 104.157 133.531 104.489 133.417C104.981 133.289 105.487 133.221 105.996 133.215C106.601 133.144 107.183 132.938 107.697 132.611C107.975 132.453 108.253 132.292 108.548 132.161C108.822 132.036 109.108 131.937 109.401 131.866C109.896 131.751 110.403 131.69 110.911 131.686C111.345 131.686 111.692 131.686 111.934 131.702C112.063 131.701 112.191 131.712 112.318 131.736Z" fill="#EB996E"/>
<path d="M110.805 129.625C110.777 129.644 110.746 129.66 110.714 129.672C110.655 129.7 110.564 129.736 110.436 129.778C110.094 129.883 109.746 129.963 109.393 130.017C108.951 130.095 108.417 130.153 107.85 130.295C107.239 130.48 106.652 130.736 106.102 131.059C105.076 131.63 104.005 132.116 102.899 132.511C102.477 132.661 102.129 132.772 101.887 132.844C101.765 132.889 101.638 132.921 101.509 132.942C101.624 132.88 101.745 132.829 101.87 132.791L102.863 132.413C103.952 131.993 105.011 131.498 106.032 130.932C106.593 130.603 107.193 130.345 107.817 130.164C108.332 130.048 108.854 129.961 109.379 129.903C109.729 129.859 110.076 129.795 110.419 129.711C110.546 129.675 110.675 129.647 110.805 129.625Z" fill="#EB996E"/>
<path d="M114.867 130.818C114.83 130.709 114.803 130.598 114.786 130.484C114.72 130.224 114.592 129.984 114.413 129.784C114.234 129.584 114.009 129.431 113.758 129.336C113.647 129.306 113.539 129.267 113.435 129.219C113.435 129.203 113.574 129.186 113.791 129.239C114.073 129.315 114.327 129.47 114.522 129.687C114.717 129.904 114.843 130.174 114.887 130.462C114.916 130.58 114.909 130.704 114.867 130.818Z" fill="#EB996E"/>
<path d="M117.18 133.939C117.175 133.782 117.161 133.627 117.138 133.472C117.043 133.11 116.83 132.791 116.532 132.565C116.225 132.343 115.887 132.168 115.528 132.046C115.372 132.004 115.223 131.942 115.084 131.859C115.246 131.862 115.407 131.892 115.559 131.948C115.943 132.047 116.304 132.218 116.624 132.452C116.948 132.696 117.168 133.055 117.238 133.455C117.278 133.618 117.258 133.79 117.18 133.939Z" fill="#EB996E"/>
<path d="M103.542 134.385C103.471 134.448 103.389 134.497 103.3 134.53C103.067 134.639 102.828 134.732 102.582 134.808C102.414 134.867 102.241 134.914 102.065 134.95C101.854 134.978 101.639 134.956 101.437 134.886C101.323 134.844 101.219 134.779 101.132 134.695C101.045 134.61 100.977 134.509 100.931 134.397C100.816 134.168 100.77 133.911 100.798 133.657C100.827 133.465 100.926 133.291 101.076 133.168C101.204 133.055 101.347 132.962 101.501 132.89L101.465 132.973C101.352 132.629 101.378 132.254 101.537 131.928C101.67 131.684 101.848 131.468 102.063 131.291C102.2 131.176 102.347 131.073 102.502 130.983C102.555 130.944 102.614 130.915 102.677 130.896C102.691 130.916 102.452 131.055 102.121 131.355C101.926 131.534 101.764 131.745 101.643 131.981C101.506 132.281 101.49 132.623 101.598 132.934L101.615 132.987L101.562 133.015C101.301 133.151 100.987 133.351 100.956 133.679C100.933 133.905 100.973 134.134 101.073 134.338C101.11 134.434 101.166 134.522 101.239 134.594C101.312 134.667 101.399 134.724 101.495 134.761C101.673 134.826 101.863 134.85 102.051 134.833C102.222 134.802 102.391 134.762 102.557 134.713C102.866 134.627 103.113 134.541 103.28 134.48C103.364 134.439 103.451 134.408 103.542 134.385Z" fill="#EB996E"/>
<path d="M125.081 78.1481C124.478 72.1266 123.202 66.133 123.466 60.0781L118.515 63.1695C118.762 65.5658 116.607 67.4229 115.359 69.4801C114.612 70.7368 114.174 72.1529 114.081 73.6119C113.988 75.0709 114.242 76.5313 114.823 77.8729C115.267 78.8737 115.899 79.8189 116.063 80.9031C116.341 82.7323 115.209 84.5922 115.626 86.3964C116.104 88.473 118.645 89.6128 120.694 89.029C122.743 88.4452 124.211 86.527 124.814 84.4949C125.417 82.4627 125.292 80.2693 125.081 78.1481Z" fill="#263238"/>
<path d="M118.781 62.1517C119.055 60.6825 119.715 59.3125 120.692 58.1822C121.67 57.0518 122.931 56.2018 124.345 55.7192C125.76 55.2365 127.277 55.1387 128.742 55.4356C130.207 55.7326 131.566 56.4137 132.681 57.4091C133.585 58.218 134.324 59.2272 135.369 59.8416C136.551 60.5338 136.704 60.3003 138.005 60.72C139.306 61.1398 141.855 64.537 141.897 65.9047L142.909 71.8539C142.942 73.2578 141.191 74.1613 139.834 73.7999C138.477 73.4385 137.521 72.2404 136.743 71.0672C135.964 69.894 135.225 68.6236 134.027 67.8869C132.039 66.6665 129.487 67.2892 127.235 67.8869C124.983 68.4846 122.367 68.9989 120.494 67.6089C118.892 66.3996 118.414 64.12 118.781 62.1517Z" fill="#263238"/>
<path d="M118.064 70.7699C118.064 66.8557 120.369 61.9156 124.277 62.0935L136.593 64.4287C137.166 64.4541 137.709 64.6939 138.113 65.1007C138.518 65.5075 138.755 66.0515 138.778 66.6249L139.242 95.9539H139.325C139.325 95.9539 135.047 106.713 126.874 104.694C125.253 104.294 126.451 100.26 126.023 98.4921L125.943 98.5088C125.926 98.2947 125.912 98.0973 125.895 97.8944C125.656 96.5713 125.556 95.2267 125.598 93.8828C125.428 91.5226 125.37 90.5468 125.37 90.5774C125.37 90.608 120.338 90.0492 118.915 83.6135C118.209 80.4276 118.05 75.1206 118.064 70.7699Z" fill="#FFBE9D"/>
<path d="M120.238 75.8906C120.249 76.1079 120.344 76.3123 120.503 76.4604C120.663 76.6084 120.874 76.6882 121.091 76.6829C121.198 76.6851 121.304 76.6659 121.403 76.6265C121.502 76.5871 121.592 76.5281 121.668 76.4532C121.744 76.3783 121.804 76.289 121.845 76.1904C121.886 76.0919 121.907 75.9861 121.906 75.8795C121.895 75.6622 121.8 75.4577 121.64 75.3097C121.481 75.1617 121.27 75.0818 121.052 75.0872C120.946 75.0849 120.84 75.1041 120.741 75.1436C120.642 75.183 120.551 75.2419 120.476 75.3168C120.4 75.3917 120.339 75.4811 120.299 75.5796C120.258 75.6782 120.237 75.7839 120.238 75.8906Z" fill="#263238"/>
<path d="M119.379 73.458C119.487 73.5609 120.091 73.0549 120.989 73.0049C121.887 72.9548 122.57 73.3607 122.657 73.2467C122.704 73.1939 122.584 73.0049 122.287 72.813C121.882 72.5668 121.411 72.4521 120.939 72.485C120.477 72.518 120.037 72.6961 119.682 72.9937C119.404 73.2106 119.323 73.4135 119.379 73.458Z" fill="#263238"/>
<path d="M128.328 75.4377C128.338 75.655 128.434 75.8595 128.593 76.0075C128.753 76.1555 128.963 76.2354 129.181 76.23C129.288 76.2322 129.394 76.2131 129.493 76.1736C129.592 76.1342 129.682 76.0753 129.758 76.0004C129.834 75.9255 129.894 75.8361 129.935 75.7375C129.976 75.639 129.996 75.5333 129.996 75.4266C129.985 75.2078 129.888 75.0021 129.727 74.8538C129.566 74.7056 129.353 74.6267 129.134 74.6343C129.028 74.6332 128.923 74.6532 128.825 74.6931C128.726 74.7331 128.637 74.7922 128.562 74.867C128.487 74.9417 128.428 75.0307 128.387 75.1287C128.347 75.2267 128.327 75.3318 128.328 75.4377Z" fill="#263238"/>
<path d="M128.205 73.0962C128.314 73.1962 128.917 72.6931 129.815 72.6402C130.713 72.5874 131.397 72.9989 131.483 72.8821C131.527 72.8293 131.413 72.6402 131.113 72.4484C130.708 72.2033 130.237 72.0888 129.765 72.1204C129.299 72.1485 128.853 72.3226 128.492 72.618C128.233 72.846 128.15 73.0489 128.205 73.0962Z" fill="#263238"/>
<path d="M125.351 79.9433C125.351 79.8905 124.795 79.8293 123.877 79.7682C123.646 79.7682 123.427 79.7237 123.38 79.5708C123.346 79.335 123.385 79.0946 123.491 78.8814C123.674 78.3254 123.863 77.7221 124.063 77.0994C124.856 74.5585 125.412 72.4762 125.309 72.4457C125.206 72.4151 124.475 74.4473 123.691 76.9854L123.149 78.7813C123.021 79.0652 122.998 79.3856 123.085 79.6848C123.123 79.7641 123.178 79.8337 123.247 79.8882C123.316 79.9427 123.397 79.9806 123.482 79.9989C123.611 80.0258 123.743 80.0361 123.874 80.0295C124.786 80.0239 125.351 79.9934 125.351 79.9433Z" fill="#263238"/>
<path d="M125.37 90.5938C128.432 90.455 131.396 89.4696 133.932 87.7471C133.932 87.7471 132.009 92.4036 125.47 92.1951L125.37 90.5938Z" fill="#EB996E"/>
<path d="M125.859 82.0818C126.017 81.8564 126.229 81.6751 126.476 81.5549C126.723 81.4347 126.997 81.3797 127.271 81.3951C127.47 81.4 127.666 81.4455 127.847 81.5286C128.027 81.6118 128.189 81.731 128.322 81.8788C128.451 82.021 128.534 82.1993 128.558 82.3898C128.582 82.5802 128.548 82.7735 128.459 82.9436C128.324 83.1133 128.143 83.2391 127.937 83.305C127.731 83.3708 127.51 83.3737 127.302 83.3133C126.869 83.189 126.465 82.9791 126.115 82.6961C126.007 82.6314 125.913 82.5464 125.837 82.4459C125.801 82.3985 125.78 82.3415 125.777 82.2821C125.773 82.2227 125.787 82.1636 125.818 82.1123" fill="#EB996E"/>
<path d="M128.022 80.4047C127.875 80.4047 127.93 81.3777 127.141 82.1172C126.351 82.8566 125.306 82.8149 125.306 82.9512C125.306 83.0123 125.548 83.1263 125.987 83.1124C126.558 83.0866 127.101 82.8601 127.522 82.473C127.925 82.1008 128.167 81.5863 128.197 81.0385C128.217 80.6299 128.092 80.3936 128.022 80.4047Z" fill="#263238"/>
<path d="M127.774 69.697C127.877 69.9361 128.767 69.7665 129.826 69.8304C130.885 69.8944 131.755 70.1279 131.88 69.8999C131.936 69.7915 131.775 69.5719 131.419 69.3439C130.943 69.082 130.414 68.9318 129.872 68.9048C129.329 68.8778 128.788 68.9748 128.289 69.1883C127.913 69.3801 127.744 69.583 127.774 69.697Z" fill="#263238"/>
<path d="M119.551 70.8422C119.721 71.0368 120.327 70.7893 121.069 70.7337C121.812 70.6781 122.459 70.7893 122.582 70.5669C122.64 70.4585 122.529 70.2611 122.24 70.086C121.857 69.8759 121.42 69.7849 120.985 69.8245C120.551 69.8641 120.137 70.0326 119.799 70.3084C119.549 70.5336 119.476 70.7476 119.551 70.8422Z" fill="#263238"/>
<path d="M124.389 60.4201L124.894 59.6807C128.675 59.8766 132.411 60.5855 136.001 61.7879C137.435 62.2688 138.892 62.861 139.92 63.9702C141.338 65.4936 141.686 67.6954 141.964 69.7582C143.026 77.6061 144.004 85.6987 141.991 93.3604C141.335 92.4374 140.14 92.0788 139.017 91.9314C137.894 91.7841 136.723 91.7897 135.681 91.3365C135.115 91.0773 134.609 90.7024 134.196 90.2361C133.784 89.7698 133.473 89.2223 133.285 88.6288C132.913 87.4311 132.975 86.1408 133.46 84.9842C133.985 83.6971 134.983 82.4238 134.636 81.0922C134.271 79.6828 132.584 78.9683 132.111 77.5922C131.297 75.2125 134.558 72.8273 133.721 70.4559C133.41 69.5802 132.592 68.9798 131.736 68.6184C130.88 68.257 129.957 68.0818 129.092 67.7454C127.655 67.1499 126.434 66.129 125.593 64.8197C124.752 63.5103 124.332 61.9752 124.389 60.4201Z" fill="#263238"/>
<path d="M143.621 64.298C139.579 58.6323 136.84 57.9457 133.037 57.7344L138.319 69.5772C139.112 71.4843 140.201 73.7972 140.371 75.8516C140.571 78.2897 139.726 80.3302 138.595 82.4958C137.238 85.0979 135.748 87.5777 133.415 89.3569C131.083 91.1361 125.89 93.374 123.193 92.2203L126.955 94.3247L135.94 94.3581L146.406 94.3998C146.406 94.3998 147.63 93.3267 148.705 90.5578C151.405 83.6217 148.13 70.6169 143.621 64.298Z" fill="#1AB6F7"/>
<path d="M151.074 101.2C151.074 101.2 148.822 96.5797 145.884 94.0388C142.945 91.4979 141.141 91.5229 136.949 91.8787C132.757 92.2345 126.891 92.8962 125.501 92.5431L125.37 90.5971C124.681 90.5276 121.853 89.1515 121.303 88.3203C120.252 89.3962 119.793 90.5443 120.033 91.7647L119.346 92.0233C118.333 92.3939 117.492 93.1245 116.983 94.0756C116.475 95.0268 116.334 96.1319 116.588 97.1802C116.849 98.181 117.48 98.7954 118.748 99.015C123.78 99.8851 137.232 96.2489 141.283 96.235C145.333 96.2211 151.074 101.2 151.074 101.2Z" fill="#1AB6F7"/>
<path d="M118.292 98.9621C118.41 98.9586 118.528 98.9651 118.645 98.9815C118.873 99.0038 119.201 99.0399 119.643 99.0705C120.869 99.166 122.1 99.1865 123.329 99.1316C125.15 99.0379 126.959 98.7924 128.739 98.3977C129.746 98.1781 130.794 97.9112 131.869 97.5999L135.189 96.574C137.466 95.8818 139.748 95.4092 141.836 95.6149C143.675 95.7831 145.455 96.3525 147.051 97.2829C148.122 97.9107 149.091 98.6992 149.923 99.6209C150.149 99.8699 150.36 100.132 150.557 100.405C150.629 100.492 150.695 100.585 150.754 100.683C150.666 100.605 150.588 100.517 150.52 100.422C150.379 100.241 150.154 99.9879 149.856 99.671C147.735 97.4489 144.877 96.0753 141.816 95.8068C139.77 95.6177 137.524 96.0848 135.255 96.7742C134.118 97.1161 133.015 97.4803 131.933 97.7945C130.852 98.1086 129.798 98.3699 128.784 98.584C126.991 98.973 125.168 99.2037 123.335 99.2734C122.1 99.3147 120.863 99.2692 119.635 99.1372C119.201 99.0927 118.865 99.0427 118.639 99.0065C118.523 99.0017 118.406 98.9868 118.292 98.9621Z" fill="#263238"/>
<path d="M151.315 99.6817C146.239 93.082 136.506 90.5606 128.861 93.8632L120.799 95.5729C118.673 95.9399 115.262 96.6321 115.1 98.6031C114.953 100.691 115.408 102.776 116.41 104.613C118.283 107.877 117.266 112.25 119.14 115.514C120.024 117.057 120.927 118.622 122.217 119.848C123.507 121.074 125.259 121.933 127.027 121.741C128.995 121.53 130.607 120.092 131.858 118.558C134.552 115.253 136.234 111.238 138.755 107.802C141.277 104.366 144.251 101.836 149.55 101.511C150.512 101.45 153.256 102.731 153.256 102.731C153.334 102.342 151.557 99.9903 151.315 99.6817Z" fill="#1AB6F7"/>
<g opacity="0.3">
<path d="M140.465 95.7559C136.96 95.7559 133.515 97.4406 130.118 98.1912C116.452 101.199 116.452 96.045 116.452 96.045C116.024 98.4664 118.298 99.5784 120.691 100.134C125.261 101.191 130.143 101.758 133.44 100.704C136.098 99.8703 138.872 99.2504 141.555 98.4803C144.238 97.7102 148.102 98.0049 150.134 99.912C148.316 96.9235 143.971 95.7476 140.465 95.7559Z" fill="black"/>
</g>
<g opacity="0.3">
<path d="M122.704 95.386C122.867 95.744 123.106 96.0626 123.403 96.3202C123.701 96.5778 124.05 96.7683 124.428 96.8789C125.184 97.097 125.977 97.165 126.76 97.079C129.618 96.8844 132.364 95.9309 135.069 94.9857C132.907 94.9106 130.813 95.664 128.692 96.0977C126.571 96.5314 124.18 96.5592 122.456 95.2637" fill="black"/>
</g>
<path d="M152.002 101.798C152.002 101.798 151.977 101.778 151.938 101.736L151.769 101.542C151.621 101.367 151.396 101.122 151.099 100.811C150.261 99.9301 149.249 99.2341 148.127 98.7674C147.344 98.472 146.521 98.294 145.686 98.2392C144.728 98.1616 143.765 98.1924 142.814 98.331C140.796 98.609 138.664 99.3179 136.401 99.9628C134.138 100.608 131.978 101.281 129.923 101.389C128.112 101.467 126.298 101.337 124.516 101.003C122.998 100.725 121.789 100.402 120.952 100.194L119.99 99.9489L119.743 99.8822L119.657 99.8544C119.686 99.85 119.716 99.85 119.746 99.8544L119.999 99.9072L120.966 100.127C121.8 100.319 123.018 100.622 124.536 100.889C126.31 101.209 128.114 101.328 129.915 101.244C131.947 101.13 134.11 100.488 136.362 99.8127C138.614 99.1372 140.76 98.4561 142.795 98.1864C143.756 98.0508 144.73 98.0247 145.697 98.1086C146.734 98.1682 147.75 98.4334 148.684 98.8886C149.617 99.3439 150.452 99.9803 151.138 100.761C151.432 101.08 151.652 101.331 151.791 101.511L151.949 101.714L152.002 101.798Z" fill="black"/>
<path d="M146.898 94.9977C146.877 94.9839 146.858 94.9681 146.84 94.9505L146.679 94.8031C146.542 94.6697 146.328 94.4834 146.05 94.2471C145.25 93.6001 144.372 93.0547 143.437 92.6236C142.05 91.9879 140.575 91.5644 139.061 91.367C137.206 91.1368 135.33 91.1414 133.476 91.3809C131.621 91.6262 129.78 91.9696 127.961 92.4095C127.157 92.5983 126.329 92.664 125.506 92.6041C124.782 92.55 124.087 92.2981 123.496 91.8758C123.022 91.5159 122.617 91.0732 122.301 90.5692C122.062 90.1931 121.855 89.7979 121.681 89.3877C121.539 89.0513 121.444 88.7816 121.383 88.5982L121.319 88.3897C121.31 88.3666 121.305 88.3422 121.303 88.3174C121.303 88.3174 121.317 88.3396 121.333 88.3841C121.35 88.4286 121.381 88.5064 121.411 88.5898C121.481 88.7677 121.583 89.0318 121.734 89.3654C121.915 89.768 122.128 90.1556 122.37 90.5247C122.687 91.0148 123.089 91.4441 123.557 91.7924C124.137 92.197 124.815 92.4363 125.52 92.4846C126.33 92.5372 127.143 92.4679 127.933 92.2789C129.754 91.8297 131.599 91.4826 133.46 91.2392C135.326 90.9984 137.215 90.9984 139.081 91.2392C140.605 91.4459 142.089 91.8837 143.482 92.5374C144.419 92.9769 145.295 93.5377 146.086 94.2054C146.301 94.3875 146.506 94.5805 146.701 94.7837L146.851 94.9393C146.884 94.9783 146.901 94.9949 146.898 94.9977Z" fill="black"/>
<path d="M145.258 94.8606H145.188L144.983 94.8272L144.19 94.6966C143.219 94.5471 142.241 94.4478 141.26 94.3991C139.804 94.3275 138.344 94.374 136.896 94.5381C135.123 94.776 133.367 95.1204 131.636 95.5695C129.79 96.0143 127.994 96.4035 126.329 96.3785C125.543 96.3834 124.759 96.29 123.997 96.1005C123.331 95.9124 122.716 95.5791 122.195 95.1247C121.448 94.4714 120.84 93.6732 120.41 92.7784C120.247 92.4544 120.117 92.1144 120.024 91.7637C120.037 91.7834 120.047 91.8049 120.054 91.8276L120.13 92.0222C120.199 92.1946 120.305 92.442 120.46 92.7506C120.905 93.6265 121.517 94.4067 122.262 95.0469C122.775 95.4841 123.377 95.8039 124.027 95.9837C124.78 96.167 125.554 96.2557 126.329 96.2478C127.975 96.2478 129.757 95.8781 131.611 95.4305C133.348 94.9779 135.113 94.6344 136.893 94.4019C138.349 94.2451 139.815 94.2088 141.277 94.2935C142.261 94.3507 143.242 94.4648 144.213 94.6354C144.557 94.6994 144.821 94.7522 145.002 94.7939L145.205 94.8411C145.238 94.8495 145.258 94.8578 145.258 94.8606Z" fill="black"/>
<path d="M145.514 82.3848C145.489 82.5426 145.454 82.6986 145.408 82.8518C145.365 83.0345 145.311 83.2146 145.247 83.3911C145.175 83.5996 145.105 83.8387 144.994 84.0917C144.883 84.3447 144.774 84.6282 144.627 84.9257C144.48 85.2231 144.316 85.5206 144.135 85.8403C143.323 87.2068 142.267 88.4121 141.019 89.3959C140.727 89.6183 140.463 89.8324 140.185 90.0047C139.907 90.1771 139.657 90.3411 139.415 90.4774C139.173 90.6136 138.95 90.7248 138.756 90.8221C138.589 90.9093 138.417 90.9864 138.241 91.0528C138.097 91.1195 137.947 91.1752 137.794 91.2196C137.93 91.1359 138.072 91.0634 138.219 91.0028C138.358 90.9388 138.528 90.8582 138.72 90.7498C138.911 90.6414 139.134 90.5385 139.365 90.3884C139.595 90.2383 139.857 90.0937 140.118 89.9047C140.379 89.7156 140.655 89.5127 140.952 89.2931C142.176 88.3051 143.22 87.1124 144.038 85.768C144.218 85.4539 144.396 85.1592 144.535 84.8701C144.674 84.581 144.813 84.3141 144.916 84.0583C145.019 83.8026 145.108 83.5746 145.194 83.3717C145.28 83.1687 145.33 82.988 145.375 82.8435C145.408 82.6869 145.455 82.5334 145.514 82.3848Z" fill="black"/>
<path d="M145.094 98.9555C145.018 98.9554 144.943 98.9489 144.869 98.936L144.591 98.8999C144.485 98.886 144.36 98.8999 144.224 98.8804C143.438 98.8616 142.654 98.983 141.911 99.2391C141.398 99.4151 140.899 99.6288 140.418 99.8785C139.867 100.169 139.331 100.488 138.814 100.835C137.719 101.566 136.573 102.461 135.344 103.365L129.073 108.021L127.157 109.411L126.632 109.772C126.573 109.82 126.51 109.861 126.443 109.895C126.496 109.843 126.553 109.794 126.612 109.75L127.121 109.355L129.009 107.924L135.264 103.248C136.493 102.347 137.638 101.452 138.747 100.724C139.27 100.377 139.811 100.059 140.368 99.77C140.858 99.5234 141.365 99.3134 141.886 99.1418C142.641 98.8915 143.437 98.784 144.232 98.8249C144.371 98.8249 144.496 98.8387 144.602 98.8554L144.88 98.9055C144.953 98.9158 145.024 98.9325 145.094 98.9555Z" fill="black"/>
<path d="M154.065 107.48C154.011 107.354 153.97 107.223 153.942 107.088C153.876 106.835 153.781 106.465 153.648 106.015C153.498 105.487 153.307 104.971 153.078 104.472C152.799 103.865 152.418 103.31 151.952 102.832C151.488 102.352 150.908 102 150.267 101.812C149.74 101.67 149.193 101.622 148.649 101.67C148.146 101.726 147.647 101.812 147.154 101.926C147.184 101.906 147.216 101.891 147.251 101.881C147.318 101.856 147.415 101.823 147.529 101.787C147.892 101.679 148.264 101.606 148.641 101.57C149.199 101.505 149.765 101.543 150.309 101.684C150.975 101.872 151.579 102.233 152.06 102.729C152.539 103.219 152.927 103.791 153.206 104.417C153.434 104.924 153.62 105.449 153.762 105.987C153.881 106.443 153.962 106.821 154.012 107.077C154.041 107.21 154.059 107.344 154.065 107.48Z" fill="black"/>
<path d="M149.133 55.5944C154.599 55.3405 158.825 50.7035 158.571 45.2374C158.317 39.7713 153.68 35.546 148.214 35.7999C142.748 36.0539 138.522 40.6909 138.776 46.157C139.03 51.6231 143.667 55.8484 149.133 55.5944Z" fill="white"/>
<path d="M143.162 57.1475C143.253 57.1217 143.346 57.1003 143.44 57.0835C143.707 57.0504 143.979 57.1019 144.215 57.2309C144.378 57.3157 144.521 57.4352 144.632 57.5811C144.756 57.7508 144.829 57.9525 144.841 58.1622C144.867 58.4033 144.819 58.6467 144.702 58.8594C144.586 59.0722 144.407 59.2443 144.19 59.3524C143.973 59.4605 143.728 59.4995 143.488 59.4641C143.248 59.4288 143.024 59.3208 142.848 59.1546C142.688 59.0186 142.571 58.8403 142.509 58.6403C142.457 58.4596 142.447 58.2696 142.478 58.0843C142.519 57.8176 142.641 57.57 142.828 57.3754C142.962 57.2392 143.059 57.1919 143.053 57.1836C143.029 57.1912 143.005 57.2024 142.984 57.217C142.956 57.2315 142.929 57.2482 142.903 57.267C142.868 57.2929 142.835 57.3207 142.803 57.3504C142.632 57.5143 142.507 57.7212 142.443 57.9495C142.378 58.1778 142.376 58.4192 142.436 58.6487C142.498 58.8648 142.622 59.0582 142.792 59.2047C142.978 59.3697 143.206 59.4795 143.451 59.5216C143.715 59.5772 143.989 59.5421 144.231 59.422C144.472 59.3019 144.665 59.1039 144.78 58.8599C144.893 58.6387 144.943 58.3905 144.924 58.1427C144.909 57.918 144.829 57.7026 144.694 57.5228C144.575 57.3679 144.422 57.2432 144.246 57.1586C143.996 57.0296 143.711 56.9856 143.434 57.0335C143.392 57.0397 143.35 57.05 143.309 57.0641C143.278 57.0721 143.247 57.0833 143.217 57.0974C143.184 57.128 143.159 57.1475 143.162 57.1475Z" fill="#263238"/>
<path d="M140.424 51.3342L140.343 51.1924L140.098 50.7865C140.045 50.6948 139.984 50.5947 139.918 50.4863C139.851 50.3778 139.801 50.2444 139.734 50.1054C139.667 49.9664 139.598 49.8274 139.523 49.6606C139.482 49.5801 139.447 49.4964 139.42 49.4104C139.389 49.3214 139.356 49.2325 139.323 49.1324C138.986 48.2306 138.788 47.283 138.736 46.3218C138.659 45.0489 138.827 43.773 139.231 42.5633L139.406 42.0573C139.476 41.8877 139.556 41.7237 139.631 41.5541C139.667 41.4707 139.706 41.3873 139.745 41.3011C139.781 41.2142 139.823 41.1305 139.873 41.0509L140.151 40.5533C140.198 40.4699 140.246 40.3865 140.296 40.3031L140.468 40.064L140.816 39.5803C140.935 39.4219 141.077 39.2745 141.21 39.1188L141.413 38.8881C141.447 38.852 141.48 38.8103 141.516 38.7741L141.63 38.6685C141.928 38.3688 142.247 38.0902 142.584 37.8345C142.756 37.7094 142.923 37.5565 143.106 37.4481L143.662 37.1061C143.757 37.0505 143.849 36.9866 143.94 36.9365L144.243 36.792C144.446 36.6975 144.646 36.5918 144.855 36.514C145.284 36.3434 145.723 36.2004 146.17 36.0859L146.509 35.9997L146.681 35.958L146.856 35.933L147.56 35.8273C147.799 35.8023 148.038 35.7967 148.28 35.7828C148.399 35.7828 148.522 35.7634 148.644 35.7828L149.008 35.7995C149.501 35.8176 149.993 35.8687 150.479 35.9524L151.21 36.1276L151.393 36.172C151.455 36.1887 151.513 36.211 151.574 36.2304L151.933 36.3555L152.294 36.4778L152.644 36.6335L152.995 36.7948L153.17 36.8726C153.228 36.9032 153.281 36.9365 153.339 36.9699L154.012 37.3563L154.652 37.8122C156.367 39.0981 157.617 40.9087 158.21 42.9691C158.277 43.2221 158.341 43.4779 158.405 43.7281L158.521 44.4981L158.549 44.69V44.8818L158.569 45.2654L158.588 45.6491L158.571 46.0299L158.555 46.4108V46.5998L158.53 46.7861C158.494 47.0363 158.46 47.2837 158.427 47.5311C158.328 48.0157 158.197 48.4931 158.035 48.96L157.918 49.3048C157.879 49.4215 157.821 49.5272 157.774 49.6384C157.671 49.858 157.582 50.0804 157.471 50.2917C157.359 50.5029 157.234 50.7059 157.117 50.9116L157.029 51.0645C156.995 51.1145 156.959 51.1618 156.926 51.2091L156.723 51.4871C156.454 51.8616 156.162 52.2182 155.847 52.5546C155.689 52.7186 155.519 52.8659 155.358 53.0216L155.11 53.2496C155.03 53.3246 154.935 53.3886 154.849 53.4553L154.326 53.8556C154.148 53.9807 153.957 54.0864 153.77 54.2003C153.414 54.4225 153.042 54.6194 152.658 54.7897L152.519 54.8564L152.375 54.912L152.097 55.0149C151.902 55.0816 151.716 55.1622 151.524 55.2178L150.946 55.3652L150.668 55.4374L150.39 55.4819L149.834 55.5681C149.742 55.5842 149.649 55.5935 149.556 55.5959H149.278C149.094 55.5959 148.911 55.6209 148.722 55.6237L148.185 55.6015C146.912 55.5388 145.662 55.2311 144.505 54.6952C144.377 54.6368 144.249 54.584 144.127 54.5256L143.782 54.3254L143.448 54.1364C143.393 54.103 143.337 54.0752 143.287 54.0419L143.14 53.9362L142.584 53.5359C142.408 53.4025 142.258 53.2579 142.105 53.13L141.889 52.941C141.819 52.8832 141.753 52.821 141.691 52.7547L141.316 52.4211C141.213 52.3099 141.113 52.2099 141.038 52.1126L140.824 51.8346L140.546 51.4593C140.482 51.3759 140.446 51.3342 140.446 51.3342L140.54 51.4648C140.604 51.5538 140.699 51.6789 140.818 51.8457L141.027 52.1237C141.11 52.2238 141.21 52.3238 141.305 52.435L141.638 52.7992C141.699 52.8671 141.765 52.9303 141.836 52.9883L142.053 53.1801C142.203 53.308 142.353 53.4581 142.528 53.5887L143.084 53.9946L143.231 54.1003C143.284 54.1364 143.34 54.1642 143.393 54.1976L143.726 54.3894L144.074 54.5923L144.452 54.7647C145.614 55.3086 146.871 55.6221 148.152 55.6876L148.691 55.7127C148.872 55.7127 149.058 55.696 149.247 55.6876L149.525 55.671C149.618 55.6706 149.712 55.6622 149.803 55.6459L150.373 55.5598L150.651 55.5153L150.929 55.443L151.513 55.2957C151.705 55.2401 151.894 55.1622 152.088 55.0955L152.38 54.9899C152.428 54.9704 152.478 54.9565 152.525 54.9343L152.667 54.8675C153.057 54.6962 153.435 54.4983 153.798 54.2754C153.982 54.1614 154.173 54.0558 154.354 53.9307L154.882 53.5276C154.971 53.4581 155.063 53.3969 155.16 53.3219L155.408 53.0911C155.569 52.9354 155.744 52.7853 155.903 52.6213C156.22 52.2821 156.515 51.9228 156.787 51.5454C156.853 51.4481 156.923 51.3536 156.992 51.2674C157.026 51.2202 157.062 51.1729 157.095 51.1229L157.184 50.9672L157.543 50.3445C157.654 50.1304 157.746 49.9052 157.849 49.6856C157.896 49.5716 157.957 49.4632 157.996 49.3492L158.113 48.999C158.277 48.5287 158.409 48.0475 158.507 47.5589C158.544 47.3115 158.58 47.0585 158.613 46.8083L158.641 46.6193V46.4275L158.658 46.0466L158.674 45.6602L158.655 45.2738L158.633 44.8873V44.69L158.602 44.4981L158.485 43.7225C158.421 43.4668 158.357 43.211 158.291 42.9552C157.704 40.8706 156.45 39.0357 154.721 37.7316L154.076 37.2701L153.395 36.8809C153.339 36.8476 153.284 36.8142 153.225 36.7836L153.048 36.703L152.694 36.5418L152.341 36.3861L151.977 36.261L151.613 36.1359L151.432 36.0747L151.246 36.033C151.001 35.9719 150.754 35.9135 150.509 35.8579C150.019 35.7718 149.523 35.7198 149.025 35.7022L148.658 35.6855C148.536 35.6855 148.413 35.6855 148.291 35.6855C148.046 35.7022 147.804 35.705 147.565 35.73L146.854 35.8384L146.679 35.8662C146.62 35.8662 146.562 35.894 146.506 35.9079L146.161 35.9969C145.711 36.1107 145.269 36.2547 144.838 36.4278C144.627 36.5168 144.424 36.6252 144.218 36.7197L143.915 36.867C143.815 36.9171 143.723 36.981 143.637 37.0394L143.081 37.3841C142.898 37.5064 142.728 37.6482 142.556 37.7761C142.217 38.0318 141.895 38.3105 141.594 38.6101L141.48 38.7185C141.444 38.7547 141.41 38.7964 141.377 38.8353C141.344 38.8742 141.241 38.991 141.171 39.066C141.038 39.2245 140.893 39.3718 140.777 39.5303L140.426 40.0196L140.254 40.2614C140.204 40.3448 140.157 40.431 140.109 40.5144L139.831 41.0148C139.783 41.0957 139.741 41.1803 139.706 41.2678L139.59 41.5235C139.514 41.6931 139.434 41.8599 139.367 42.0295C139.3 42.1991 139.25 42.3714 139.192 42.541C138.789 43.7584 138.624 45.0422 138.708 46.3218C138.764 47.2877 138.967 48.2394 139.312 49.1435L139.412 49.4215C139.439 49.5076 139.474 49.5912 139.515 49.6717L139.731 50.1165C139.801 50.2527 139.856 50.3806 139.92 50.4946L140.104 50.7921L140.357 51.1952C140.39 51.2869 140.424 51.3342 140.424 51.3342Z" fill="#263238"/>
<path d="M143.671 45.9473L145.139 44.4795L147.969 46.9954L153.523 41.6494L154.885 43.1173L147.76 49.8254L143.671 45.9473Z" fill="#1AB6F7"/>
</svg>
